<svg width="26" height="26" viewBox="0 0 26 26" fill="none" xmlns="http://www.w3.org/2000/svg">
<g id="aws">
<g id="aws_2" clip-path="url(#clip0_101_580)">
<path id="Vector" d="M7.48168 11.0845C7.48168 11.3726 7.51228 11.6062 7.56583 11.7775C7.62703 11.9488 7.70352 12.1357 7.81062 12.3382C7.84886 12.4005 7.86416 12.4627 7.86416 12.5173C7.86416 12.5951 7.81827 12.673 7.71882 12.7508L7.2369 13.0779C7.16805 13.1246 7.09921 13.148 7.03801 13.148C6.96151 13.148 6.88502 13.109 6.80852 13.0389C6.70143 12.9221 6.60963 12.7976 6.53314 12.673C6.45664 12.5406 6.38015 12.3927 6.296 12.2136C5.69934 12.9299 4.94968 13.2881 4.04703 13.2881C3.40447 13.2881 2.89195 13.1012 2.51712 12.7275C2.14229 12.3537 1.95105 11.8554 1.95105 11.2325C1.95105 10.5706 2.18054 10.0334 2.64716 9.62848C3.11378 9.22359 3.7334 9.02114 4.5213 9.02114C4.78139 9.02114 5.04912 9.0445 5.33216 9.08343C5.61519 9.12236 5.90587 9.18466 6.21186 9.25473V8.68632C6.21186 8.09455 6.08946 7.68187 5.85233 7.44049C5.60754 7.19911 5.19446 7.08232 4.60545 7.08232C4.33771 7.08232 4.06233 7.11346 3.7793 7.18354C3.49626 7.25362 3.22088 7.33927 2.95314 7.44828C2.83075 7.50278 2.73895 7.53393 2.68541 7.5495C2.63186 7.56507 2.59361 7.57286 2.56301 7.57286C2.45592 7.57286 2.40237 7.495 2.40237 7.33148V6.94995C2.40237 6.82536 2.41767 6.73193 2.45592 6.67742C2.49417 6.62292 2.56301 6.56841 2.67011 6.51391C2.93784 6.37375 3.25913 6.25695 3.63395 6.16352C4.00878 6.06229 4.40656 6.01557 4.82729 6.01557C5.73758 6.01557 6.4031 6.22581 6.83147 6.64627C7.2522 7.06674 7.46639 7.70523 7.46639 8.56174V11.0845H7.48168ZM4.37596 12.2681C4.6284 12.2681 4.88848 12.2214 5.16387 12.1279C5.43925 12.0345 5.68404 11.8632 5.89058 11.6296C6.01297 11.4817 6.10476 11.3181 6.15066 11.1313C6.19656 10.9444 6.22716 10.7186 6.22716 10.4538V10.1268C6.00532 10.0723 5.76818 10.0256 5.5234 9.99445C5.27861 9.9633 5.04147 9.94773 4.80434 9.94773C4.29182 9.94773 3.91699 10.049 3.66455 10.2592C3.41212 10.4694 3.28972 10.7653 3.28972 11.1546C3.28972 11.5206 3.38152 11.7931 3.57276 11.98C3.75635 12.1746 4.02408 12.2681 4.37596 12.2681V12.2681ZM10.5186 13.109C10.3809 13.109 10.2891 13.0857 10.2279 13.0312C10.1667 12.9844 10.1131 12.8754 10.0672 12.7275L8.26959 6.70857C8.22369 6.55284 8.20074 6.45161 8.20074 6.39711C8.20074 6.27253 8.26194 6.20245 8.38433 6.20245H9.13399C9.27933 6.20245 9.37878 6.22581 9.43232 6.28031C9.49352 6.32703 9.53942 6.43604 9.58531 6.58398L10.8704 11.7386L12.0638 6.58398C12.102 6.42825 12.1479 6.32703 12.2091 6.28031C12.2703 6.23359 12.3774 6.20245 12.5151 6.20245H13.1271C13.2724 6.20245 13.3718 6.22581 13.433 6.28031C13.4942 6.32703 13.5478 6.43604 13.5784 6.58398L14.787 11.8009L16.1104 6.58398C16.1563 6.42825 16.2098 6.32703 16.2634 6.28031C16.3246 6.23359 16.424 6.20245 16.5617 6.20245H17.2731C17.3955 6.20245 17.4644 6.26474 17.4644 6.39711C17.4644 6.43604 17.4567 6.47497 17.4491 6.52169C17.4414 6.56841 17.4261 6.6307 17.3955 6.71635L15.552 12.7353C15.5061 12.891 15.4525 12.9922 15.3913 13.0389C15.3301 13.0857 15.2307 13.1168 15.1006 13.1168H14.4428C14.2974 13.1168 14.198 13.0934 14.1368 13.0389C14.0756 12.9844 14.0221 12.8832 13.9915 12.7275L12.8058 7.70523L11.6277 12.7197C11.5895 12.8754 11.5436 12.9767 11.4824 13.0312C11.4212 13.0857 11.3141 13.109 11.1764 13.109H10.5186ZM20.3483 13.3193C19.9505 13.3193 19.5527 13.2725 19.1702 13.1791C18.7877 13.0857 18.4894 12.9844 18.2905 12.8676C18.1681 12.7976 18.084 12.7197 18.0534 12.6496C18.0228 12.5795 18.0075 12.5017 18.0075 12.4316V12.0345C18.0075 11.871 18.0687 11.7931 18.1834 11.7931C18.2293 11.7931 18.2752 11.8009 18.3211 11.8165C18.367 11.832 18.4359 11.8632 18.5124 11.8943C18.7724 12.0111 19.0555 12.1046 19.3538 12.1669C19.6598 12.2292 19.9581 12.2603 20.2641 12.2603C20.746 12.2603 21.1209 12.1746 21.3809 12.0033C21.641 11.832 21.7787 11.5829 21.7787 11.2636C21.7787 11.0456 21.7099 10.8665 21.5722 10.7186C21.4345 10.5706 21.1744 10.4383 20.7996 10.3137L19.6904 9.9633C19.132 9.78421 18.7189 9.51947 18.4665 9.16908C18.214 8.82648 18.084 8.44494 18.084 8.04005C18.084 7.71302 18.1528 7.42492 18.2905 7.17575C18.4282 6.92659 18.6118 6.70857 18.8413 6.53726C19.0708 6.35818 19.3309 6.22581 19.6368 6.13237C19.9428 6.03893 20.2641 6 20.6007 6C20.769 6 20.9449 6.00779 21.1132 6.03115C21.2891 6.05451 21.4498 6.08565 21.6104 6.1168C21.7634 6.15573 21.9088 6.19466 22.0465 6.24138C22.1841 6.2881 22.2912 6.33482 22.3677 6.38154C22.4748 6.44383 22.5513 6.50612 22.5972 6.5762C22.6431 6.63849 22.6661 6.72414 22.6661 6.83315V7.19911C22.6661 7.36263 22.6049 7.44828 22.4901 7.44828C22.4289 7.44828 22.3295 7.41713 22.1994 7.35484C21.7634 7.15239 21.2738 7.05117 20.7307 7.05117C20.2947 7.05117 19.9505 7.12125 19.7133 7.26919C19.4762 7.41713 19.3538 7.64294 19.3538 7.96218C19.3538 8.1802 19.4303 8.36708 19.5833 8.51502C19.7363 8.66296 20.0193 8.81091 20.4247 8.94328L21.511 9.29367C22.0618 9.47275 22.4595 9.72192 22.6967 10.0412C22.9338 10.3604 23.0485 10.7264 23.0485 11.1313C23.0485 11.4661 22.9797 11.7698 22.8497 12.0345C22.712 12.2992 22.5284 12.5328 22.2912 12.7197C22.0541 12.9144 21.7711 13.0545 21.4421 13.1557C21.0979 13.2648 20.7384 13.3193 20.3483 13.3193V13.3193Z" fill="#252F3E"/>
<path id="Vector_2" fill-rule="evenodd" clip-rule="evenodd" d="M21.7939 17.1035C19.2772 18.9956 15.6208 20.0001 12.4768 20.0001C8.07064 20.0001 4.10052 18.3416 1.10189 15.5852C0.864757 15.3671 1.07894 15.0713 1.36198 15.2426C4.60539 17.158 8.60611 18.3182 12.7445 18.3182C15.5366 18.3182 18.6041 17.7264 21.4268 16.5118C21.8475 16.3171 22.207 16.7921 21.7939 17.1035V17.1035Z" fill="#FF9900"/>
<path id="Vector_3" fill-rule="evenodd" clip-rule="evenodd" d="M22.842 15.8888C22.5207 15.4683 20.7154 15.6864 19.8969 15.7876C19.6521 15.8187 19.6139 15.6007 19.8357 15.4372C21.2738 14.4094 23.6375 14.7053 23.9129 15.0479C24.1883 15.3983 23.8364 17.8043 22.4901 18.9567C22.2835 19.1358 22.0846 19.0423 22.1764 18.8087C22.4824 18.0379 23.1632 16.3015 22.842 15.8888V15.8888Z" fill="#FF9900"/>
</g>
</g>
<defs>
<clipPath id="clip0_101_580">
<rect width="23" height="14" fill="white" transform="translate(1 6)"/>
</clipPath>
</defs>
</svg>
