<svg width="26" height="26" viewBox="0 0 26 26" fill="none" xmlns="http://www.w3.org/2000/svg">
<g id="bash">
<g id="Vector">
<path d="M21.5349 5.9017L13.9651 1.40679C13.0698 0.877976 11.9506 0.877976 11.0349 1.40679L3.46512 5.9017C2.56977 6.43052 2 7.42713 2 8.50509V17.4949C2 18.5729 2.54942 19.5492 3.46512 20.0983L11.0349 24.5932C11.4826 24.8576 11.9913 25 12.5 25C13.0087 25 13.5174 24.8576 13.9651 24.5932L21.5349 20.0983C22.4302 19.5695 23 18.5729 23 17.4949V8.48475C23 7.42713 22.4506 6.43052 21.5349 5.9017Z" fill="white"/>
<path d="M21.5349 5.9017L13.9651 1.40679C13.5174 1.14238 13.0087 1 12.5 1C11.9913 1 11.4826 1.14238 11.0349 1.40679L3.46512 5.9017C2.56977 6.43052 2 7.42713 2 8.50509V17.4949C2 18.5729 2.54942 19.5492 3.46512 20.0983L11.0349 24.5932C11.4826 24.8576 11.9913 25 12.5 25C13.0087 25 13.5174 24.8576 13.9651 24.5932L21.5349 20.0983C22.4302 19.5695 23 18.5729 23 17.4949V8.48475C23 7.42713 22.4506 6.43052 21.5349 5.9017ZM11.2994 24.1051L3.72967 19.6102C2.99712 19.1627 2.52909 18.3491 2.52909 17.4746V8.48474C2.52909 7.61017 2.99712 6.77627 3.72967 6.34915L11.2994 1.85424C11.6657 1.63051 12.0727 1.52881 12.5 1.52881C12.9273 1.52881 13.3343 1.65085 13.7006 1.85424L21.2704 6.34915C21.9012 6.71525 22.3082 7.3661 22.4303 8.07796C22.1861 7.54915 21.6163 7.38644 20.9448 7.77288L13.8023 12.2068C12.907 12.7356 12.2558 13.3051 12.2558 14.383V23.2102C12.2558 23.861 12.5204 24.2678 12.907 24.3898C12.7849 24.4102 12.6425 24.4305 12.5 24.4305C12.093 24.4508 11.6657 24.3288 11.2994 24.1051Z" fill="#2A3238"/>
<path d="M19.561 18.3491L17.6686 19.4678C17.6279 19.4881 17.5872 19.5288 17.5872 19.5898V20.0779C17.5872 20.139 17.6279 20.1593 17.6686 20.139L19.5814 18.9796C19.6221 18.9593 19.6424 18.8983 19.6424 18.8373V18.4102C19.6424 18.3491 19.6017 18.3288 19.561 18.3491Z" fill="#4DA925"/>
<path d="M15.532 14.2C15.593 14.1593 15.6337 14.2 15.6541 14.2813V14.9322C15.9186 14.8305 16.1628 14.7898 16.3866 14.8508C16.4273 14.8712 16.4477 14.9322 16.4273 14.9932L16.2849 15.5627C16.2645 15.6034 16.2442 15.6441 16.2238 15.6847C16.2035 15.7051 16.2035 15.7051 16.1831 15.7051C16.1628 15.7051 16.1424 15.7254 16.1221 15.7051C16.0203 15.6847 15.7965 15.6237 15.4302 15.8271C15.0436 16.0305 14.9012 16.3559 14.9215 16.6C14.9215 16.9051 15.0843 16.9864 15.593 16.9864C16.2849 17.0068 16.5901 17.3119 16.6105 18.0034C16.6105 18.6949 16.2442 19.4474 15.6744 19.8949L15.6948 20.5458C15.6948 20.6271 15.6541 20.7085 15.593 20.7491L15.2064 20.9729C15.1453 21.0135 15.1046 20.9729 15.0843 20.8915V20.261C14.7587 20.4034 14.4331 20.4237 14.2093 20.3424C14.1686 20.322 14.1483 20.261 14.1686 20.2L14.311 19.6102C14.3314 19.5695 14.3517 19.5085 14.3721 19.4881C14.3924 19.4678 14.3924 19.4678 14.4128 19.4678C14.4331 19.4474 14.4535 19.4474 14.4738 19.4678C14.6977 19.5491 15.0029 19.5085 15.2674 19.3661C15.6337 19.183 15.8576 18.8169 15.8576 18.4508C15.8576 18.1254 15.6744 17.983 15.2471 17.983C14.6977 17.983 14.1889 17.8813 14.1686 17.0678C14.1686 16.3966 14.5145 15.7051 15.0639 15.278V14.6271C15.0639 14.5458 15.1046 14.4644 15.1657 14.4237L15.532 14.2Z" fill="white"/>
</g>
</g>
</svg>
