<svg width="22" height="22" viewBox="0 0 22 22" fill="none" xmlns="http://www.w3.org/2000/svg">
<path d="M0 19.1633C0 20.7301 1.27007 22 2.83671 22H19.1632C20.7301 22 22 20.7299 22 19.1633V2.8368C22 1.2699 20.7299 0 19.1633 0H2.8368C1.2699 0 0 1.27007 0 2.83671V19.1632V19.1633Z" fill="#563D7C"/>
<path d="M9.12298 9.73139V6.6159H11.8653C12.1266 6.6159 12.3784 6.63764 12.6209 6.68121C12.8634 6.7247 13.078 6.80238 13.2646 6.91436C13.4511 7.02634 13.6003 7.1818 13.7123 7.38074C13.8242 7.57977 13.8802 7.83475 13.8802 8.14559C13.8802 8.7053 13.7123 9.10955 13.3765 9.35825C13.0407 9.60704 12.6116 9.73139 12.0892 9.73139H9.12298ZM6.19397 4.33984V17.6602H12.6489C13.2459 17.6602 13.8274 17.5856 14.3933 17.4363C14.9592 17.287 15.4629 17.057 15.9044 16.746C16.3459 16.4351 16.6973 16.034 16.9584 15.5427C17.2197 15.0514 17.3502 14.47 17.3502 13.7984C17.3502 12.965 17.1481 12.2531 16.7439 11.6623C16.3397 11.0715 15.7271 10.658 14.9062 10.4216C15.5033 10.1356 15.9542 9.76869 16.2589 9.32095C16.5636 8.87322 16.7159 8.31359 16.7159 7.64191C16.7159 7.02006 16.6133 6.49773 16.4081 6.07484C16.2029 5.65202 15.9137 5.31309 15.5406 5.05811C15.1675 4.80313 14.7198 4.61966 14.1973 4.50777C13.675 4.39579 13.0967 4.33984 12.4624 4.33984H6.19397ZM9.12298 15.3841V11.7275H12.3131C12.9474 11.7275 13.4573 11.8736 13.8429 12.166C14.2285 12.4583 14.4213 12.9464 14.4213 13.6305C14.4213 13.9788 14.3622 14.2648 14.244 14.4886C14.1258 14.7125 13.9673 14.8898 13.7683 15.0203C13.5693 15.151 13.3392 15.2442 13.078 15.3002C12.8168 15.3561 12.5432 15.3841 12.2571 15.3841H9.12298Z" fill="white"/>
</svg>
