<svg width="23" height="27" viewBox="0 0 23 27" fill="none" xmlns="http://www.w3.org/2000/svg">
<path d="M7.39915 26.9982C7.39892 26.9981 7.39869 26.998 7.39846 26.9979C4.11611 26.2593 1.20958 24.171 0.302737 20.8907C-0.604756 17.6079 0.630138 14.2984 2.64728 11.667C3.65585 10.3523 4.83546 9.17233 6.06249 8.0522C7.20475 7.00929 8.46312 6.05094 9.49782 4.90311C10.5649 3.71899 11.8987 1.60094 10.8863 0C12.7244 1.3425 14.2069 3.58593 13.9591 5.89684C13.7611 7.74074 12.3459 9.6181 13.7321 11.3593C14.5943 12.4418 16.3398 12.2148 16.9846 11.1694L16.9371 11.2193C17.0476 11.0475 17.1284 10.8592 17.1764 10.6618C17.1798 10.5016 17.1507 10.3226 17.062 10.1123L17.2309 10.2024C20.4627 11.8404 23.0716 14.7015 22.9985 18.4193C22.9103 22.9382 18.6034 26.1007 14.4352 27C16.4077 26.2404 18.1663 24.7358 18.4058 22.5724C18.6268 20.5764 17.5323 18.8555 16.0501 17.5828C14.6411 16.3718 12.9596 15.591 11.4272 14.5579C10.5437 13.9625 9.20292 12.7671 9.67477 11.5549C9.06091 12.0715 8.57634 12.7941 8.38517 13.5656C8.0033 15.1046 8.97382 16.3033 9.97707 17.3645C10.9918 18.4361 10.9132 20.2755 9.20165 20.6418C8.46913 20.7976 7.69336 20.5105 7.25043 19.9198C6.77396 19.2845 6.87885 18.6348 7.07117 17.9244C5.47141 19.0315 4.18517 20.7159 4.18968 22.7C4.19338 24.5196 5.74264 26.2979 7.39846 26.9979C7.39873 26.998 7.399 26.998 7.39927 26.9981L7.39915 26.9982Z" fill="#EE4323"/>
</svg>
