<svg width="25" height="27" viewBox="0 0 25 27" fill="none" xmlns="http://www.w3.org/2000/svg">
<path d="M24.9987 7.93797C24.9985 7.48398 24.8974 7.08282 24.6931 6.73861C24.4924 6.39995 24.1918 6.11618 23.7886 5.89182C20.4604 4.04775 17.129 2.20932 13.8019 0.363371C12.9049 -0.134234 12.0353 -0.115999 11.1449 0.388749C9.82021 1.13939 3.18782 4.79077 1.21145 5.89078C0.397523 6.34365 0.00146724 7.03657 0.0012716 7.93713C0 11.6457 0.0012716 15.3542 0 19.0627C0 19.5068 0.0969354 19.9002 0.292273 20.2393C0.493089 20.5881 0.797883 20.8796 1.21037 21.1091C3.18684 22.2091 9.82012 25.8602 11.1445 26.6111C12.0353 27.1161 12.9049 27.1342 13.8022 26.6365C17.1294 24.7904 20.461 22.952 23.7897 21.1079C24.2022 20.8786 24.507 20.5868 24.7078 20.2383C24.9028 19.8992 24.9999 19.5058 24.9999 19.0617C24.9999 19.0617 24.9999 11.6466 24.9987 7.93797Z" fill="#A179DC"/>
<path d="M12.5382 13.4639L0.292236 20.2393C0.493052 20.5881 0.797846 20.8797 1.21034 21.1091C3.1868 22.2092 9.82008 25.8603 11.1445 26.6112C12.0352 27.1162 12.9049 27.1343 13.8022 26.6366C17.1294 24.7905 20.461 22.9521 23.7896 21.108C24.2021 20.8787 24.5069 20.5869 24.7077 20.2384L12.5382 13.4639Z" fill="#280068"/>
<path d="M24.9987 7.93789C24.9985 7.4839 24.8974 7.08273 24.6931 6.73853L12.5382 13.4638L24.7078 20.2383C24.9028 19.8991 24.9998 19.5058 24.9999 19.0616C24.9999 19.0616 24.9999 11.6465 24.9987 7.93789Z" fill="#390091"/>
<path d="M19.7482 10.9309V12.1974H21.0662V10.9309H21.7252V12.1974H23.0432V12.8306H21.7252V14.097H23.0432V14.7302H21.7252V15.9967H21.0662V14.7302H19.7482V15.9967H19.0892V14.7302H17.7714V14.097H19.0892V12.8306H17.7714V12.1974H19.0892V10.9309H19.7482ZM21.0662 12.8305H19.7482V14.097H21.0662V12.8305Z" fill="white"/>
<path d="M12.5651 4.57065C16.0027 4.57065 19.004 6.36462 20.6116 9.03123L20.5959 9.00557L16.5512 11.2434C15.7544 9.94692 14.2937 9.07193 12.6178 9.05389L12.565 9.0536C10.0095 9.0536 7.93778 11.0444 7.93778 13.5C7.93695 14.274 8.14737 15.0346 8.54806 15.706C9.34565 17.044 10.8451 17.9465 12.5651 17.9465C14.2957 17.9465 15.8036 17.0326 16.5971 15.6803L16.5779 15.7127L20.6164 17.9609C19.0264 20.6049 16.0662 22.3933 12.6685 22.429L12.5651 22.4295C9.11656 22.4295 6.10677 20.6245 4.50318 17.9437C3.72036 16.6351 3.27246 15.1179 3.27246 13.5C3.27246 8.5685 7.43276 4.57056 12.565 4.57056L12.5651 4.57065Z" fill="white"/>
</svg>
