<svg width="26" height="26" viewBox="0 0 26 26" fill="none" xmlns="http://www.w3.org/2000/svg">
<g id="docker">
<g id="docker_2">
<path id="Vector" d="M24.7633 10.4173C24.6982 10.3663 24.0906 9.91337 22.8091 9.91337C22.4708 9.91483 22.1331 9.94348 21.7994 9.99904C21.5514 8.32099 20.146 7.50285 20.083 7.46615L19.7388 7.27026L19.5125 7.59263C19.2291 8.02567 19.0222 8.50304 18.9008 9.00445C18.6713 9.96234 18.8108 10.862 19.3038 11.6312C18.7085 11.9587 17.7537 12.0393 17.5604 12.0464H1.75126C1.33833 12.0469 1.00326 12.3763 1.00101 12.7839C0.982568 14.151 1.21721 15.51 1.69339 16.7939C2.23799 18.2037 3.0482 19.2422 4.10229 19.8777C5.28348 20.5918 7.20253 20.9998 9.37785 20.9998C10.3606 21.0029 11.3414 20.9151 12.3076 20.7376C13.6507 20.4942 14.943 20.0308 16.1312 19.3666C17.1103 18.8069 17.9914 18.095 18.7406 17.2581C19.9931 15.8585 20.7393 14.2997 21.2942 12.9145H21.5153C22.8866 12.9145 23.7299 12.3728 24.195 11.9189C24.504 11.6294 24.7453 11.2767 24.9018 10.8855L25 10.6019L24.7633 10.4173Z" fill="#2496ED"/>
<path id="Vector_2" d="M3.21665 11.5895H5.33514C5.43732 11.5895 5.52011 11.5078 5.52011 11.4069V9.54421C5.52068 9.44335 5.43832 9.36116 5.33618 9.3606C5.33585 9.3606 5.33548 9.3606 5.33514 9.3606H3.21665C3.11447 9.3606 3.03168 9.44236 3.03168 9.54318V9.54421V11.4069C3.03168 11.5078 3.11447 11.5895 3.21665 11.5895V11.5895Z" fill="#2496ED"/>
<path id="Vector_3" d="M6.13606 11.5895H8.25455C8.35673 11.5895 8.43952 11.5078 8.43952 11.4069V9.54421C8.44009 9.44335 8.35773 9.36116 8.25556 9.3606C8.25522 9.3606 8.25485 9.3606 8.25452 9.3606H6.13602C6.03328 9.3606 5.95001 9.44279 5.95001 9.54421V11.4069C5.95062 11.5079 6.03371 11.5895 6.13606 11.5895" fill="#2496ED"/>
<path id="Vector_4" d="M9.09986 11.5895H11.2184C11.3205 11.5895 11.4033 11.5078 11.4033 11.4069V9.54421C11.4039 9.44335 11.3215 9.36116 11.2194 9.3606C11.219 9.3606 11.2187 9.3606 11.2183 9.3606H9.09982C8.99765 9.3606 8.91486 9.44236 8.91486 9.54318V9.54421V11.4069C8.91489 11.5078 8.99772 11.5895 9.09986 11.5895V11.5895Z" fill="#2496ED"/>
<path id="Vector_5" d="M12.0285 11.5895H14.147C14.2494 11.5895 14.3325 11.508 14.333 11.4069V9.54421C14.333 9.44279 14.2498 9.3606 14.147 9.3606H12.0285C11.9264 9.3606 11.8436 9.44236 11.8436 9.54318V9.54421V11.4069C11.8436 11.5078 11.9264 11.5895 12.0285 11.5895V11.5895Z" fill="#2496ED"/>
<path id="Vector_6" d="M6.13602 8.90981H8.25452C8.35683 8.90924 8.43949 8.82718 8.43949 8.72619V6.86349C8.43949 6.76264 8.35666 6.68091 8.25452 6.68091H6.13602C6.03371 6.68091 5.95058 6.76247 5.95001 6.86349V8.72619C5.95058 8.82738 6.03351 8.90924 6.13602 8.90981Z" fill="#2496ED"/>
<path id="Vector_7" d="M9.09983 8.90981H11.2183C11.3206 8.90924 11.4033 8.82718 11.4033 8.72619V6.86349C11.4033 6.76264 11.3205 6.68091 11.2183 6.68091H9.09983C8.99765 6.68091 8.91486 6.76267 8.91486 6.86349V8.72619C8.91486 8.82718 8.99752 8.90924 9.09983 8.90981Z" fill="#2496ED"/>
<path id="Vector_8" d="M12.0285 8.90981H14.147C14.2495 8.90924 14.3325 8.82738 14.333 8.72619V6.86349C14.3325 6.76247 14.2494 6.68091 14.147 6.68091H12.0285C11.9264 6.68091 11.8436 6.76267 11.8436 6.86349V8.72619C11.8436 8.82718 11.9262 8.90924 12.0285 8.90981Z" fill="#2496ED"/>
<path id="Vector_9" d="M12.0285 6.22893H14.147C14.2494 6.22893 14.3325 6.14734 14.333 6.04634V4.18259C14.3325 4.08156 14.2494 4 14.147 4H12.0285C11.9264 4 11.8436 4.08173 11.8436 4.18259V6.04631C11.8436 6.14717 11.9264 6.22893 12.0285 6.22893Z" fill="#2496ED"/>
<path id="Vector_10" d="M14.9831 11.5895H17.1016C17.2039 11.5895 17.287 11.508 17.2876 11.4069V9.54421C17.2876 9.44279 17.2043 9.3606 17.1016 9.3606H14.9831C14.8809 9.3606 14.7981 9.44236 14.7981 9.54318V9.54421V11.4069C14.7981 11.5078 14.8809 11.5895 14.9831 11.5895" fill="#2496ED"/>
</g>
</g>
</svg>
