<svg width="26" height="26" viewBox="0 0 26 26" fill="none" xmlns="http://www.w3.org/2000/svg">
<g clip-path="url(#clip0_11_334)">
<path d="M13 26C20.1797 26 26 20.1797 26 13C26 5.8203 20.1797 0 13 0C5.8203 0 0 5.8203 0 13C0 20.1797 5.8203 26 13 26Z" fill="#5C2D91"/>
<path opacity="0.1" d="M3.98942 3.65625C2.66787 4.83389 1.60075 6.26902 0.85346 7.87367C0.10617 9.47831 -0.305542 11.2187 -0.356441 12.9881C-0.407339 14.7574 -0.0963517 16.5186 0.55746 18.1635C1.21127 19.8085 2.19413 21.3026 3.4458 22.5543C4.69746 23.8059 6.19156 24.7888 7.83651 25.4426C9.48146 26.0964 11.2426 26.4074 13.012 26.3565C14.7814 26.3056 16.5217 25.8939 18.1264 25.1466C19.731 24.3993 21.1662 23.3322 22.3438 22.0106L3.98942 3.65625Z" fill="white"/>
<path d="M3.00621 16.7577C2.93038 16.7589 2.85512 16.7444 2.7852 16.715C2.71527 16.6856 2.6522 16.6421 2.59996 16.5871C2.54629 16.5341 2.50388 16.4707 2.47526 16.4009C2.44663 16.3311 2.4324 16.2563 2.4334 16.1808C2.43286 16.1055 2.4473 16.0307 2.4759 15.961C2.50449 15.8912 2.54666 15.8279 2.59996 15.7746C2.65169 15.7187 2.71457 15.6742 2.78455 15.6441C2.85453 15.614 2.93004 15.599 3.00621 15.5999C3.08227 15.5997 3.15756 15.6151 3.22743 15.6452C3.2973 15.6752 3.36028 15.7193 3.41246 15.7746C3.46668 15.8274 3.50972 15.8906 3.53903 15.9604C3.56835 16.0302 3.58333 16.1051 3.58309 16.1808C3.5838 16.2566 3.56903 16.3317 3.53969 16.4016C3.51035 16.4714 3.46706 16.5345 3.41246 16.5871C3.35978 16.6415 3.29662 16.6847 3.2268 16.714C3.15698 16.7433 3.08194 16.7582 3.00621 16.7577Z" fill="white"/>
<path d="M11.0785 16.6562H10.0141L6.20756 10.7493C6.1129 10.6037 6.03392 10.4484 5.97193 10.2862H5.93943C5.97562 10.6234 5.98919 10.9627 5.98006 11.3018V16.6562H5.11475V9.25024H6.24006L9.94506 15.0515C10.0994 15.2925 10.1996 15.4577 10.2457 15.5471H10.266C10.2231 15.1859 10.2055 14.8221 10.2132 14.4584V9.25024H11.0785V16.6562Z" fill="white"/>
<path d="M16.9366 16.6562H13V9.25024H16.7538V10.0343H13.8856V12.4962H16.5587V13.2762H13.8856V15.8437H16.9406L16.9366 16.6562Z" fill="white"/>
<path d="M22.75 10.0343H20.5968V16.6562H19.7315V10.0343H17.6028V9.25024H22.75V10.0343Z" fill="white"/>
</g>
<defs>
<clipPath id="clip0_11_334">
<rect width="26" height="26" fill="white"/>
</clipPath>
</defs>
</svg>
