<svg width="27" height="27" viewBox="0 0 27 27" fill="none" xmlns="http://www.w3.org/2000/svg">
<g clip-path="url(#clip0_11_342)">
<path d="M27 20.9116C26.6071 21.0602 26.1733 21.0599 25.7805 20.9107C25.3878 20.7614 25.0633 20.4737 24.8681 20.1016L20.9869 14.7342L20.4244 13.9838L15.921 20.1083C15.7376 20.4648 15.4307 20.7423 15.0576 20.8888C14.6845 21.0354 14.2708 21.0411 13.8938 20.9048L19.6965 13.1198L14.2988 6.08746C14.6869 5.9476 15.1113 5.94574 15.5007 6.08221C15.89 6.21868 16.2204 6.48514 16.4363 6.83671L20.4593 12.2705L24.5048 6.85921C24.6896 6.5091 24.9966 6.2391 25.3675 6.10054C25.7383 5.96199 26.1472 5.96454 26.5163 6.10771L24.4215 8.88759L21.5843 12.581C21.5055 12.6512 21.4424 12.7374 21.3993 12.8338C21.3561 12.9301 21.3338 13.0345 21.3338 13.1401C21.3338 13.2457 21.3561 13.3501 21.3993 13.4464C21.4424 13.5428 21.5055 13.6289 21.5843 13.6992L26.9888 20.9127L27 20.9116ZM0.0022635 13.0231L0.474764 10.6887C1.77301 6.07284 7.06501 4.15246 10.7055 7.00996C12.8374 8.68509 13.3695 11.0566 13.2649 13.7296H1.25551C1.06089 18.503 4.50564 21.3852 8.91001 19.9126C9.62401 19.6556 10.2631 19.2255 10.77 18.6608C11.277 18.0962 11.6359 17.4146 11.8148 16.6771C12.0476 15.9278 12.4313 15.7996 13.1355 16.0156C13.0182 16.9295 12.6951 17.8049 12.1906 18.576C11.6861 19.3471 11.0133 19.9937 10.2229 20.4672C8.91723 21.1814 7.41919 21.4645 5.94297 21.2759C4.46674 21.0874 3.08791 20.437 2.00364 19.4176C0.931546 18.2109 0.283599 16.6866 0.158638 15.0773C0.158638 14.813 0.0686385 14.5655 0.0078885 14.3281C0.00241203 13.8935 -0.000213027 13.4588 1.34958e-05 13.0242L0.0022635 13.0231ZM1.27014 12.7013H12.1309C12.0634 9.24084 9.87976 6.78609 6.96714 6.76359C3.72489 6.71859 1.40514 9.11934 1.26226 12.6856L1.27014 12.7013Z" fill="black"/>
</g>
<defs>
<clipPath id="clip0_11_342">
<rect width="27" height="27" fill="white"/>
</clipPath>
</defs>
</svg>
