<svg width="27" height="27" viewBox="0 0 27 27" fill="none" xmlns="http://www.w3.org/2000/svg">
<path d="M0.564455 14.8627C-0.188152 14.1101 -0.188152 12.8899 0.564455 12.1373L12.1373 0.564455C12.8899 -0.188152 14.1101 -0.188152 14.8627 0.564455L26.4355 12.1373C27.1882 12.8899 27.1882 14.1101 26.4355 14.8627L14.8627 26.4355C14.1101 27.1882 12.8899 27.1882 12.1373 26.4355L0.564455 14.8627Z" fill="#EE513B"/>
<path d="M9.7864 2.95215L8.6145 4.12408L11.6413 7.15089C11.5188 7.41358 11.4505 7.70655 11.4505 8.0155C11.4505 8.89262 12.0016 9.641 12.7764 9.93327V17.3376C12.0016 17.6299 11.4505 18.3783 11.4505 19.2554C11.4505 20.3871 12.3679 21.3045 13.4996 21.3045C14.6313 21.3045 15.5487 20.3871 15.5487 19.2554C15.5487 18.4603 15.0958 17.7708 14.4338 17.4312V9.9434L17.3271 12.8367C17.2106 13.0941 17.1458 13.3798 17.1458 13.6807C17.1458 14.8124 18.0633 15.7298 19.1949 15.7298C20.3266 15.7298 21.2441 14.8124 21.2441 13.6807C21.2441 12.549 20.3266 11.6316 19.1949 11.6316C18.975 11.6316 18.7632 11.6662 18.5646 11.7303L15.4572 8.62291C15.5167 8.43101 15.5487 8.22697 15.5487 8.0155C15.5487 6.8838 14.6313 5.96637 13.4996 5.96637C13.2881 5.96637 13.0842 5.99842 12.8922 6.0579L9.7864 2.95215Z" fill="white"/>
</svg>
