<svg width="23" height="23" viewBox="0 0 23 23" fill="none" xmlns="http://www.w3.org/2000/svg">
<g clip-path="url(#clip0_11_301)">
<path d="M19.55 0H3.45C1.54462 0 0 1.54462 0 3.45V19.55C0 21.4554 1.54462 23 3.45 23H19.55C21.4554 23 23 21.4554 23 19.55V3.45C23 1.54462 21.4554 0 19.55 0Z" fill="#F7DF1E"/>
<path d="M14.5547 16.6211C15.0039 17.3848 15.6328 17.9238 16.666 17.9238C17.5645 17.9238 18.1484 17.4746 18.1484 16.8457C18.1484 16.127 17.5645 15.8574 16.5762 15.4082L16.0371 15.1836C14.4648 14.5098 13.4316 13.7012 13.4316 11.9492C13.4316 10.332 14.6445 9.07422 16.5762 9.07422C17.9688 9.07422 18.957 9.56836 19.6309 10.8262L17.9688 11.9043C17.6094 11.2305 17.2051 10.9609 16.5762 10.9609C15.9473 10.9609 15.543 11.3652 15.543 11.9043C15.543 12.5332 15.9473 12.8027 16.8906 13.207L17.4297 13.4316C19.2715 14.2402 20.3047 15.0039 20.3047 16.8457C20.3047 18.7773 18.7773 19.8555 16.7109 19.8555C14.6895 19.8555 13.3867 18.9121 12.7578 17.6543L14.5547 16.6211ZM6.91797 16.8008C7.27734 17.3848 7.54688 17.9238 8.31055 17.9238C9.0293 17.9238 9.47852 17.6543 9.47852 16.5762V9.11914H11.6348V16.4863C11.6348 18.7324 10.332 19.7207 8.40039 19.7207C6.64844 19.7207 5.66016 18.8223 5.16602 17.7441L6.91797 16.8008Z" fill="black"/>
</g>
<defs>
<clipPath id="clip0_11_301">
<rect width="23" height="23" fill="white"/>
</clipPath>
</defs>
</svg>
