<svg width="27" height="29" viewBox="0 0 27 29" fill="none" xmlns="http://www.w3.org/2000/svg">
<path d="M25.3087 14.2783C25.3087 13.5625 25.0163 12.876 24.4957 12.3698C23.9752 11.8636 23.2692 11.5793 22.533 11.5793C22.4356 11.5792 22.3381 11.584 22.2412 11.5938L26.0543 0.658691H9.85075L13.6585 11.5844C13.6031 11.5844 13.5467 11.5793 13.4902 11.5793C12.8274 11.5785 12.1862 11.8085 11.6825 12.2275C11.1789 12.6465 10.8461 13.227 10.7443 13.8639C10.6425 14.5007 10.7785 15.152 11.1276 15.6999C11.4767 16.2478 12.0159 16.6561 12.6477 16.851C12.0573 17.8396 11.3221 18.7394 10.4653 19.5221C9.35001 20.5589 8.02495 21.3585 6.57447 21.8701C5.76179 21.4956 5.12621 20.8343 4.79682 20.0206C4.46743 19.2069 4.46895 18.3017 4.80106 17.489C4.88307 17.3026 4.96615 17.1141 5.04497 16.9256C5.66385 16.7839 6.21397 16.4399 6.6034 15.9512C6.99283 15.4625 7.19798 14.8586 7.18457 14.2404C7.17115 13.6223 6.93999 13.0274 6.52971 12.5551C6.11943 12.0827 5.55488 11.7617 4.9304 11.6454C4.30592 11.5292 3.65933 11.6249 3.09869 11.9165C2.53805 12.2082 2.09731 12.6781 1.85013 13.2477C1.60294 13.8173 1.56428 14.4522 1.7406 15.0462C1.91693 15.6402 2.29755 16.1574 2.81888 16.5113C1.93288 18.0735 1.25669 19.7397 0.806888 21.4693C0.429838 23.6805 0.806888 26.0264 2.77202 27.3532C7.352 30.4406 12.325 25.4392 17.5675 24.1829C19.4676 23.7271 21.5531 23.8007 23.2264 22.8582C23.8309 22.5234 24.3523 22.0633 24.7534 21.5105C25.1545 20.9578 25.4255 20.326 25.5473 19.6599C25.6586 19.0252 25.6377 18.3753 25.4856 17.7486C25.3336 17.122 25.0535 16.5314 24.6622 16.0121C25.0797 15.5269 25.3083 14.9141 25.3076 14.2814L25.3087 14.2783ZM16.267 14.2928V14.2835C16.2678 13.819 16.145 13.3622 15.9106 12.9575C15.6762 12.5528 15.3381 12.214 14.9292 11.9739L17.9584 6.00712L20.9939 12.0288C20.6131 12.2748 20.3009 12.6088 20.0851 13.0008C19.8693 13.3928 19.7567 13.8306 19.7573 14.2752C19.7573 14.2949 19.7573 14.3146 19.7573 14.3343L16.267 14.2928Z" fill="#C63D14"/>
<path d="M25.9871 14.2783C25.986 13.4957 25.7043 12.738 25.1904 12.1357C24.6766 11.5333 23.9628 11.1241 23.172 10.9786L27 0H8.90589L12.7403 11.0003C12.0709 11.1458 11.4612 11.4819 10.9891 11.9658C10.517 12.4496 10.2038 13.0593 10.0895 13.7169C9.97525 14.3746 10.065 15.0505 10.3475 15.6583C10.6299 16.2661 11.0921 16.7784 11.6752 17.1297C11.1935 17.8255 10.6333 18.4668 10.0051 19.0416C9.03261 19.9463 7.88983 20.6602 6.63933 21.1441C6.05248 20.8128 5.60763 20.2875 5.38591 19.6639C5.16419 19.0403 5.18037 18.3599 5.4315 17.747L5.4741 17.6506L5.55292 17.4694C6.2628 17.2301 6.87315 16.7723 7.29154 16.1655C7.70993 15.5586 7.91358 14.8358 7.87163 14.1063C7.82969 13.3768 7.54445 12.6805 7.0591 12.1228C6.57375 11.5651 5.91473 11.1764 5.18183 11.0155C4.44894 10.8546 3.6821 10.9304 2.99743 11.2312C2.31276 11.5321 1.74755 12.0417 1.3874 12.6829C1.02726 13.3241 0.891783 14.0619 1.0015 14.7847C1.11121 15.5075 1.46014 16.1758 1.99545 16.6885C1.88041 16.9277 1.75899 17.1701 1.63437 17.4197C0.943789 18.6544 0.441483 19.9801 0.143218 21.3554C-0.352059 24.2554 0.446774 26.5785 2.39167 27.8887C3.43573 28.6147 4.68796 29.0034 5.97151 29C8.24232 29 10.5398 27.8907 12.7882 26.8053C14.3592 25.9745 16.0166 25.3086 17.7325 24.8188C18.347 24.6717 18.9797 24.5827 19.6497 24.4884C21.0145 24.3824 22.3455 24.0208 23.5693 23.4237C24.2594 23.0404 24.8544 22.5142 25.3122 21.8823C25.77 21.2505 26.0793 20.5286 26.2182 19.7676C26.4445 18.4748 26.1832 17.146 25.4822 16.0256C25.8138 15.4995 25.9889 14.8943 25.9881 14.2773L25.9871 14.2783ZM24.6312 14.2783C24.6312 14.6819 24.5081 15.0764 24.2776 15.4119C24.047 15.7474 23.7193 16.009 23.3359 16.1634C22.9525 16.3178 22.5306 16.3582 22.1236 16.2795C21.7165 16.2008 21.3427 16.0064 21.0492 15.7211C20.7558 15.4357 20.5559 15.0722 20.475 14.6764C20.394 14.2806 20.4356 13.8704 20.5944 13.4975C20.7532 13.1247 21.0221 12.8061 21.3672 12.5819C21.7122 12.3577 22.1179 12.238 22.5329 12.238C23.0892 12.2385 23.6226 12.4537 24.016 12.8362C24.4094 13.2187 24.6306 13.7374 24.6312 14.2783ZM25.1073 1.31846L21.7266 11.0127C21.5819 11.0468 21.4395 11.09 21.3006 11.1422L17.9615 4.51364L14.6117 11.1028C14.4659 11.0537 14.3167 11.0143 14.1654 10.9848L10.7965 1.31846H25.1073ZM13.4901 12.238C13.9051 12.238 14.3108 12.3577 14.6559 12.5819C15.0009 12.8061 15.2699 13.1247 15.4287 13.4975C15.5875 13.8704 15.629 14.2806 15.5481 14.6764C15.4671 15.0722 15.2673 15.4357 14.9738 15.7211C14.6804 16.0064 14.3065 16.2008 13.8995 16.2795C13.4925 16.3582 13.0706 16.3178 12.6872 16.1634C12.3037 16.009 11.976 15.7474 11.7455 15.4119C11.5149 15.0764 11.3919 14.6819 11.3919 14.2783C11.3924 13.7374 11.6137 13.2187 12.0071 12.8362C12.4004 12.4537 12.9338 12.2385 13.4901 12.238ZM4.41325 12.2577C4.82843 12.2579 5.23421 12.3778 5.57925 12.6024C5.92428 12.827 6.19305 13.146 6.35154 13.5191C6.51003 13.8923 6.55112 14.3028 6.46961 14.6986C6.38809 15.0945 6.18764 15.4579 5.89361 15.743C5.59959 16.028 5.22522 16.2218 4.81787 16.2999C4.41052 16.3779 3.98852 16.3367 3.60527 16.1815C3.22202 16.0262 2.89474 15.7639 2.66487 15.4277C2.435 15.0915 2.31286 14.6966 2.31391 14.2928C2.31448 13.7519 2.53573 13.2332 2.92911 12.8507C3.32249 12.4682 3.85586 12.253 4.41218 12.2525L4.41325 12.2577ZM24.8815 19.5429C24.7762 20.1138 24.5431 20.6552 24.1988 21.1288C23.8544 21.6024 23.4071 21.9965 22.8887 22.2834C21.813 22.7912 20.6482 23.0966 19.4558 23.1834C18.7827 23.2777 18.0871 23.375 17.4065 23.5387C15.5947 24.0488 13.8449 24.7478 12.1875 25.6236C8.81748 27.2507 5.90334 28.6561 3.16387 26.8074C1.15401 25.4527 1.24667 22.9462 1.481 21.5729C1.75675 20.3231 2.21666 19.1185 2.84647 17.9966C2.94446 17.8008 3.04032 17.6082 3.13405 17.4176C3.42015 17.5288 3.72038 17.602 4.02661 17.6351C3.75553 18.5662 3.83127 19.5604 4.24049 20.4425C4.64971 21.3246 5.36612 22.0378 6.26335 22.4563L6.5243 22.5868L6.80016 22.4916C8.33892 21.9515 9.74471 21.1048 10.9275 20.0058C11.7087 19.2912 12.395 18.4843 12.9704 17.604C13.7065 17.7129 14.4591 17.5874 15.1158 17.2463C15.7726 16.9052 16.2984 16.3667 16.6146 15.7112C16.9309 15.0557 17.0207 14.3184 16.8707 13.6092C16.7207 12.9 16.3389 12.257 15.7822 11.7761L17.9529 7.50789L20.146 11.8579C19.522 12.4426 19.1471 13.2343 19.0958 14.0755C19.0445 14.9166 19.3206 15.7458 19.8691 16.3982C20.4176 17.0506 21.1985 17.4784 22.0565 17.5966C22.9145 17.7149 23.7868 17.5149 24.5002 17.0365C24.8957 17.8127 25.0281 18.6909 24.8783 19.545L24.8815 19.5429Z" fill="white"/>
</svg>
