<svg width="28" height="27" viewBox="0 0 28 27" fill="none" xmlns="http://www.w3.org/2000/svg">
<path d="M1.64008 18.6019C1.66691 18.6629 1.69725 18.7193 1.72991 18.7756C1.74508 18.8085 1.76608 18.8425 1.78475 18.8731C1.81508 18.9341 1.84775 18.9928 1.87925 19.0515L2.06242 19.3614C2.09625 19.4189 2.12892 19.4753 2.16742 19.5316C2.23159 19.642 2.30742 19.75 2.37392 19.8603C2.40425 19.9061 2.43225 19.9519 2.46609 19.9977C2.59442 20.1984 2.71109 20.3651 2.83592 20.5271C2.92459 20.648 3.01326 20.7666 3.10893 20.8851C3.14043 20.9298 3.17543 20.9744 3.2081 21.019L3.46593 21.3336C3.49743 21.37 3.52893 21.4122 3.56277 21.4498C3.6771 21.5883 3.79844 21.7221 3.91977 21.8583C3.91977 21.8607 3.92327 21.863 3.9256 21.8665C4.07611 22.0567 4.23827 22.2257 4.41561 22.376L4.42028 22.3807C4.51361 22.477 4.60694 22.5721 4.70611 22.666L4.82395 22.7798C4.95345 22.9019 5.08295 23.0228 5.21945 23.1402C5.22178 23.1402 5.22295 23.1426 5.22528 23.1437L5.29178 23.2024C5.41079 23.3069 5.53095 23.4102 5.65346 23.5065L5.79929 23.6297C5.89846 23.7096 6.00113 23.7847 6.10263 23.8633L6.26129 23.9854C6.3698 24.0676 6.4853 24.1474 6.59613 24.2273C6.63697 24.2566 6.6778 24.286 6.7198 24.313L6.75363 24.34L7.08147 24.556L7.22147 24.6499C7.39297 24.7602 7.56331 24.8635 7.73364 24.9668C7.78264 24.9915 7.83165 25.0185 7.87715 25.0466C8.00315 25.1194 8.13381 25.1934 8.26098 25.2603C8.33098 25.3002 8.40332 25.3343 8.47565 25.3706C8.56315 25.4199 8.65415 25.4681 8.74749 25.5174C8.77316 25.5256 8.79416 25.5338 8.81516 25.5456L8.81982 25.5409C8.85832 25.5585 8.89449 25.5773 8.93182 25.596C9.07183 25.6665 9.21766 25.7334 9.36933 25.7991C9.39733 25.8109 9.42766 25.8226 9.458 25.839C9.626 25.913 9.794 25.9834 9.96783 26.0515C10.0075 26.0632 10.0495 26.0832 10.0903 26.0985C10.2478 26.1583 10.41 26.2194 10.571 26.2769L10.6293 26.298C10.8078 26.3591 10.984 26.4178 11.166 26.4729C11.208 26.4847 11.2512 26.4999 11.2955 26.5117C11.481 26.568 11.6607 26.6349 11.8485 26.6702C23.8338 28.8571 27.3164 19.4553 27.3164 19.4553C24.3903 23.2705 19.1974 24.2766 14.2799 23.1567C14.0979 23.1144 13.9159 23.0557 13.7315 23.0017C13.4714 22.9276 13.2134 22.8458 12.958 22.7564L13.0689 22.7904L12.9965 22.7622C12.8379 22.7082 12.685 22.6484 12.5299 22.5885C12.4919 22.5723 12.4534 22.5574 12.4144 22.5439L12.4015 22.5404C12.23 22.4711 12.0632 22.4007 11.8975 22.3267C11.8614 22.315 11.831 22.2985 11.7949 22.2844C11.5986 22.1984 11.4041 22.1084 11.2115 22.0144L11.3725 22.0861C11.3305 22.0674 11.2893 22.047 11.2488 22.025C11.1392 21.9734 11.0295 21.9147 10.9222 21.8595C10.8404 21.8205 10.7599 21.779 10.6807 21.7351L10.704 21.7468C10.5722 21.6764 10.4403 21.6001 10.3073 21.5284C10.2677 21.5003 10.2222 21.4768 10.1767 21.451C9.97898 21.3354 9.78371 21.2156 9.591 21.0918L9.6645 21.1364C9.61511 21.1057 9.56686 21.0732 9.51983 21.0389L9.52683 21.0436C9.40144 20.9661 9.27849 20.8847 9.15816 20.7994C9.11849 20.7736 9.08232 20.7454 9.04149 20.7173C8.91579 20.6309 8.79209 20.5417 8.67049 20.4496L8.69849 20.4696C8.64949 20.4297 8.59699 20.3921 8.54449 20.3534C8.44182 20.2724 8.33798 20.1949 8.23532 20.1104L8.09765 20C7.95093 19.8826 7.807 19.7616 7.66598 19.6373L7.66481 19.6361L7.25997 19.2663L7.1433 19.156C7.04764 19.0585 6.94964 18.9658 6.85163 18.8695L6.73847 18.7522C6.61768 18.6318 6.49981 18.5085 6.38496 18.3824L6.37796 18.3742L6.35813 18.3577C6.2346 18.2212 6.11287 18.0831 5.99296 17.9433C5.96146 17.9069 5.93229 17.8682 5.89962 17.8295L5.63479 17.5066C5.5154 17.3558 5.39872 17.2027 5.28478 17.0476L5.23812 16.9819C2.51042 13.2536 1.52341 8.10833 3.70627 3.88696L1.77891 6.33926C-0.700279 9.90676 -0.393443 14.546 1.50241 18.3342C1.54558 18.427 1.59341 18.5139 1.64008 18.6019Z" fill="#1266A9"/>
<path d="M9.99003 13.4626L9.97719 13.4438L9.96667 13.4297L9.99003 13.4626Z" fill="black"/>
<path d="M11.2943 15.0025L11.3993 15.1081C11.5323 15.2373 11.6688 15.3629 11.8076 15.4885L11.8251 15.5037C11.9651 15.6282 12.1226 15.7585 12.2848 15.8852L12.3093 15.904C12.349 15.931 12.3828 15.9627 12.4213 15.9897C12.5846 16.1165 12.7491 16.2374 12.9206 16.3583L12.9381 16.3689C13.0105 16.4217 13.0875 16.4699 13.1692 16.5215C13.2018 16.5426 13.2392 16.5708 13.2742 16.5919C13.3978 16.6718 13.5192 16.7457 13.644 16.822C13.6638 16.8302 13.6813 16.8408 13.7 16.849C13.805 16.9136 13.9193 16.9758 14.029 17.0322C14.0675 17.0556 14.1048 17.0732 14.1445 17.0955C14.2227 17.1343 14.2997 17.1754 14.3743 17.2153L14.4117 17.2317C14.5692 17.3092 14.7302 17.382 14.8877 17.4536C14.9273 17.4689 14.9612 17.4818 14.995 17.4982C15.1245 17.5545 15.2563 17.6085 15.3858 17.6579C15.4442 17.6778 15.499 17.7013 15.5538 17.7189C15.6728 17.7635 15.7977 17.8046 15.9155 17.8457L16.0788 17.8985C16.2492 17.9513 16.4219 18.0206 16.6027 18.0488C25.8579 19.5819 28 12.448 28 12.448C26.0714 15.2267 22.3392 16.5509 18.362 15.5166C18.1635 15.4663 17.9666 15.4095 17.7717 15.3464L17.8382 15.3652C17.7822 15.3499 17.7332 15.3323 17.6795 15.3159C17.5582 15.2736 17.4334 15.2326 17.3155 15.1891L17.1475 15.1257C17.0169 15.0729 16.8839 15.0236 16.7567 14.9673C16.717 14.9496 16.6809 14.9379 16.6505 14.9203C16.4872 14.8463 16.3227 14.7736 16.1628 14.6961L15.9225 14.5705L15.7837 14.5C15.6763 14.4437 15.5772 14.385 15.4745 14.3251C15.4483 14.3127 15.423 14.2986 15.3987 14.2829L15.4022 14.284C15.2785 14.2066 15.1502 14.1314 15.0312 14.0528C14.9915 14.0305 14.9553 14.0035 14.918 13.98L14.6753 13.8215C14.5073 13.7041 14.3428 13.5785 14.176 13.4564C14.1387 13.4224 14.1025 13.3942 14.0663 13.3637C12.3175 11.9867 10.9385 10.1049 10.284 7.97428C9.59445 5.75911 9.74612 3.27512 10.9373 1.25952L9.47312 3.33499C7.67527 5.91876 7.77677 9.3724 9.17678 12.1053C9.43228 12.61 9.69129 13.0362 9.97712 13.4423C10.2431 13.825 10.5371 14.2735 10.8918 14.581C11.0178 14.7254 11.1531 14.8628 11.2943 15.0025Z" fill="#1266A9"/>
<path d="M15.9436 1.08821C14.8831 2.64599 14.7816 4.58059 15.5119 6.29802C16.2878 8.12227 17.8733 9.55444 19.7213 10.233C19.7971 10.2623 19.8706 10.287 19.9488 10.3151L20.0515 10.3468C20.1588 10.3809 20.2673 10.4208 20.3781 10.4454C25.4894 11.4327 26.8731 7.81823 27.2452 7.28645C26.0284 9.03557 23.9879 9.45583 21.4842 8.84657C21.2665 8.79316 21.0522 8.72651 20.8425 8.64701L20.881 8.65992C20.6201 8.56906 20.3645 8.46324 20.1156 8.34297L20.16 8.36292C19.6816 8.12814 19.271 7.87458 18.8895 7.58345C16.6518 5.88128 15.2681 2.64012 16.7288 0L15.9436 1.08821Z" fill="#1266A9"/>
</svg>
