<svg width="27" height="27" viewBox="0 0 27 27" fill="none" xmlns="http://www.w3.org/2000/svg">
<path fill-rule="evenodd" clip-rule="evenodd" d="M25.4747 6.00042C25.1063 6.01262 25.2129 6.17925 24.4153 6.37705C23.6097 6.5762 22.6353 6.45427 21.7689 6.82006C19.5018 7.77381 19.1347 11.4615 16.4343 12.8881C14.6638 13.8919 12.8581 14.1223 11.2441 14.6303C9.9486 15.1519 9.14294 15.4973 8.19289 16.3197C7.45606 16.9578 7.27658 17.5769 6.50601 18.3776C5.72464 19.4438 2.76247 18.4968 2 19.834C2.40215 20.0954 2.63426 20.1672 3.34005 20.0738C3.1943 20.3515 2.26585 20.7173 2.43454 21.1264C2.43454 21.1264 4.67877 21.5369 6.57078 20.3908C7.45336 20.0304 8.2806 19.2677 9.6517 19.0848C11.4277 18.8477 13.429 19.4587 15.576 19.6307C15.1321 20.5113 14.6746 21.0316 14.1847 21.7577C14.0336 21.9217 14.3143 22.0666 14.8352 21.9677C15.7717 21.7347 16.4505 21.4827 17.1239 21.0153C18.0025 20.407 18.3803 19.8502 19.1212 18.9683C19.7649 20.0047 22.0348 20.2323 22.5004 19.3368C21.634 18.9683 21.4491 17.0513 21.746 16.2235C22.0969 15.435 22.3492 14.3201 22.6326 13.2837C22.8877 12.3502 23.0456 10.9264 23.3506 10.1975C23.7149 9.29115 24.4234 9.00801 24.9551 8.52706C25.4868 8.04612 26.0158 7.64511 25.9996 6.54504C25.9942 6.18738 25.8107 5.98958 25.4747 6.00042Z" fill="#1F305F"/>
<path d="M2.67743 20.9366C4.06877 20.9786 4.44663 20.9421 5.54648 20.4625C6.48169 20.0547 7.73267 18.956 8.83792 18.601C10.46 18.0781 12.1996 18.1567 13.9256 18.3612C14.5032 18.4303 15.0835 18.5265 15.4978 18.4818C16.1442 18.0835 16.1752 17.0024 16.576 16.9157C16.4667 19.0075 15.5733 20.346 14.6799 21.5598C16.5625 21.2266 17.8203 20.0466 18.5814 18.5861C18.8121 18.1431 19.1954 17.4183 19.3708 16.9198C19.5098 17.2503 19.19 17.4603 19.3398 17.8207C20.5517 16.8168 21.1238 15.6734 21.6151 13.9989C22.1846 12.0616 22.7689 10.3965 23.136 9.82348C23.4936 9.26396 24.0509 8.9185 24.5597 8.56084C25.1373 8.15305 25.6541 7.72901 25.7432 6.95273C25.1332 6.89583 24.9929 6.75493 24.9025 6.44604C24.5975 6.6181 24.3168 6.65603 23.9996 6.66552C23.7243 6.67365 23.4221 6.66145 23.0523 6.69939C19.9984 7.01369 19.8567 10.0104 17.6367 12.2106C17.4937 12.3501 17.2494 12.556 17.0875 12.678C16.4019 13.1914 15.6678 13.4732 14.8945 13.7699C13.6422 14.2495 12.4546 14.389 11.2805 14.8036C10.4182 15.1071 9.61659 15.4553 8.9081 15.9416C8.73131 16.0635 8.4911 16.2803 8.33726 16.4063C7.92161 16.7477 7.64902 17.1257 7.38451 17.5159C7.11191 17.9169 6.8501 18.3301 6.4493 18.7243C5.80018 19.3638 3.37647 18.9113 2.52223 19.5047C2.42777 19.571 2.35084 19.6496 2.29956 19.7444C2.76514 19.9571 3.07687 19.8271 3.61263 19.8853C3.67875 20.3988 2.50334 20.7023 2.67743 20.9366Z" fill="#C0765A"/>
<path fill-rule="evenodd" clip-rule="evenodd" d="M22.0349 7.96761C22.4668 8.34423 23.3736 8.04212 23.2117 7.29293C22.5396 7.23603 22.151 7.46499 22.0349 7.96761Z" fill="#1F305F"/>
<path d="M25.0482 7.0911C24.9335 7.3336 24.7135 7.6452 24.7135 8.26162C24.7122 8.36729 24.6339 8.44045 24.6326 8.27652C24.638 7.67365 24.7972 7.41353 24.9659 7.07213C25.0428 6.93259 25.0901 6.98949 25.0482 7.0911Z" fill="#1F305F"/>
<path d="M24.9321 7.00013C24.7958 7.23044 24.4693 7.65177 24.4166 8.26683C24.4072 8.37251 24.3208 8.43753 24.3343 8.27496C24.3937 7.67616 24.6541 7.30088 24.8525 6.97439C24.9416 6.84162 24.9834 6.90258 24.9321 7.00013Z" fill="#1F305F"/>
<path d="M24.8267 6.88001C24.6715 7.09813 24.1695 7.60481 24.0642 8.21175C24.0453 8.31607 23.9549 8.37297 23.9819 8.2131C24.0912 7.62107 24.5244 7.15503 24.7484 6.8475C24.8483 6.7215 24.8861 6.78653 24.8267 6.88001Z" fill="#1F305F"/>
<path d="M24.7325 6.7442C24.5489 6.93929 23.9498 7.58416 23.7608 8.17077C23.7271 8.27102 23.6299 8.31573 23.6785 8.15993C23.8688 7.58822 24.3937 6.97316 24.6596 6.70085C24.777 6.59111 24.804 6.66156 24.7325 6.7442Z" fill="#1F305F"/>
</svg>
