<svg width="26" height="26" viewBox="0 0 26 26" fill="none" xmlns="http://www.w3.org/2000/svg">
<path d="M23.9487 20.1092C22.5341 20.0733 21.4377 20.2174 20.5182 20.6137C20.2529 20.7217 19.8284 20.7218 19.7931 21.0641C19.9345 21.2082 19.9522 21.4425 20.076 21.6405C20.2885 22.0008 20.6595 22.4872 20.9956 22.7395C21.3669 23.0277 21.7383 23.3159 22.1272 23.5681C22.8169 24.0005 23.5951 24.2526 24.267 24.685C24.6562 24.937 25.045 25.2615 25.4341 25.5317C25.6286 25.6756 25.7523 25.91 26 26V25.9461C25.8761 25.7838 25.8407 25.5497 25.717 25.3695C25.5404 25.1894 25.3633 25.0272 25.1865 24.847C24.6737 24.1446 24.0371 23.5321 23.3475 23.0277C22.7817 22.6313 21.5437 22.0909 21.3139 21.4243C21.3139 21.4243 21.2961 21.4064 21.2785 21.3884C21.6675 21.3524 22.1272 21.2082 22.4987 21.1001C23.0999 20.9379 23.6481 20.974 24.267 20.8119C24.5499 20.7398 24.8329 20.6497 25.1157 20.5597V20.3976C24.7976 20.0733 24.5677 19.641 24.2317 19.3347C23.3298 18.5419 22.3394 17.7674 21.3139 17.1189C20.7657 16.7586 20.0582 16.5244 19.4747 16.2182C19.2627 16.11 18.9089 16.0561 18.7852 15.8759C18.4668 15.4796 18.2899 14.9573 18.0601 14.4888C17.5474 13.4979 17.0522 12.3991 16.61 11.3544C16.2919 10.6517 16.0973 9.94911 15.7083 9.30072C13.8869 6.23824 11.9063 4.38275 8.86487 2.56319C8.21052 2.18495 7.43246 2.0228 6.60136 1.82473C6.15943 1.80661 5.71719 1.77068 5.27516 1.75256C4.9922 1.62644 4.70923 1.28423 4.46164 1.12208C3.45388 0.473493 0.854244 -0.931479 0.111563 0.924008C-0.36594 2.09487 0.818975 3.24771 1.22553 3.84236C1.52639 4.25664 1.91526 4.72496 2.12748 5.19339C2.25128 5.49946 2.28655 5.82396 2.41035 6.14815C2.69341 6.94057 2.95849 7.82348 3.32998 8.56215C3.52452 8.94039 3.73664 9.33665 3.98424 9.67896C4.12572 9.87704 4.37321 9.96723 4.42637 10.2914C4.17888 10.6517 4.16109 11.1922 4.01951 11.6425C3.38294 13.6782 3.63063 16.2002 4.53238 17.6954C4.81524 18.1456 5.48729 19.1367 6.38913 18.7582C7.18497 18.434 7.00812 17.4072 7.23782 16.5065C7.29108 16.2901 7.25571 16.1461 7.36172 16.002V16.0381C7.60932 16.5424 7.85681 17.0289 8.08672 17.5333C8.63496 18.4159 9.58977 19.3347 10.3855 19.9473C10.8101 20.2714 11.146 20.8299 11.6765 21.0281V20.9739H11.6411C11.5349 20.8118 11.3758 20.7398 11.2344 20.6136C10.9162 20.2895 10.5624 19.8932 10.3149 19.5328C9.57228 18.5239 8.91783 17.4071 8.33431 16.2541C8.05145 15.6958 7.80375 15.0833 7.57395 14.5249C7.46773 14.3085 7.46773 13.9844 7.29098 13.8764C7.0257 14.2726 6.63673 14.615 6.44219 15.1013C6.10637 15.8759 6.0709 16.8307 5.9471 17.8214C5.87636 17.8396 5.91163 17.8214 5.87626 17.8576C5.31053 17.7133 5.116 17.1189 4.90367 16.6145C4.37311 15.3355 4.28468 13.2818 4.7446 11.8047C4.8684 11.4264 5.39896 10.2375 5.18674 9.87714C5.08063 9.53483 4.72682 9.33665 4.53238 9.06651C4.30257 8.7242 4.05488 8.29201 3.89581 7.91356C3.47136 6.90474 3.25914 5.78783 2.79942 4.77901C2.5872 4.31058 2.21601 3.82434 1.91526 3.39195C1.57934 2.90561 1.20795 2.56319 0.942671 1.98677C0.854346 1.78869 0.730447 1.4644 0.871929 1.2482C0.9073 1.10407 0.97794 1.05012 1.11952 1.01409C1.34943 0.815805 2.00379 1.06804 2.23349 1.17613C2.88785 1.44617 3.43599 1.69861 3.98424 2.07685C4.23173 2.25702 4.49701 2.59933 4.81524 2.68941H5.18664C5.75256 2.81542 6.38903 2.72544 6.91959 2.88749C7.85691 3.19367 8.7056 3.64408 9.46607 4.13052C11.7826 5.62568 13.6922 7.75141 14.9833 10.2914C15.1955 10.7056 15.2838 11.0841 15.4784 11.5163C15.8499 12.3991 16.3096 13.2999 16.6808 14.1645C17.0522 15.0111 17.4058 15.8759 17.9363 16.5785C18.2016 16.9567 19.2625 17.155 19.74 17.3531C20.0937 17.5152 20.642 17.6594 20.9602 17.8575C21.5614 18.2356 22.1626 18.6682 22.7285 19.0824C23.0115 19.2986 23.8955 19.749 23.9487 20.1092Z" fill="#00546B"/>
<path d="M5.91154 4.45459C5.61099 4.45459 5.39887 4.49083 5.18665 4.54478V4.58081H5.22202C5.3636 4.86907 5.61099 5.06725 5.78774 5.31938C5.92933 5.60754 6.05302 5.89591 6.1946 6.18417C6.21219 6.16605 6.22987 6.14813 6.22987 6.14813C6.47757 5.96787 6.60126 5.67971 6.60126 5.24731C6.49515 5.1213 6.47747 4.99519 6.38904 4.86907C6.28303 4.6888 6.05302 4.59882 5.91154 4.45459Z" fill="#00546B"/>
</svg>
