<svg width="25" height="27" viewBox="0 0 25 27" fill="none" xmlns="http://www.w3.org/2000/svg">
<path d="M11.372 0.288052C12.0551 -0.0951514 12.9449 -0.0968823 13.6274 0.288052C17.0611 2.18955 20.4958 4.08806 23.9289 5.99071C24.5746 6.34718 25.0065 7.05147 24.9999 7.78066V19.2208C25.0047 19.9802 24.5301 20.7013 23.8489 21.0497C20.4265 22.9407 17.0059 24.834 13.5841 26.725C12.8869 27.1157 11.9793 27.0856 11.3038 26.6629C10.2778 26.08 9.25002 25.4999 8.2239 24.9176C8.01422 24.7951 7.77785 24.6976 7.62979 24.4983C7.76068 24.3254 7.99469 24.3039 8.18485 24.2284C8.61313 24.0949 9.00649 23.8807 9.39995 23.6728C9.49944 23.606 9.62091 23.6316 9.71628 23.6913C10.5937 24.1844 11.4633 24.6917 12.3436 25.18C12.5314 25.2863 12.7216 25.1452 12.8821 25.0575C16.2405 23.1973 19.603 21.344 22.9608 19.4832C23.0852 19.4246 23.154 19.2951 23.1439 19.1616C23.1463 15.3877 23.1445 11.6132 23.1451 7.83932C23.1593 7.68777 23.0698 7.54843 22.93 7.48641C19.5195 5.60405 16.1108 3.7188 12.7009 1.83596C12.6418 1.79616 12.5718 1.7748 12.5001 1.7747C12.4284 1.77459 12.3584 1.79575 12.2992 1.83539C8.88924 3.7188 5.48109 5.60578 2.07117 7.48804C1.93184 7.55016 1.83834 7.68719 1.85492 7.83932C1.85551 11.6132 1.85492 15.3877 1.85492 19.1621C1.84901 19.2273 1.86361 19.2927 1.89677 19.3495C1.92992 19.4063 1.98004 19.4517 2.04036 19.4798C2.95032 19.9855 3.86145 20.4876 4.77199 20.9916C5.28495 21.2622 5.91477 21.423 6.47994 21.2157C6.97867 21.0404 7.32827 20.5416 7.31875 20.0226C7.32346 16.2708 7.3164 12.5183 7.32229 8.76709C7.30982 8.60054 7.47103 8.46293 7.63626 8.4786C8.07348 8.47572 8.51129 8.47283 8.9485 8.47976C9.131 8.47572 9.2566 8.65506 9.23403 8.82286C9.23226 12.5984 9.23874 16.3741 9.23108 20.1497C9.23226 21.156 8.81045 22.2508 7.86076 22.7432C6.69079 23.3372 5.24472 23.2112 4.08888 22.6416C3.08827 22.1522 2.13338 21.5745 1.15053 21.0502C0.467522 20.7037 -0.00472336 19.9797 8.44507e-05 19.2209V7.78066C-0.00707821 7.03637 0.442011 6.3193 1.10784 5.96802C4.52963 4.07547 7.95083 2.18147 11.372 0.288052Z" fill="#8CC84B"/>
<path d="M14.3572 8.21258C15.8496 8.11844 17.4472 8.15681 18.7902 8.87735C19.8299 9.42951 20.4064 10.5883 20.4247 11.7205C20.3957 11.8732 20.2328 11.9574 20.0841 11.9469C19.6511 11.9463 19.218 11.9527 18.785 11.944C18.6013 11.951 18.4945 11.785 18.4715 11.6258C18.3471 11.0842 18.0456 10.5477 17.5254 10.2864C16.7268 9.89454 15.8009 9.91426 14.9301 9.92243C14.2944 9.95551 13.6108 10.0095 13.0722 10.3758C12.6587 10.6534 12.5331 11.2136 12.6807 11.6648C12.8198 11.9887 13.2014 12.0933 13.5136 12.1896C15.3122 12.6506 17.218 12.6048 18.9822 13.2114C19.7126 13.4588 20.4271 13.9396 20.6771 14.6891C21.0041 15.6936 20.8608 16.8942 20.1316 17.7006C19.5402 18.3643 18.6789 18.7254 17.8199 18.9216C16.6771 19.1713 15.4911 19.1777 14.3306 19.0668C13.2393 18.9449 12.1037 18.6639 11.2612 17.9352C10.5408 17.3221 10.189 16.367 10.2239 15.4451C10.2323 15.2894 10.3904 15.1808 10.5426 15.1936C10.9787 15.1902 11.4147 15.189 11.8507 15.1942C12.0249 15.182 12.154 15.3295 12.1629 15.4904C12.2434 16.0065 12.4413 16.5481 12.9005 16.8541C13.7867 17.4145 14.8987 17.3761 15.9134 17.3918C16.7541 17.3552 17.6978 17.3442 18.3839 16.7996C18.7458 16.489 18.8531 15.9693 18.7552 15.5223C18.6493 15.1449 18.2464 14.969 17.9004 14.854C16.125 14.3035 14.1978 14.5033 12.4395 13.8808C11.7257 13.6336 11.0355 13.1661 10.7612 12.4474C10.3786 11.4302 10.5539 10.1721 11.3595 9.39287C12.1451 8.61781 13.279 8.31932 14.3572 8.21249V8.21258Z" fill="#8CC84B"/>
</svg>
