<svg width="33" height="33" viewBox="0 0 33 33" fill="none" xmlns="http://www.w3.org/2000/svg">
<path d="M16.5 30.9375C24.4736 30.9375 30.9375 24.4736 30.9375 16.5C30.9375 8.52639 24.4736 2.0625 16.5 2.0625C8.52639 2.0625 2.0625 8.52639 2.0625 16.5C2.0625 24.4736 8.52639 30.9375 16.5 30.9375Z" fill="#8892BF"/>
<path d="M14.8904 10.3125H16.6229L16.1333 12.9156H17.69C18.5438 12.9338 19.1798 13.1246 19.5984 13.488C20.0252 13.8513 20.1508 14.5421 19.9751 15.5596L19.1339 20.0979H17.3762L18.1797 15.764C18.2633 15.3096 18.2383 14.9872 18.1044 14.7964C17.9705 14.6056 17.6818 14.5102 17.2381 14.5102L15.8445 14.4966L14.815 20.0979H13.0825L14.8904 10.3125Z" fill="white"/>
<path fill-rule="evenodd" clip-rule="evenodd" d="M6.95157 12.9158H10.3162C11.3037 12.9247 12.0194 13.2338 12.4631 13.8425C12.9067 14.4512 13.0532 15.2825 12.9025 16.3365C12.844 16.8182 12.7142 17.2905 12.5133 17.754C12.3208 18.2173 12.053 18.6352 11.7098 19.0078C11.2913 19.4802 10.8435 19.78 10.3664 19.9073C9.88937 20.0346 9.39547 20.0981 8.88499 20.0981H7.37843L6.90135 22.6876H5.15625L6.95157 12.9158ZM7.66719 18.558L8.41796 14.4831H8.67156C8.76372 14.4831 8.85988 14.4784 8.96032 14.4695C9.62999 14.4604 10.1864 14.5285 10.6301 14.6738C11.082 14.8192 11.2327 15.3689 11.082 16.3229C10.898 17.4587 10.5379 18.1219 10.0024 18.3127C9.46677 18.4945 8.79711 18.5807 7.99361 18.5717H7.81784C7.76762 18.5717 7.71741 18.567 7.66719 18.558Z" fill="white"/>
<path fill-rule="evenodd" clip-rule="evenodd" d="M25.2001 12.9158H21.8355L20.0402 22.6876H21.7852L22.2624 20.0981H23.769C24.2794 20.0981 24.7733 20.0346 25.2503 19.9073C25.7275 19.78 26.1752 19.4802 26.5938 19.0078C26.937 18.6352 27.2047 18.2173 27.3972 17.754C27.5981 17.2905 27.7279 16.8182 27.7864 16.3365C27.9371 15.2825 27.7907 14.4512 27.347 13.8425C26.9033 13.2338 26.1878 12.9247 25.2001 12.9158ZM23.3019 14.4831L22.5512 18.558C22.6014 18.567 22.6516 18.5717 22.7018 18.5717H22.8775C23.6811 18.5807 24.3507 18.4945 24.8863 18.3127C25.4218 18.1219 25.782 17.4587 25.966 16.3229C26.1167 15.3689 25.966 14.8192 25.514 14.6738C25.0704 14.5285 24.5139 14.4604 23.8442 14.4695C23.7438 14.4784 23.6477 14.4831 23.5555 14.4831H23.3019Z" fill="white"/>
</svg>
