<svg width="27" height="27" viewBox="0 0 27 27" fill="none" xmlns="http://www.w3.org/2000/svg">
<g clip-path="url(#clip0_18_525)">
<path d="M26.8896 15.2142C27.8344 7.81752 22.6109 1.05524 15.2277 0.110413C7.84452 -0.834416 1.05524 4.38914 0.110413 11.7723C-0.834416 19.1555 4.38914 25.9313 11.7723 26.8896C19.169 27.8344 25.9313 22.6109 26.8896 15.2142Z" fill="#FF6C37"/>
<path d="M18.3726 8.668L12.6766 14.364L11.0704 12.7578C16.6719 7.15628 17.2253 7.64219 18.3726 8.668Z" fill="white"/>
<path d="M12.6767 14.4989C12.6362 14.4989 12.6092 14.4854 12.5822 14.4584L10.9625 12.8522C10.9085 12.7982 10.9085 12.7172 10.9625 12.6632C16.6585 6.96722 17.2524 7.50712 18.4536 8.58692C18.4806 8.61392 18.4941 8.64091 18.4941 8.68141C18.4941 8.7219 18.4806 8.74889 18.4536 8.77589L12.7577 14.4584C12.7442 14.4854 12.7037 14.4989 12.6767 14.4989ZM11.2594 12.7577L12.6767 14.1749L18.1702 8.68141C17.1714 7.79057 16.4965 7.52062 11.2594 12.7577Z" fill="#FF6C37"/>
<path d="M14.3099 15.997L12.7577 14.4448L18.4537 8.74878C19.9789 10.2875 17.6978 12.7846 14.3099 15.997Z" fill="white"/>
<path d="M14.3099 16.1322C14.2694 16.1322 14.2424 16.1187 14.2154 16.0917L12.6632 14.5394C12.6362 14.5125 12.6362 14.4855 12.6362 14.445C12.6362 14.4045 12.6497 14.3775 12.6767 14.3505L18.3727 8.65451C18.4267 8.60052 18.5077 8.60052 18.5617 8.65451C18.9126 8.97845 19.1016 9.43737 19.0881 9.90978C19.0611 11.408 17.3604 13.3112 14.4179 16.0917C14.3774 16.1187 14.3369 16.1322 14.3099 16.1322ZM12.9467 14.445C13.8105 15.3223 14.175 15.6732 14.3099 15.8082C16.5775 13.6486 18.7776 11.435 18.7911 9.90978C18.8046 9.55884 18.6696 9.20791 18.4402 8.93796L12.9467 14.445Z" fill="#FF6C37"/>
<path d="M11.0975 12.7982L12.2448 13.9455C12.2718 13.9725 12.2718 13.9994 12.2448 14.0264C12.2313 14.0399 12.2313 14.0399 12.2178 14.0399L9.84224 14.5528C9.72076 14.5663 9.61278 14.4854 9.58579 14.3639C9.57229 14.2964 9.59928 14.2289 9.63978 14.1884L11.0165 12.8117C11.0435 12.7847 11.084 12.7712 11.0975 12.7982Z" fill="white"/>
<path d="M9.80174 14.6879C9.59928 14.6879 9.45081 14.5259 9.45081 14.3235C9.45081 14.229 9.4913 14.1345 9.55879 14.067L10.9355 12.6903C11.0165 12.6228 11.1245 12.6228 11.2055 12.6903L12.3528 13.8376C12.4338 13.905 12.4338 14.0265 12.3528 14.1075C12.3258 14.1345 12.2988 14.148 12.2583 14.1615L9.88273 14.6744C9.85573 14.6744 9.82874 14.6879 9.80174 14.6879ZM11.057 12.9467L9.73425 14.2695C9.70726 14.2965 9.69376 14.337 9.72076 14.3775C9.73425 14.418 9.77475 14.4315 9.81524 14.418L12.0423 13.932L11.057 12.9467Z" fill="#FF6C37"/>
<path d="M21.3826 5.50947C20.5188 4.67262 19.1285 4.69961 18.2917 5.57696C17.4548 6.4543 17.4818 7.83105 18.3592 8.6679C19.0746 9.35627 20.1544 9.47775 21.0047 8.96484L19.466 7.42612L21.3826 5.50947Z" fill="white"/>
<path d="M19.8709 9.41025C18.5886 9.41025 17.5493 8.37094 17.5493 7.08867C17.5493 5.8064 18.5886 4.76709 19.8709 4.76709C20.4648 4.76709 21.0452 4.99655 21.4771 5.41497C21.5041 5.44197 21.5176 5.46896 21.5176 5.50946C21.5176 5.54995 21.5041 5.57694 21.4771 5.60394L19.6549 7.42611L21.0857 8.85685C21.1397 8.91084 21.1397 8.99183 21.0857 9.04582C21.0722 9.05932 21.0722 9.05932 21.0587 9.07281C20.7077 9.28878 20.2893 9.41025 19.8709 9.41025ZM19.8709 5.05054C18.7371 5.05054 17.8193 5.96837 17.8328 7.10217C17.8328 8.23596 18.7506 9.1538 19.8844 9.1403C20.1948 9.1403 20.5053 9.07281 20.7887 8.92434L19.3715 7.52059C19.3445 7.4936 19.331 7.4666 19.331 7.42611C19.331 7.38562 19.3445 7.35862 19.3715 7.33163L21.1802 5.52295C20.8157 5.21251 20.3568 5.05054 19.8709 5.05054Z" fill="#FF6C37"/>
<path d="M21.4231 5.54994L21.3961 5.52295L19.4659 7.42611L20.9912 8.95133C21.1396 8.85685 21.2881 8.74887 21.4096 8.62739C22.2734 7.77704 22.2734 6.40029 21.4231 5.54994Z" fill="white"/>
<path d="M21.0048 9.09984C20.9643 9.09984 20.9373 9.08634 20.9103 9.05935L19.3715 7.52062C19.3446 7.49363 19.3311 7.46663 19.3311 7.42614C19.3311 7.38565 19.3446 7.35865 19.3715 7.33166L21.2882 5.415C21.3422 5.36101 21.4232 5.36101 21.4772 5.415L21.5177 5.442C22.422 6.34634 22.422 7.80407 21.5312 8.72191C21.3962 8.85688 21.2477 8.97836 21.0857 9.07285C21.0452 9.08634 21.0183 9.09984 21.0048 9.09984ZM19.655 7.42614L21.0183 8.7894C21.1262 8.72191 21.2342 8.62743 21.3152 8.54644C22.0846 7.77708 22.1251 6.5218 21.3827 5.71195L19.655 7.42614Z" fill="#FF6C37"/>
<path d="M18.6021 8.91092C18.2782 8.58698 17.7518 8.58698 17.4278 8.91092L12.3392 13.9995L13.1896 14.8499L18.5751 10.1257C18.926 9.82876 18.953 9.30235 18.6561 8.95142C18.6291 8.93792 18.6156 8.92442 18.6021 8.91092Z" fill="white"/>
<path d="M13.1761 14.9848C13.1356 14.9848 13.1086 14.9713 13.0816 14.9443L12.2313 14.094C12.1773 14.04 12.1773 13.959 12.2313 13.905L17.3199 8.81641C17.6978 8.43848 18.3052 8.43848 18.6831 8.81641C19.0611 9.19434 19.0611 9.80173 18.6831 10.1797C18.6696 10.1932 18.6561 10.2067 18.6426 10.2202L13.2571 14.9443C13.2436 14.9713 13.2166 14.9848 13.1761 14.9848ZM12.5282 13.9995L13.1896 14.6609L18.4807 10.0177C18.7776 9.77473 18.8046 9.32932 18.5616 9.03237C18.3187 8.73542 17.8733 8.70843 17.5763 8.95138C17.5628 8.96488 17.5493 8.97838 17.5223 8.99188L12.5282 13.9995Z" fill="#FF6C37"/>
<path d="M8.43849 19.7898C8.3845 19.8168 8.3575 19.8708 8.371 19.9248L8.60046 20.8966C8.65445 21.0316 8.57346 21.1935 8.42499 21.234C8.31701 21.2745 8.19553 21.234 8.12804 21.153L6.64331 19.6818L11.4889 14.8362L13.1626 14.8632L14.2964 15.997C14.0265 16.2264 12.3933 17.8056 8.43849 19.7898Z" fill="white"/>
<path d="M8.33045 21.3692C8.22247 21.3692 8.11449 21.3287 8.04701 21.2477L6.57577 19.7765C6.54878 19.7495 6.53528 19.7225 6.53528 19.682C6.53528 19.6415 6.54878 19.6145 6.57577 19.5875L11.4214 14.7419C11.4484 14.7149 11.4889 14.7014 11.5159 14.7014L13.1896 14.7284C13.2301 14.7284 13.2571 14.7419 13.2841 14.7689L14.4179 15.9027C14.4449 15.9297 14.4584 15.9702 14.4584 16.0107C14.4584 16.0512 14.4449 16.0782 14.4044 16.1052L14.3099 16.1861C12.8791 17.4414 10.9355 18.6967 8.51942 19.898L8.74888 20.8563C8.78937 21.0318 8.70839 21.2207 8.54642 21.3152C8.46543 21.3557 8.39794 21.3692 8.33045 21.3692ZM6.84572 19.682L8.23597 21.0588C8.27646 21.1263 8.35745 21.1533 8.42494 21.1128C8.49243 21.0723 8.51942 20.9913 8.47893 20.9238L8.24947 19.952C8.22247 19.8305 8.27646 19.7225 8.38445 19.6685C10.7735 18.4672 12.7037 17.2255 14.1209 15.9972L13.1221 14.9984L11.5699 14.9714L6.84572 19.682Z" fill="#FF6C37"/>
<path d="M5.49601 20.8427L6.6568 19.6819L8.38449 21.4096L5.63098 21.2206C5.50951 21.2071 5.42852 21.0991 5.44202 20.9777C5.44202 20.9237 5.45552 20.8697 5.49601 20.8427Z" fill="white"/>
<path d="M8.38447 21.5311L5.61747 21.3421C5.41501 21.3286 5.28003 21.1532 5.29353 20.9507C5.30703 20.8697 5.33402 20.7887 5.40151 20.7347L6.5623 19.5739C6.61629 19.5199 6.69728 19.5199 6.75127 19.5739L8.47896 21.3016C8.51945 21.3421 8.53295 21.3961 8.50595 21.4501C8.47896 21.5041 8.43846 21.5311 8.38447 21.5311ZM6.65678 19.8709L5.59048 20.9372C5.54998 20.9642 5.54998 21.0317 5.59048 21.0587C5.60397 21.0722 5.61747 21.0857 5.64447 21.0857L8.03354 21.2476L6.65678 19.8709Z" fill="#FF6C37"/>
<path d="M11.0164 15.4571C10.9355 15.4571 10.8815 15.3897 10.8815 15.3222C10.8815 15.2817 10.895 15.2547 10.922 15.2277L12.2312 13.9184C12.2852 13.8644 12.3662 13.8644 12.4202 13.9184L13.2705 14.7688C13.311 14.8093 13.3245 14.8498 13.311 14.9037C13.2975 14.9442 13.257 14.9847 13.2031 14.9982L11.0434 15.4571C11.0299 15.4571 11.0164 15.4571 11.0164 15.4571ZM12.3257 14.2019L11.4349 15.0927L12.8926 14.7823L12.3257 14.2019Z" fill="#FF6C37"/>
<path d="M13.1626 14.8632L11.6779 15.1872C11.5699 15.2142 11.4619 15.1467 11.4349 15.0387C11.4214 14.9712 11.4349 14.9037 11.4889 14.8497L12.3123 14.0264L13.1626 14.8632Z" fill="white"/>
<path d="M11.6509 15.3222C11.4619 15.3222 11.3135 15.1737 11.3135 14.9847C11.3135 14.8902 11.354 14.8093 11.408 14.7418L12.2313 13.9184C12.2853 13.8644 12.3663 13.8644 12.4203 13.9184L13.2706 14.7688C13.3111 14.8093 13.3246 14.8498 13.3111 14.9037C13.2976 14.9442 13.2571 14.9847 13.2031 14.9982L11.7184 15.3222C11.6914 15.3222 11.6644 15.3222 11.6509 15.3222ZM12.3258 14.2019L11.5969 14.9307C11.5699 14.9577 11.5699 14.9847 11.5834 15.0117C11.5969 15.0387 11.6239 15.0522 11.6644 15.0522L12.9062 14.7823L12.3258 14.2019Z" fill="#FF6C37"/>
<path d="M21.4366 6.84573C21.4096 6.76475 21.3152 6.72425 21.2342 6.75125C21.1532 6.77824 21.1127 6.87273 21.1397 6.95371C21.1397 6.96721 21.1532 6.98071 21.1532 6.9942C21.2342 7.15618 21.2072 7.35864 21.0992 7.50711C21.0452 7.5746 21.0587 7.66908 21.1127 7.72307C21.1802 7.77706 21.2747 7.76357 21.3286 7.69608C21.5311 7.43962 21.5716 7.11568 21.4366 6.84573Z" fill="#FF6C37"/>
</g>
<defs>
<clipPath id="clip0_18_525">
<rect width="27" height="27" fill="white"/>
</clipPath>
</defs>
</svg>
