<svg width="26" height="26" viewBox="0 0 26 26" fill="none" xmlns="http://www.w3.org/2000/svg">
<g id="python">
<g id="python_2">
<path id="Vector" d="M12.4171 1C6.57829 1 6.94286 3.5453 6.94286 3.5453L6.94935 6.18231H12.5212V6.97401H4.73627C4.73627 6.97401 1 6.54806 1 12.4702C1 18.3925 4.26111 18.1825 4.26111 18.1825H6.20733V15.4343C6.20733 15.4343 6.10241 12.1561 9.41639 12.1561H14.9427C14.9427 12.1561 18.0476 12.2066 18.0476 9.13971V4.06885C18.0476 4.06885 18.5191 1 12.4171 1ZM9.34479 2.77334C9.47646 2.77322 9.60686 2.7992 9.72853 2.84979C9.85019 2.90039 9.96074 2.97461 10.0538 3.06819C10.1469 3.16178 10.2208 3.27291 10.2711 3.39521C10.3214 3.51752 10.3473 3.6486 10.3472 3.78095C10.3473 3.91331 10.3214 4.04439 10.2711 4.16669C10.2208 4.289 10.1469 4.40012 10.0538 4.49371C9.96074 4.5873 9.85019 4.66152 9.72853 4.71212C9.60686 4.76271 9.47646 4.78869 9.34479 4.78857C9.21312 4.78869 9.08272 4.76271 8.96106 4.71212C8.83939 4.66152 8.72884 4.5873 8.63574 4.49371C8.54263 4.40012 8.4688 4.289 8.41847 4.16669C8.36814 4.04439 8.34229 3.91331 8.34241 3.78095C8.34229 3.6486 8.36814 3.51752 8.41847 3.39521C8.4688 3.27291 8.54263 3.16178 8.63574 3.06819C8.72884 2.97461 8.83939 2.90039 8.96106 2.84979C9.08272 2.7992 9.21312 2.77322 9.34479 2.77334V2.77334Z" fill="url(#paint0_linear_101_594)"/>
<path id="Vector_2" d="M12.5829 24.0001C18.4218 24.0001 18.0572 21.4548 18.0572 21.4548L18.0507 18.8178H12.4787V18.0261H20.2637C20.2637 18.0261 24 18.4521 24 12.5298C24 6.60754 20.7389 6.81757 20.7389 6.81757H18.7927V9.56567C18.7927 9.56567 18.8976 12.8438 15.5836 12.8438H10.0573C10.0573 12.8438 6.95242 12.7934 6.95242 15.8604V20.9313C6.95242 20.9313 6.48095 24.0001 12.5829 24.0001H12.5829ZM15.6553 22.2269C15.5236 22.227 15.3932 22.2011 15.2716 22.1505C15.1499 22.0999 15.0393 22.0256 14.9462 21.9321C14.8531 21.8385 14.7793 21.7273 14.729 21.605C14.6786 21.4827 14.6528 21.3517 14.6529 21.2193C14.6528 21.0869 14.6786 20.9558 14.7289 20.8335C14.7793 20.7112 14.8531 20.6001 14.9462 20.5065C15.0393 20.4129 15.1499 20.3387 15.2715 20.2881C15.3932 20.2375 15.5236 20.2115 15.6553 20.2116C15.787 20.2115 15.9174 20.2374 16.039 20.288C16.1607 20.3386 16.2712 20.4129 16.3643 20.5064C16.4574 20.6 16.5313 20.7112 16.5816 20.8335C16.6319 20.9558 16.6578 21.0869 16.6577 21.2192C16.6578 21.3516 16.6319 21.4826 16.5816 21.6049C16.5313 21.7273 16.4574 21.8384 16.3643 21.932C16.2712 22.0256 16.1607 22.0998 16.039 22.1504C15.9174 22.201 15.787 22.2269 15.6553 22.2268V22.2269Z" fill="url(#paint1_linear_101_594)"/>
</g>
</g>
<defs>
<linearGradient id="paint0_linear_101_594" x1="3.21029" y1="3.06871" x2="14.6672" y2="14.3523" gradientUnits="userSpaceOnUse">
<stop stop-color="#387EB8"/>
<stop offset="1" stop-color="#366994"/>
</linearGradient>
<linearGradient id="paint1_linear_101_594" x1="10.2064" y1="10.3528" x2="22.5069" y2="21.9204" gradientUnits="userSpaceOnUse">
<stop stop-color="#FFE052"/>
<stop offset="1" stop-color="#FFC331"/>
</linearGradient>
</defs>
</svg>
