<svg width="26" height="26" viewBox="0 0 26 26" fill="none" xmlns="http://www.w3.org/2000/svg">
<path d="M13 15.01C14.1218 15.01 15.0312 14.1006 15.0312 12.9788C15.0312 11.8569 14.1218 10.9475 13 10.9475C11.8782 10.9475 10.9688 11.8569 10.9688 12.9788C10.9688 14.1006 11.8782 15.01 13 15.01Z" fill="#00D8FF"/>
<path d="M13 17.636C10.5585 17.6951 8.12321 17.366 5.785 16.661C4.70488 16.3186 3.69747 15.7793 2.81369 15.0702C2.47644 14.8279 2.1956 14.5156 1.99042 14.1546C1.78524 13.7936 1.66058 13.3925 1.625 12.9788C1.625 11.6357 3.1005 10.3195 5.57212 9.45822C7.97285 8.69508 10.4812 8.32523 13 8.36297C15.4852 8.32825 17.9599 8.69143 20.3304 9.43872C21.3706 9.77035 22.3439 10.2837 23.205 10.9548C23.5365 11.1858 23.8131 11.4868 24.0153 11.8366C24.2175 12.1863 24.3403 12.5763 24.375 12.9788C24.375 14.3747 22.7256 15.7892 20.0688 16.6683C17.7758 17.3503 15.3919 17.6767 13 17.636ZM13 9.33472C10.5902 9.30251 8.19067 9.65412 5.89144 10.3763C3.61644 11.1702 2.59675 12.2557 2.59675 12.9763C2.59675 13.7303 3.69281 14.9158 6.09944 15.7388C8.33631 16.4099 10.6654 16.7222 13 16.6643C15.2883 16.7052 17.5694 16.3956 19.7641 15.7462C22.2625 14.9182 23.4 13.7312 23.4 12.9788C23.359 12.7206 23.2649 12.4737 23.1237 12.2537C22.9824 12.0337 22.7971 11.8454 22.5794 11.7007C21.8089 11.1053 20.9395 10.6504 20.0111 10.3568C17.7434 9.6449 15.3765 9.29984 13 9.33472Z" fill="#00D8FF"/>
<path d="M8.38505 23.1099C8.00602 23.1186 7.63146 23.0266 7.29955 22.8434C6.13605 22.1723 5.73305 20.2369 6.22136 17.6653C6.75976 15.2043 7.69264 12.8466 8.98386 10.6835C10.1951 8.51341 11.7457 6.55106 13.5769 4.87089C14.3839 4.13533 15.3148 3.54858 16.3264 3.13782C16.6923 2.96634 17.0915 2.87744 17.4956 2.87744C17.8997 2.87744 18.2989 2.96634 18.6648 3.13782C19.8746 3.83495 20.2752 5.9702 19.7105 8.71076C19.1555 11.0382 18.2468 13.2668 17.0162 15.3188C15.8476 17.4633 14.3459 19.4086 12.567 21.0819C11.7307 21.8463 10.7603 22.4493 9.70455 22.8604C9.2819 23.0173 8.83579 23.1016 8.38505 23.1099ZM9.82561 11.1661C8.59394 13.2375 7.69984 15.4916 7.17686 17.8441C6.72755 20.2125 7.15899 21.6368 7.78624 21.9992C8.43624 22.3754 10.0141 22.0187 11.93 20.3449C13.6281 18.7418 15.0616 16.8798 16.1769 14.8281C17.3558 12.8663 18.2274 10.7356 18.7615 8.51007C19.2929 5.93039 18.8338 4.35089 18.1822 3.97551C17.9379 3.88193 17.677 3.84004 17.4157 3.85249C17.1545 3.86494 16.8986 3.93145 16.6644 4.04782C15.7639 4.41942 14.936 4.94696 14.2188 5.6062C12.4692 7.21559 10.988 9.09421 9.8313 11.171L9.82561 11.1661Z" fill="#00D8FF"/>
<path d="M17.6125 23.1206C16.5116 23.1206 15.1133 22.4544 13.6573 21.2023C11.794 19.5068 10.2171 17.5212 8.98785 15.3222C7.71282 13.1889 6.78733 10.8653 6.24648 8.43954C6.01191 7.37231 5.96845 6.27195 6.1181 5.18954C6.1527 4.78801 6.27496 4.39896 6.47628 4.04982C6.67759 3.70068 6.95305 3.39996 7.28323 3.16885C8.49141 2.46929 10.5414 3.18835 12.6335 5.04573C14.3728 6.68876 15.8497 8.5888 17.0129 10.6796C18.2872 12.7631 19.2223 15.0358 19.7835 17.4128C20.0282 18.5192 20.0659 19.6613 19.8948 20.7814C19.8541 21.1945 19.7246 21.5939 19.5151 21.9522C19.3055 22.3105 19.021 22.6193 18.681 22.8574C18.3545 23.0383 17.9857 23.1292 17.6125 23.1206ZM9.82879 14.8331C11.0081 16.9346 12.5143 18.835 14.291 20.4629C16.1184 22.0351 17.5679 22.3731 18.191 22.0067C18.841 21.6289 19.3204 20.0867 18.8264 17.5915C18.2852 15.3222 17.3882 13.1528 16.1687 11.1639C15.0587 9.16277 13.649 7.34337 11.9884 5.76885C10.0189 4.02035 8.42154 3.62954 7.77073 4.00654C7.56788 4.17138 7.40142 4.37649 7.28185 4.60892C7.16228 4.84135 7.0922 5.09604 7.07604 5.35692C6.94685 6.32224 6.98894 7.30278 7.20035 8.25348C7.7206 10.5733 8.6082 12.795 9.8296 14.8347L9.82879 14.8331Z" fill="#00D8FF"/>
</svg>
