<svg width="27" height="26" viewBox="0 0 27 26" fill="none" xmlns="http://www.w3.org/2000/svg">
<path d="M18.7081 18.1582C19.7045 18.0536 20.4604 17.1823 20.426 16.1367C20.3917 15.0912 19.5327 14.2547 18.502 14.2547H18.4333C17.3681 14.2895 16.5435 15.1957 16.5779 16.2761C16.6123 16.7989 16.8184 17.252 17.1276 17.5656C15.9594 19.9008 14.1728 21.6085 11.4928 23.0375C9.6718 24.0134 7.78211 24.3619 5.89243 24.118C4.34626 23.9088 3.14371 23.2119 2.38771 22.0616C1.2883 20.3539 1.18526 18.5066 2.11296 16.6595C2.76581 15.3351 3.79645 14.3592 4.4493 13.8713C4.31188 13.4182 4.10569 12.6515 4.00264 12.0939C-0.979384 15.7534 -0.463958 20.7024 1.04783 23.0375C2.18162 24.7802 4.48369 25.8606 7.02622 25.8606C7.71335 25.8606 8.40048 25.7909 9.08771 25.6167C13.4857 24.7453 16.8185 22.0965 18.7081 18.1582ZM24.7553 13.8365C22.144 10.7346 18.2959 9.02684 13.8979 9.02684H13.3482C13.039 8.3995 12.3861 7.9812 11.6646 7.9812H11.5959C10.5308 8.01608 9.70629 8.92221 9.74056 10.0027C9.77495 11.0482 10.6339 11.8847 11.6646 11.8847H11.7333C12.4892 11.8498 13.142 11.3619 13.4169 10.6997H14.0354C16.6467 10.6997 19.1204 11.4664 21.3538 12.9651C23.0717 14.1153 24.3086 15.614 24.9958 17.4262C25.5799 18.89 25.5455 20.319 24.927 21.5389C23.965 23.386 22.3502 24.3968 20.2199 24.3968C18.8456 24.3968 17.54 23.9785 16.8527 23.6648C16.4748 24.0134 15.7876 24.5709 15.3066 24.9196C16.7841 25.6166 18.2959 26 19.7389 26C23.0373 26 25.4768 24.1528 26.4045 22.3056C27.4009 20.2841 27.3321 16.7989 24.7553 13.8365ZM7.30107 18.7505C7.33545 19.7962 8.19439 20.6326 9.22514 20.6326H9.2939C10.359 20.5978 11.1836 19.6915 11.1492 18.6111C11.1149 17.5655 10.2559 16.7291 9.22514 16.7291H9.15648C9.08771 16.7291 8.98456 16.7291 8.91601 16.7639C7.50726 14.394 6.92318 11.815 7.12937 9.02673C7.26669 6.93557 7.95392 5.12321 9.15648 3.62451C10.1528 2.33497 12.0769 1.70763 13.3826 1.67286C17.0246 1.60311 18.5706 6.20361 18.6738 8.05085C19.1204 8.15537 19.8763 8.39939 20.3917 8.57366C19.9794 2.92764 16.5435 0 13.2452 0C10.1528 0 7.30107 2.26543 6.16718 5.61126C4.58673 10.0724 5.61747 14.3592 7.54154 17.7399C7.36984 17.9838 7.26669 18.3672 7.30107 18.7507V18.7505Z" fill="#764ABC"/>
</svg>
