<svg width="27" height="27" viewBox="0 0 27 27" fill="none" xmlns="http://www.w3.org/2000/svg">
<path d="M2 7V20H13.6246L25 7H2ZM5.128 9.41779H5.13279C5.95983 9.41888 6.968 9.68607 7.69729 10.1109L6.91146 11.6768C6.11125 11.2344 5.70875 11.1928 5.25354 11.1654C4.57504 11.1238 4.23387 11.4009 4.22908 11.6998C4.22237 12.0633 4.87021 12.3929 5.47971 12.6174C6.40354 12.9525 7.57846 13.4004 7.75767 14.6979L9.44625 9.59847H11.407L13.385 15.7043L13.3783 9.59956H15.6495C17.8125 9.59956 18.8293 10.4362 18.8293 12.3579C18.8293 14.0825 17.7847 15.1108 16.0156 15.1108H15.2844L15.2748 17.4037L11.8363 17.4004L11.5967 16.4062C11.2422 16.5398 10.8425 16.6131 10.418 16.6131C9.981 16.6131 9.56987 16.5354 9.20762 16.3941L8.86454 17.4004L6.94787 17.407L7.03412 16.9011C7.00633 16.9285 6.9795 16.9559 6.95075 16.9821C6.43804 17.453 5.79308 17.6709 4.99862 17.6873L4.7945 17.6895C3.92708 17.6996 3.07309 17.4444 2.32104 16.9504L3.02063 15.3648C3.77771 15.8762 4.25304 15.9912 4.89512 15.9758C5.22767 15.9682 5.46821 15.8992 5.62442 15.7141C5.71638 15.6053 5.76967 15.4613 5.77392 15.3101C5.78062 14.8983 5.266 14.7045 4.63829 14.4822C4.12942 14.3026 3.55058 14.0563 3.09921 13.6774C2.5635 13.2284 2.30858 12.6656 2.32104 11.8706C2.3243 11.3067 2.51872 10.7663 2.86346 10.3628C3.36083 9.77476 4.16392 9.41779 5.128 9.41779ZM15.2835 11.2465V13.3314H15.7827C16.4478 13.3314 16.9778 13.0795 16.9787 12.2758C16.9787 11.4994 16.4478 11.2465 15.7827 11.2465H15.2835ZM10.4084 12.0863L9.69158 14.6728C9.90529 14.7658 10.1525 14.8184 10.417 14.8184C10.6739 14.8184 10.9154 14.7669 11.1281 14.6804L10.4228 12.0852L10.4084 12.0863Z" fill="#007CC5"/>
</svg>
