<svg width="26" height="26" viewBox="0 0 26 26" fill="none" xmlns="http://www.w3.org/2000/svg">
<path d="M21.2144 14.2773C20.5 14.2782 19.7951 14.4416 19.1531 14.755C18.9521 14.4214 18.7969 14.0624 18.6916 13.6874C18.6311 13.3935 18.6171 13.0919 18.6502 12.7936C18.7196 12.4655 18.8097 12.142 18.9199 11.8251C18.9159 11.7837 18.8704 11.5879 18.4129 11.5814C17.9555 11.5749 17.5614 11.6683 17.5192 11.7894C17.4397 12.0105 17.3759 12.237 17.3282 12.467C16.9496 13.401 16.4836 14.2971 15.9364 15.1434C15.6298 14.6408 15.5037 14.0487 15.5789 13.4648C15.6484 13.1366 15.7385 12.8131 15.8487 12.4963C15.8446 12.4548 15.7991 12.259 15.3417 12.2525C14.8842 12.246 14.4902 12.3395 14.4479 12.4605C14.4057 12.5816 14.352 12.8668 14.257 13.1381C14.1619 13.4095 13.052 15.8893 12.7612 16.5287C12.6117 16.8537 12.4825 17.1186 12.3915 17.2973C12.3872 17.3089 12.3817 17.3201 12.3752 17.3306C12.294 17.4842 12.2509 17.5679 12.2509 17.5679V17.572C12.1884 17.6841 12.1217 17.7881 12.0884 17.7881C12.0303 17.556 12.0331 17.3128 12.0965 17.082C12.259 16.2216 12.6572 14.8842 12.6531 14.8379C12.6531 14.8127 12.7279 14.5803 12.3955 14.4601C12.3185 14.4234 12.2319 14.4115 12.1478 14.4261C12.0637 14.4406 11.9862 14.4809 11.9259 14.5413C11.8967 14.5413 11.8764 14.612 11.8764 14.612C11.8764 14.612 12.2379 13.1081 11.1865 13.1081C10.7771 13.1904 10.3883 13.3538 10.043 13.5887C9.69761 13.8235 9.40271 14.125 9.17561 14.4755C8.89286 14.6291 8.2908 14.9573 7.64648 15.3108C7.40273 15.4481 7.14761 15.5854 6.91117 15.717C6.89492 15.7008 6.87786 15.6796 6.86161 15.6634C5.58192 14.3 3.22973 13.338 3.3313 11.514C3.36867 10.8493 3.59698 9.10408 7.84798 6.98427C11.3466 5.26014 14.131 5.7379 14.6129 6.7974C15.3027 8.31027 13.1211 11.1191 9.5063 11.5261C9.10639 11.6073 8.69336 11.5975 8.29775 11.4975C7.90214 11.3975 7.53406 11.2099 7.22073 10.9485C7.0298 10.7405 7.00055 10.7283 6.92986 10.7697C6.81367 10.8323 6.88842 11.0191 6.92986 11.1272C7.06776 11.3768 7.25428 11.5962 7.4784 11.7724C7.70252 11.9487 7.9597 12.0782 8.23473 12.1534C9.6568 12.4607 11.1395 12.3138 12.4735 11.7333C14.6673 10.8859 16.3735 8.52965 15.873 6.55608C15.3701 4.55327 12.0462 3.89271 8.90017 5.01233C6.92966 5.67539 5.10891 6.7198 3.54173 8.08602C1.80867 9.70696 1.53486 11.115 1.64698 11.7057C2.05323 13.8003 4.93842 15.1629 6.09298 16.1745C6.03448 16.2078 5.98086 16.237 5.93536 16.2614C5.35767 16.5482 3.1558 17.6995 2.60411 18.9166C1.98092 20.2979 2.70405 21.2851 3.1818 21.4183C3.90168 21.5907 4.6574 21.5339 5.34346 21.256C6.02952 20.9781 6.61168 20.4928 7.00867 19.8681C7.34672 19.3499 7.55452 18.7577 7.61436 18.1418C7.6742 17.526 7.58431 16.9049 7.35236 16.3313C7.34844 16.322 7.34294 16.3135 7.33611 16.3061L7.78867 16.0404C8.08361 15.8657 8.37448 15.704 8.62392 15.5708C8.45478 16.0586 8.35548 16.568 8.32898 17.0836C8.27155 17.874 8.51344 18.6571 9.00661 19.2774C9.08165 19.342 9.16877 19.3911 9.26291 19.4217C9.35705 19.4524 9.45635 19.4641 9.55505 19.4561C10.0425 19.4561 10.266 19.0499 10.5105 18.5673C10.8095 17.9774 11.0793 17.2916 11.0793 17.2916C11.0793 17.2916 10.7429 19.145 11.657 19.145C11.9893 19.145 12.3257 18.7127 12.476 18.495V18.499C12.476 18.499 12.4841 18.4868 12.5012 18.4576L12.5548 18.3706V18.3625C12.688 18.1301 12.987 17.602 13.4315 16.7253C14.0051 15.5951 14.5576 14.1822 14.5576 14.1822C14.6109 14.4927 14.6845 14.7994 14.7778 15.1003C14.9116 15.4651 15.0699 15.8204 15.2515 16.1639C15.1182 16.3508 15.0354 16.4548 15.0354 16.4548L15.0394 16.4588C14.9314 16.6002 14.8152 16.7538 14.686 16.9033C14.3016 17.3258 13.945 17.7728 13.6184 18.2415C13.5698 18.3202 13.5531 18.4144 13.5717 18.505C13.5903 18.5956 13.6427 18.6757 13.7183 18.729C13.8893 18.818 14.0843 18.8501 14.2749 18.8208C14.562 18.8046 14.8444 18.74 15.1101 18.6298C15.3669 18.5395 15.6091 18.4122 15.8292 18.252C16.056 18.0948 16.2387 17.8819 16.3595 17.6338C16.4803 17.3856 16.5352 17.1105 16.519 16.835C16.4934 16.4879 16.4048 16.1485 16.2574 15.8332C16.2988 15.7747 16.3386 15.717 16.3776 15.6585C16.8395 14.969 17.2559 14.25 17.624 13.5062C17.6773 13.8167 17.7508 14.1234 17.8442 14.4243C17.9545 14.7395 18.0904 15.0452 18.2504 15.3384C17.719 15.7473 17.3004 16.2847 17.0341 16.9C16.7725 17.6565 16.9756 17.9969 17.3591 18.0757C17.569 18.0902 17.7788 18.0472 17.966 17.9514C18.2414 17.8609 18.5008 17.7276 18.7347 17.5565C18.9813 17.411 19.1879 17.2064 19.3358 16.9611C19.4837 16.7159 19.5684 16.4378 19.5821 16.1517C19.5637 15.8662 19.4992 15.5855 19.3912 15.3205C20.0924 15.0466 20.8528 14.9592 21.5979 15.067C23.5755 15.2994 23.9664 16.5336 23.8916 17.0536C23.8566 17.2379 23.7824 17.4126 23.6742 17.5659C23.5661 17.7193 23.4263 17.8476 23.2644 17.9425C23.127 18.0294 23.0815 18.0586 23.0937 18.1212C23.11 18.213 23.175 18.2081 23.2928 18.1919C23.5909 18.0993 23.8538 17.9184 24.047 17.6733C24.2403 17.4282 24.3546 17.1302 24.375 16.8188C24.4376 15.6 23.2741 14.2635 21.2169 14.2756L21.2144 14.2773ZM5.95567 19.4188C5.29917 20.1338 4.38511 20.4035 3.99023 20.1752C3.56611 19.9315 3.73267 18.8752 4.53867 18.118C5.01679 17.6876 5.53356 17.3022 6.08242 16.9666C6.1783 16.9081 6.31967 16.8253 6.48867 16.7229L6.53417 16.6977L6.63411 16.6351C6.7781 17.1176 6.79116 17.6297 6.67194 18.1189C6.55272 18.608 6.30551 19.0567 5.95567 19.4188ZM10.734 16.1688C10.5057 16.7253 10.0279 18.1513 9.73705 18.0716C9.48761 18.005 9.3308 16.9244 9.68748 15.8568C9.86758 15.3428 10.1299 14.8615 10.4642 14.4316C10.8217 14.0327 11.2166 13.8995 11.3117 14.062C11.2249 14.789 11.0302 15.4991 10.734 16.1688ZM14.677 18.0554C14.5812 18.105 14.4902 18.1366 14.4487 18.1139C14.4195 18.0976 14.4902 18.0326 14.4902 18.0326C14.4902 18.0326 14.985 17.5005 15.18 17.26C15.2921 17.1186 15.4237 16.9528 15.5667 16.7651V16.8188C15.5667 17.4541 14.9517 17.8823 14.6779 18.057L14.677 18.0554ZM17.719 17.3615C17.6484 17.312 17.6605 17.1454 17.8978 16.6262C18.0628 16.2928 18.2932 15.996 18.5754 15.7536C18.6187 15.8766 18.6412 16.0059 18.642 16.1363C18.6452 16.4138 18.5565 16.6845 18.3897 16.9063C18.2229 17.1281 17.9874 17.2884 17.7199 17.3623L17.719 17.3615Z" fill="#CD6799"/>
</svg>
