<svg width="27" height="27" viewBox="0 0 27 27" fill="none" xmlns="http://www.w3.org/2000/svg">
<g clip-path="url(#clip0_18_567)">
<path d="M10.1721 0.778549C13.5753 -0.0942418 17.3365 0.414363 20.3379 2.26669C24.1179 4.52715 26.5856 8.8032 26.6484 13.2048C26.7865 17.6504 24.4695 22.0583 20.746 24.4758C16.6019 27.2637 10.8691 27.3704 6.63696 24.7206C2.32324 22.1462 -0.194664 16.9534 0.45208 11.9679C0.973243 6.69971 5.04208 2.0532 10.1721 0.778549Z" fill="#010101"/>
<path d="M9.65091 2.93237C16.0807 0.357949 23.9672 5.1112 24.6328 12.0056C25.6688 18.2093 20.52 24.5135 14.2346 24.6956C8.25696 25.2921 2.48021 20.2249 2.31068 14.2221C1.86487 9.36213 5.06719 4.53981 9.65091 2.93237Z" fill="white"/>
<path d="M10.2976 12.8343C13.1797 10.4797 15.999 8.04339 18.9439 5.75781C17.3992 8.1313 15.8106 10.4734 14.266 12.8469C12.9411 12.8532 11.6162 12.8532 10.2976 12.8343Z" fill="#010101"/>
<path d="M12.7339 14.1467C14.0651 14.1467 15.39 14.1467 16.7149 14.1656C13.8139 16.5077 11.0072 18.9628 8.05603 21.2421C9.60068 18.8686 11.1893 16.5202 12.7339 14.1467Z" fill="#010101"/>
</g>
<defs>
<clipPath id="clip0_18_567">
<rect width="27" height="27" fill="white"/>
</clipPath>
</defs>
</svg>
