<svg width="26" height="26" viewBox="0 0 26 26" fill="none" xmlns="http://www.w3.org/2000/svg">
<path d="M16.4155 12.1377L10.7165 13.8379L5.75841 15.8372L4.37132 16.1718C4.01806 16.4788 3.64766 16.7897 3.24704 17.1045C2.80766 17.4509 2.39844 17.7657 2.08393 17.994C1.73504 18.2459 1.21812 18.7181 0.955375 19.0172C0.563357 19.4658 0.253219 19.942 0.119673 20.3081C-0.117266 20.9693 -0.000902751 21.6383 0.455693 22.2563C1.04153 23.0434 2.20892 23.8462 3.57009 24.3933C4.26366 24.6728 5.43101 25.0309 6.30974 25.2315C7.76999 25.57 10.5958 25.9361 12.1509 25.9912C12.4653 26.003 12.8875 26.003 12.9046 25.9912C12.9391 25.9714 13.1804 25.5504 13.4604 25.027C14.4167 23.2441 15.1059 21.5714 15.4807 20.1428C15.7046 19.277 15.8812 18.1239 15.9975 16.7583C16.0277 16.3765 16.0406 15.0974 16.0147 14.6645C15.9759 13.9561 15.907 13.3815 15.7994 12.8187C15.7822 12.736 15.7778 12.6612 15.7865 12.6573C15.8036 12.6455 15.8553 12.6298 16.5575 12.4448L16.4154 12.1378V12.1377H16.4155V12.1377ZM15.1146 12.8343C15.1663 12.8343 15.3041 14.0426 15.3385 14.8061C15.3472 14.9675 15.3428 15.0737 15.3342 15.0737C15.2998 15.0737 14.6062 14.6999 14.1109 14.4165C13.6801 14.1686 12.8617 13.6727 12.7325 13.5782C12.6893 13.5507 12.6936 13.5468 13.0469 13.4365C13.6456 13.2515 15.0672 12.8343 15.1146 12.8343ZM12.2112 13.7081C12.25 13.7081 12.349 13.7592 12.586 13.893C13.4733 14.4007 14.6795 15.0147 15.1964 15.2194C15.3558 15.2823 15.3729 15.2587 15.0069 15.487C14.2229 15.975 13.245 16.4551 12.0474 16.9392C11.8364 17.0258 11.6598 17.0927 11.6555 17.0927C11.6469 17.0927 11.6727 16.9944 11.7071 16.8763C11.9958 15.8962 12.1595 14.9045 12.1681 14.1095C12.1724 13.7159 12.1724 13.7159 12.2112 13.7041C12.2026 13.7081 12.2069 13.7081 12.2112 13.7081ZM11.6125 13.9166C11.6382 13.9402 11.6211 14.8218 11.5866 15.0619C11.509 15.6365 11.3884 16.1717 11.1903 16.7739C11.143 16.9195 11.0998 17.0415 11.0913 17.0494C11.074 17.069 10.4838 16.5417 10.29 16.337C9.95397 15.9828 9.69127 15.6286 9.49741 15.2823C9.39833 15.1052 9.24329 14.7589 9.25618 14.747C9.32509 14.7038 11.5952 13.9009 11.6125 13.9166ZM8.79524 14.9281C8.79953 14.9281 8.80382 14.9281 8.80819 14.932C8.81677 14.9399 8.84698 15.0029 8.87283 15.0737C9.01062 15.4161 9.32072 15.9198 9.58787 16.2426C9.88079 16.5968 10.2642 16.9746 10.5829 17.2225C10.6863 17.3013 10.781 17.376 10.7939 17.3878C10.8198 17.4115 10.8284 17.4075 10.1263 17.6515C9.3122 17.9349 8.42477 18.2182 7.40815 18.5173C7.1653 18.5889 6.92267 18.661 6.68027 18.7338C6.64143 18.7456 6.65438 18.7259 6.76638 18.5646C7.27035 17.8444 8.03708 16.4315 8.46788 15.4318C8.54111 15.2587 8.61433 15.0855 8.62729 15.0462C8.64453 14.991 8.66602 14.9714 8.722 14.9438C8.75215 14.936 8.78235 14.9281 8.79524 14.9281ZM7.93379 15.2547C7.94668 15.2627 7.72699 15.6837 7.5116 16.0694C7.09374 16.8132 6.63714 17.5453 6.02547 18.4347C5.92209 18.5882 5.82305 18.7299 5.8101 18.7457C5.78859 18.7732 5.77993 18.7653 5.71102 18.6433C5.56456 18.3796 5.44391 18.0412 5.37931 17.7302C5.31467 17.4232 5.32762 16.888 5.40088 16.5574C5.45682 16.3135 5.45257 16.3174 5.58178 16.2583C6.13315 16.0025 7.91655 15.239 7.93379 15.2547ZM15.3644 15.5303V15.6956C15.3644 16.5732 15.261 17.7775 15.1102 18.6552C15.0844 18.8086 15.0628 18.9345 15.0585 18.9385C15.0585 18.9385 14.9336 18.9071 14.7872 18.8677C14.141 18.6827 13.4389 18.4111 12.8056 18.0924C12.3877 17.8838 11.7804 17.5413 11.7977 17.5256C11.8019 17.5217 11.9829 17.4351 12.1939 17.3328C13.0383 16.9313 13.8481 16.4984 14.5502 16.0695C14.813 15.9081 15.2092 15.6484 15.2955 15.5775L15.3644 15.5303ZM4.68146 16.6951C4.69868 16.6951 4.69437 16.7266 4.66853 16.8683C4.65129 16.9707 4.62978 17.1596 4.62121 17.2894C4.58667 17.864 4.69012 18.2891 5.00026 18.8715C5.08641 19.0329 5.15538 19.1667 5.15101 19.1706C5.12084 19.1943 2.26925 19.9578 1.3732 20.1821C1.10614 20.249 0.873575 20.3081 0.856254 20.3119C0.826159 20.3199 0.821829 20.3159 0.834741 20.249C0.933803 19.6705 1.41628 18.9148 2.08824 18.2772C2.53626 17.8522 2.89381 17.6043 3.50549 17.2854C3.94486 17.0572 4.62115 16.7149 4.67284 16.6991C4.67288 16.6951 4.67717 16.6951 4.68146 16.6951ZM11.4014 17.7932C11.4057 17.7893 11.509 17.8405 11.634 17.9073C12.5558 18.3954 13.8395 18.848 14.9335 19.0802L15.0327 19.0999L14.8948 19.1706C14.3219 19.4619 12.4395 20.1782 10.514 20.8354C10.234 20.9299 9.95832 21.0244 9.90655 21.044C9.85487 21.0637 9.80747 21.0755 9.80747 21.0716C9.80747 21.0676 9.88506 20.9299 9.98406 20.7607C10.5225 19.8397 11.0653 18.7181 11.341 17.9388C11.3755 17.864 11.397 17.7972 11.4014 17.7932ZM10.7165 17.9979C10.7208 18.0019 10.6863 18.0845 10.6432 18.1789C10.2685 19.0093 9.77736 19.9146 9.14848 20.9299C8.98913 21.1897 8.85556 21.3983 8.85119 21.3983C8.84696 21.3983 8.71769 21.3274 8.56263 21.2408C7.64936 20.7292 6.83956 20.0995 6.30976 19.4895L6.23219 19.4029L6.62415 19.3045C8.02846 18.9543 9.22162 18.5764 10.4063 18.1121C10.5743 18.0491 10.7122 17.9979 10.7165 17.9979ZM14.9724 19.3557C14.9767 19.4462 14.757 20.2569 14.5761 20.8433C14.4253 21.3352 14.296 21.721 14.0592 22.4018C13.9558 22.701 13.8654 22.9488 13.861 22.9488C13.8567 22.9488 13.8309 22.9449 13.805 22.9371C12.5257 22.7245 11.3799 22.4293 10.3029 22.0358C10.0014 21.9256 9.57063 21.7485 9.54479 21.7288C9.53621 21.7209 9.79468 21.6107 10.122 21.4808C12.082 20.6977 14.1152 19.8082 14.813 19.4265C14.8948 19.3793 14.9595 19.3557 14.9724 19.3557ZM5.14672 19.6627C5.15534 19.6705 4.60826 20.3907 3.84147 21.3707C3.57442 21.7131 3.26428 22.1145 3.14799 22.2641C3.03167 22.4136 2.85508 22.6498 2.756 22.7915L2.57499 23.0473L2.38114 22.8977C2.15282 22.7245 1.75657 22.3546 1.57996 22.1499C1.20948 21.7289 0.959686 21.2842 0.860604 20.8788C0.813208 20.6899 0.813207 20.5954 0.856233 20.5836C0.920831 20.5679 2.07098 20.3199 3.14795 20.0916C3.74672 19.9657 4.44019 19.8162 4.69004 19.7611C4.93991 19.7059 5.14243 19.6627 5.14672 19.6627ZM5.69807 19.8555L5.83586 19.9972C6.45624 20.6308 7.08945 21.0992 7.8562 21.5084C7.99408 21.5793 8.09743 21.6423 8.08877 21.6463C8.05869 21.6659 5.42666 22.5199 4.20762 22.9056C3.52275 23.126 2.95841 23.3031 2.95416 23.3031C2.94987 23.3031 2.91107 23.2795 2.86793 23.2519L2.79044 23.2007L2.91535 23.0355C3.32024 22.5002 3.82862 21.9138 4.93566 20.6938L5.69807 19.8555ZM9.13561 22.1027C9.13984 22.0988 9.32938 22.1617 9.56197 22.2405C10.122 22.4333 10.5656 22.5553 11.1602 22.6931C11.8925 22.8623 12.9521 23.0276 13.5768 23.0748C13.6715 23.0827 13.7232 23.0906 13.706 23.1024C13.6758 23.1182 13.0426 23.311 12.5774 23.4448C11.8364 23.6573 9.57494 24.2673 7.7313 24.7514C7.39098 24.8419 7.09805 24.9167 7.08083 24.9206C7.0378 24.9285 6.89559 24.8931 6.89559 24.8773C6.89559 24.8695 6.99897 24.7475 7.12391 24.6137C7.74417 23.9367 8.36021 23.1811 8.87283 22.4648C9.01493 22.268 9.13561 22.1066 9.13561 22.1027ZM8.3774 22.1224C8.38169 22.1264 8.07588 22.575 7.54179 23.3464C7.31343 23.673 7.05927 24.043 6.96879 24.1728C6.88264 24.2988 6.75343 24.4956 6.68023 24.6058L6.55528 24.8065L6.49068 24.7908C6.33556 24.7514 5.24576 24.4011 4.95714 24.2948C4.59958 24.165 4.22914 24.0076 3.95342 23.8738C3.60886 23.7045 3.17813 23.4526 3.21255 23.4448C3.22115 23.4409 3.81131 23.2952 4.52203 23.1181C6.4088 22.6497 7.45552 22.3782 8.1405 22.1814C8.26544 22.146 8.37311 22.1184 8.3774 22.1224ZM13.7404 23.2716H13.7447C13.7619 23.311 13.0641 25.082 12.8099 25.6408C12.754 25.7667 12.7325 25.7983 12.7023 25.7943C12.629 25.7904 11.6168 25.6605 11.0007 25.5779C9.92818 25.4283 8.12756 25.141 7.6753 25.0466L7.57193 25.0269L8.21368 24.893C9.59216 24.6096 10.2555 24.4562 10.9275 24.2673C11.7761 24.0311 12.6162 23.736 13.4647 23.3739C13.5982 23.3188 13.7102 23.2755 13.7404 23.2716Z" fill="url(#paint0_linear_11_265)"/>
<path d="M10.5398 0.000201577C10.445 -0.0115406 8.91577 0.492211 7.92936 0.858178C6.59827 1.35412 5.5645 1.82642 4.92694 2.23564C4.69007 2.3892 4.39278 2.66072 4.34546 2.76696C4.32824 2.80632 4.31958 2.85355 4.31958 2.90077L4.89683 3.4006L6.27093 3.80203L9.54044 4.33729L13.2794 4.9237L13.3182 4.62854C13.3053 4.62854 13.2967 4.62462 13.2838 4.62462L12.7926 4.55374L12.6936 4.3924C12.1853 3.57377 11.6253 2.55838 11.298 1.87357C11.0439 1.34226 10.8026 0.72836 10.669 0.287549C10.5958 0.019929 10.5872 0.00419423 10.5399 0.000274132V0.0001833H10.5398V0.000201577ZM10.4708 0.20098H10.4752C10.4795 0.204864 10.4967 0.315135 10.514 0.444934C10.5871 0.995998 10.7208 1.52723 10.9318 2.10185C11.0912 2.53478 11.0911 2.51119 10.906 2.45999C10.4666 2.34983 8.49801 2.03891 7.07219 1.85788C6.84387 1.83031 6.65002 1.80278 6.65002 1.79886C6.63279 1.78312 7.67951 1.28325 8.14044 1.08652C8.73058 0.838523 10.3502 0.220635 10.4708 0.20098ZM6.31826 1.96412L6.48634 2.01522C7.39949 2.29863 9.6954 2.70008 10.9619 2.79453C11.104 2.80634 11.2247 2.81817 11.2289 2.81817C11.2332 2.82209 11.1127 2.88113 10.9576 2.94801C10.3459 3.22744 9.67393 3.56985 9.20869 3.83355C9.07089 3.91223 8.94591 3.97524 8.92873 3.97524C8.91148 3.97524 8.82106 3.95949 8.72629 3.94767L8.55399 3.92402L8.12328 3.53831C7.36512 2.86536 6.77065 2.34587 6.54233 2.14905L6.31826 1.96412ZM6.14602 2.0861L6.75339 2.77879C7.08504 3.16055 7.42104 3.53441 7.49434 3.61702C7.5675 3.69973 7.62784 3.76666 7.62355 3.77058C7.60631 3.78237 6.74485 3.62886 6.28817 3.53445C5.81864 3.43603 5.62481 3.3888 5.3362 3.30619L5.09927 3.23532V3.18018C5.10356 2.91649 5.46975 2.52295 6.09003 2.12156L6.14602 2.0861ZM11.3065 3.03066C11.3238 3.03066 11.3453 3.06607 11.397 3.17233C11.5434 3.46748 12.0001 4.26251 12.112 4.41598C12.1466 4.46719 12.2068 4.47111 11.5995 4.38059C10.1392 4.16408 9.66964 4.09331 9.66964 4.08544C9.66964 4.08152 9.71272 4.05395 9.76872 4.02638C10.221 3.79816 10.6776 3.5069 11.0826 3.19597C11.1817 3.12118 11.2721 3.05035 11.2893 3.03852C11.2936 3.03066 11.3022 3.02674 11.3065 3.03066Z" fill="url(#paint1_linear_11_265)"/>
<path d="M4.37572 2.71191C4.37572 2.71191 4.28101 2.84972 4.37145 3.05438C4.4275 3.18028 4.59116 3.33374 4.77636 3.4912C4.77636 3.4912 6.69324 5.19924 6.92587 5.44328C7.9855 6.56096 8.44645 7.66295 8.48953 9.18212C8.51538 10.1581 8.31286 11.0161 7.80891 12.0118C6.91292 13.7986 5.02184 15.7704 2.10559 17.9586L2.53211 17.8287C2.80779 17.6398 3.18256 17.4391 4.06129 16.9983C6.09015 15.9828 8.37321 15.0501 11.1732 14.0898C15.205 12.7045 21.8346 11.0829 25.608 10.5556L26 10.5005L25.9397 10.4139C25.5951 9.92588 25.3581 9.62287 25.0738 9.30015C24.2468 8.36347 23.2432 7.60393 22.0154 6.97421C20.3268 6.11235 18.1428 5.43936 15.3774 4.93953C14.8562 4.84503 13.7103 4.66402 12.7799 4.53414C10.807 4.25478 9.53192 4.0619 8.12767 3.8415C7.62372 3.76276 6.86981 3.64472 6.37013 3.54635C6.11168 3.49514 5.61635 3.38889 5.22866 3.2669C4.91853 3.15665 4.47049 3.04645 4.37572 2.71191ZM5.48715 3.69586C5.49141 3.69198 5.56031 3.71551 5.65083 3.74308C5.81451 3.79419 6.02557 3.85324 6.27548 3.91626C6.46454 3.96377 6.65408 4.00968 6.84407 4.05399C7.10252 4.11299 7.31787 4.16811 7.32216 4.16811C7.35237 4.19567 7.78746 5.46678 7.93391 5.95482C7.98983 6.13984 8.033 6.29723 8.02869 6.29723C8.02426 6.30122 7.97694 6.23427 7.92096 6.14376C7.41695 5.33301 6.62004 4.51048 5.69819 3.84927C5.57764 3.77063 5.48715 3.69978 5.48715 3.69586ZM7.6065 4.2311C7.62805 4.2311 7.72282 4.24291 7.83906 4.26651C8.57137 4.41605 9.88523 4.64432 10.7252 4.77421C10.8673 4.79387 10.9794 4.81754 10.9794 4.82536C10.9794 4.83327 10.9276 4.86076 10.863 4.89229C10.7209 4.95917 10.1479 5.27005 9.95846 5.38815C9.48028 5.67938 9.04956 5.99422 8.73939 6.27757C8.61448 6.39173 8.50674 6.48617 8.50674 6.48617C8.50674 6.48617 8.48097 6.4193 8.45934 6.33659C8.30436 5.78954 7.98123 4.97879 7.68831 4.40816C7.64092 4.31767 7.60212 4.235 7.60212 4.22716C7.60212 4.23502 7.60213 4.2311 7.6065 4.2311ZM11.3369 4.88047C11.3627 4.88831 11.4058 5.02214 11.4919 5.31729C11.6513 5.888 11.7246 6.52556 11.6987 7.11983C11.6901 7.28513 11.6815 7.43859 11.6728 7.45832L11.6599 7.49763L11.436 7.43076C10.975 7.29695 10.2255 7.09618 9.58373 6.93092C9.21751 6.8404 8.92037 6.75775 8.92037 6.74989C8.92037 6.72624 9.45453 6.23825 9.68281 6.05329C10.1178 5.70297 11.2981 4.86864 11.3369 4.88047ZM11.6341 4.91978C11.6471 4.90804 13.4175 5.1874 14.223 5.32911C14.8218 5.43535 15.6919 5.60067 15.7436 5.62038C15.7694 5.62822 15.6789 5.67544 15.3903 5.7935C14.2531 6.26188 13.4088 6.68292 12.5689 7.19461C12.3492 7.32842 12.164 7.4386 12.1597 7.4386C12.1554 7.4386 12.1511 7.3245 12.1511 7.18673C12.1511 6.43899 11.9874 5.68333 11.6858 5.04577C11.6556 4.9828 11.6298 4.92378 11.6341 4.91978ZM16.2131 5.74631C16.226 5.75811 16.17 6.07692 16.1183 6.26579C15.9633 6.85221 15.5454 7.72204 15.0329 8.5406C14.9423 8.68622 14.8605 8.8043 14.8518 8.80822C14.8433 8.81214 14.727 8.75308 14.5934 8.68225C14.0938 8.41463 13.5252 8.16276 12.9048 7.92659C12.7326 7.85972 12.5818 7.80458 12.5775 7.79678C12.5473 7.77313 13.9344 6.93484 14.6667 6.53341C15.2482 6.21071 16.1958 5.73054 16.2131 5.74631ZM16.5405 5.79351C16.5792 5.79351 17.3632 5.99032 17.7724 6.10052C18.7847 6.37603 19.9478 6.76563 20.7059 7.08047L21.0203 7.21039L20.8007 7.25758C18.9485 7.64718 17.3632 8.0959 15.834 8.66261C15.7091 8.70983 15.5971 8.7492 15.5885 8.7492C15.5799 8.7492 15.623 8.65869 15.679 8.54846C16.1399 7.65509 16.4371 6.72234 16.5103 5.9273C16.5147 5.85251 16.5275 5.79351 16.5405 5.79351ZM8.73509 7.43076C8.74798 7.41892 9.34677 7.54883 9.66984 7.63141C10.1609 7.75739 11.2033 8.07614 11.2033 8.09979C11.2033 8.10371 11.087 8.19423 10.9492 8.30447C10.3849 8.73345 9.84214 9.18598 9.19165 9.7606C8.9978 9.92989 8.83416 10.0676 8.82558 10.0676C8.81691 10.0676 8.81268 10.044 8.81691 10.0125C8.91598 9.35128 8.8945 8.50122 8.75665 7.63932C8.74367 7.52908 8.73078 7.43468 8.73509 7.43076ZM21.3177 7.44259C21.3262 7.45041 21.0419 7.85972 20.861 8.09189C20.6026 8.43035 20.2234 8.87909 19.3662 9.86298C18.914 10.3824 18.4056 10.9689 18.2377 11.1657C18.0653 11.3624 17.9232 11.5277 17.9189 11.5277C17.9146 11.5277 17.8587 11.4569 17.7983 11.3703C17.3158 10.7091 16.7386 10.1306 16.0537 9.61108C15.9244 9.51266 15.7824 9.4064 15.735 9.37491C15.6876 9.34344 15.6488 9.31195 15.6488 9.30803C15.6488 9.29625 16.381 9.00889 16.9368 8.80428C17.9103 8.44218 19.2369 8.00928 20.2321 7.72983C20.7533 7.5803 21.309 7.43468 21.3177 7.44259ZM21.6493 7.52124C21.6665 7.51734 21.7699 7.56457 21.8949 7.63141C22.9416 8.17846 23.9668 8.88297 24.7767 9.60714C25.005 9.81182 25.5693 10.3471 25.5606 10.351C25.5606 10.351 25.3625 10.3667 25.1299 10.3824C23.3164 10.5084 20.9946 10.8586 18.7632 11.3506C18.6125 11.382 18.479 11.4096 18.4703 11.4096C18.4618 11.4096 18.6297 11.2561 18.8408 11.0712C20.1503 9.91804 20.7491 9.18996 21.4555 7.89117C21.5545 7.69837 21.6407 7.53308 21.6493 7.52124C21.645 7.52124 21.645 7.52124 21.6493 7.52124ZM12.0562 8.41862C12.1166 8.43036 12.6766 8.67052 13.0987 8.86332C13.4864 9.04036 14.0679 9.32378 14.0981 9.34736C14.1024 9.35128 13.8956 9.44968 13.6415 9.56384C12.8316 9.93378 12.1381 10.284 11.4144 10.6855C11.2077 10.7996 11.0354 10.8941 11.0311 10.8941C11.0138 10.8941 11.0181 10.8783 11.1344 10.6855C11.5221 10.0401 11.8322 9.26868 12.0089 8.51695C12.0261 8.45793 12.0433 8.41862 12.0562 8.41862ZM11.4962 8.51303C11.5092 8.52486 11.3627 9.0089 11.2723 9.2726C11.0956 9.77244 10.7984 10.3982 10.5099 10.8705C10.4408 10.9806 10.3375 11.142 10.2815 11.2325L10.1738 11.3899L9.9326 11.1774C9.65264 10.9295 9.42428 10.776 9.13142 10.6382C9.01504 10.5832 8.92462 10.5359 8.92462 10.5281C8.92462 10.4966 9.66122 9.88657 10.2255 9.44578C10.6304 9.12698 11.4833 8.50123 11.4962 8.51303ZM14.9209 9.8L15.132 9.9259C15.6143 10.2132 16.1829 10.595 16.6181 10.9295C16.8635 11.1144 17.3373 11.5041 17.4322 11.5985L17.4838 11.6498L17.135 11.7403C15.162 12.24 13.6372 12.6848 11.8581 13.283C11.6599 13.3499 11.4919 13.405 11.479 13.405C11.4532 13.405 11.4316 13.4246 11.8753 13.0507C13.0126 12.0945 14.0205 11.0397 14.7701 10.0125L14.9209 9.8ZM14.0206 10.0046C14.0291 10.0125 13.439 10.772 13.0857 11.201C12.6636 11.7127 11.9141 12.5706 11.3972 13.1294C11.1818 13.3617 10.9966 13.5545 10.988 13.5585C10.975 13.5624 10.9707 13.5034 10.9707 13.4128C10.9707 12.9366 10.8372 12.4289 10.6046 11.996C10.5055 11.815 10.4883 11.7717 10.5099 11.752C10.5917 11.6851 11.8452 11.0318 12.6378 10.6422C13.1719 10.3824 14.0075 9.99677 14.0206 10.0046ZM8.57566 11.2247C8.58862 11.2247 8.6877 11.2719 8.79971 11.327C9.07539 11.4647 9.32093 11.6182 9.5406 11.7836C9.54918 11.7914 9.43723 11.8741 9.29077 11.9724C8.88153 12.24 8.26125 12.669 7.89947 12.9327C7.5203 13.2082 7.50747 13.2161 7.5505 13.1571C7.83483 12.7596 7.97692 12.5352 8.12775 12.248C8.26125 11.9922 8.39476 11.6891 8.48953 11.4254C8.52398 11.3113 8.56708 11.2247 8.57566 11.2247ZM10.0274 12.2637C10.0489 12.2598 10.0748 12.2951 10.191 12.4526C10.4366 12.7871 10.6261 13.2358 10.6736 13.5979L10.6821 13.6766L10.092 13.8852C9.03659 14.259 8.06313 14.629 7.40398 14.9045C7.21881 14.9832 6.89572 15.1249 6.68468 15.2194C6.47359 15.3177 6.30128 15.3925 6.30128 15.3886C6.30128 15.3847 6.43479 15.2941 6.59847 15.1839C7.88654 14.3299 9.00217 13.3932 9.83783 12.4565C9.92831 12.3581 10.0102 12.2676 10.0187 12.2637L10.0274 12.2637ZM9.35972 12.4132C9.37696 12.429 8.8859 12.9366 8.5499 13.2476C7.71853 14.0229 6.89576 14.629 5.87482 15.2194C5.74561 15.2941 5.62932 15.361 5.61637 15.3689C5.5862 15.3847 5.62495 15.3453 6.07297 14.9005C6.3573 14.6211 6.57265 14.385 6.81819 14.0938C6.98187 13.901 7.01204 13.8734 7.249 13.7199C7.88223 13.3027 9.34248 12.3975 9.35972 12.4132Z" fill="url(#paint2_radial_11_265)"/>
<defs>
<linearGradient id="paint0_linear_11_265" x1="4.28758" y1="23.4281" x2="6.2479" y2="22.1603" gradientUnits="userSpaceOnUse">
<stop stop-color="#909CA9"/>
<stop offset="1" stop-color="#EDEDEE"/>
</linearGradient>
<linearGradient id="paint1_linear_11_265" x1="4.33469" y1="2.45426" x2="5.99283" y2="2.45426" gradientUnits="userSpaceOnUse">
<stop stop-color="#939FAB"/>
<stop offset="1" stop-color="#DCDEE1"/>
</linearGradient>
<radialGradient id="paint2_radial_11_265" cx="0" cy="0" r="1" gradientUnits="userSpaceOnUse" gradientTransform="translate(12.7019 9.40229) rotate(-172.186) scale(2.1339 3.91446)">
<stop stop-color="#EE352C"/>
<stop offset="1" stop-color="#A91D22"/>
</radialGradient>
</defs>
</svg>
