<svg width="27" height="27" viewBox="0 0 27 27" fill="none" xmlns="http://www.w3.org/2000/svg">
<path d="M13.6563 6C10.2811 6 8.17182 7.6667 7.32797 10.9998C8.59375 9.33309 10.0703 8.70831 11.7577 9.12483C12.7206 9.36248 13.4087 10.0526 14.1706 10.8162C15.4114 12.0602 16.8475 13.4998 19.9845 13.4998C23.3593 13.4998 25.469 11.8331 26.3125 8.49974C25.047 10.1664 23.5704 10.7915 21.8827 10.375C20.9202 10.1374 20.2321 9.44723 19.4702 8.68361C18.2294 7.43968 16.793 6 13.6563 6V6ZM7.32797 13.4998C3.95318 13.4998 1.84354 15.1665 1 18.4999C2.26547 16.8332 3.74206 16.2082 5.42977 16.625C6.39232 16.863 7.08044 17.5528 7.84232 18.3161C9.0831 19.56 10.5195 21 13.6563 21C17.0314 21 19.1407 19.3333 19.9845 15.9999C18.7187 17.6666 17.2422 18.2917 15.5548 17.8749C14.5919 17.6375 13.9038 16.9471 13.1419 16.1838C11.9011 14.9398 10.465 13.4998 7.32797 13.4998V13.4998Z" fill="#06B6D4"/>
</svg>
