<svg width="23" height="23" viewBox="0 0 23 23" fill="none" xmlns="http://www.w3.org/2000/svg">
<g clip-path="url(#clip0_11_304)">
<path d="M19.55 0H3.45C1.54462 0 0 1.54462 0 3.45V19.55C0 21.4554 1.54462 23 3.45 23H19.55C21.4554 23 23 21.4554 23 19.55V3.45C23 1.54462 21.4554 0 19.55 0Z" fill="#3178C6"/>
<path d="M10.4668 12.7578H13.3418V10.916H5.30078V12.7578H8.17578V20.9785H10.4668V12.7578ZM14.2402 20.5293C14.6041 20.718 15.0488 20.8572 15.543 20.9516C16.0371 21.0459 16.5762 21.0908 17.1152 21.0908C17.6543 21.0908 18.1484 21.0414 18.6426 20.9381C19.1367 20.8348 19.541 20.6641 19.9004 20.444C20.2643 20.2059 20.5742 19.9049 20.7539 19.5006C20.9336 19.0963 21.0729 18.6471 21.0729 18.0631C21.0729 17.6543 21.01 17.2994 20.8887 16.985C20.7674 16.6705 20.5922 16.401 20.3496 16.1764C20.1205 15.9383 19.8555 15.7272 19.541 15.5475C19.2266 15.3678 18.8672 15.1791 18.4629 15.0084C18.1664 14.8871 17.9238 14.7703 17.6543 14.6535C17.4207 14.5367 17.2186 14.4199 17.0703 14.3031C16.9041 14.1818 16.7783 14.0561 16.6885 13.9258C16.5986 13.791 16.5537 13.6428 16.5537 13.4766C16.5537 13.3238 16.5937 13.1846 16.675 13.0588C16.7563 12.933 16.8682 12.8297 17.0119 12.7399C17.1557 12.65 17.3354 12.5826 17.551 12.5332C17.7621 12.4838 17.9957 12.4613 18.2697 12.4613C18.4584 12.4613 18.6561 12.4753 18.8537 12.5036C19.0604 12.5319 19.2715 12.5754 19.4826 12.6338C19.6938 12.6922 19.9004 12.7641 20.1115 12.854C20.3092 12.9438 20.4934 13.0471 20.6506 13.1639V11.0526C20.3092 10.9223 19.9318 10.8235 19.5275 10.7606C19.1232 10.6977 18.674 10.6663 18.135 10.6663C17.5959 10.6663 17.1018 10.7247 16.6076 10.837C16.1135 10.9493 15.7092 11.129 15.3498 11.376C14.9859 11.6186 14.7209 11.9151 14.4963 12.3194C14.2852 12.6967 14.1818 13.128 14.1818 13.667C14.1818 14.3409 14.375 14.9249 14.7658 15.3741C15.1521 15.8682 15.7541 16.2276 16.5178 16.587C16.8277 16.7127 17.1018 16.8385 17.3713 16.9598C17.6408 17.0811 17.8654 17.2069 18.0451 17.3372C18.2383 17.4674 18.391 17.6112 18.4943 17.7639C18.6066 17.9167 18.665 18.0963 18.665 18.303C18.665 18.4467 18.63 18.5815 18.5617 18.7073C18.4934 18.8331 18.3865 18.9409 18.2428 19.0307C18.099 19.1206 17.9238 19.1924 17.7037 19.2463C17.4926 19.2958 17.2545 19.3227 16.94 19.3227C16.4459 19.3227 15.9518 19.2374 15.5025 19.0667C15.0084 18.8959 14.5592 18.6399 14.2402 18.3731V20.5293Z" fill="white"/>
</g>
<defs>
<clipPath id="clip0_11_304">
<rect width="23" height="23" fill="white"/>
</clipPath>
</defs>
</svg>
