<svg width="27" height="27" viewBox="0 0 27 27" fill="none" xmlns="http://www.w3.org/2000/svg">
<path d="M24.4772 4.24397L19.6121 1.90172C19.3374 1.76925 19.0282 1.72553 18.7275 1.77663C18.4268 1.82773 18.1495 1.97112 17.9339 2.18691L2.00813 16.7062C1.81491 16.8815 1.69924 17.1264 1.68658 17.387C1.67393 17.6476 1.76531 17.9026 1.94063 18.0958C1.96173 18.1186 1.98282 18.1405 2.0056 18.1608L3.30582 19.342C3.47572 19.4967 3.69442 19.5869 3.92392 19.5971C4.15343 19.6072 4.37925 19.5367 4.56217 19.3977L23.7448 4.85147C23.8897 4.74152 24.0624 4.6742 24.2435 4.65708C24.4246 4.63997 24.6068 4.67373 24.7698 4.75458C24.9327 4.83543 25.0698 4.96016 25.1657 5.11471C25.2616 5.26927 25.3124 5.44752 25.3125 5.62941V5.57288C25.3125 5.2952 25.2341 5.02317 25.0863 4.78807C24.9385 4.55298 24.7274 4.36438 24.4772 4.24397Z" fill="#0065A9"/>
<path d="M24.4772 22.756L19.6121 25.0991C19.3373 25.2312 19.0282 25.2747 18.7276 25.2236C18.427 25.1725 18.1497 25.0294 17.9339 24.8139L2.00813 10.2938C1.81491 10.1185 1.69924 9.87357 1.68658 9.61296C1.67393 9.35235 1.76531 9.09739 1.94063 8.90415C1.96173 8.88137 1.98282 8.85944 2.0056 8.83919L3.30582 7.65794C3.47589 7.50265 3.69509 7.41202 3.92516 7.40184C4.15523 7.39166 4.38158 7.46259 4.5647 7.60225L23.7448 22.1485C23.8897 22.2584 24.0624 22.3258 24.2435 22.3429C24.4246 22.36 24.6068 22.3262 24.7698 22.2454C24.9327 22.1645 25.0698 22.0398 25.1657 21.8853C25.2616 21.7307 25.3124 21.5524 25.3125 21.3706V21.4313C25.3116 21.7083 25.2328 21.9793 25.0851 22.2136C24.9374 22.4479 24.7267 22.6358 24.4772 22.756Z" fill="#007ACC"/>
<path d="M19.6121 25.0989C19.3373 25.231 19.0282 25.2745 18.7276 25.2234C18.427 25.1723 18.1497 25.0292 17.9339 24.8137C18.0551 24.9333 18.2088 25.0145 18.3759 25.0471C18.543 25.0796 18.716 25.0622 18.8732 24.9968C19.0305 24.9315 19.1649 24.8213 19.2597 24.6799C19.3545 24.5385 19.4055 24.3722 19.4063 24.202V2.79776C19.4064 2.62672 19.3558 2.45949 19.2608 2.31725C19.1658 2.175 19.0308 2.06415 18.8727 1.99874C18.7147 1.93332 18.5408 1.91628 18.3731 1.94977C18.2053 1.98326 18.0513 2.06578 17.9305 2.18688C18.1461 1.97117 18.4234 1.82778 18.7241 1.77653C19.0247 1.72529 19.3339 1.76873 19.6088 1.90085L24.473 4.23972C24.724 4.35954 24.936 4.54788 25.0845 4.78302C25.2331 5.01815 25.3121 5.2905 25.3125 5.56863V21.4311C25.3126 21.709 25.2341 21.9813 25.0862 22.2166C24.9383 22.4518 24.7269 22.6405 24.4764 22.7609L19.6121 25.0989Z" fill="#1F9CF0"/>
</svg>
