<svg xmlns="http://www.w3.org/2000/svg" width="129" height="106" fill="none"><path fill="#3BB493" d="M128.791 0v73.254H79.117v2.195h10.17v2.671H39.504v-2.67h10.17v-2.197H0V0h128.791Zm-2.671 70.583v-3.084h-2.641v1.983h-2.671v-1.983H2.671v3.084H126.12Zm0-5.754V7.538H2.67v57.29h123.45Zm0-59.962V2.67H2.67v2.196h123.45ZM76.447 75.449v-2.195H52.344v2.195h24.103Z"/><path fill="#3BB493" d="M126.12 67.5v3.083H2.67v-3.084h118.138v1.983h2.671v-1.983h2.641ZM126.12 2.67H2.67v2.197h123.45V2.67Z"/><path fill="#24886D" d="M113.191 84.521V106H15.598V84.521h97.593Zm-2.671 18.808v-1.976H18.268v1.976h92.252Zm0-4.647v-11.49H18.268v11.49h92.252Z"/><path fill="#3BB493" d="M110.52 101.353H18.268v1.976h92.252v-1.976ZM110.52 87.192v11.49H18.268v-11.49h92.252Zm-3.644 9.514v-2.671h-3.264v2.67h3.264Zm0-4.867v-2.67h-3.116v2.67h3.116Zm-6.167 0v-2.67h-6.407v2.67h6.407Zm-.044 4.867v-2.671h-6.487v2.67h6.487Zm-9.416-4.867v-2.67h-6.407v2.67h6.407Zm-.021 4.867v-2.671h-6.487v2.67h6.487Zm-9.437 0v-2.671h-6.487v2.67h6.487Zm-.003-4.867v-2.67h-6.407v2.67h6.407Zm-9.43 4.867v-2.671h-6.49v2.67h6.49Zm-.03-4.867v-2.67H65.92v2.67h6.407Zm-9.407 4.867v-2.671h-6.487v2.67h6.487Zm-.054-4.867v-2.67H56.46v2.67h6.407Zm-9.383 4.867v-2.671h-6.487v2.67h6.487Zm-.074-4.867v-2.67H47v2.67h6.41Zm-9.363 4.867v-2.671H37.56v2.67h6.487Zm-.098-4.867v-2.67h-6.41v2.67h6.41Zm-9.335 4.867v-2.671h-6.488v2.67h6.488Zm-.125-4.867v-2.67h-6.41v2.67h6.41Zm-9.312 4.867v-2.671h-3.265v2.67h3.265Zm-.149-4.867v-2.67h-3.116v2.67h3.116Z"/><path fill="#24886D" d="M106.876 94.035h-3.265v2.67h3.265v-2.67ZM106.875 89.168h-3.115v2.671h3.115v-2.67ZM100.709 89.168h-6.407v2.671h6.407v-2.67ZM100.665 94.035h-6.488v2.67h6.488v-2.67ZM91.249 89.168h-6.407v2.671h6.407v-2.67ZM91.228 94.035h-6.487v2.67h6.487v-2.67ZM81.791 94.035h-6.487v2.67h6.487v-2.67ZM81.788 89.168h-6.407v2.671h6.407v-2.67Z"/><path fill="#3BB493" d="M76.447 73.254H52.343v2.195h24.102v-2.195Z"/><path fill="#24886D" d="M72.357 94.035h-6.49v2.67h6.49v-2.67ZM72.327 89.168H65.92v2.671h6.407v-2.67ZM62.92 94.035h-6.486v2.67h6.487v-2.67ZM62.867 89.168H56.46v2.671h6.407v-2.67ZM53.484 94.035h-6.487v2.67h6.487v-2.67ZM53.41 89.168H47v2.671h6.41v-2.67ZM44.047 94.035H37.56v2.67h6.487v-2.67ZM43.95 89.168h-6.41v2.671h6.41v-2.67ZM34.613 94.035h-6.487v2.67h6.487v-2.67ZM34.489 89.168h-6.41v2.671h6.41v-2.67ZM25.176 94.035h-3.264v2.67h3.264v-2.67ZM25.028 89.168h-3.116v2.671h3.116v-2.67Z"/><g class="object"><path fill="#3BB493" d="M4.543 9.086h119.629V63.6H4.543z"/><path fill="#FEFEFE" d="M79.588 49.847h-6.711c-.466-1.472-1.874-2.545-3.535-2.545h-3.893v-4.507l5.524-5.387h8.615v12.44Zm-10.246 2.538h-9.97c-.835 0-1.514-.662-1.514-1.477 0-.814.68-1.477 1.514-1.477h9.97c.835 0 1.514.663 1.514 1.477 0 .815-.679 1.477-1.514 1.477ZM49.127 22.843h6.712c.467 1.47 1.874 2.541 3.533 2.541h3.893v4.508l-5.844 5.698c-.205.2-.32.47-.32.753 0 .282.115.553.32.753l5.844 5.699v4.507h-3.893c-1.66 0-3.069 1.073-3.535 2.545h-6.71V22.843ZM59.372 20.3h9.97c.835 0 1.514.663 1.514 1.477 0 .814-.679 1.477-1.514 1.477h-9.97c-.835 0-1.514-.663-1.514-1.477 0-.814.68-1.477 1.514-1.477Zm4.985 20.547-4.62-4.505 4.62-4.504 4.62 4.504-4.62 4.505Zm16.323-5.57h-9.707l-5.524-5.386v-4.508h3.893c2.04 0 3.698-1.618 3.698-3.606 0-1.989-1.659-3.606-3.698-3.606h-9.97c-1.66 0-3.066 1.07-3.533 2.541h-7.804c-.603 0-1.092.477-1.092 1.065v29.134c0 .588.489 1.065 1.092 1.065h7.805c.468 1.468 1.874 2.537 3.532 2.537h9.97c1.658 0 3.064-1.069 3.533-2.537h7.805c.603 0 1.091-.477 1.091-1.065V36.343c0-.588-.488-1.065-1.091-1.065Z"/><path fill="#FEFEFE" d="M59.372 20.301h9.97c.835 0 1.514.663 1.514 1.477 0 .814-.679 1.477-1.514 1.477h-9.97c-.835 0-1.514-.663-1.514-1.477 0-.814.68-1.477 1.514-1.477ZM64.357 40.848l-4.62-4.505 4.62-4.504 4.62 4.504-4.62 4.505ZM69.342 52.385h-9.97c-.835 0-1.514-.662-1.514-1.477 0-.814.68-1.477 1.514-1.477h9.97c.835 0 1.514.663 1.514 1.477 0 .815-.679 1.477-1.514 1.477Z"/></g></svg>