<svg xmlns="http://www.w3.org/2000/svg" width="129" height="106" fill="none"><path fill="#3BB493" d="M128.791 0v73.254H79.117v2.195h10.17v2.671H39.504v-2.67h10.17v-2.197H0V0h128.791Zm-2.671 70.583v-3.084h-2.641v1.983h-2.671v-1.983H2.671v3.084H126.12Zm0-5.754V7.538H2.67v57.29h123.45Zm0-59.962V2.67H2.67v2.196h123.45ZM76.447 75.449v-2.195H52.344v2.195h24.103Z"/><path fill="#3BB493" d="M126.12 67.5v3.083H2.67v-3.084h118.138v1.983h2.671v-1.983h2.641ZM126.12 2.67H2.67v2.197h123.45V2.67Z"/><path fill="#24886D" d="M113.191 84.521V106H15.598V84.521h97.593Zm-2.671 18.808v-1.976H18.268v1.976h92.252Zm0-4.647v-11.49H18.268v11.49h92.252Z"/><path fill="#3BB493" d="M110.52 101.353H18.268v1.976h92.252v-1.976ZM110.52 87.192v11.49H18.268v-11.49h92.252Zm-3.644 9.514v-2.671h-3.264v2.67h3.264Zm0-4.867v-2.67h-3.116v2.67h3.116Zm-6.167 0v-2.67h-6.407v2.67h6.407Zm-.044 4.867v-2.671h-6.487v2.67h6.487Zm-9.416-4.867v-2.67h-6.407v2.67h6.407Zm-.021 4.867v-2.671h-6.487v2.67h6.487Zm-9.437 0v-2.671h-6.487v2.67h6.487Zm-.003-4.867v-2.67h-6.407v2.67h6.407Zm-9.43 4.867v-2.671h-6.49v2.67h6.49Zm-.03-4.867v-2.67H65.92v2.67h6.407Zm-9.407 4.867v-2.671h-6.487v2.67h6.487Zm-.054-4.867v-2.67H56.46v2.67h6.407Zm-9.383 4.867v-2.671h-6.487v2.67h6.487Zm-.074-4.867v-2.67H47v2.67h6.41Zm-9.363 4.867v-2.671H37.56v2.67h6.487Zm-.098-4.867v-2.67h-6.41v2.67h6.41Zm-9.335 4.867v-2.671h-6.488v2.67h6.488Zm-.125-4.867v-2.67h-6.41v2.67h6.41Zm-9.312 4.867v-2.671h-3.265v2.67h3.265Zm-.149-4.867v-2.67h-3.116v2.67h3.116Z"/><path fill="#24886D" d="M106.876 94.035h-3.265v2.67h3.265v-2.67ZM106.875 89.168h-3.115v2.671h3.115v-2.67ZM100.709 89.168h-6.407v2.671h6.407v-2.67ZM100.665 94.035h-6.488v2.67h6.488v-2.67ZM91.249 89.168h-6.407v2.671h6.407v-2.67ZM91.228 94.035h-6.487v2.67h6.487v-2.67ZM81.791 94.035h-6.487v2.67h6.487v-2.67ZM81.788 89.168h-6.407v2.671h6.407v-2.67Z"/><path fill="#3BB493" d="M76.447 73.254H52.343v2.195h24.102v-2.195Z"/><path fill="#24886D" d="M72.357 94.035h-6.49v2.67h6.49v-2.67ZM72.327 89.168H65.92v2.671h6.407v-2.67ZM62.92 94.035h-6.486v2.67h6.487v-2.67ZM62.867 89.168H56.46v2.671h6.407v-2.67ZM53.484 94.035h-6.487v2.67h6.487v-2.67ZM53.41 89.168H47v2.671h6.41v-2.67ZM44.047 94.035H37.56v2.67h6.487v-2.67ZM43.95 89.168h-6.41v2.671h6.41v-2.67ZM34.613 94.035h-6.487v2.67h6.487v-2.67ZM34.489 89.168h-6.41v2.671h6.41v-2.67ZM25.176 94.035h-3.264v2.67h3.264v-2.67ZM25.028 89.168h-3.116v2.671h3.116v-2.67Z"/><g class="object"><path fill="#3BB493" d="M4.543 9.086h119.629V63.6H4.543z"/><path fill="#FEFEFE" fill-rule="evenodd" d="M81.406 24.304a12.825 12.825 0 0 0-3.297 1.142l.186 2.875a10.134 10.134 0 0 0-2.836 2.81l-2.874-.202a12.869 12.869 0 0 0-1.16 3.289l2.362 1.647c-.119 1.337.025 2.69.432 3.969l-1.95 2.119a12.736 12.736 0 0 0 1.843 2.958l2.764-.821c.97.93 2.118 1.656 3.373 2.14l.44 2.848c1.131.29 2.293.426 3.46.4l1.084-2.67a10.11 10.11 0 0 0 3.773-1.304l2.502 1.428c.93-.7 1.764-1.526 2.472-2.453l-1.411-2.512a10.11 10.11 0 0 0 1.33-3.764l2.676-1.063a12.616 12.616 0 0 0-.375-3.466l-2.846-.46a10.196 10.196 0 0 0-2.11-3.391l.838-2.752a12.733 12.733 0 0 0-2.945-1.868l-2.133 1.936a10.132 10.132 0 0 0-3.965-.46l-1.633-2.375Zm1.103 8.53a4.171 4.171 0 1 1 2.725 7.884 4.173 4.173 0 0 1-2.723-7.888l-.001.004ZM65.69 25.71H35.567a3.766 3.766 0 0 0-3.766 3.766v15.062a3.766 3.766 0 0 0 3.766 3.766H65.69a3.766 3.766 0 0 0 3.765-3.766V29.476a3.766 3.766 0 0 0-3.765-3.766ZM45.527 42.279l-.546-2.015h-3.465l-.546 2.015h-3.2l3.445-10.789h3.935l3.596 10.789h-3.22Zm11.937-5.912a3.2 3.2 0 0 1-.678 1.205c-.354.366-.785.65-1.261.828a5.175 5.175 0 0 1-1.883.32h-.829v3.559h-2.937V31.528h3.766a4.575 4.575 0 0 1 3.05.885 3.144 3.144 0 0 1 1.035 2.542c-.01.482-.1.958-.263 1.412Zm4.858 5.912h-2.919V31.528h2.919v10.75Zm-18.377-6.157.452 1.751h-2.278l.452-1.751c0-.245.15-.527.226-.885.075-.358.17-.715.245-1.073.078-.298.141-.6.188-.904 0 .245.132.546.207.942l.282 1.092.226.828Zm10.525-1.883a1.072 1.072 0 0 1 .301.81c.01.278-.061.553-.207.79a1.11 1.11 0 0 1-.508.415c-.22.092-.458.137-.697.132h-.583V33.88h.753a1.185 1.185 0 0 1 .866.32l.075.038Z" clip-rule="evenodd"/></g></svg>