<svg xmlns="http://www.w3.org/2000/svg" width="128" height="105" fill="none"><path fill="#3BB493" d="M127.576 0v72.562H78.371v2.176h10.074v2.645H39.13v-2.645h10.074v-2.176H0V0h127.576Zm-2.646 69.917v-3.054h-2.616v1.963h-2.646v-1.963H2.646v3.054H124.93Zm0-5.7V7.467H2.646v56.75H124.93Zm0-59.396V2.646H2.646V4.82H124.93ZM75.725 74.738v-2.176H51.851v2.176h23.874Z"/><path fill="#3BB493" d="M124.93 66.863v3.054H2.646v-3.054h117.022v1.963h2.646v-1.963h2.616ZM124.93 2.646H2.646V4.82H124.93V2.646Z"/><path fill="#24886D" d="M112.123 83.724V105H15.45V83.724h96.673Zm-2.646 18.63v-1.957H18.096v1.957h91.381Zm0-4.603V86.37H18.096v11.382h91.381Z"/><path fill="#3BB493" d="M109.477 100.397H18.096v1.957h91.381v-1.957ZM109.477 86.37V97.75H18.096V86.37h91.381Zm-3.609 9.423v-2.645h-3.234v2.645h3.234Zm0-4.82v-2.646h-3.087v2.646h3.087Zm-6.109 0v-2.646h-6.346v2.646h6.346Zm-.044 4.82v-2.645H93.29v2.645h6.426Zm-9.327-4.82v-2.646H84.04v2.646h6.347Zm-.02 4.82v-2.645h-6.426v2.645h6.425Zm-9.348 0v-2.645h-6.426v2.645h6.426Zm-.003-4.82v-2.646H74.67v2.646h6.347Zm-9.342 4.82v-2.645h-6.429v2.645h6.429Zm-.03-4.82v-2.646H65.3v2.646h6.346Zm-9.318 4.82v-2.645h-6.426v2.645h6.426Zm-.053-4.82v-2.646h-6.346v2.646h6.346Zm-9.295 4.82v-2.645h-6.425v2.645h6.425Zm-.073-4.82v-2.646h-6.35v2.646h6.35Zm-9.274 4.82v-2.645h-6.426v2.645h6.426Zm-.097-4.82v-2.646h-6.35v2.646h6.35Zm-9.248 4.82v-2.645H27.86v2.645h6.426Zm-.124-4.82v-2.646h-6.349v2.646h6.35Zm-9.224 4.82v-2.645h-3.233v2.645h3.233Zm-.147-4.82v-2.646h-3.086v2.646h3.086Z"/><path fill="#24886D" d="M105.867 93.148h-3.233v2.645h3.233v-2.645ZM105.867 88.327h-3.086v2.646h3.086v-2.646ZM99.759 88.327h-6.347v2.646h6.347v-2.646ZM99.715 93.148h-6.426v2.645h6.426v-2.645ZM90.388 88.327h-6.347v2.646h6.347v-2.646ZM90.368 93.148h-6.426v2.645h6.426v-2.645ZM81.02 93.148h-6.426v2.645h6.426v-2.645ZM81.017 88.327H74.67v2.646h6.347v-2.646Z"/><path fill="#3BB493" d="M75.725 72.563H51.85v2.175h23.875v-2.175Z"/><path fill="#24886D" d="M71.675 93.148h-6.429v2.645h6.429v-2.645ZM71.645 88.327h-6.346v2.646h6.346v-2.646ZM62.327 93.148H55.9v2.645h6.426v-2.645ZM62.274 88.327h-6.346v2.646h6.346v-2.646ZM52.98 93.148h-6.426v2.645h6.425v-2.645ZM52.906 88.327h-6.35v2.646h6.35v-2.646ZM43.632 93.148h-6.426v2.645h6.426v-2.645ZM43.535 88.327h-6.35v2.646h6.35v-2.646ZM34.286 93.148h-6.425v2.645h6.425v-2.645ZM34.164 88.327h-6.35v2.646h6.35v-2.646ZM24.939 93.148h-3.234v2.645h3.234v-2.645ZM24.792 88.327h-3.087v2.646h3.087v-2.646Z"/><g class="object"><path fill="#3BB493" d="M4.5 9H123v54H4.5z"/><path fill="#FEFEFE" fill-rule="evenodd" d="M43.438 16.5h28.169c.79 0 1.437.646 1.437 1.434v2.906h2.45a4.383 4.383 0 0 1 4.125-2.896c2.42 0 4.381 1.956 4.381 4.37a4.375 4.375 0 0 1-4.38 4.37 4.383 4.383 0 0 1-4.126-2.896h-2.45v2.906a1.44 1.44 0 0 1-1.437 1.434H43.438A1.44 1.44 0 0 1 42 26.694v-8.76a1.44 1.44 0 0 1 1.438-1.434Zm30.3 14.686 9.573 4.093V43c0 5.374-3.92 10.017-9.225 10.94l-.348.06-.348-.06c-5.305-.923-9.224-5.565-9.224-10.94V35.28l9.572-4.093Zm0 3.506-6.34 2.71V43c0 3.733 2.674 6.989 6.34 7.727 3.667-.738 6.341-3.994 6.341-7.727v-5.597l-6.341-2.71ZM66.44 36.32a.685.685 0 0 0-.418.63L66.021 43c0 4.435 3.224 8.29 7.594 9.097a.68.68 0 0 0 .266-.004c4.361-.814 7.575-4.665 7.575-9.093v-6.048c0-.3-.193-.556-.463-.65l-6.986-2.986a.687.687 0 0 0-.537 0l-7.03 3.005Zm3.144 6.98 2.31 2.304a1.033 1.033 0 0 0 1.46 0c1.978-1.975 2.571-2.593 4.541-4.577.4-.402.399-1.052-.004-1.451a1.03 1.03 0 0 0-1.455.003l-3.814 3.84-1.579-1.574a1.033 1.033 0 0 0-1.459 0 1.027 1.027 0 0 0 0 1.455Zm7.392-22.414c.257.1.439.35.439.64V23.1c0 .29-.182.54-.439.64a3.004 3.004 0 0 0 2.643 1.57 3 3 0 0 0 3.003-2.997 3 3 0 0 0-3.003-2.996 3.004 3.004 0 0 0-2.643 1.57Zm-9.835-.608v.377l-.266-.266a.69.69 0 0 0-.974 0 .686.686 0 0 0 0 .97l.267.267h-.377a.688.688 0 1 0 0 1.373h.377l-.267.266a.686.686 0 0 0 0 .972.69.69 0 0 0 .974 0l.266-.267v.376a.688.688 0 0 0 1.377 0v-.376l.267.267a.69.69 0 0 0 .974 0 .686.686 0 0 0 0-.972L69.492 23h.377a.688.688 0 1 0 0-1.373h-.377l.266-.266a.686.686 0 0 0 0-.971.69.69 0 0 0-.973 0l-.267.266v-.377a.688.688 0 0 0-1.377 0Zm-17.998 2.987L48.876 23h.377a.688.688 0 1 0 0-1.374h-.377l.267-.266a.686.686 0 0 0 0-.97.69.69 0 0 0-.974 0l-.266.265v-.376a.688.688 0 0 0-1.377 0v.377l-.267-.266a.69.69 0 0 0-.974 0 .686.686 0 0 0 0 .97l.267.267h-.377a.688.688 0 1 0 0 1.373h.377l-.267.266a.686.686 0 0 0 0 .971.69.69 0 0 0 .974 0l.267-.266v.376a.688.688 0 0 0 1.377 0v-.376l.266.266a.69.69 0 0 0 .974 0 .686.686 0 0 0 0-.971Zm6.872 0L55.748 23h.377a.688.688 0 1 0 0-1.374h-.377l.267-.266a.685.685 0 0 0 0-.97.69.69 0 0 0-.974 0l-.266.265v-.376a.688.688 0 0 0-1.377 0v.377l-.267-.266a.69.69 0 0 0-.974 0 .685.685 0 0 0 0 .97l.267.267h-.377a.688.688 0 1 0 0 1.373h.377l-.267.266a.685.685 0 0 0 0 .971.69.69 0 0 0 .974 0l.267-.266v.376a.688.688 0 0 0 1.377 0v-.376l.266.266a.69.69 0 0 0 .974 0 .686.686 0 0 0 0-.971Zm6.872 0L62.62 23h.377a.688.688 0 1 0 0-1.374h-.377l.267-.266a.686.686 0 0 0 0-.97.69.69 0 0 0-.974 0l-.266.265v-.376a.688.688 0 0 0-1.377 0v.377l-.267-.266a.69.69 0 0 0-.974 0 .686.686 0 0 0 0 .97l.267.267h-.377a.688.688 0 1 0 0 1.373h.377l-.267.266a.686.686 0 0 0 0 .971.69.69 0 0 0 .974 0l.267-.266v.376a.688.688 0 0 0 1.377 0v-.376l.266.266a.69.69 0 0 0 .974 0 .686.686 0 0 0 0-.971Z" clip-rule="evenodd"/></g></svg>