<svg xmlns="http://www.w3.org/2000/svg" width="35" height="35" fill="none"><rect width="35" height="35" fill="#3BB493" rx="5"/><g clip-path="url(#a)"><path fill="#fff" d="M3 28.39A3.61 3.61 0 0 0 6.61 32h20.78A3.61 3.61 0 0 0 31 28.39V7.61A3.61 3.61 0 0 0 27.39 4H6.61A3.61 3.61 0 0 0 3 7.61v20.78Z"/><path fill="#3BB493" d="M14.611 16.385V12.42h3.49c.333 0 .653.028.962.083.309.056.582.155.82.297.237.143.427.34.57.594.142.253.213.578.213.973 0 .712-.214 1.227-.641 1.543-.428.317-.974.475-1.639.475h-3.775Zm-3.728-6.862v16.954H19.1c.76 0 1.5-.095 2.22-.285a5.934 5.934 0 0 0 1.923-.879 4.327 4.327 0 0 0 1.341-1.531c.333-.626.5-1.366.5-2.22 0-1.061-.258-1.967-.772-2.719-.515-.752-1.295-1.278-2.34-1.58.76-.363 1.334-.83 1.722-1.4.388-.57.582-1.282.582-2.137 0-.791-.13-1.456-.392-1.994a3.258 3.258 0 0 0-1.104-1.294c-.475-.325-1.045-.558-1.71-.7-.664-.143-1.4-.215-2.208-.215h-7.978Zm3.728 14.057v-4.654h4.06c.808 0 1.457.186 1.947.558.491.372.736.993.736 1.864 0 .443-.075.807-.225 1.092-.15.285-.352.51-.606.677a2.565 2.565 0 0 1-.878.356c-.333.071-.68.107-1.045.107h-3.989Z"/></g><defs><clipPath id="a"><rect width="28" height="28" x="3" y="4" fill="#fff" rx="5"/></clipPath></defs></svg>