<svg xmlns="http://www.w3.org/2000/svg" width="35" height="35" fill="none"><rect width="35" height="35" fill="#3BB493" rx="5"/><g clip-path="url(#a)"><path fill="#fff" d="M17.886 5c1.013 1.66-.322 3.857-1.389 5.084-1.034 1.19-2.292 2.186-3.435 3.267-1.226 1.162-2.406 2.385-3.414 3.748-2.017 2.73-3.253 6.16-2.345 9.566.907 3.402 3.813 5.567 7.096 6.334-1.657-.726-3.205-2.57-3.21-4.457-.004-2.059 1.283-3.806 2.882-4.954-.192.738-.296 1.412.179 2.07.22.301.521.532.867.665.346.132.723.162 1.084.084 1.712-.38 1.791-2.287.776-3.4-1.003-1.1-1.973-2.343-1.593-3.94.193-.799.677-1.549 1.29-2.084-.471 1.258.87 2.497 1.753 3.115 1.533 1.07 3.214 1.88 4.622 3.136 1.483 1.32 2.578 3.104 2.356 5.174-.24 2.243-1.998 3.803-3.97 4.592 4.168-.933 8.475-4.212 8.561-8.898.107-3.538-2.19-6.67-5.935-8.615.219.56.085.813-.067 1.078-.633 1.101-2.396 1.344-3.262.215-1.387-1.806.029-3.752.227-5.664.247-2.398-1.235-4.724-3.073-6.116Z"/></g><defs><clipPath id="a"><rect width="25" height="25" x="5" y="5" fill="#fff" rx="5"/></clipPath></defs></svg>