<svg xmlns="http://www.w3.org/2000/svg" width="48" height="48" fill="none"><path fill="url(#a)" d="M48 6v36c0 3.307-2.693 6-6 6H6c-3.307 0-6-2.693-6-6V6c0-3.307 2.693-6 6-6h36c3.307 0 6 2.693 6 6Z"/><path fill="#FEFEFE" d="M39.335 23.01c-.046-.083-.107-.155-.155-.237 1.072-2.233 1.11-5.089-.12-7.466-1.467-3.002-4.795-5.116-8.25-5.083-.095-.001-.189.015-.282.016-1.399-2.044-3.853-3.504-6.525-3.63-3.332-.23-6.828 1.595-8.527 4.605-.048.08-.081.169-.127.252-2.469.189-4.961 1.584-6.405 3.837-1.865 2.77-2.033 6.71-.276 9.687.045.082.107.154.155.236-1.072 2.233-1.11 5.089.12 7.466 1.466 3.002 4.794 5.116 8.25 5.083.095.001.188-.015.282-.016 1.398 2.044 3.853 3.504 6.525 3.63 3.332.23 6.828-1.595 8.527-4.605.048-.08.081-.169.126-.252 2.47-.189 4.962-1.584 6.406-3.837 1.865-2.77 2.033-6.71.276-9.687Zm-3.168-6.033c.741 1.039 1.176 2.323 1.257 3.698-.53-.471-1.1-.898-1.71-1.242-1.51-.786-3.23-1.218-4.909-1.1-2.33.087-4.488 1.23-5.926 2.874a2.833 2.833 0 0 0-.652-.12c.028-1.524.48-2.938 1.289-4.071a6.558 6.558 0 0 1 5.288-2.804c2.067-.05 4.09 1.003 5.363 2.765Zm-17.243-3.765c.992-1.813 2.915-3.04 5.076-3.26 1.27-.123 2.6.143 3.83.76a9.961 9.961 0 0 0-1.93.861c-1.436.914-2.67 2.187-3.407 3.7-1.092 2.066-1.18 4.51-.47 6.579-.16.147-.303.312-.43.497-1.308-.786-2.306-1.885-2.884-3.154a6.559 6.559 0 0 1 .215-5.983Zm-7.09 3.763c.53-1.162 1.423-2.18 2.574-2.938a9.923 9.923 0 0 0-.22 2.103c.073 1.701.559 3.405 1.501 4.8 1.242 1.977 3.312 3.275 5.458 3.697.048.216.113.428.209.628-1.332.736-2.78 1.048-4.164.915a6.56 6.56 0 0 1-5.072-3.177c-1.075-1.767-1.176-4.046-.285-6.028Zm0 14.048c-.742-1.039-1.177-2.323-1.258-3.698.53.471 1.1.898 1.71 1.242 1.51.786 3.23 1.218 4.909 1.1 2.33-.087 4.488-1.23 5.926-2.874.215.068.434.104.652.12-.028 1.524-.48 2.938-1.289 4.071a6.559 6.559 0 0 1-5.288 2.804c-2.067.05-4.09-1.003-5.363-2.765Zm17.242 3.765c-.992 1.813-2.915 3.04-5.076 3.26-1.27.123-2.6-.143-3.83-.76a9.962 9.962 0 0 0 1.93-.861c1.436-.914 2.67-2.187 3.407-3.7 1.092-2.066 1.18-4.51.47-6.579.16-.147.303-.312.43-.496 1.308.787 2.306 1.885 2.884 3.155a6.556 6.556 0 0 1-.215 5.981Zm7.09-3.763c-.53 1.162-1.423 2.18-2.574 2.938a9.93 9.93 0 0 0 .22-2.103c-.073-1.7-.559-3.405-1.501-4.8-1.242-1.977-3.312-3.275-5.458-3.697a2.896 2.896 0 0 0-.209-.628c1.332-.736 2.78-1.048 4.164-.915a6.56 6.56 0 0 1 5.072 3.177c1.075 1.767 1.176 4.046.285 6.028Z"/><defs><linearGradient id="a" x1="19.193" x2="31.751" y1="-5.821" y2="72.093" gradientUnits="userSpaceOnUse"><stop stop-color="#F44F5A"/><stop offset=".443" stop-color="#EE3D4A"/><stop offset="1" stop-color="#E52030"/></linearGradient></defs></svg>