<svg width="35" height="35" viewBox="0 0 35 35" fill="none" xmlns="http://www.w3.org/2000/svg">
<g clip-path="url(#clip0_233_11)">
<path d="M35 0H0V35H35V0Z" fill="#3BB493"/>
<path d="M22 19V17H24V19H22Z" fill="white"/>
<path fill-rule="evenodd" clip-rule="evenodd" d="M17 3.84229L30 11.4256V24.5744L17 32.1576L4 24.5744V11.4256L17 3.84229ZM14.6631 11C10.9832 11 8 13.9832 8 17.6631V18.3369C8 22.0168 10.9832 25 14.6631 25C15.6975 25 16.7177 24.7592 17.643 24.2966L18.4472 23.8944L17.5528 22.1056L16.7485 22.5077C16.101 22.8315 15.387 23 14.6631 23C12.0877 23 10 20.9123 10 18.3369V17.6631C10 15.0877 12.0877 13 14.6631 13C15.387 13 16.101 13.1685 16.7485 13.4923L17.5528 13.8944L18.4472 12.1056L17.643 11.7034C16.7177 11.2408 15.6975 11 14.6631 11ZM20 13V15H18V17H20V19H18V21H20V23H22V21H24V23H26V21H28V19H26V17H28V15H26V13H24V15H22V13H20Z" fill="white"/>
</g>
<defs>
<clipPath id="clip0_233_11">
<rect width="35" height="35" rx="5" fill="white"/>
</clipPath>
</defs>
</svg>
