<svg xmlns="http://www.w3.org/2000/svg" width="35" height="35" fill="none"><rect width="35" height="35" fill="#3BB493" rx="5"/><path fill="#fff" d="M8.349 27.65 6.313 4.814h22.374l-2.038 22.834-9.163 2.54-9.137-2.536Z"/><path fill="#fff" d="m17.5 28.246 7.404-2.052L26.646 6.68H17.5v21.566Z"/><path fill="#3BB493" d="M17.5 14.954h3.707l.255-2.868H17.5V9.285h7.023l-.067.751-.688 7.72H17.5v-2.802ZM17.517 22.229l-.012.003-3.12-.842-.2-2.234h-2.811l.392 4.398 5.738 1.593.013-.004V22.23Z"/><path fill="#3BB493" d="m20.968 17.637-.337 3.75-3.124.844v2.914l5.742-1.591.043-.473.487-5.444h-2.81ZM17.51 9.285v2.801h-6.766l-.056-.63-.128-1.42-.067-.751h7.017ZM17.5 14.954v2.802h-3.081l-.056-.63-.127-1.42-.067-.752h3.33Z"/></svg>