<svg xmlns="http://www.w3.org/2000/svg" width="128" height="105" fill="none"><path fill="#3BB493" d="M127.576 0v72.562H78.371v2.176h10.074v2.645H39.13v-2.645h10.074v-2.176H0V0h127.576Zm-2.646 69.917v-3.054h-2.616v1.963h-2.646v-1.963H2.646v3.054H124.93Zm0-5.7V7.467H2.646v56.75H124.93Zm0-59.396V2.646H2.646V4.82H124.93ZM75.725 74.738v-2.176H51.851v2.176h23.874Z"/><path fill="#3BB493" d="M124.93 66.863v3.054H2.646v-3.054h117.022v1.963h2.646v-1.963h2.616ZM124.93 2.646H2.646V4.82H124.93V2.646Z"/><path fill="#24886D" d="M112.123 83.724V105H15.45V83.724h96.673Zm-2.646 18.63v-1.957H18.096v1.957h91.381Zm0-4.603V86.37H18.096v11.382h91.381Z"/><path fill="#3BB493" d="M109.477 100.397H18.096v1.957h91.381v-1.957ZM109.477 86.37V97.75H18.096V86.37h91.381Zm-3.609 9.423v-2.645h-3.234v2.645h3.234Zm0-4.82v-2.646h-3.087v2.646h3.087Zm-6.109 0v-2.646h-6.346v2.646h6.346Zm-.044 4.82v-2.645H93.29v2.645h6.426Zm-9.327-4.82v-2.646H84.04v2.646h6.347Zm-.02 4.82v-2.645h-6.426v2.645h6.425Zm-9.348 0v-2.645h-6.426v2.645h6.426Zm-.003-4.82v-2.646H74.67v2.646h6.347Zm-9.342 4.82v-2.645h-6.429v2.645h6.429Zm-.03-4.82v-2.646H65.3v2.646h6.346Zm-9.318 4.82v-2.645h-6.426v2.645h6.426Zm-.053-4.82v-2.646h-6.346v2.646h6.346Zm-9.295 4.82v-2.645h-6.425v2.645h6.425Zm-.073-4.82v-2.646h-6.35v2.646h6.35Zm-9.274 4.82v-2.645h-6.426v2.645h6.426Zm-.097-4.82v-2.646h-6.35v2.646h6.35Zm-9.248 4.82v-2.645H27.86v2.645h6.426Zm-.124-4.82v-2.646h-6.349v2.646h6.35Zm-9.224 4.82v-2.645h-3.233v2.645h3.233Zm-.147-4.82v-2.646h-3.086v2.646h3.086Z"/><path fill="#24886D" d="M105.867 93.148h-3.233v2.645h3.233v-2.645ZM105.867 88.327h-3.086v2.646h3.086v-2.646ZM99.759 88.327h-6.347v2.646h6.347v-2.646ZM99.715 93.148h-6.426v2.645h6.426v-2.645ZM90.388 88.327h-6.347v2.646h6.347v-2.646ZM90.368 93.148h-6.426v2.645h6.426v-2.645ZM81.02 93.148h-6.426v2.645h6.426v-2.645ZM81.017 88.327H74.67v2.646h6.347v-2.646Z"/><path fill="#3BB493" d="M75.725 72.563H51.85v2.175h23.875v-2.175Z"/><path fill="#24886D" d="M71.675 93.148h-6.429v2.645h6.429v-2.645ZM71.645 88.327h-6.346v2.646h6.346v-2.646ZM62.327 93.148H55.9v2.645h6.426v-2.645ZM62.274 88.327h-6.346v2.646h6.346v-2.646ZM52.98 93.148h-6.426v2.645h6.425v-2.645ZM52.906 88.327h-6.35v2.646h6.35v-2.646ZM43.632 93.148h-6.426v2.645h6.426v-2.645ZM43.535 88.327h-6.35v2.646h6.35v-2.646ZM34.286 93.148h-6.425v2.645h6.425v-2.645ZM34.164 88.327h-6.35v2.646h6.35v-2.646ZM24.939 93.148h-3.234v2.645h3.234v-2.645ZM24.792 88.327h-3.087v2.646h3.087v-2.646Z"/><g class="object"><path fill="#3BB493" d="M4.5 9H123v54H4.5z"/><path fill="#FEFEFE" d="M77.56 44.486v3.624c0 4.206-7.127 7.741-15.558 7.741-8.43 0-15.558-3.535-15.558-7.74v-3.625c1.391 1.477 3.433 2.73 5.954 3.624 2.738.985 5.997 1.566 9.56 1.566 3.564 0 6.867-.581 9.561-1.566 2.564-.895 4.65-2.148 6.041-3.624Zm-5.997-4.654c-2.738.984-5.998 1.566-9.56 1.566-3.565 0-6.867-.582-9.562-1.566-2.52-.895-4.563-2.148-5.953-3.624v3.624c0 4.206 7.127 7.741 15.558 7.741 8.43 0 15.557-3.535 15.557-7.74v-3.625c-1.434 1.476-3.52 2.73-6.04 3.624Zm0-8.233c-2.738.984-5.998 1.566-9.56 1.566-3.565 0-6.867-.582-9.562-1.566-2.52-.895-4.563-2.148-5.953-3.625V31.6c0 4.206 7.127 7.74 15.558 7.74 8.43 0 15.557-3.534 15.557-7.74v-3.625c-1.434 1.477-3.52 2.73-6.04 3.625Zm-9.56-16.02c-8.432 0-15.559 3.535-15.559 7.742 0 4.206 7.127 7.741 15.558 7.741 8.43 0 15.558-3.535 15.558-7.741 0-4.207-7.127-7.741-15.558-7.741Z"/></g></svg>