<svg xmlns="http://www.w3.org/2000/svg" xmlns:xlink="http://www.w3.org/1999/xlink" viewBox="0,0,256,256" width="144px" height="144px" fill-rule="nonzero"><g transform="translate(26.66667,26.66667) scale(0.79167,0.79167)"><g fill="none" fill-rule="nonzero" stroke="none" stroke-width="1" stroke-linecap="butt" stroke-linejoin="miter" stroke-miterlimit="10" stroke-dasharray="" stroke-dashoffset="0" font-family="none" font-weight="none" font-size="none" text-anchor="none" style="mix-blend-mode: normal"><g transform="scale(5.33333,5.33333)"><path d="M38.96,10c0,0 -4,-2 -9,-3l-1.225,2.449c-1.514,-0.288 -3.098,-0.449 -4.735,-0.449c-1.65,0 -3.247,0.163 -4.772,0.455l-1.228,-2.455c-5,1 -9,3 -9,3c-8,9 -7,25 -7,25c3,3 11,6 11,6c0.945,-0.945 1.89,-2.559 2.624,-4c-2.546,-1.165 -3.624,-2 -3.624,-2l0.739,-0.739c3.149,1.718 7.04,2.739 11.261,2.739c4.21,0 8.09,-1.016 11.235,-2.725l0.725,0.725c0,0 -1.078,0.835 -3.624,2c0.734,1.44 1.679,3.055 2.624,4c0,0 8,-3 11,-6c0,0 1,-16 -7,-25z" fill="#6c19ff"></path><path d="M9,28c-1,-7 4,-14 4,-14l7,-3l-0.772,-1.545c-2.792,0.535 -5.338,1.52 -7.478,2.852c-1.118,1.414 -5.725,7.821 -5.031,16.487c1.349,2.18 3.436,4.057 6.02,5.467l1.261,-1.261c-3.175,-1.813 -5,-5 -5,-5z" fill="#2100c4"></path><path d="M41.281,28.794c0.694,-8.666 -3.913,-15.073 -5.031,-16.487c-2.149,-1.338 -4.708,-2.325 -7.515,-2.858l-0.775,1.551l7,3c0,0 5,7 4,14c0,0 -1.825,3.187 -5,5l1.275,1.275c2.596,-1.411 4.693,-3.293 6.046,-5.481z" fill="#2100c4"></path><ellipse cx="17" cy="25.5" rx="4" ry="4.5" fill="#ddbaff"></ellipse><ellipse cx="31" cy="25.5" rx="4" ry="4.5" fill="#ddbaff"></ellipse></g></g></g></svg>