<svg width="35" height="35" viewBox="0 0 35 35" fill="none" xmlns="http://www.w3.org/2000/svg">
<g clip-path="url(#clip0_234_37)">
<path d="M35 0H0V35H35V0Z" fill="#3BB493"/>
<g clip-path="url(#clip1_234_37)">
<path d="M7.69513 12.8264V23.0336H8.8884V15.6544C8.90068 15.1871 8.88166 14.7194 8.83147 14.2546H8.87627C8.9617 14.4784 9.07057 14.6924 9.20107 14.8932L14.4479 23.0335H15.9143V12.8264H14.7222V20.0044C14.7114 20.5056 14.7356 21.007 14.7944 21.5048H14.7671C14.7036 21.3816 14.5653 21.1545 14.3526 20.8223L9.24587 12.8265L7.69513 12.8264ZM18.5626 12.8264V23.0336H23.9876L23.9932 21.9137H19.7831V18.3751H23.4673V17.3H19.7831V13.9069H23.7362V12.8265L18.5626 12.8264ZM24.9063 12.8264V13.9067H27.8403V23.0336H29.0322V13.9067H32.0001V12.8264H24.9063ZM4.76237 21.5782C4.66201 21.5806 4.56317 21.6031 4.47169 21.6445C4.3802 21.6858 4.29795 21.745 4.22978 21.8187C4.15632 21.8922 4.09817 21.9795 4.05874 22.0756C4.0193 22.1717 3.99936 22.2746 4.00007 22.3785C3.9987 22.4825 4.01833 22.5856 4.05778 22.6819C4.09723 22.7781 4.15569 22.8653 4.22967 22.9384C4.30167 23.0141 4.3886 23.0742 4.48496 23.1146C4.58133 23.1551 4.68505 23.1751 4.78955 23.1735C4.89391 23.1741 4.99733 23.1536 5.09355 23.1132C5.18978 23.0728 5.27682 23.0133 5.34943 22.9384C5.42467 22.866 5.48434 22.7789 5.52476 22.6826C5.56518 22.5863 5.58552 22.4828 5.58452 22.3784C5.58484 22.2741 5.5642 22.1708 5.52382 22.0746C5.48343 21.9785 5.42413 21.8914 5.34943 21.8186C5.2775 21.7424 5.1907 21.6817 5.09441 21.6404C4.99811 21.599 4.89436 21.5778 4.78955 21.578C4.78045 21.5779 4.77135 21.5779 4.76225 21.578L4.76237 21.5782Z" fill="white"/>
</g>
</g>
<defs>
<clipPath id="clip0_234_37">
<rect width="35" height="35" rx="5" fill="white"/>
</clipPath>
<clipPath id="clip1_234_37">
<rect width="28" height="28" fill="white" transform="translate(4 4)"/>
</clipPath>
</defs>
</svg>
