<svg xmlns="http://www.w3.org/2000/svg" width="129" height="107" fill="none"><path fill="#3BB493" d="M129 0v73.373H79.246v2.199h10.186v2.675H39.568v-2.675h10.186v-2.2H0V0h129Zm-2.675 70.697V67.61h-2.646v1.986h-2.675v-1.986H2.675v3.088h123.65Zm0-5.763V7.55H2.675v57.384h123.65Zm0-60.06V2.676H2.675v2.2h123.65ZM76.571 75.573v-2.2H52.429v2.2h24.142Z"/><path fill="#3BB493" d="M126.325 67.61v3.087H2.675V67.61h118.329v1.986h2.675v-1.986h2.646ZM126.325 2.675H2.675v2.2h123.65v-2.2Z"/><path fill="#24886D" d="M113.375 84.658v21.514H15.623V84.658h97.752Zm-2.675 18.839v-1.98H18.298v1.98H110.7Zm0-4.655V87.333H18.298v11.51H110.7Z"/><path fill="#3BB493" d="M110.7 101.517H18.298v1.98H110.7v-1.98ZM110.7 87.334v11.508H18.298V87.334H110.7Zm-3.651 9.529v-2.675h-3.269v2.675h3.269Zm0-4.875v-2.675h-3.12v2.675h3.12Zm-6.176 0v-2.675h-6.417v2.675h6.417Zm-.045 4.875v-2.675h-6.497v2.675h6.497Zm-9.43-4.875v-2.675H84.98v2.675h6.417Zm-.022 4.875v-2.675H84.88v2.675h6.497Zm-9.452 0v-2.675h-6.497v2.675h6.497Zm-.003-4.875v-2.675h-6.417v2.675h6.417Zm-9.446 4.875v-2.675h-6.5v2.675h6.5Zm-.03-4.875v-2.675h-6.417v2.675h6.417Zm-9.422 4.875v-2.675h-6.498v2.675h6.498Zm-.054-4.875v-2.675h-6.417v2.675h6.417Zm-9.398 4.875v-2.675h-6.498v2.675h6.498Zm-.074-4.875v-2.675h-6.42v2.675h6.42Zm-9.378 4.875v-2.675H37.62v2.675h6.498Zm-.098-4.875v-2.675H37.6v2.675h6.42Zm-9.351 4.875v-2.675h-6.498v2.675h6.498Zm-.125-4.875v-2.675h-6.42v2.675h6.42Zm-9.327 4.875v-2.675h-3.27v2.675h3.27Zm-.149-4.875v-2.675h-3.12v2.675h3.12Z"/><path fill="#24886D" d="M107.049 94.188h-3.269v2.675h3.269v-2.675ZM107.049 89.313h-3.121v2.675h3.121v-2.675ZM100.872 89.313h-6.417v2.675h6.417v-2.675ZM100.828 94.188h-6.497v2.675h6.497v-2.675ZM91.397 89.313H84.98v2.675h6.417v-2.675ZM91.376 94.188H84.88v2.675h6.497v-2.675ZM81.924 94.188h-6.498v2.675h6.498v-2.675ZM81.921 89.313h-6.417v2.675h6.417v-2.675Z"/><path fill="#3BB493" d="M76.57 73.372H52.43v2.2h24.14v-2.2Z"/><path fill="#24886D" d="M72.475 94.188h-6.5v2.675h6.5v-2.675ZM72.445 89.313h-6.418v2.675h6.418v-2.675ZM63.023 94.188h-6.498v2.675h6.498v-2.675ZM62.97 89.313h-6.418v2.675h6.417v-2.675ZM53.57 94.188h-6.497v2.675h6.498v-2.675ZM53.496 89.313h-6.42v2.675h6.42v-2.675ZM44.119 94.188H37.62v2.675h6.498v-2.675ZM44.02 89.313H37.6v2.675h6.42v-2.675ZM34.67 94.188h-6.498v2.675h6.497v-2.675ZM34.545 89.313h-6.42v2.675h6.42v-2.675ZM25.217 94.188h-3.27v2.675h3.27v-2.675ZM25.069 89.313h-3.121v2.675h3.12v-2.675Z"/><g class="object"><path fill="#3BB493" d="M4.55 9.1h119.823v54.603H4.55z"/><path fill="#FEFEFE" d="M81.904 28.91 64.463 16.684 47.019 28.91l17.443 12.224L81.904 28.91ZM64.463 43.862 49.065 33.469l-2.046 2.174 17.443 12.224 17.442-12.224-2.073-2.22-15.37 10.439Zm0 6.736L49.065 40.205l-2.046 2.174 17.443 12.224 17.442-12.224-2.073-2.221-15.37 10.44Z"/><path fill="#3BB493" d="m65.231 24.53 3.733.622-.66 3.726a.64.64 0 1 0 1.26.223l.773-4.363a.64.64 0 0 0-.525-.743l-4.371-.728a.64.64 0 1 0-.21 1.263ZM63.799 33.176a.642.642 0 0 0 .745-.525.64.64 0 0 0-.535-.738l-3.733-.622.66-3.726a.64.64 0 1 0-1.26-.223l-.774 4.363a.639.639 0 0 0 .526.743l4.37.728ZM66.112 33.378a.643.643 0 0 0 .453-.785l-2.585-9.606a.64.64 0 1 0-1.238.333l2.584 9.605a.642.642 0 0 0 .786.453Z" class="diff"/></g></svg>