<svg xmlns="http://www.w3.org/2000/svg" width="48" height="48" fill="none"><path fill="url(#a)" d="M48 6v36c0 3.307-2.693 6-6 6H6c-3.307 0-6-2.693-6-6V6c0-3.307 2.693-6 6-6h36c3.307 0 6 2.693 6 6Z"/><path fill="#000" d="M32.341 39.939c-.431.05-1.361-.116-1.361-.845v-6.167a5.785 5.785 0 0 0-.995-3.243c6.285-1.016 9.222-4.348 9.222-10.425 0-2.377-.729-4.456-2.167-6.186.146-.388.248-.797.306-1.218.186-1.356-.017-2.217-.195-2.976l-.029-.124a10.911 10.911 0 0 0-.422-1.401l-.117-.3-.322-.034S36.07 7 35.783 7c-.404 0-1.002.04-1.557.228l-.208.07c-.759.257-1.476.498-2.466 1.089-.353.21-.746.457-1.17.737-1.63-.426-3.392-.643-5.246-.643-1.872 0-3.65.218-5.29.648a33.35 33.35 0 0 0-1.178-.742c-.99-.591-1.708-.833-2.466-1.088l-.209-.07C15.44 7.04 14.841 7 14.436 7c-.288 0-.477.02-.477.02l-.321.034-.12.3c-.01.024-.233.594-.422 1.402l-.029.124c-.18.76-.382 1.619-.195 2.975.06.432.165.85.316 1.247-1.41 1.721-2.124 3.79-2.124 6.157 0 6.06 2.94 9.39 9.23 10.419a5.785 5.785 0 0 0-.864 2.087c-.351.138-.669.23-.947.272-.28.042-.57.063-.865.063-.733 0-1.438-.137-1.796-.35-.467-.276-1.123-.97-1.67-1.768-.372-.542-1.112-1.506-1.9-1.865-.674-.308-1.379-.485-1.934-.485-.117 0-.224.008-.317.023-.389.062-.71.268-.88.567a.865.865 0 0 0-.063.753c.19.476.895.903 1.19 1.064.355.196.976.79 1.332 1.364.266.43.393.741.553 1.134.09.222.19.465.323.757.352.764 1.438 1.564 2.024 1.915.801.48 2.289.614 3.105.65l.118.003c.318 0 .85-.048 1.588-.144v3.376c0 .828-1.053.86-1.31.86-.034 0 .534.196.534.196a21.194 21.194 0 0 0 6.621 1.067 21.21 21.21 0 0 0 6.62-1.066s.618-.217.585-.212Z" opacity=".07"/><path fill="#fff" d="M38.143 18.728c0-2.454-.831-4.49-2.25-6.086.154-.345.315-.809.395-1.39.182-1.329-.033-2.126-.216-2.906-.183-.78-.399-1.328-.399-1.328s-.98-.1-1.81.183c-.829.283-1.543.498-2.572 1.112-.482.287-.966.602-1.35.857-1.64-.455-3.442-.689-5.339-.689-1.913 0-3.732.235-5.384.693a33.37 33.37 0 0 0-1.356-.862c-1.03-.614-1.744-.83-2.574-1.112-.83-.283-1.81-.183-1.81-.183s-.215.548-.398 1.328c-.182.78-.398 1.577-.215 2.905.082.597.247 1.069.406 1.416-1.392 1.587-2.208 3.61-2.208 6.06 0 6.358 3.434 9.26 9.69 10.026a5.282 5.282 0 0 0-1.384 2.859c-.41.18-.885.35-1.34.418-1.174.178-2.413 0-3.01-.353-.598-.354-1.306-1.151-1.838-1.927-.448-.654-1.095-1.414-1.682-1.682-.774-.353-1.527-.486-1.947-.42-.42.067-.62.376-.531.598.088.22.509.553.952.797.443.243 1.129.907 1.527 1.549.445.716.532 1.13.908 1.947.264.576 1.17 1.296 1.815 1.682.553.333 1.66.522 2.856.576.413.02 1.39-.102 2.213-.219v3.985c0 .679-.622 1.195-1.266 1.076 2.067.695 4.274 1.048 6.576 1.048 2.302 0 4.508-.353 6.577-1.046-.643.118-1.264-.398-1.264-1.077v-6.167a5.28 5.28 0 0 0-1.46-3.64c6.212-.745 9.688-3.578 9.688-10.028Zm-27.1 9.98c-.163-.084-.251-.239-.196-.348.055-.11.234-.13.397-.046.164.084.252.239.197.348-.055.11-.234.13-.397.046Zm1.288.802c-.086.094-.27.064-.413-.066-.142-.13-.188-.31-.102-.404.086-.094.27-.064.413.065.143.13.188.312.102.405Zm.801 1.328c-.108.077-.292.006-.41-.159s-.125-.361-.017-.438c.109-.076.293-.005.41.16.117.164.126.36.017.437Zm1.151 1c-.073.12-.281.124-.464.013-.183-.112-.272-.299-.199-.418.073-.119.282-.124.464-.012.183.111.272.298.2.417Zm1.088.979c-.226-.028-.394-.17-.375-.316.018-.146.217-.242.442-.214.226.027.394.169.375.315-.018.146-.216.242-.442.215Zm1.754.254c-.24-.014-.429-.152-.42-.307.01-.156.213-.271.454-.258.242.014.43.152.42.308-.01.156-.213.27-.454.257Zm1.656-.166c-.257 0-.466-.134-.466-.299 0-.164.209-.298.466-.298s.465.134.465.298c0 .165-.21.299-.465.299Z"/><defs><linearGradient id="a" x1="19.193" x2="31.751" y1="-5.821" y2="72.093" gradientUnits="userSpaceOnUse"><stop stop-color="#F44F5A"/><stop offset="0" stop-color="#4C4C4C"/><stop offset="1" stop-color="#343434"/></linearGradient></defs></svg>