<svg xmlns="http://www.w3.org/2000/svg" width="35" height="35" fill="none"><rect width="35" height="35" fill="#3BB493" rx="5"/><g fill="#fff" clip-path="url(#a)"><path d="M17.5 4v2.182h11.318v22.636H17.5V31H31V4H17.5ZM6.182 28.818V6.182H17.5V4H4v27h13.5v-2.182H6.182Z"/><path d="m17.478 26.09 6.207-1.739L25.06 8.91H9.94l1.374 15.442 6.164 1.74Zm4.768-14.024-.171 1.88h-7.238l.16 1.943h6.917l-.538 5.842-3.855 1.063v.01h-.043l-3.887-1.073-.236-2.985h1.879l.14 1.503 2.104.569 2.115-.569.237-2.448h-6.572l-.504-5.734h9.492Z"/></g><defs><clipPath id="a"><path fill="#fff" d="M4 4h27v27H4z"/></clipPath></defs></svg>