<svg xmlns="http://www.w3.org/2000/svg" width="35" height="35" fill="none"><path fill="#3BB493" d="M30 0H5a5 5 0 0 0-5 5v25a5 5 0 0 0 5 5h25a5 5 0 0 0 5-5V5a5 5 0 0 0-5-5Z"/><path stroke="#fff" stroke-width="2" d="M17.5 16.042v11.666c0 1.278-.762 2.917-2.917 2.917-3.478 0-3.646-2.917-3.646-2.917m19.382-7.997c-.875-1.474-2.035-2.211-3.48-2.211-2.257 0-3.506 1.458-3.506 2.917 0 1.458.73 2.916 3.658 3.645 1.864.464 3.634 1.459 3.634 3.646 0 2.188-1.918 2.917-3.646 2.917-2.207 0-3.666-.972-4.375-2.917"/></svg>