<svg xmlns="http://www.w3.org/2000/svg" width="35" height="35" fill="none"><rect width="35" height="35" fill="#3BB493" rx="5"/><g clip-path="url(#a)"><path fill="#fff" d="M6.6 11.12c-2.214 3.178-1.937 7.307-.25 10.68.041.086.082.163.123.24.024.054.053.106.081.155.012.029.033.061.05.085.027.057.056.106.084.16l.163.276c.028.053.06.101.094.15.057.098.125.196.182.293.029.041.054.082.082.122.101.159.211.314.325.464.082.11.163.22.249.33.028.037.06.077.09.118l.232.28c.028.033.053.07.085.102.101.122.212.245.317.363 0 .004.004.004.004.007.134.168.28.322.444.46.085.086.167.172.256.253l.105.101a8.61 8.61 0 0 0 .358.325l.057.05c.106.093.216.187.326.272l.13.11c.086.07.18.139.27.208l.141.11c.098.074.2.143.297.216.037.024.074.053.114.073l.029.025.293.195.125.081c.151.098.306.192.456.285a15.455 15.455 0 0 0 .472.261c.06.037.125.065.191.098.077.044.159.085.24.13.02.004.04.013.06.025l.098.049c.126.06.257.122.391.179.024.012.053.02.081.037.151.064.297.13.456.191.033.008.07.028.105.04.143.054.29.106.432.16l.049.016c.162.057.317.105.48.158.037.008.078.024.114.033.168.053.326.11.492.142 10.69 1.95 13.794-6.425 13.794-6.425-2.608 3.398-7.239 4.293-11.625 3.296-.162-.037-.32-.09-.488-.138a15.584 15.584 0 0 1-.59-.188l-.065-.024c-.138-.049-.276-.101-.415-.154-.036-.017-.077-.028-.114-.045-.154-.06-.3-.122-.451-.188-.033-.012-.057-.028-.09-.04-.126-.057-.252-.114-.378-.175-.037-.016-.074-.037-.11-.057-.098-.045-.196-.098-.293-.147-.065-.033-.13-.065-.192-.098l-.354-.195a1.16 1.16 0 0 0-.118-.07c-.154-.093-.305-.187-.455-.28-.04-.024-.081-.053-.122-.081-.11-.07-.22-.142-.326-.216a1.569 1.569 0 0 1-.105-.077 5.565 5.565 0 0 1-.31-.22c-.044-.036-.09-.07-.138-.105-.09-.07-.183-.139-.273-.216l-.125-.098a8.027 8.027 0 0 1-.346-.292c-.013-.013-.025-.02-.041-.033l-.358-.326-.105-.098c-.085-.09-.171-.17-.26-.256l-.102-.105c-.11-.11-.216-.22-.321-.338l-.016-.016c-.11-.118-.216-.245-.326-.367-.028-.032-.053-.07-.082-.101l-.235-.29c-.122-.154-.24-.309-.354-.467-2.434-3.32-3.313-7.903-1.368-11.662L6.6 11.12Zm6.86-2.678c-1.604 2.303-1.515 5.38-.265 7.813.207.407.443.801.704 1.18.24.342.504.748.825 1.025.11.126.232.249.358.374l.094.094c.118.114.24.228.366.338l.017.016c.138.122.28.24.43.354.034.024.066.053.099.077.146.11.293.22.443.326l.017.013c.065.044.134.09.208.134.028.02.06.044.093.06.11.074.22.14.33.209.02.008.033.016.05.024.093.057.198.11.296.163.033.02.065.036.102.056.07.033.138.07.203.106l.037.013c.138.069.28.134.423.199a10.643 10.643 0 0 0 .444.183c.053.016.101.036.15.053.106.04.22.077.326.114l.142.044c.155.05.31.11.468.135 8.253 1.367 10.16-4.985 10.16-4.985-1.72 2.474-5.045 3.654-8.593 2.735-.159-.041-.314-.09-.468-.139-.05-.012-.094-.028-.142-.04-.106-.041-.22-.078-.322-.114l-.15-.057c-.118-.05-.236-.09-.35-.143-.037-.016-.07-.024-.094-.04a13.88 13.88 0 0 1-.435-.2l-.216-.114-.122-.06a4.402 4.402 0 0 1-.276-.155.99.99 0 0 1-.065-.037c-.11-.07-.224-.134-.33-.208a.826.826 0 0 1-.101-.064l-.216-.139c-.15-.105-.297-.22-.448-.326a.813.813 0 0 0-.097-.08c-1.559-1.23-2.788-2.906-3.374-4.802-.614-1.974-.475-4.187.582-5.982L13.46 8.442Zm5.77-2.001c-.944 1.387-1.038 3.112-.387 4.643.691 1.623 2.108 2.901 3.756 3.503.069.028.134.049.203.073l.09.028c.097.028.195.065.292.09 4.557.88 5.79-2.344 6.125-2.816-1.087 1.56-2.906 1.933-5.14 1.392a6.894 6.894 0 0 1-1.18-.432 7.075 7.075 0 0 1-1.123-.688c-2.003-1.518-3.24-4.407-1.933-6.762l-.703.969Z"/></g><defs><clipPath id="a"><rect width="25" height="25" x="5" y="5" fill="#fff" rx="5"/></clipPath></defs></svg>