<svg xmlns="http://www.w3.org/2000/svg" width="35" height="35" fill="none"><rect width="35" height="35" fill="#3BB493" rx="5"/><g clip-path="url(#a)"><path fill="#fff" d="M31.56 10.323c.01.038.016.076.016.115v6a.437.437 0 0 1-.22.379l-5.036 2.899v5.746c0 .157-.083.301-.218.38L15.59 31.893c-.024.014-.05.023-.076.032-.01.003-.02.01-.03.012a.441.441 0 0 1-.224 0l-.034-.014c-.025-.01-.05-.017-.073-.03L4.644 25.842a.438.438 0 0 1-.22-.38V7.464c0-.04.006-.078.016-.115.003-.013.01-.024.015-.037.008-.023.016-.046.028-.068.008-.014.02-.025.03-.039.012-.017.024-.035.039-.05.012-.013.029-.022.043-.033.016-.013.03-.028.048-.038L9.899 4.06a.438.438 0 0 1 .438 0l5.255 3.025c.018.011.033.025.049.037.014.011.03.021.043.033.015.016.026.034.039.051.01.014.022.025.03.04.012.021.02.044.028.067.004.013.012.024.015.037.01.038.015.076.016.115v11.241l4.378-2.52v-5.748c0-.038.006-.077.016-.114.004-.013.01-.024.015-.037.009-.023.017-.046.029-.068.008-.014.02-.025.03-.038.012-.018.023-.036.038-.051.013-.013.029-.022.043-.033.017-.013.03-.027.048-.038l5.256-3.025a.438.438 0 0 1 .438 0l5.255 3.025c.018.011.032.025.049.037.013.011.03.021.042.033.015.016.026.034.04.052.01.013.021.024.029.038.012.022.02.045.028.068.005.013.012.024.015.037Zm-.86 5.861v-4.989l-1.84 1.059-2.54 1.462v4.99l4.38-2.522Zm-5.255 9.025v-4.992l-2.499 1.427-7.136 4.073v5.04l9.635-5.548ZM5.3 8.221v16.988l9.634 5.547v-5.039L9.901 22.87l-.001-.001-.003-.001c-.017-.01-.03-.024-.047-.036-.013-.011-.03-.02-.041-.032l-.001-.002c-.015-.013-.024-.03-.036-.046-.011-.014-.024-.027-.033-.042v-.002c-.01-.016-.017-.036-.024-.055-.007-.016-.016-.031-.02-.049-.006-.021-.007-.043-.01-.064-.001-.017-.006-.033-.006-.05V10.741L7.14 9.28 5.3 8.221Zm4.818-3.278-4.379 2.52 4.378 2.52 4.377-2.52-4.377-2.52Zm2.277 15.729 2.54-1.462V8.22l-1.84 1.06-2.54 1.462v10.99l1.84-1.06ZM25.883 7.917l-4.378 2.52 4.378 2.521 4.377-2.52-4.377-2.52Zm-.438 5.8-2.54-1.463-1.84-1.059v4.99l2.54 1.461 1.84 1.06v-4.99ZM15.371 24.958l6.422-3.665 3.21-1.832-4.375-2.519-5.037 2.9-4.59 2.643 4.37 2.473Z"/></g><defs><clipPath id="a"><rect width="28" height="28" x="4" y="4" fill="#fff" rx="5"/></clipPath></defs></svg>