<svg xmlns="http://www.w3.org/2000/svg" width="48" height="48" fill="none"><path fill="#0288D1" d="M48 41.333A6.666 6.666 0 0 1 41.333 48H6.667A6.667 6.667 0 0 1 0 41.333V6.667A6.667 6.667 0 0 1 6.667 0h34.666A6.666 6.666 0 0 1 48 6.667v34.666Z"/><path fill="#fff" d="M8 17.333h6.667V40H8V17.333Zm3.313-2.666h-.037C9.286 14.667 8 13.184 8 11.332 8 9.44 9.327 8 11.352 8c2.028 0 3.277 1.44 3.315 3.332 0 1.85-1.287 3.335-3.354 3.335ZM40 40h-6.667V27.868c0-2.93-1.633-4.93-4.256-4.93-2.001 0-3.084 1.349-3.609 2.653-.192.466-.135 1.757-.135 2.409v12h-6.666V17.333h6.666v3.488c.962-1.488 2.467-3.488 6.318-3.488 4.77 0 8.348 3 8.348 9.699L40 40Z"/></svg>