<svg xmlns="http://www.w3.org/2000/svg" width="57" height="60" fill="none"><path fill="#BBC6E6" stroke="#033628" stroke-width=".2" d="M32.062 27.212c-.352-.204-.846-.297-1.362-.275-.515.021-1.041.156-1.457.396L.764 43.775c-.417.241-.627.532-.66.794-.031.253.1.516.45.718l24.384 14.078c.352.203.846.296 1.362.275.515-.022 1.041-.156 1.456-.396L56.236 42.8c.417-.24.627-.532.66-.793.031-.254-.1-.517-.45-.72L32.061 27.213Z"/><path fill="#BBC6E6" d="M57 40.692v1.242l-1.012.603-.301-1.545 1.313-.3ZM0 43.4v1.242l1.208.627.395-1.37L0 43.4Z"/><path fill="#F3F5FB" stroke="#033628" stroke-width=".2" d="M32.062 25.97c-.352-.203-.846-.296-1.362-.275-.515.021-1.041.156-1.457.396L.764 42.533c-.417.241-.627.532-.66.794-.031.254.1.516.45.718l24.384 14.078c.352.203.846.296 1.362.275.515-.022 1.041-.156 1.456-.396l28.48-16.443c.417-.24.627-.531.66-.793.031-.254-.1-.516-.45-.718L32.061 25.97Z"/><path fill="#DEE5F6" d="M36.31 31.554c.195-.113.489-.124.657-.027l5.492 3.17c.169.097.147.267-.047.38L16.024 50.312c-.194.112-.489.124-.657.027l-5.492-3.17c-.168-.098-.147-.268.047-.38L36.31 31.554Z"/><path fill="#C4CBDC" d="M6.29 42.565a.83.83 0 0 0 .752 0c.207-.12.207-.314 0-.434a.834.834 0 0 0-.751 0c-.208.12-.208.315 0 .434Zm4.26 2.46a.83.83 0 0 0 .752 0c.208-.12.208-.314 0-.434a.83.83 0 0 0-.752 0c-.206.12-.206.314 0 .434Zm4.261 2.46a.83.83 0 0 0 .752 0c.208-.12.208-.314 0-.434a.83.83 0 0 0-.752 0c-.207.12-.207.314 0 .434Zm4.26 2.46c.208.12.545.12.753 0 .206-.12.206-.315 0-.435a.835.835 0 0 0-.752 0c-.208.12-.208.314 0 .434Zm4.261 2.46a.837.837 0 0 0 .752 0c.207-.12.207-.315 0-.434a.83.83 0 0 0-.752 0c-.207.119-.207.314 0 .434Zm4.261 2.46a.83.83 0 0 0 .751 0c.208-.12.208-.315 0-.435a.83.83 0 0 0-.75 0c-.208.12-.208.314 0 .434Z"/><path fill="#DEE3F1" d="M35.758 27.988 4.15 46.236l-.1-.056 31.608-18.25.1.058Zm4.234 2.445L8.385 48.682l-.1-.058 31.609-18.248.098.057Z"/><path fill="#DEE3F1" d="m5.631 39.619 27.093 15.642-.1.057L5.532 39.676l.1-.057Z"/><path fill="#C4CBDC" d="M30.641 28.506a.83.83 0 0 0 .752 0c.207-.12.207-.314 0-.434a.835.835 0 0 0-.752 0c-.207.12-.207.315 0 .434Zm4.26 2.46c.208.12.545.12.753 0 .207-.12.207-.314 0-.434a.83.83 0 0 0-.752 0c-.208.12-.208.314 0 .434Zm4.261 2.46a.83.83 0 0 0 .752 0c.207-.12.207-.315 0-.434a.829.829 0 0 0-.752 0c-.207.12-.207.314 0 .434Zm4.261 2.46c.208.12.544.12.751 0 .208-.12.208-.315 0-.435a.834.834 0 0 0-.75 0c-.208.12-.208.314 0 .434Zm4.26 2.459a.83.83 0 0 0 .752 0c.207-.12.207-.314 0-.434a.829.829 0 0 0-.751 0c-.208.12-.208.314 0 .434Zm4.26 2.46a.83.83 0 0 0 .753 0c.207-.12.207-.314 0-.434a.83.83 0 0 0-.752 0c-.208.12-.208.314 0 .434Zm-25.36-9.956a.83.83 0 0 0 .752 0c.207-.12.207-.314 0-.434a.835.835 0 0 0-.752 0c-.208.12-.208.314 0 .434Zm4.26 2.46a.83.83 0 0 0 .752 0c.207-.12.207-.315 0-.434a.83.83 0 0 0-.752 0c-.207.12-.207.314 0 .434Zm4.261 2.46c.208.12.544.12.751 0 .208-.12.208-.314 0-.434a.83.83 0 0 0-.75 0c-.208.12-.208.314 0 .434Zm4.26 2.46a.83.83 0 0 0 .752 0c.208-.12.208-.315 0-.435a.83.83 0 0 0-.752 0c-.207.12-.207.315 0 .434Zm4.26 2.46a.83.83 0 0 0 .753 0c.207-.12.207-.315 0-.434a.83.83 0 0 0-.752 0c-.208.119-.208.314 0 .433Zm4.261 2.46a.837.837 0 0 0 .752 0c.207-.12.207-.315 0-.435a.831.831 0 0 0-.752 0c-.207.12-.207.315 0 .434Zm-25.36-9.957c.207.12.543.12.75 0 .208-.12.208-.314 0-.434a.83.83 0 0 0-.75 0c-.208.12-.208.314 0 .434Zm4.26 2.46a.83.83 0 0 0 .751 0c.208-.12.208-.314 0-.434a.834.834 0 0 0-.75 0c-.208.12-.208.314 0 .434Zm4.26 2.46a.83.83 0 0 0 .752 0c.207-.12.207-.314 0-.434a.83.83 0 0 0-.752 0c-.207.12-.207.314 0 .434Zm4.26 2.46c.208.12.545.12.753 0 .207-.12.207-.314 0-.434a.831.831 0 0 0-.752 0c-.208.12-.208.314 0 .434Zm4.261 2.46a.83.83 0 0 0 .752 0c.207-.12.207-.315 0-.435a.834.834 0 0 0-.752 0c-.207.12-.207.314 0 .434Zm4.261 2.459a.83.83 0 0 0 .751 0c.208-.12.208-.314 0-.433a.83.83 0 0 0-.75 0c-.208.119-.208.314 0 .433Zm-25.36-9.955a.83.83 0 0 0 .75 0c.208-.12.208-.315 0-.434a.829.829 0 0 0-.75 0c-.208.12-.208.314 0 .434Zm4.259 2.46a.83.83 0 0 0 .752 0c.207-.12.207-.315 0-.435a.835.835 0 0 0-.752 0c-.207.12-.207.314 0 .434Zm4.26 2.459a.83.83 0 0 0 .753 0c.207-.12.207-.314 0-.433a.83.83 0 0 0-.752 0c-.208.119-.208.314 0 .433Zm4.261 2.46a.83.83 0 0 0 .752 0c.207-.12.207-.314 0-.434a.829.829 0 0 0-.752 0c-.207.12-.207.314 0 .434Zm4.261 2.46c.207.12.544.12.751 0 .208-.12.208-.314 0-.434a.83.83 0 0 0-.75 0c-.208.12-.208.314 0 .434Zm4.26 2.46a.83.83 0 0 0 .752 0c.207-.12.207-.315 0-.434a.83.83 0 0 0-.752 0c-.207.12-.207.314 0 .433Zm-25.361-9.956a.83.83 0 0 0 .752 0c.207-.12.207-.314 0-.434a.83.83 0 0 0-.752 0c-.207.12-.207.314 0 .434Zm4.26 2.46a.83.83 0 0 0 .753 0c.206-.12.206-.315 0-.434a.83.83 0 0 0-.752 0c-.208.12-.208.314 0 .434Zm4.261 2.46a.83.83 0 0 0 .752 0c.207-.12.207-.315 0-.435a.834.834 0 0 0-.752 0c-.207.12-.207.314 0 .434Zm4.261 2.46a.835.835 0 0 0 .751 0c.208-.12.208-.315 0-.435a.83.83 0 0 0-.751 0c-.207.12-.207.315 0 .434Zm4.26 2.46a.83.83 0 0 0 .752 0c.207-.12.207-.315 0-.435a.83.83 0 0 0-.752 0c-.208.12-.208.314 0 .434Zm4.26 2.459a.83.83 0 0 0 .753 0c.207-.12.207-.314 0-.434a.835.835 0 0 0-.752 0c-.208.12-.208.314 0 .434Zm-25.36-9.956a.83.83 0 0 0 .75 0c.208-.12.208-.315 0-.434a.83.83 0 0 0-.75 0c-.208.12-.208.314 0 .434Zm4.26 2.46a.83.83 0 0 0 .752 0c.207-.12.207-.314 0-.434a.83.83 0 0 0-.752 0c-.207.12-.207.314 0 .434Zm4.26 2.46a.83.83 0 0 0 .752 0c.208-.12.208-.315 0-.435a.835.835 0 0 0-.752 0c-.206.12-.206.315 0 .434Zm4.26 2.46a.839.839 0 0 0 .753 0c.207-.12.207-.315 0-.434a.831.831 0 0 0-.752 0c-.207.119-.207.314 0 .433Zm4.262 2.46a.837.837 0 0 0 .752 0c.206-.12.206-.315 0-.435a.831.831 0 0 0-.752 0c-.208.12-.208.314 0 .434Zm4.26 2.459a.83.83 0 0 0 .752 0c.207-.12.207-.314 0-.434a.83.83 0 0 0-.752 0c-.207.12-.207.314 0 .434Z"/><path fill="#DEE3F1" d="m26.24 27.72 27.093 15.642-.1.057-27.092-15.641.1-.057Z"/><path fill="#DEE3F1" d="M44.228 32.878 12.621 51.127l-.1-.057L44.13 32.82l.1.058Zm4.235 2.446L16.856 53.572l-.1-.057 31.608-18.249.1.058Zm4.236 2.445L21.091 56.017l-.099-.057L52.6 37.71l.099.058Z"/><path fill="#DEE3F1" d="M22.119 30.1 49.21 45.742l-.1.057-27.09-15.642.1-.057Zm-4.123 2.38L45.09 48.121l-.099.058-27.092-15.642.098-.057Zm-4.121 2.38L40.967 50.5l-.1.058-27.092-15.642.1-.058Zm-4.122 2.379L36.845 52.88l-.099.057L9.654 37.296l.1-.057Z"/><path fill="#A1EDD8" stroke="#033628" stroke-width=".2" d="M14.544 15.324 40.855.134c.085-.05.138-.037.167-.014.036.027.075.095.075.222V25.37a.867.867 0 0 1-.103.389.678.678 0 0 1-.238.272l-26.21-10.706Zm0 0a.674.674 0 0 0-.237.272.866.866 0 0 0-.103.388v25.027c0 .127.039.195.075.223.03.022.082.035.165-.014l26.31-15.19-26.21-10.706Zm-.44.66c0-.288.175-.622.39-.747l26.31 10.88-26.31 15.19c-.215.124-.39-.008-.39-.296V15.984Z"/><path fill="#3BB493" stroke="#033628" stroke-width=".2" d="M19.06 17.93a.675.675 0 0 0-.238.273.87.87 0 0 0-.103.389v25.026c0 .127.04.196.075.223.03.022.082.035.166-.014l26.31-15.19a.675.675 0 0 0 .238-.272.866.866 0 0 0 .103-.388V2.95c0-.128-.038-.196-.074-.223-.03-.022-.082-.035-.166.014L19.06 17.93Z"/><path fill="#F2F2F2" d="m38.212 21.964.42.188-2.378 4.856-.42-.187 2.377-4.857Z"/><path fill="#F2F2F2" d="m35.784 20.88 2.848 1.272-.346.704-2.846-1.272.344-.704Zm-6.348 7.324-.42-.188 2.378-4.855.42.187-2.378 4.856Z"/><path fill="#F2F2F2" d="m31.864 29.288-2.848-1.272.345-.704 2.847 1.272-.344.704Z"/><path fill="#033628" d="M18.62 18.611c0-.298.181-.646.405-.776L45.348 2.638c.2-.116.363.007.363.275v2.365L18.62 20.92v-2.309Z"/><path fill="#F2F2F2" d="M36.35 14.189c0-.236.144-.51.32-.612l7.295-4.212c.177-.102.32.007.32.242 0 .236-.143.51-.32.613l-7.295 4.21c-.176.102-.32-.006-.32-.241Zm-3.1 1.79c0-.236.144-.51.32-.612l1.962-1.133c.177-.102.32.006.32.242s-.143.51-.32.612L33.57 16.22c-.176.102-.32-.006-.32-.242Zm-.924 6.916.312-.511 2.685 4.916-.312.512-2.685-4.917Z"/></svg>