<svg width="495" height="413" viewBox="0 0 495 413" fill="none" xmlns="http://www.w3.org/2000/svg">
<path d="M493.975 341.005C493.975 365.85 385.559 412.064 248.993 412.064C112.427 412.064 0 368.715 0 343.871C0 319.026 112.427 322.095 248.993 322.095C385.559 322.095 493.975 316.161 493.975 341.005Z" fill="#3F3D56"/>
<path opacity="0.1" d="M493.975 341.005C493.975 365.85 385.559 412.064 248.993 412.064C112.427 412.064 0 368.715 0 343.871C0 319.026 112.427 322.095 248.993 322.095C385.559 322.095 493.975 316.161 493.975 341.005Z" fill="black"/>
<path d="M247.274 388.569C383.839 388.569 494.548 368.429 494.548 343.584C494.548 318.74 383.839 298.599 247.274 298.599C110.708 298.599 0 318.74 0 343.584C0 368.429 110.708 388.569 247.274 388.569Z" fill="#3F3D56"/>
<path d="M340.888 190.592V310.902L361.012 343.698L362.544 346.193H441.948L443.552 190.592H340.888Z" fill="#2F2E41"/>
<path opacity="0.1" d="M340.888 190.592V310.902L361.012 343.698L362.247 190.592H340.888Z" fill="black"/>
<path d="M149.194 187.383V307.693L129.07 340.49L127.538 342.984H48.1333L46.5293 187.383H149.194Z" fill="#2F2E41"/>
<path opacity="0.1" d="M149.194 187.383V307.693L129.07 340.49L127.835 187.383H149.194Z" fill="black"/>
<path d="M467.614 184.977V192.196H36.1026V181.769L76.2056 160.916H432.323L467.614 184.977Z" fill="#2F2E41"/>
<path opacity="0.1" d="M467.614 184.977V192.196H36.1026V181.769L467.614 184.977Z" fill="black"/>
<path opacity="0.1" d="M97.8614 221.07H78.6118L70.5913 215.456H106.684L97.8614 221.07Z" fill="black"/>
<path opacity="0.1" d="M97.8614 244.33H78.6118L70.5913 238.715H106.684L97.8614 244.33Z" fill="black"/>
<path opacity="0.1" d="M97.8614 277.215H78.6118L70.5913 271.6H106.684L97.8614 277.215Z" fill="black"/>
<path opacity="0.1" d="M97.8614 310.099H78.6118L70.5913 304.485H106.684L97.8614 310.099Z" fill="black"/>
<path opacity="0.1" d="M392.22 224.278H411.469L419.49 218.664H383.397L392.22 224.278Z" fill="black"/>
<path opacity="0.1" d="M392.22 247.538H411.469L419.49 241.924H383.397L392.22 247.538Z" fill="black"/>
<path opacity="0.1" d="M392.22 280.423H411.469L419.49 274.809H383.397L392.22 280.423Z" fill="black"/>
<path opacity="0.1" d="M392.22 313.308H411.469L419.49 307.693H383.397L392.22 313.308Z" fill="black"/>
<path d="M305.162 140.844L302.486 157.925C302.486 157.925 289.315 164.923 298.576 165.128C307.837 165.334 351.466 165.128 351.466 165.128C351.466 165.128 359.904 165.128 346.527 157.72L343.852 139.815L305.162 140.844Z" fill="#3F3D56"/>
<path opacity="0.1" d="M296.713 164.943C298.512 163.489 300.445 162.209 302.486 161.122L305.162 144.04L343.852 144.077L346.527 160.916C348.726 162.05 350.798 163.414 352.71 164.984C354.428 164.592 356.305 163.135 346.527 157.72L343.852 139.815L305.162 140.844L302.486 157.925C302.486 157.925 291.418 163.806 296.713 164.943Z" fill="black"/>
<path d="M405.328 21.7888H243.273C239.889 21.7888 237.145 24.5327 237.145 27.9175V137.082C237.145 140.467 239.889 143.211 243.273 143.211H405.328C408.713 143.211 411.457 140.467 411.457 137.082V27.9175C411.457 24.5327 408.713 21.7888 405.328 21.7888Z" fill="#3F3D56"/>
<path d="M405.592 28.2715H243.01V119.235H405.592V28.2715Z" fill="#F2F2F2"/>
<path d="M324.301 26.4193C324.869 26.4193 325.33 25.9586 325.33 25.3903C325.33 24.822 324.869 24.3613 324.301 24.3613C323.733 24.3613 323.272 24.822 323.272 25.3903C323.272 25.9586 323.733 26.4193 324.301 26.4193Z" fill="#F2F2F2"/>
<path d="M411.457 126.438V137.082C411.457 137.887 411.299 138.684 410.991 139.427C410.683 140.171 410.231 140.847 409.662 141.416C409.093 141.985 408.418 142.436 407.674 142.744C406.93 143.052 406.133 143.211 405.328 143.211H243.273C242.469 143.211 241.672 143.052 240.928 142.744C240.184 142.436 239.509 141.985 238.94 141.416C238.37 140.847 237.919 140.171 237.611 139.427C237.303 138.684 237.145 137.887 237.145 137.082V126.438H411.457Z" fill="#3F3D56"/>
<path d="M324.301 138.786C326.46 138.786 328.211 137.035 328.211 134.876C328.211 132.716 326.46 130.966 324.301 130.966C322.141 130.966 320.391 132.716 320.391 134.876C320.391 137.035 322.141 138.786 324.301 138.786Z" fill="#F2F2F2"/>
<path d="M318.207 176.241V178.3H207.487V176.653L207.64 176.241L210.368 168.833H315.944L318.207 176.241Z" fill="#3F3D56"/>
<path d="M360.816 174.227C360.615 175.089 359.853 175.999 358.133 176.859C351.959 179.946 339.405 176.036 339.405 176.036C339.405 176.036 329.732 174.389 329.732 170.068C330.004 169.882 330.287 169.713 330.58 169.563C333.176 168.19 341.783 164.801 357.043 169.707C358.167 170.06 359.171 170.718 359.944 171.608C360.286 171.944 360.543 172.357 360.695 172.812C360.847 173.268 360.888 173.752 360.816 174.227Z" fill="#3F3D56"/>
<path opacity="0.1" d="M360.816 174.227C353.259 177.122 346.524 177.338 339.611 172.537C336.125 170.117 332.957 169.518 330.58 169.563C333.176 168.19 341.783 164.801 357.043 169.707C358.167 170.06 359.171 170.718 359.944 171.608C360.286 171.944 360.543 172.357 360.695 172.812C360.847 173.268 360.888 173.752 360.816 174.227Z" fill="black"/>
<path d="M351.341 172.537C352.819 172.537 354.017 172.169 354.017 171.714C354.017 171.259 352.819 170.891 351.341 170.891C349.864 170.891 348.666 171.259 348.666 171.714C348.666 172.169 349.864 172.537 351.341 172.537Z" fill="#F2F2F2"/>
<path opacity="0.1" d="M318.207 176.241V178.3H207.487V176.653L207.64 176.241H318.207Z" fill="black"/>
<path d="M226.15 49.5645C238.255 49.5645 248.068 39.7517 248.068 27.647C248.068 15.5423 238.255 5.72949 226.15 5.72949C214.046 5.72949 204.233 15.5423 204.233 27.647C204.233 39.7517 214.046 49.5645 226.15 49.5645Z" fill="#FFB9B9"/>
<path d="M210.001 38.6057V73.2123H245.761C245.761 73.2123 241.147 44.3735 243.454 35.7219L210.001 38.6057Z" fill="#FFB9B9"/>
<path d="M280.944 85.3247C280.944 85.3247 246.914 68.5981 246.914 67.4446C246.914 66.291 243.454 58.7929 241.147 58.7929C238.84 58.7929 219.229 52.4484 208.27 61.6768L207.117 69.1749L165.012 96.8602L176.548 138.965C176.548 138.965 184.046 147.04 181.739 152.807C179.432 158.575 183.469 187.991 183.469 187.991L274.023 185.107V145.886C274.023 145.886 276.907 136.658 278.637 133.774C280.367 130.89 278.637 122.238 278.637 122.238L292.48 104.935C292.48 104.935 290.749 88.7853 280.944 85.3247Z" fill="#D0CDE1"/>
<path opacity="0.1" d="M166.454 110.991L169.05 96.8602C169.05 96.8602 154.053 162.036 155.784 169.534C157.514 177.032 170.203 188.568 171.933 189.144C173.664 189.721 189.814 139.542 189.814 139.542L166.454 110.991Z" fill="black"/>
<path d="M174.817 95.1298L165.012 96.8601C165.012 96.8601 150.016 162.036 151.746 169.534C153.477 177.032 166.166 188.568 167.896 189.144C169.626 189.721 185.776 139.542 185.776 139.542L174.817 95.1298Z" fill="#D0CDE1"/>
<path opacity="0.1" d="M284.116 114.452L289.019 104.935C289.019 104.935 295.94 170.111 291.326 176.455C286.712 182.8 268.46 185.174 268.46 185.174L268.255 137.811L284.116 114.452Z" fill="black"/>
<path d="M284.982 97.437L292.48 104.935C292.48 104.935 299.401 170.111 294.787 176.455C290.173 182.8 271.92 185.174 271.92 185.174L271.716 137.811L284.982 97.437Z" fill="#D0CDE1"/>
<path d="M173.087 196.642C173.087 196.642 156.36 190.298 153.477 202.41C150.593 214.523 160.398 268.74 160.398 268.74C160.398 268.74 166.742 309.691 170.78 310.844C174.817 311.998 192.697 312.574 195.581 307.384C198.465 302.193 186.93 249.129 186.93 249.129L253.836 247.976C253.836 247.976 249.798 294.118 247.491 298.155C245.184 302.193 245.184 316.035 247.491 316.035C249.798 316.035 275.176 314.882 276.907 311.421C278.637 307.96 288.442 230.095 288.442 230.095C288.442 230.095 296.517 202.987 287.289 204.717C278.06 206.448 173.087 196.642 173.087 196.642Z" fill="#3F3D56"/>
<path d="M271.716 309.114C271.716 309.114 277.484 305.076 280.367 309.114C283.251 313.151 284.405 317.765 271.716 324.687C259.027 331.608 249.221 329.878 249.221 328.724V311.998L271.716 309.114Z" fill="#2F2E41"/>
<path d="M171.933 307.384C171.933 307.384 166.166 303.346 163.282 307.384C160.398 311.421 159.244 316.035 171.933 322.957C184.623 329.878 194.428 328.147 194.428 326.994V310.267L171.933 307.384Z" fill="#2F2E41"/>
<path d="M226.293 0.0111759C224.109 -0.0646644 221.93 0.245958 219.855 0.928708C218.246 1.57551 216.709 2.38872 215.269 3.35509L205.593 9.37229C204.771 9.72781 204.074 10.3187 203.587 11.0703C203.101 11.8219 202.849 12.7007 202.861 13.5957L201.652 22.651C201.347 24.9363 201.066 27.3801 202.089 29.4462C202.943 31.1707 204.571 32.3508 205.91 33.7329C208.053 35.954 209.495 38.7561 210.057 41.7906C210.749 45.5714 210.306 50.1243 213.298 52.537C214.918 53.8435 217.126 54.0906 219.204 54.212C224.885 54.5437 230.585 54.3243 236.224 53.5569C237.12 53.4898 237.995 53.2449 238.795 52.8364C239.813 52.2347 240.453 51.1727 241.051 50.1537C243.212 46.4748 245.439 42.5613 245.416 38.2949C245.404 36.1842 244.864 33.9174 245.878 32.0659C246.413 31.2789 246.994 30.5241 247.618 29.8052C248.873 28.042 249.117 25.7766 249.322 23.6221C249.975 16.7404 249.292 11.5035 244.22 6.65598C239.486 2.13086 232.749 0.0528256 226.293 0.0111759Z" fill="#2F2E41"/>
<path d="M172.454 264.783L153.204 362.635H162.829L181.277 266.387L172.454 264.783Z" fill="#2F2E41"/>
<path d="M234.213 272.804L246.244 385.093H254.265L247.046 269.595L234.213 272.804Z" fill="#2F2E41"/>
<path d="M267.098 269.595L283.941 344.188H291.961L275.92 267.991L267.098 269.595Z" fill="#2F2E41"/>
<path d="M202.932 269.595L200.526 328.948H206.943L211.755 269.595H202.932Z" fill="#2F2E41"/>
<path d="M158.819 254.356C158.819 254.356 145.986 168.535 182.079 166.129C218.171 163.722 269.504 166.129 269.504 166.129C269.504 166.129 299.18 163.722 290.357 254.356C290.357 254.356 298.378 280.824 226.192 278.418C154.006 276.012 158.819 254.356 158.819 254.356Z" fill="#313131"/>
<path d="M487.671 289.402C487.671 304.368 478.774 309.593 467.799 309.593C456.825 309.593 447.928 304.368 447.928 289.402C447.928 274.437 467.799 255.398 467.799 255.398C467.799 255.398 487.671 274.437 487.671 289.402Z" fill="#313131"/>
<path d="M467.279 294.779L475.749 279.284L467.311 292.814L467.403 287.183L473.24 275.972L467.427 285.692L467.591 275.563L473.842 266.639L467.617 273.971L467.72 255.398L467.102 278.932L460.772 269.243L467.025 280.918L466.433 292.23L466.415 291.929L459.089 281.693L466.393 292.99L466.319 294.405L466.306 294.426L466.312 294.543L464.81 309.638H466.817L467.058 308.419L474.344 297.148L467.075 307.304L467.279 294.779Z" fill="#3F3D56"/>
<path d="M480.491 342.057H456.8L450.677 307.452H485.282L480.491 342.057Z" fill="#2F2E41"/>
<path d="M132.376 108.107H83.0932V165.887H132.376V108.107Z" fill="#3F3D56"/>
<path d="M124.729 117.073H90.7405V156.922H124.729V117.073Z" fill="#F2F2F2"/>
</svg>
