<svg xmlns="http://www.w3.org/2000/svg" width="35" height="35" fill="none"><rect width="35" height="35" fill="#3BB493" rx="5"/><path fill="#fff" d="m18.023 29.313-.634-.21s.085-3.207-1.075-3.432c-.76-.884.112-37.75 2.888-.126-.527.267-.93.728-1.125 1.285a11.9 11.9 0 0 0-.054 2.483Z"/><path fill="#fff" d="M18.366 26.215a11.157 11.157 0 0 0 4.218-11.158c-1.24-5.472-4.177-7.271-4.493-7.958a8.263 8.263 0 0 1-.697-1.35l.234 15.246s-.484 4.66.738 5.22Z"/><path fill="#fff" d="M17.067 26.418s-5.165-3.518-4.866-9.74a13.113 13.113 0 0 1 4.657-9.829 1.456 1.456 0 0 0 .512-1.162c.322.692.27 10.33.303 11.458.13 4.385-.244 8.445-.606 9.273Z"/></svg>