<svg xmlns="http://www.w3.org/2000/svg"  viewBox="0 0 128 105" fill="none"><path fill="#3BB493" d="M127.576 0v72.562H78.371v2.176h10.074v2.645H39.13v-2.645h10.074v-2.176H0V0h127.576Zm-2.646 69.917v-3.054h-2.616v1.963h-2.646v-1.963H2.646v3.054H124.93Zm0-5.7V7.467H2.646v56.75H124.93Zm0-59.396V2.646H2.646V4.82H124.93ZM75.725 74.738v-2.176H51.851v2.176h23.874Z"/><path fill="#3BB493" d="M124.93 66.863v3.054H2.646v-3.054h117.022v1.963h2.646v-1.963h2.616Zm0-64.217H2.646V4.82H124.93V2.646Z"/><path fill="#24886D" d="M112.123 83.724V105H15.45V83.724h96.673Zm-2.646 18.63v-1.957H18.096v1.957h91.381Zm0-4.603V86.37H18.096v11.382h91.381Z"/><path fill="#3BB493" d="M109.477 100.397H18.096v1.957h91.381v-1.957Zm0-14.027v11.38H18.096V86.37h91.381Zm-3.609 9.423v-2.645h-3.234v2.645h3.234Zm0-4.82v-2.646h-3.087v2.646h3.087Zm-6.109 0v-2.646h-6.346v2.646h6.346Zm-.044 4.82v-2.645H93.29v2.645h6.426Zm-9.327-4.82v-2.646H84.04v2.646h6.347Zm-.02 4.82v-2.645h-6.426v2.645h6.425Zm-9.348 0v-2.645h-6.426v2.645h6.426Zm-.003-4.82v-2.646H74.67v2.646h6.347Zm-9.342 4.82v-2.645h-6.429v2.645h6.429Zm-.03-4.82v-2.646H65.3v2.646h6.346Zm-9.318 4.82v-2.645h-6.426v2.645h6.426Zm-.053-4.82v-2.646h-6.346v2.646h6.346Zm-9.295 4.82v-2.645h-6.425v2.645h6.425Zm-.073-4.82v-2.646h-6.35v2.646h6.35Zm-9.274 4.82v-2.645h-6.426v2.645h6.426Zm-.097-4.82v-2.646h-6.35v2.646h6.35Zm-9.248 4.82v-2.645H27.86v2.645h6.426Zm-.124-4.82v-2.646h-6.349v2.646h6.35Zm-9.224 4.82v-2.645h-3.233v2.645h3.233Zm-.147-4.82v-2.646h-3.086v2.646h3.086Z"/><path fill="#24886D" d="M105.867 93.148h-3.233v2.645h3.233v-2.645Zm0-4.821h-3.086v2.646h3.086v-2.646Zm-6.108 0h-6.347v2.646h6.347v-2.646Zm-.044 4.821h-6.426v2.645h6.426v-2.645Zm-9.327-4.821h-6.347v2.646h6.347v-2.646Zm-.02 4.821h-6.426v2.645h6.426v-2.645Zm-9.348 0h-6.426v2.645h6.426v-2.645Zm-.003-4.821H74.67v2.646h6.347v-2.646Z"/><path fill="#3BB493" d="M75.725 72.563H51.85v2.175h23.875v-2.175Z"/><path fill="#24886D" d="M71.675 93.148h-6.429v2.645h6.429v-2.645Zm-.03-4.821h-6.346v2.646h6.346v-2.646Zm-9.318 4.821H55.9v2.645h6.426v-2.645Zm-.053-4.821h-6.346v2.646h6.346v-2.646Zm-9.294 4.821h-6.426v2.645h6.425v-2.645Zm-.074-4.821h-6.35v2.646h6.35v-2.646Zm-9.274 4.821h-6.426v2.645h6.426v-2.645Zm-.097-4.821h-6.35v2.646h6.35v-2.646Zm-9.249 4.821h-6.425v2.645h6.425v-2.645Zm-.122-4.821h-6.35v2.646h6.35v-2.646Zm-9.225 4.821h-3.234v2.645h3.234v-2.645Zm-.147-4.821h-3.087v2.646h3.087v-2.646Z"/><g class="object"><path fill="#3BB493" d="M4.5 9H123v54H4.5z"/><path fill="#FEFEFE" d="M76.25 24a1.25 1.25 0 1 1-2.5 0 1.25 1.25 0 0 1 2.5 0Z"/><path fill="#FEFEFE" d="M75 20.25a3.75 3.75 0 1 0 0 7.501 3.75 3.75 0 0 0 0-7.5Zm0 6.25a2.501 2.501 0 1 1 .001-5.002 2.501 2.501 0 0 1 0 5.002ZM56.25 40.875v-1.892a5.854 5.854 0 0 1-.974.49c-1.252.501-2.904.777-4.651.777-1.747 0-3.399-.276-4.651-.777a5.854 5.854 0 0 1-.974-.49v1.892c0 .765 2.191 1.875 5.625 1.875s5.625-1.11 5.625-1.875Zm-9.375.625a.625.625 0 1 1 0-1.249.625.625 0 0 1 0 1.25Zm3.75-6.25c3.434 0 5.625-1.11 5.625-1.875v-1.892a5.861 5.861 0 0 1-.974.49c-1.252.501-2.904.777-4.651.777-1.747 0-3.399-.276-4.651-.777a5.861 5.861 0 0 1-.974-.49v1.892c0 .764 2.191 1.875 5.625 1.875Zm-3.75-2.5a.625.625 0 1 1 0 1.25.625.625 0 0 1 0-1.25Z"/><path fill="#FEFEFE" d="M50.625 39c3.434 0 5.625-1.11 5.625-1.875v-1.892a5.854 5.854 0 0 1-.974.49c-1.252.501-2.904.777-4.651.777-1.747 0-3.399-.276-4.651-.777a5.854 5.854 0 0 1-.974-.49v1.892C45 37.89 47.191 39 50.625 39Zm-3.75-2.5a.625.625 0 1 1 0 1.25.625.625 0 0 1 0-1.25Zm17.88-10.486-1.768-1.768-3.094 3.093a.625.625 0 0 1-.884 0l-.258-.258v3.169h3.169l-.26-.259a.625.625 0 0 1 0-.884l3.095-3.093ZM61.92 40.237h-3.17v3.17l.26-.26a.625.625 0 0 1 .883 0l3.094 3.095 1.768-1.768-3.094-3.094a.625.625 0 0 1 0-.884l.259-.259Zm-5.67-10.612c0 1.035-2.518 1.875-5.625 1.875S45 30.66 45 29.625c0-1.035 2.518-1.875 5.625-1.875s5.625.84 5.625 1.875Zm17.5 5.625v4.376a.625.625 0 0 1-.625.625h-.366L75 42.49l2.241-2.24h-.366a.625.625 0 0 1-.625-.625V35.25h-2.5Zm6.676 12.327c-1.847-1.544-3.883-2.327-6.052-2.327-2.168 0-4.204.783-6.05 2.327a12.163 12.163 0 0 0-1.938 2.048 12.168 12.168 0 0 0 1.938 2.048C70.17 53.217 72.206 54 74.374 54c2.17 0 4.205-.783 6.052-2.327a12.158 12.158 0 0 0 1.937-2.048 12.158 12.158 0 0 0-1.937-2.048Zm-6.052 5.173a3.126 3.126 0 0 1-2.21-5.335 3.126 3.126 0 0 1 5.335 2.21 3.128 3.128 0 0 1-3.124 3.125Zm5.994-30.438a5.557 5.557 0 0 0-.426-1.003.625.625 0 0 1 .106-.74l.943-.944-1.616-1.616-.943.943a.625.625 0 0 1-.741.107 5.557 5.557 0 0 0-1.003-.426.625.625 0 0 1-.438-.596V16.5h-2.5v1.537a.625.625 0 0 1-.438.596 5.56 5.56 0 0 0-1.002.426.625.625 0 0 1-.742-.107l-.943-.943-1.616 1.616.944.943a.626.626 0 0 1 .106.741c-.174.32-.317.656-.426 1.003a.625.625 0 0 1-.596.438H67.5v2.5h1.537c.273 0 .515.177.596.438.11.348.252.683.426 1.003a.626.626 0 0 1-.106.741l-.944.943 1.616 1.616.943-.943a.625.625 0 0 1 .742-.107c.32.175.655.317 1.002.426.26.082.438.323.438.596V31.5h2.5v-1.537c0-.273.178-.514.438-.596a5.564 5.564 0 0 0 1.003-.426.625.625 0 0 1 .741.107l.943.943 1.616-1.616-.943-.943a.625.625 0 0 1-.107-.741 5.56 5.56 0 0 0 .426-1.003.625.625 0 0 1 .596-.438H82.5v-2.5h-1.537a.625.625 0 0 1-.595-.438ZM75 29a4.999 4.999 0 1 1 0-9.998A4.999 4.999 0 0 1 75 29Z"/><path fill="#FEFEFE" d="M74.375 47.75a1.875 1.875 0 1 0 0 3.75 1.875 1.875 0 0 0 0-3.75Zm0 2.5a.625.625 0 1 1 0-1.25.625.625 0 0 1 0 1.25Z"/></g></svg>