<svg xmlns="http://www.w3.org/2000/svg" width="35" height="35" fill="none"><rect width="35" height="35" fill="#3BB493" rx="5"/><path fill="#fff" d="M23.14 10.622a1.29 1.29 0 0 0-.32.038v.016h.016c.063.12.17.21.25.318.063.125.116.25.18.373l.016-.017c.11-.077.163-.2.163-.389-.047-.054-.054-.11-.093-.163-.047-.078-.148-.117-.21-.178l-.003.002ZM10.731 26.015H9.65a59.33 59.33 0 0 0-.315-5.145h-.01l-1.644 5.145h-.823L5.225 20.87h-.012a85.046 85.046 0 0 0-.227 5.145H4c.064-2.294.224-4.445.478-6.452H5.82l1.558 4.742h.009l1.571-4.742h1.278c.282 2.351.448 4.504.5 6.452h-.004Zm4.686-4.76c-.44 2.386-1.022 4.122-1.74 5.203-.563.836-1.179 1.252-1.847 1.252-.179 0-.397-.054-.66-.16v-.577a3 3 0 0 0 .45.03c.312 0 .563-.087.755-.259.23-.21.344-.446.344-.706 0-.18-.09-.548-.269-1.101l-1.183-3.682h1.062l.848 2.753c.191.626.272 1.062.24 1.31.466-1.24.79-2.598.974-4.063h1.026Zm14.38 4.76h-3.069v-6.452h1.033v5.659h2.035v.793Zm-3.874.157-1.185-.583c.105-.089.206-.184.297-.292.505-.59.756-1.467.756-2.628 0-2.135-.838-3.204-2.514-3.204-.821 0-1.463.27-1.925.813-.502.593-.754 1.466-.754 2.62 0 1.134.222 1.967.67 2.496.408.479 1.023.718 1.847.718.308 0 .59-.039.846-.115l1.546.901.42-.726h-.004Zm-3.84-1.449c-.263-.42-.394-1.096-.394-2.025 0-1.625.495-2.438 1.482-2.438.517 0 .898.195 1.14.583.261.422.392 1.092.392 2.01 0 1.638-.495 2.46-1.482 2.46-.52 0-.898-.195-1.141-.584l.002-.006Zm-1.935-.495c0 .548-.2.998-.602 1.348-.401.35-.937.525-1.615.525-.633 0-1.241-.2-1.835-.6l.277-.556c.51.257.972.383 1.388.383.387 0 .692-.085.913-.257a.88.88 0 0 0 .35-.717c0-.385-.268-.712-.755-.986-.453-.249-1.357-.767-1.357-.767-.493-.358-.738-.742-.738-1.373 0-.525.183-.945.549-1.266.367-.324.84-.484 1.423-.484a2.93 2.93 0 0 1 1.633.478l-.248.556a3.179 3.179 0 0 0-1.241-.269c-.33 0-.586.08-.764.24a.799.799 0 0 0-.289.612c0 .383.273.712.777.992.459.25 1.385.781 1.385.781.505.356.756.735.756 1.363l-.007-.003ZM31.095 17.4c-.624-.016-1.109.047-1.514.22-.116.046-.303.046-.32.194.065.062.074.164.13.25.093.156.254.365.403.475.163.128.326.252.498.362.303.186.647.297.945.485.17.11.342.248.513.365.085.058.14.163.25.2v-.023c-.054-.07-.07-.171-.122-.25-.079-.077-.157-.147-.234-.224a3.76 3.76 0 0 0-.81-.788c-.25-.17-.796-.408-.899-.694l-.015-.016c.17-.016.373-.077.536-.124.265-.07.508-.055.782-.124.124-.031.249-.07.373-.11v-.07c-.14-.14-.245-.33-.39-.46a10.34 10.34 0 0 0-1.287-.96c-.245-.157-.556-.257-.813-.39-.094-.047-.25-.07-.304-.148-.14-.17-.221-.397-.32-.6a20.68 20.68 0 0 1-.639-1.357c-.14-.305-.225-.61-.396-.89-.805-1.326-1.677-2.13-3.017-2.917-.288-.163-.634-.233-.999-.32-.195-.009-.39-.023-.583-.03-.129-.056-.252-.204-.362-.275-.443-.28-1.591-.887-1.918-.084-.21.506.312 1.006.492 1.262.134.179.304.383.397.584.055.135.07.274.125.415.123.343.241.726.405 1.047.085.163.178.334.288.481.063.086.17.125.195.265-.11.159-.117.39-.18.584-.28.883-.17 1.975.226 2.625.125.193.423.623.82.458.35-.14.274-.583.374-.974.023-.093.008-.155.056-.218v.017c.11.22.22.428.32.648.24.382.66.78 1.011 1.044.187.14.335.383.568.469v-.023h-.017c-.05-.068-.117-.1-.18-.156a4.02 4.02 0 0 1-.408-.466c-.327-.44-.615-.922-.872-1.421-.128-.245-.235-.509-.338-.75-.047-.094-.047-.234-.125-.28-.117.17-.288.318-.373.528-.149.336-.164.75-.22 1.178-.031.009-.016 0-.031.017-.25-.06-.335-.32-.428-.537-.234-.554-.272-1.444-.07-2.082.055-.164.288-.68.195-.836-.05-.148-.203-.233-.289-.353a2.891 2.891 0 0 1-.28-.498c-.186-.437-.28-.92-.483-1.356-.093-.202-.256-.413-.39-.599-.147-.21-.31-.358-.429-.606-.038-.085-.093-.227-.031-.32.016-.063.049-.087.11-.105.102-.084.39.026.492.072.288.117.53.227.772.39.11.077.228.225.368.264h.163c.25.055.53.016.764.085a4.99 4.99 0 0 1 1.123.537 6.946 6.946 0 0 1 2.432 2.667c.093.18.134.344.22.53.163.385.364.774.53 1.146.163.368.321.742.555 1.047.117.163.586.248.796.333.155.07.397.134.537.22.268.163.53.35.782.53.128.088.516.283.54.44Z"/></svg>