<svg width="35" height="35" viewBox="0 0 35 35" fill="none" xmlns="http://www.w3.org/2000/svg">
<g clip-path="url(#clip0_234_30)">
<path d="M35 0H0V35H35V0Z" fill="#3BB493"/>
<g clip-path="url(#clip1_234_30)">
<path d="M17.1486 5.007C17.0927 5.01208 16.9147 5.02987 16.7546 5.04258C13.0618 5.37552 9.60274 7.36809 7.41192 10.4307C6.19198 12.1335 5.41173 14.0651 5.11691 16.111C5.01271 16.8252 5 17.0362 5 18.0044C5 18.9728 5.01271 19.1838 5.11691 19.8979C5.82346 24.7803 9.29776 28.8823 14.0098 30.4021C14.8536 30.674 15.7431 30.8596 16.7546 30.9714C17.1486 31.0146 18.8514 31.0146 19.2454 30.9714C20.9914 30.7782 22.4706 30.3462 23.9294 29.6015C24.1531 29.4871 24.1962 29.4567 24.1658 29.4312C24.1454 29.4159 23.1924 28.1376 22.0486 26.5923L19.9697 23.7839L17.3646 19.9284C15.9312 17.8088 14.7519 16.0755 14.7417 16.0755C14.7316 16.0729 14.7214 17.7859 14.7163 19.8775C14.7087 23.5399 14.7062 23.6874 14.6604 23.7737C14.5943 23.8983 14.5435 23.9491 14.4368 24.005C14.3554 24.0458 14.2843 24.0533 13.9005 24.0533H13.4608L13.3439 23.9797C13.2676 23.9314 13.2117 23.8678 13.1736 23.7941L13.1202 23.6797L13.1253 18.5839L13.1329 13.4856L13.2117 13.3865C13.2524 13.3331 13.3388 13.2645 13.3998 13.2314C13.504 13.1806 13.5447 13.1755 13.9844 13.1755C14.5028 13.1755 14.5892 13.1958 14.7239 13.3433C14.7621 13.3839 16.1726 15.5087 17.8603 18.068C19.5478 20.6273 21.8555 24.1219 22.9891 25.8375L25.0477 28.956L25.152 28.8874C26.0745 28.2875 27.0505 27.4336 27.823 26.544C29.4674 24.6557 30.5272 22.353 30.8831 19.8979C30.9873 19.1838 31 18.9728 31 18.0044C31 17.0362 30.9873 16.8252 30.8831 16.111C30.1766 11.2287 26.7022 7.12665 21.9902 5.6068C21.1591 5.3374 20.2747 5.15187 19.2835 5.04004C19.0395 5.01462 17.3595 4.98667 17.1486 5.007ZM22.4706 12.8705C22.5926 12.9315 22.6917 13.0484 22.7272 13.1704C22.7476 13.2365 22.7527 14.6496 22.7476 17.8341L22.74 22.4039L21.9343 21.1686L21.1261 19.9335V16.6117C21.1261 14.4641 21.1363 13.2569 21.1515 13.1984C21.1922 13.0561 21.2811 12.9442 21.4031 12.8782C21.5073 12.8248 21.5454 12.8197 21.9445 12.8197C22.3207 12.8197 22.3867 12.8248 22.4706 12.8705Z" fill="white"/>
</g>
</g>
<defs>
<clipPath id="clip0_234_30">
<rect width="35" height="35" rx="5" fill="white"/>
</clipPath>
<clipPath id="clip1_234_30">
<rect width="26" height="26" fill="white" transform="translate(5 5)"/>
</clipPath>
</defs>
</svg>
