<svg xmlns="http://www.w3.org/2000/svg" width="35" height="35" fill="none"><rect width="35" height="35" fill="#3BB493" rx="5"/><path fill="#3BB493" d="M17.5 26.559c9.665 0 17.5-4.079 17.5-9.11 0-5.03-7.835-9.11-17.5-9.11S0 12.42 0 17.45c0 5.031 7.835 9.11 17.5 9.11Z"/><path fill="#fff" fill-rule="evenodd" d="m4.914 22.843 1.918-9.709h4.435c1.918.12 2.877 1.079 2.877 2.757 0 2.877-2.278 4.555-4.315 4.435H7.67l-.48 2.517H4.915Zm3.237-4.315.599-3.596h1.558c.84 0 1.438.36 1.438 1.079-.12 2.038-1.078 2.397-2.157 2.517H8.151Zm5.547 1.798 1.918-9.709h2.277l-.48 2.517h2.158c1.918.12 2.637 1.079 2.398 2.278l-.84 4.914h-2.397l.84-4.435c.12-.6.12-.959-.72-.959h-1.798l-1.078 5.394h-2.278Zm7.278 2.517 1.918-9.709h4.435c1.918.12 2.877 1.079 2.877 2.757 0 2.877-2.278 4.555-4.316 4.435h-2.157l-.48 2.517h-2.277Zm3.236-4.315.6-3.596h1.558c.839 0 1.438.36 1.438 1.079-.12 2.038-1.079 2.397-2.157 2.517h-1.439Z" clip-rule="evenodd"/></svg>