<svg xmlns="http://www.w3.org/2000/svg" width="35" height="35" fill="none"><rect width="35" height="35" fill="#3BB493" rx="5"/><g fill="#fff" clip-path="url(#a)"><path d="M21.885 16.696c2.05-.93 2.356-8.002 1.146-10.086-1.58-2.72-9.09-2.173-11.46-.23-.273.966-.245 2.719-.232 4.112h7.443v.652h-7.441c0 .01-3.314.02-3.314.02-5.713 0-5.594 12.408 1.944 12.408 0 0 .277-2.748.762-4.125 1.496-4.25 7.78-1.222 11.152-2.751Zm-7.793-7.21a1.554 1.554 0 1 1 .002-3.11 1.554 1.554 0 0 1-.002 3.11Z"/><path d="M24.77 11.426s-.199 2.75-.683 4.125c-1.496 4.25-7.779 1.222-11.152 2.751-2.049.93-2.357 8.003-1.146 10.086 1.578 2.721 9.088 2.175 11.46.23.273-.965.244-2.717.232-4.11h-7.445v-.652h7.442c0-.01 3.667-.02 3.667-.02 5.266 0 5.737-12.41-2.376-12.41Zm-4.31 13.818a1.554 1.554 0 1 1 .001 3.109 1.554 1.554 0 0 1 0-3.109Z"/></g><defs><clipPath id="a"><rect width="27" height="27" x="4" y="4" fill="#fff" rx="5"/></clipPath></defs></svg>