<svg xmlns="http://www.w3.org/2000/svg" width="35" height="35" fill="none"><rect width="35" height="35" fill="#3BB493" rx="5"/><path fill="#fff" d="M17.995 20.244a2.678 2.678 0 1 0 0-5.355 2.678 2.678 0 0 0 0 5.355Z"/><path fill="#fff" d="M17.995 12.761c3.46 0 6.746.488 9.245 1.349 2.776.955 4.468 2.367 4.468 3.456 0 1.159-1.828 2.664-4.796 3.648-2.364.783-5.525 1.21-8.917 1.21-3.564 0-6.761-.42-9.097-1.218-1.462-.5-2.67-1.149-3.498-1.858-.743-.637-1.119-1.27-1.119-1.782 0-1.092 1.628-2.485 4.343-3.432 2.5-.871 5.868-1.373 9.37-1.373Zm0-1.28c-3.64 0-7.148.521-9.792 1.443C5.028 14.031 3 15.766 3 17.566c0 1.858 2.177 3.722 5.484 4.853 2.486.85 5.818 1.285 9.51 1.285 3.52 0 6.815-.444 9.32-1.274 3.439-1.14 5.675-2.98 5.675-4.864 0-1.806-2.093-3.553-5.332-4.668-2.64-.91-6.067-1.418-9.662-1.418Zm-4.185 3.698c1.728-2.997 3.793-5.6 5.786-7.336C21.81 5.916 23.88 5.156 24.823 5.7c1.004.58 1.394 2.915.763 5.978-.502 2.438-1.712 5.39-3.406 8.329-1.78 3.087-3.74 5.647-5.599 7.272-1.163 1.017-2.33 1.739-3.357 2.102-.923.326-1.659.335-2.103.079-.946-.546-1.34-2.652-.803-5.477.494-2.6 1.742-5.768 3.492-8.803Zm-1.11-.64c-1.818 3.153-3.118 6.453-3.64 9.204-.628 3.303-.138 5.927 1.42 6.826 1.61.928 4.313-.026 6.944-2.326 1.978-1.73 4.02-4.398 5.866-7.597 1.758-3.05 3.019-6.126 3.551-8.71.73-3.548.253-6.406-1.379-7.346-1.564-.903-4.123.038-6.707 2.287-2.107 1.834-4.26 4.548-6.055 7.662Zm1.114 5.474c-1.734-2.995-2.958-6.084-3.466-8.677-.563-2.88-.189-5.053.753-5.599 1.003-.58 3.222.248 5.56 2.324 1.862 1.653 3.815 4.175 5.515 7.111 1.785 3.084 3.025 6.06 3.504 8.482.3 1.516.343 2.887.144 3.958-.178.963-.538 1.605-.982 1.862-.945.547-2.966-.164-5.146-2.04-2.006-1.726-4.127-4.39-5.882-7.421Zm-1.109.642c1.823 3.15 4.033 5.924 6.156 7.75 2.549 2.194 5.066 3.08 6.623 2.178 1.609-.931 2.131-3.75 1.453-7.178-.51-2.577-1.802-5.679-3.653-8.875-1.763-3.046-3.799-5.675-5.772-7.427-2.709-2.405-5.423-3.418-7.053-2.474-1.563.905-2.026 3.591-1.368 6.953.536 2.741 1.813 5.962 3.614 9.073Z"/></svg>