<svg width="35" height="35" viewBox="0 0 35 35" fill="none" xmlns="http://www.w3.org/2000/svg">
<g clip-path="url(#clip0_233_24)">
<path d="M35 0H0V35H35V0Z" fill="#3BB493"/>
<g clip-path="url(#clip1_233_24)">
<path d="M18.004 5.06335C14.559 5.07635 11.2586 6.43892 8.81217 8.85935V8.86342C6.40392 11.2717 5.00317 14.6273 5.00317 18.0333C5.00317 21.436 6.3958 24.7957 8.81217 27.2032C11.2627 29.6195 14.559 30.9821 17.9991 31.0032H18.0032C21.414 31.0032 24.7786 29.6106 27.1901 27.1991H27.1942C29.6187 24.7616 30.9861 21.4734 31.0024 18.0374V18.0333C31.0024 14.6305 29.6097 11.2709 27.1893 8.86342C24.7437 6.44298 21.4466 5.07635 18.0024 5.06335H18.004ZM18.004 6.51042C18.5248 6.51042 19.0448 6.5616 19.5567 6.6331C17.3605 7.24654 15.4812 8.38892 13.5434 8.74479C12.7439 8.88454 11.9314 8.9016 11.131 8.79598C13.107 7.34485 15.5543 6.51042 18.004 6.51042ZM22.4857 7.67473C22.6718 7.67473 22.8627 7.68285 23.0488 7.69585C24.2042 8.24998 25.2621 8.99098 26.1721 9.88798C26.2736 9.98548 26.3581 10.0992 26.4556 10.2008C24.9704 10.984 23.3242 11.4195 21.644 11.4789C19.0115 11.5422 16.2742 10.6152 13.3118 10.5859C11.7039 10.5729 10.104 10.8484 8.58874 11.3903C8.93567 10.8955 9.31674 10.425 9.73517 9.98954C11.0636 10.3405 12.4432 10.4129 13.7977 10.1675C16.2522 9.72304 18.2794 8.40679 20.3529 7.91604C21.0509 7.7511 21.7667 7.67067 22.4857 7.67473ZM27.3989 11.3602C28.0595 12.2995 28.5836 13.3281 28.9476 14.4201C28.4779 14.1577 27.9912 13.9204 27.4875 13.7222C25.2019 12.8292 22.7059 12.6472 20.3147 13.1892H20.3107C18.6987 13.5613 17.2345 14.2389 15.8127 14.8394C15.3049 15.0555 14.8011 15.2537 14.2933 15.4406C13.7814 15.3098 13.2565 15.2164 12.7317 15.1611H12.7276C11.1871 15.0173 9.63442 15.2204 8.18249 15.7575C7.72099 15.6007 7.26842 15.4065 6.83699 15.1774C6.98486 14.6021 7.1758 14.035 7.41224 13.489C9.21924 12.5408 11.2586 12.0119 13.2947 12.033C15.9435 12.0622 18.7027 12.9982 21.6781 12.9219H21.6822C23.6842 12.8625 25.6431 12.3295 27.3989 11.3602ZM23.0317 14.3307C24.3651 14.3307 25.6975 14.5802 26.9585 15.0709C27.8385 15.4179 28.6721 15.8875 29.4302 16.4546C29.4684 16.73 29.4976 17.0006 29.5187 17.2801C28.7233 17.077 27.9067 16.9543 27.0894 16.9242C25.9169 16.8779 24.7453 17.0128 23.6192 17.3345C22.866 17.5507 22.155 17.8342 21.4652 18.1552C20.2887 17.753 19.1163 17.224 17.9146 16.7081C17.4409 16.505 16.9624 16.31 16.4797 16.1239C17.8886 15.5275 19.2471 14.9182 20.6357 14.5964C21.4189 14.4185 22.2225 14.3299 23.0269 14.3299L23.0317 14.3307ZM11.3691 16.5651C11.7713 16.548 12.1816 16.561 12.5879 16.5992C14.1836 16.7601 15.7655 17.3614 17.3442 18.0382C18.1226 18.377 18.9189 18.715 19.7314 19.0457C18.5378 19.7014 17.3954 20.3741 16.223 20.8868C15.0887 20.4635 13.9163 20.0662 12.6472 19.8923C10.6582 19.6217 8.62286 19.9597 6.8118 20.7893C6.60461 19.9768 6.48599 19.1391 6.46486 18.3006C6.90036 17.9748 7.36186 17.6831 7.85261 17.4418C8.95274 16.9129 10.1463 16.6155 11.3691 16.5651ZM27.0349 18.3721C27.8726 18.4014 28.7111 18.546 29.5147 18.7824C29.4684 19.4722 29.3579 20.158 29.1848 20.8307C28.4609 21.3093 27.6866 21.7066 26.87 22.0032C24.8891 22.7141 22.6978 22.8579 20.6406 22.4054C19.7939 22.2234 18.9522 21.9187 18.1055 21.5929C20.1498 20.539 22.0031 19.2992 24.0173 18.728C24.9988 18.4525 26.0144 18.3299 27.0349 18.3721ZM10.9669 21.2581C11.4617 21.237 11.9614 21.2622 12.4522 21.3255C14.9994 21.6765 17.4499 23.1878 20.3318 23.8183C20.7169 23.9028 21.1061 23.9662 21.5002 24.0133C21.1191 24.123 20.7429 24.2416 20.37 24.3732V24.3773C18.9774 24.877 17.7082 25.5026 16.4302 25.8796C14.0983 26.5564 11.6145 26.4638 9.34192 25.6302C8.44899 24.6105 7.74211 23.4462 7.25136 22.1852C8.41486 21.6221 9.68074 21.3052 10.9669 21.2581ZM28.4568 22.8831C28.3845 23.0399 28.313 23.1959 28.2326 23.3487C27.9912 23.3316 27.754 23.3064 27.5135 23.2975C27.8352 23.1748 28.144 23.0269 28.4568 22.8831ZM26.6157 24.7283C26.8651 24.7242 27.1154 24.7324 27.3689 24.7454C27.0089 25.2491 26.6157 25.7317 26.1712 26.1802H26.1672C24.0384 28.309 21.0167 29.5529 18.0081 29.5529C15.7777 29.5399 13.6027 28.8924 11.7323 27.6825C13.4296 27.8897 15.1684 27.7549 16.8316 27.2722H16.8356C18.2786 26.8449 19.5737 26.2014 20.8559 25.7407C22.7051 25.0801 24.6519 24.738 26.6108 24.7291L26.6157 24.7283Z" fill="#FEFEFE"/>
</g>
</g>
<defs>
<clipPath id="clip0_233_24">
<rect width="35" height="35" rx="5" fill="white"/>
</clipPath>
<clipPath id="clip1_233_24">
<rect width="26" height="26" fill="white" transform="translate(5 5)"/>
</clipPath>
</defs>
</svg>
