<svg xmlns="http://www.w3.org/2000/svg" width="35" height="35" fill="none"><rect width="35" height="35" fill="#3BB493" rx="5"/><path fill="#fff" d="M16.936 5.017c-1.192-.09-2.533.171-3.845.82-2.084 1.03-4.338 2.652-5.959 4.764-1.925 2.514-2.234 4.701-2.107 5.617.434 3.13 3.436 5.21 4.802 6.76a.211.211 0 0 1-.033.306c-.645.446-3.036 2.199-3.649 4.085-.692 2.138.115 3.669.645 3.878 1.653.64 3.288-.478 4.197-2.368.91-1.89.8-4.358.38-5.483-.006-.028-.002-.056.02-.075.155-.128.312-.257.47-.385.297-.245.756.047.705.428-.046.347-.082.738-.108 1.188-.071 1.213.288 2.781.755 3.4.205.27.454.277.608.277.546 0 .79-.629 1.063-1.38.064-.174.61-.09.646.093.092.455.278.805.632.805.371 0 .743-.664.91-1.006a.63.63 0 0 1 .026-.063c.04-.083.06-.131.06-.131a.08.08 0 0 1 .006-.032c.153-.366.48-1.182.968-2.52.31-.85.614-1.802.845-2.558.092-.302.583-.27.653.038.09.43.265.893.427 1.353a.72.72 0 0 1-.046.581 16.004 16.004 0 0 1-.093.174c.002.006.003.012 0 .017-.118.218-.25.45-.387.68-.507.838-1.108 1.799-1.187 2.074-.095.325-.07.566.11.754.135.143.374.165.622.139.455-.045.775-.2.93-.299.284-.142.552-.337.797-.582.494-.508.796-1.236.768-2.194a5.534 5.534 0 0 0-.206-1.261.84.84 0 0 1 .051-.57c.337-.685.641-1.399.878-1.99.132-.33.677-.274.755.072a3.816 3.816 0 0 1-.4 2.633c-.247.451-.414.88-.498 1.214-.293 1.174-.062 1.702.37 1.823.193.056.469-.07.675-.19a2.95 2.95 0 0 0 .853-.613c.495-.508.973-1.218.941-2.182-.02-.773.254-1.607 1.02-1.712a4.16 4.16 0 0 1 1.223.025 2.906 2.906 0 0 1 2.551 3.075 2.094 2.094 0 0 1-.7 1.379c-.154.132-.201.182-.19.282.02.143.09.137.221.103.182-.045 1.154-.65 1.198-2.133.063-1.873-1.228-3.933-3.517-3.918h-.003c-.235 0-.47.022-.701.067-.863.164-2.024-.106-2.104-.981-.047-.502-.097-.799-.042-1.393.055-.595.304-1.44.3-1.501-.005-.06-.056-.363-.566-.369-.51-.006-.95.138-1 .324a8.82 8.82 0 0 0-.21 1.053c-.066.47-.577 1.821-1.053 2.985-.174.425-.8.41-.843-.047-.047-.501-.1-.799-.045-1.393.056-.595.306-1.44.302-1.5-.004-.06-.056-.364-.565-.37-.51-.006-.95.138-1.002.325-.052.187-.108.628-.21 1.052-.102.425-1.34 4.263-1.664 5.26a32.18 32.18 0 0 1-.412 1.19l-.035.095c.014-.033.014-.028.002.005a21.148 21.148 0 0 1-.12.323v.001c-.068.177-.143.338-.178.338-.024 0-.076-.463.011-1.097.186-1.334.626-3.407.622-3.48-.005-.038.08-.396-.29-.589-.36-.181-.49.122-.521.122-.004 0-.038-.012-.038-.016.063-.486.215-2.21-.786-2.21-.487 0-1.101.497-1.603 1.128-.483.608-.957 1.236-1.574 1.707l-.762.582-.738.567a.095.095 0 0 1-.135-.022c-1.416-2.106-4.03-3.595-3.919-6.422.04-1.03.298-3.736 5.026-7.022 3.876-2.689 6.975-1.951 7.508-.31.767 2.343-1.657 6.704-5.682 7.332-1.534.237-2.24-.687-2.442-.996-.21-.325-.242-.342-.321-.282-.131.099-.048.386 0 .557.118.435.647 1.117 1.49 1.503.74.337 2.438.62 4.614-.554 2.443-1.313 4.31-4.877 3.752-7.936-.355-1.943-1.931-3.068-3.919-3.218ZM15.64 19.781c.062.007.108.04.134.101.138.326-.481 2.726-.64 3.265-.253.867-.787 3.072-1.112 2.956-.277-.099-.448-1.781-.056-3.435.197-.832.617-1.824.867-2.21.299-.467.622-.696.807-.677Zm7.872 3.213c.128-.21.416-.142.42.104 0 .45-.085.798-.21 1.067-.3.643-.838.36-.617-.313.07-.212.201-.523.407-.858Zm-13.046.964c.047-.042.123-.013.134.049.285 1.618-.034 3.047-.78 4.18-.728 1.107-1.748 1.526-2.187 1.174-.471-.381-.285-2.014.613-3.195.546-.717 1.25-1.378 1.717-1.785.107-.088.26-.22.45-.38a.585.585 0 0 1 .053-.043Zm10.002.182c.012-.021.049-.013.049.01-.006.985-.684 1.65-.994 1.916v.001l.001.001v.002c-.107.077-.206.125-.253.087-.078-.061.071-.173.126-.255.161-.244.52-.79.684-1.075.115-.2.246-.432.387-.687Z"/></svg>