<svg xmlns="http://www.w3.org/2000/svg" width="128" height="105" fill="none"><path fill="#3BB493" d="M127.576 0v72.562H78.371v2.176h10.074v2.645H39.13v-2.645h10.074v-2.176H0V0h127.576Zm-2.646 69.917v-3.054h-2.616v1.963h-2.646v-1.963H2.646v3.054H124.93Zm0-5.7V7.467H2.646v56.75H124.93Zm0-59.396V2.646H2.646V4.82H124.93ZM75.725 74.738v-2.176H51.851v2.176h23.874Z"/><path fill="#3BB493" d="M124.93 66.863v3.054H2.646v-3.054h117.022v1.963h2.646v-1.963h2.616ZM124.93 2.646H2.646V4.82H124.93V2.646Z"/><path fill="#24886D" d="M112.123 83.724V105H15.45V83.724h96.673Zm-2.646 18.63v-1.957H18.096v1.957h91.381Zm0-4.603V86.37H18.096v11.382h91.381Z"/><path fill="#3BB493" d="M109.477 100.397H18.096v1.957h91.381v-1.957ZM109.477 86.37V97.75H18.096V86.37h91.381Zm-3.609 9.423v-2.645h-3.234v2.645h3.234Zm0-4.82v-2.646h-3.087v2.646h3.087Zm-6.109 0v-2.646h-6.346v2.646h6.346Zm-.044 4.82v-2.645H93.29v2.645h6.426Zm-9.327-4.82v-2.646H84.04v2.646h6.347Zm-.02 4.82v-2.645h-6.426v2.645h6.425Zm-9.348 0v-2.645h-6.426v2.645h6.426Zm-.003-4.82v-2.646H74.67v2.646h6.347Zm-9.342 4.82v-2.645h-6.429v2.645h6.429Zm-.03-4.82v-2.646H65.3v2.646h6.346Zm-9.318 4.82v-2.645h-6.426v2.645h6.426Zm-.053-4.82v-2.646h-6.346v2.646h6.346Zm-9.295 4.82v-2.645h-6.425v2.645h6.425Zm-.073-4.82v-2.646h-6.35v2.646h6.35Zm-9.274 4.82v-2.645h-6.426v2.645h6.426Zm-.097-4.82v-2.646h-6.35v2.646h6.35Zm-9.248 4.82v-2.645H27.86v2.645h6.426Zm-.124-4.82v-2.646h-6.349v2.646h6.35Zm-9.224 4.82v-2.645h-3.233v2.645h3.233Zm-.147-4.82v-2.646h-3.086v2.646h3.086Z"/><path fill="#24886D" d="M105.867 93.148h-3.233v2.645h3.233v-2.645ZM105.867 88.327h-3.086v2.646h3.086v-2.646ZM99.759 88.327h-6.347v2.646h6.347v-2.646ZM99.715 93.148h-6.426v2.645h6.426v-2.645ZM90.388 88.327h-6.347v2.646h6.347v-2.646ZM90.368 93.148h-6.426v2.645h6.426v-2.645ZM81.02 93.148h-6.426v2.645h6.426v-2.645ZM81.017 88.327H74.67v2.646h6.347v-2.646Z"/><path fill="#3BB493" d="M75.725 72.563H51.85v2.175h23.875v-2.175Z"/><path fill="#24886D" d="M71.675 93.148h-6.429v2.645h6.429v-2.645ZM71.645 88.327h-6.346v2.646h6.346v-2.646ZM62.327 93.148H55.9v2.645h6.426v-2.645ZM62.274 88.327h-6.346v2.646h6.346v-2.646ZM52.98 93.148h-6.426v2.645h6.425v-2.645ZM52.906 88.327h-6.35v2.646h6.35v-2.646ZM43.632 93.148h-6.426v2.645h6.426v-2.645ZM43.535 88.327h-6.35v2.646h6.35v-2.646ZM34.286 93.148h-6.425v2.645h6.425v-2.645ZM34.164 88.327h-6.35v2.646h6.35v-2.646ZM24.939 93.148h-3.234v2.645h3.234v-2.645ZM24.792 88.327h-3.087v2.646h3.087v-2.646Z"/><g class="object"><path fill="#3BB493" d="M4.5 9H123v54H4.5z"/><path fill="#FEFEFE" d="M77.473 18H51.527c-1.135 0-2.027.86-2.027 1.956v26.218c0 1.096.892 1.956 2.027 1.956h10.135v4.696c0 .665.527 1.174 1.217 1.174h3.243c.689 0 1.216-.509 1.216-1.174v-4.695h10.135c1.135 0 2.027-.861 2.027-1.957V19.957c0-1.096-.892-1.957-2.027-1.957Zm-1.216 1.956c.446 0 .81.353.81.783 0 .43-.364.783-.81.783-.446 0-.81-.352-.81-.783 0-.43.364-.783.81-.783Zm-2.433 0c.447 0 .811.353.811.783 0 .43-.365.783-.81.783-.447 0-.811-.352-.811-.783 0-.43.365-.783.81-.783Zm-2.432 0c.446 0 .81.353.81.783 0 .43-.364.783-.81.783-.446 0-.81-.352-.81-.783 0-.43.364-.783.81-.783Zm-5.676 24.261h-2.432v-1.252c.405.04.81.078 1.216.078.406 0 .81-.039 1.216-.078v1.252ZM64.5 42.261c-3.486 0-6.689-2.113-7.946-5.283-.284-.743-.486-1.487-.527-2.27-.04-.234-.04-.469-.04-.665 0-4.539 3.81-8.217 8.513-8.217 2.838 0 5.433 1.33 7.054 3.6l-1.013.626C69.162 28.096 66.933 27 64.5 27c-3.771 0-6.934 2.817-7.258 6.417-.04.157-.04.392-.04.627 0 .704.121 1.408.324 2.073.932 2.935 3.73 4.97 6.973 4.97 4.013 0 7.297-3.17 7.297-7.043 0-.392-.04-.744-.121-1.135l1.094-.665c.122.587.203 1.213.203 1.839.04 4.5-3.77 8.178-8.473 8.178Zm-3.04-8.14 2.189 3.249c.08.117.202.195.324.195.081 0 .162 0 .203-.078l6.77-4.148c.04.235.04.47.04.704 0 3.444-2.918 6.261-6.486 6.261-2.757 0-5.19-1.643-6.121-4.147l3.08-2.035Zm-3.284-1.525c.689-2.779 3.283-4.814 6.324-4.814 2.149 0 4.095.979 5.31 2.7l-4.904 2.935-2.19-3.248c-.04-.078-.162-.156-.243-.156-.121-.039-.203 0-.324.04l-3.973 2.543Zm20.513 13.578c0 .665-.527 1.174-1.216 1.174H67.338V45.39c0-.509-.325-.939-.81-1.096v-1.447c4.175-.9 7.296-4.5 7.296-8.805 0-.782-.121-1.526-.324-2.27l.608-.39.568 1.017a.43.43 0 0 0 .364.195c.162 0 .284-.078.365-.234l1.987-4.344a.37.37 0 0 0-.04-.352c-.082-.117-.163-.196-.325-.196L72.324 27c-.162 0-.284.04-.364.157a.345.345 0 0 0 0 .392l.689 1.174-.365.234c-1.784-2.465-4.662-3.913-7.784-3.913-5.149 0-9.324 4.03-9.324 9v.51l-3.487 2.269c-.162.117-.243.352-.121.508l1.216 1.996c.04.078.162.157.243.196h.081a.588.588 0 0 0 .243-.078l2.635-1.722c1.217 2.582 3.649 4.5 6.487 5.087v1.487c-.486.156-.81.587-.81 1.095v1.957H51.526c-.689 0-1.216-.51-1.216-1.174V23.478h28.378v22.696Z"/><path fill="#FEFEFE" d="M64.5 42.26c-3.486 0-6.689-2.112-7.946-5.282-.284-.743-.486-1.487-.527-2.27-.04-.234-.04-.469-.04-.665 0-4.539 3.81-8.217 8.513-8.217 2.838 0 5.433 1.33 7.054 3.6l-1.013.626C69.162 28.096 66.933 27 64.5 27c-3.771 0-6.934 2.817-7.258 6.417-.04.157-.04.392-.04.627 0 .704.121 1.408.324 2.073.932 2.935 3.73 4.97 6.973 4.97 4.013 0 7.297-3.17 7.297-7.043 0-.392-.04-.744-.121-1.135l1.094-.665c.122.587.203 1.213.203 1.839.04 4.5-3.77 8.178-8.473 8.178Z"/></g></svg>