<svg xmlns="http://www.w3.org/2000/svg" viewBox="0 0 128 105" fill="none"><path fill="#3BB493" d="M128.791 0v73.254H79.117v2.195h10.17v2.671H39.504v-2.67h10.17v-2.197H0V0h128.791Zm-2.671 70.583v-3.084h-2.641v1.983h-2.671v-1.983H2.671v3.084H126.12Zm0-5.754V7.538H2.67v57.29h123.45Zm0-59.962V2.67H2.67v2.196h123.45ZM76.447 75.449v-2.195H52.344v2.195h24.103Z"/><path fill="#3BB493" d="M126.12 67.5v3.083H2.67v-3.084h118.138v1.983h2.671v-1.983h2.641Zm0-64.83H2.67v2.197h123.45V2.67Z"/><path fill="#24886D" d="M113.191 84.521V106H15.598V84.521h97.593Zm-2.671 18.808v-1.976H18.268v1.976h92.252Zm0-4.647v-11.49H18.268v11.49h92.252Z"/><path fill="#3BB493" d="M110.52 101.353H18.268v1.976h92.252v-1.976Zm0-14.161v11.49H18.268v-11.49h92.252Zm-3.644 9.514v-2.671h-3.264v2.67h3.264Zm0-4.867v-2.67h-3.116v2.67h3.116Zm-6.167 0v-2.67h-6.407v2.67h6.407Zm-.044 4.867v-2.671h-6.487v2.67h6.487Zm-9.416-4.867v-2.67h-6.407v2.67h6.407Zm-.021 4.867v-2.671h-6.487v2.67h6.487Zm-9.437 0v-2.671h-6.487v2.67h6.487Zm-.003-4.867v-2.67h-6.407v2.67h6.407Zm-9.43 4.867v-2.671h-6.49v2.67h6.49Zm-.03-4.867v-2.67H65.92v2.67h6.407Zm-9.407 4.867v-2.671h-6.487v2.67h6.487Zm-.054-4.867v-2.67H56.46v2.67h6.407Zm-9.383 4.867v-2.671h-6.487v2.67h6.487Zm-.074-4.867v-2.67H47v2.67h6.41Zm-9.363 4.867v-2.671H37.56v2.67h6.487Zm-.098-4.867v-2.67h-6.41v2.67h6.41Zm-9.335 4.867v-2.671h-6.488v2.67h6.488Zm-.125-4.867v-2.67h-6.41v2.67h6.41Zm-9.312 4.867v-2.671h-3.265v2.67h3.265Zm-.149-4.867v-2.67h-3.116v2.67h3.116Z"/><path fill="#24886D" d="M106.876 94.035h-3.265v2.67h3.265v-2.67Zm-.001-4.867h-3.115v2.671h3.115v-2.67Zm-6.166 0h-6.407v2.671h6.407v-2.67Zm-.044 4.867h-6.488v2.67h6.488v-2.67Zm-9.416-4.867h-6.407v2.671h6.407v-2.67Zm-.021 4.867h-6.487v2.67h6.487v-2.67Zm-9.437 0h-6.487v2.67h6.487v-2.67Zm-.003-4.867h-6.407v2.671h6.407v-2.67Z"/><path fill="#3BB493" d="M76.447 73.254H52.343v2.195h24.102v-2.195Z"/><path fill="#24886D" d="M72.357 94.035h-6.49v2.67h6.49v-2.67Zm-.03-4.867H65.92v2.671h6.407v-2.67Zm-9.407 4.867h-6.486v2.67h6.487v-2.67Zm-.053-4.867H56.46v2.671h6.407v-2.67Zm-9.383 4.867h-6.487v2.67h6.487v-2.67Zm-.074-4.867H47v2.671h6.41v-2.67Zm-9.363 4.867H37.56v2.67h6.487v-2.67Zm-.097-4.867h-6.41v2.671h6.41v-2.67Zm-9.337 4.867h-6.487v2.67h6.487v-2.67Zm-.124-4.867h-6.41v2.671h6.41v-2.67Zm-9.313 4.867h-3.264v2.67h3.264v-2.67Zm-.148-4.867h-3.116v2.671h3.116v-2.67Z"/><g class="object"><path fill="#3BB493" d="M4.543 9.086h119.629V63.6H4.543z"/><path fill="#FEFEFE" d="M85.006 15.143H43.708c-1.553 0-2.822 1.256-2.822 2.793v35.3c0 1.537 1.269 2.793 2.822 2.793h41.298c1.553 0 2.823-1.256 2.823-2.794V17.937c0-1.537-1.27-2.793-2.823-2.793Zm-7.047 1.856c1.023 0 1.875.843 1.875 1.856 0 1.03-.852 1.856-1.875 1.856-1.023 0-1.876-.844-1.876-1.856 0-1.013.853-1.856 1.876-1.856Zm-5.153 0c1.023 0 1.876.843 1.876 1.856 0 1.03-.853 1.856-1.876 1.856s-1.875-.844-1.875-1.856a1.87 1.87 0 0 1 1.875-1.856Zm12.2 36.555H43.708V22.566h41.298v30.988Zm-1.875-32.843c-1.023 0-1.876-.844-1.876-1.856 0-1.013.853-1.856 1.876-1.856s1.875.843 1.875 1.856c0 1.03-.852 1.856-1.875 1.856Zm-24.836 4.742h14.416v2.7H58.296v-2.7Zm5.683 6.168h18.243v2.68H63.978v-2.68Zm0 5.361h18.243v2.681H63.978v-2.68Zm0 5.437h18.243v2.68H63.978v-2.68ZM46.285 47.78H82.24v2.681H46.285v-2.68Zm0-16.159h12.844v13.254H46.285V31.62Z"/></g></svg>