<svg xmlns="http://www.w3.org/2000/svg" width="35" height="35" fill="none"><rect width="35" height="35" fill="#3BB493" rx="5"/><path fill="#fff" d="M17 9.578c-3.733 0-6.067 1.867-7 5.6 1.4-1.867 3.033-2.567 4.9-2.1 1.065.266 1.826 1.039 2.669 1.894 1.373 1.394 2.961 3.006 6.431 3.006 3.733 0 6.067-1.867 7-5.6-1.4 1.867-3.033 2.567-4.9 2.1-1.065-.266-1.826-1.039-2.669-1.894C22.058 11.19 20.47 9.578 17 9.578Zm-7 8.4c-3.733 0-6.067 1.867-7 5.6 1.4-1.866 3.033-2.566 4.9-2.1 1.065.266 1.826 1.039 2.669 1.894 1.372 1.394 2.961 3.006 6.431 3.006 3.733 0 6.067-1.866 7-5.6-1.4 1.867-3.033 2.567-4.9 2.1-1.065-.266-1.826-1.039-2.669-1.894-1.373-1.393-2.961-3.006-6.431-3.006Z"/></svg>