<svg xmlns="http://www.w3.org/2000/svg" width="35" height="35" fill="none"><rect width="35" height="35" fill="#3BB493" rx="5"/><path fill="#fff" d="M8 17.634v1.426h4.55v12.95h3.229V19.06h4.55v-1.4c0-.787 0-1.426-.035-1.444 0-.026-2.774-.035-6.143-.035l-6.125.027v1.435L8 17.633Zm20.449-1.461c.892.21 1.575.612 2.187 1.25.324.35.805.963.84 1.12 0 .053-1.514 1.077-2.432 1.646-.035.026-.175-.123-.315-.35-.455-.648-.919-.928-1.645-.98-1.05-.07-1.75.481-1.75 1.4 0 .28.052.437.157.665.236.481.674.77 2.03 1.365 2.503 1.076 3.588 1.785 4.244 2.8.744 1.137.91 2.922.411 4.261-.56 1.461-1.925 2.45-3.876 2.774-.613.105-2.012.087-2.669-.026-1.4-.263-2.739-.963-3.561-1.864-.324-.35-.945-1.286-.91-1.348l.332-.21 1.313-.76.989-.578.227.306c.289.455.936 1.067 1.313 1.277 1.137.587 2.66.508 3.412-.175.324-.297.464-.612.464-1.05 0-.402-.061-.586-.262-.892-.28-.385-.84-.7-2.416-1.4-1.81-.77-2.58-1.26-3.298-2.013-.412-.455-.788-1.163-.963-1.75-.131-.507-.175-1.75-.052-2.248.376-1.75 1.697-2.975 3.587-3.325.613-.123 2.056-.07 2.66.087l-.017.018Z"/></svg>