<svg width="124" height="89" viewBox="0 0 124 89" fill="none" xmlns="http://www.w3.org/2000/svg">
<path d="M2.48002 0C1.11105 0 0 1.10756 0 2.47222V37.3682C0 52.5996 11.6139 65.8389 26.8684 66.7017C41.4931 67.5274 53.9351 57.2972 56.5366 43.6357C57.9502 45.5393 59.3871 47.3084 60.8379 48.9326L52.0852 85.9628C51.914 86.6996 52.0863 87.4675 52.555 88.0633C53.0287 88.6517 53.7433 89 54.5022 89H67.1978C68.3485 89 69.3397 88.227 69.6051 87.112C71.1452 80.6323 73.5596 70.4785 75.747 61.2744L78.0042 62.5781C83.3735 65.3495 88.8217 66.75 94.2406 66.75C112.077 66.75 126.297 51.0291 123.691 32.7569C121.965 20.6529 112.628 10.6759 100.639 8.10232C86.6792 5.10352 73.2233 12.2354 67.4399 24.0897C67.4399 24.0897 66.7981 25.5098 66.2823 26.9289C62.1903 19.8929 59.7872 12.5937 58.5274 7.30561C58.0686 5.37728 57.3813 1.886 57.3019 1.66102C56.9572 0.664719 56.0213 0 54.9624 0H42.1603C40.7913 0 39.6802 1.10756 39.6802 2.47222V37.8269C39.6802 43.6342 35.4325 48.8277 29.6342 49.3913C22.9828 50.0391 17.3601 44.8214 17.3601 38.3194V2.47222C17.3601 1.10756 16.2491 0 14.8801 0H2.48002ZM94.2406 24.7222C101.078 24.7222 106.641 30.2674 106.641 37.0833C106.641 43.8993 101.078 49.4444 94.2406 49.4444C88.7225 49.4444 83.6101 46.1274 80.0289 43.2349C81.3359 37.7342 82.2131 34.05 82.228 33.9882C83.6366 28.532 88.5787 24.7222 94.2406 24.7222Z" fill="#108A00"/>
</svg>
