<svg width="35" height="35" viewBox="0 0 35 35" fill="none" xmlns="http://www.w3.org/2000/svg">
<g clip-path="url(#clip0_233_2)">
<path d="M35 0H0V35H35V0Z" fill="#3BB493"/>
<g clip-path="url(#clip1_233_2)">
<path d="M30.1361 4H4.86385C4.38666 4 4 4.38683 4 4.86385V30.1361C4 30.6132 4.38666 31 4.86385 31H30.1361C30.6133 31 31 30.6132 31 30.1361V4.86385C31 4.38683 30.6133 4 30.1361 4ZM17.4834 14.3562L14.5837 21.267C14.4582 21.5662 14.1653 21.7608 13.8409 21.7608H13.8402C13.5156 21.7606 13.2229 21.5654 13.0977 21.2659L10.2109 14.3551C10.0395 13.9446 10.2333 13.4729 10.6437 13.3015C11.0543 13.1299 11.526 13.3238 11.6974 13.7342L13.8426 18.8699L15.9979 13.733C16.17 13.3229 16.642 13.13 17.0522 13.302C17.4625 13.474 17.6555 13.9461 17.4834 14.3562ZM21.5741 21.7608H18.7959C18.351 21.7608 17.9905 21.4003 17.9905 20.9555V17.3582V14.0446C17.9905 13.5998 18.351 13.2393 18.7959 13.2393H21.5741C23.3698 13.2393 24.4853 14.2032 24.4853 15.755C24.4853 16.326 24.3263 16.8263 24.0361 17.2231C24.5582 17.6751 24.8512 18.3253 24.8512 19.1068C24.8512 20.3898 23.9903 21.7608 21.5741 21.7608Z" fill="white"/>
<path d="M22.2736 18.1636H19.6013V20.15H21.5742C22.6798 20.15 23.2404 19.7989 23.2404 19.1067C23.2405 18.8834 23.2398 18.297 22.2736 18.1636Z" fill="white"/>
<path d="M22.8746 15.7548C22.8746 15.5073 22.8746 14.8499 21.5742 14.8499H19.6013V16.5527H22.2301C22.6747 16.4623 22.8746 16.2147 22.8746 15.7548Z" fill="white"/>
</g>
</g>
<defs>
<clipPath id="clip0_233_2">
<rect width="35" height="35" rx="5" fill="white"/>
</clipPath>
<clipPath id="clip1_233_2">
<rect x="4" y="4" width="27" height="27" rx="5" fill="white"/>
</clipPath>
</defs>
</svg>
