<svg xmlns="http://www.w3.org/2000/svg" viewBox="0 0 128 105" fill="none"><path fill="#3BB493" d="M128.791 0v73.254H79.117v2.195h10.17v2.671H39.504v-2.67h10.17v-2.197H0V0h128.791Zm-2.671 70.583v-3.084h-2.641v1.983h-2.671v-1.983H2.671v3.084H126.12Zm0-5.754V7.538H2.67v57.29h123.45Zm0-59.962V2.67H2.67v2.196h123.45ZM76.447 75.449v-2.195H52.344v2.195h24.103Z"/><path fill="#3BB493" d="M126.12 67.5v3.083H2.67v-3.084h118.138v1.983h2.671v-1.983h2.641Zm0-64.83H2.67v2.197h123.45V2.67Z"/><path fill="#24886D" d="M113.191 84.521V106H15.598V84.521h97.593Zm-2.671 18.808v-1.976H18.268v1.976h92.252Zm0-4.647v-11.49H18.268v11.49h92.252Z"/><path fill="#3BB493" d="M110.52 101.353H18.268v1.976h92.252v-1.976Zm0-14.161v11.49H18.268v-11.49h92.252Zm-3.644 9.514v-2.671h-3.264v2.67h3.264Zm0-4.867v-2.67h-3.116v2.67h3.116Zm-6.167 0v-2.67h-6.407v2.67h6.407Zm-.044 4.867v-2.671h-6.487v2.67h6.487Zm-9.416-4.867v-2.67h-6.407v2.67h6.407Zm-.021 4.867v-2.671h-6.487v2.67h6.487Zm-9.437 0v-2.671h-6.487v2.67h6.487Zm-.003-4.867v-2.67h-6.407v2.67h6.407Zm-9.43 4.867v-2.671h-6.49v2.67h6.49Zm-.03-4.867v-2.67H65.92v2.67h6.407Zm-9.407 4.867v-2.671h-6.487v2.67h6.487Zm-.054-4.867v-2.67H56.46v2.67h6.407Zm-9.383 4.867v-2.671h-6.487v2.67h6.487Zm-.074-4.867v-2.67H47v2.67h6.41Zm-9.363 4.867v-2.671H37.56v2.67h6.487Zm-.098-4.867v-2.67h-6.41v2.67h6.41Zm-9.335 4.867v-2.671h-6.488v2.67h6.488Zm-.125-4.867v-2.67h-6.41v2.67h6.41Zm-9.312 4.867v-2.671h-3.265v2.67h3.265Zm-.149-4.867v-2.67h-3.116v2.67h3.116Z"/><path fill="#24886D" d="M106.876 94.035h-3.265v2.67h3.265v-2.67Zm-.001-4.867h-3.115v2.671h3.115v-2.67Zm-6.166 0h-6.407v2.671h6.407v-2.67Zm-.044 4.867h-6.488v2.67h6.488v-2.67Zm-9.416-4.867h-6.407v2.671h6.407v-2.67Zm-.021 4.867h-6.487v2.67h6.487v-2.67Zm-9.437 0h-6.487v2.67h6.487v-2.67Zm-.003-4.867h-6.407v2.671h6.407v-2.67Z"/><path fill="#3BB493" d="M76.447 73.254H52.343v2.195h24.102v-2.195Z"/><path fill="#24886D" d="M72.357 94.035h-6.49v2.67h6.49v-2.67Zm-.03-4.867H65.92v2.671h6.407v-2.67Zm-9.407 4.867h-6.486v2.67h6.487v-2.67Zm-.053-4.867H56.46v2.671h6.407v-2.67Zm-9.383 4.867h-6.487v2.67h6.487v-2.67Zm-.074-4.867H47v2.671h6.41v-2.67Zm-9.363 4.867H37.56v2.67h6.487v-2.67Zm-.097-4.867h-6.41v2.671h6.41v-2.67Zm-9.337 4.867h-6.487v2.67h6.487v-2.67Zm-.124-4.867h-6.41v2.671h6.41v-2.67Zm-9.313 4.867h-3.264v2.67h3.264v-2.67Zm-.148-4.867h-3.116v2.671h3.116v-2.67Z"/><g class="object"><path fill="#3BB493" d="M4.543 9.086h119.629V63.6H4.543z"/><path fill="#FEFEFE" d="m84.024 33.763-17.851-17.85a2.63 2.63 0 0 0-1.864-.77 2.63 2.63 0 0 0-1.863.77l-3.698 3.705 4.701 4.702a3.13 3.13 0 0 1 3.957 4.01l.008-.021 4.528 4.531a3.13 3.13 0 1 1-1.873 1.756l-.008.02-4.24-4.217v11.115a3.142 3.142 0 0 1 1.744 2.81 3.136 3.136 0 1 1-5.356-2.212c.287-.288.63-.521 1.01-.685l.02-.008V30.194a3.142 3.142 0 0 1-1.689-4.126l-.008.02-4.62-4.642L44.68 33.68a2.638 2.638 0 0 0-.766 1.865c0 .728.293 1.386.768 1.865l17.853 17.847a2.62 2.62 0 0 0 1.862.772c.728 0 1.385-.295 1.862-.772L84.027 37.49a2.624 2.624 0 0 0 .773-1.862c0-.727-.296-1.387-.773-1.862l-.003-.002Z"/></g></svg>