<svg width="124" height="86" viewBox="0 0 124 86" fill="none" xmlns="http://www.w3.org/2000/svg">
<g clip-path="url(#clip0_72_581)">
<path opacity="0.1" d="M31.5439 34.4587H18.4105C17.9454 34.4587 17.5684 34.8352 17.5684 35.2995V38.09C17.5684 38.5543 17.9454 38.9307 18.4105 38.9307H31.5439C32.009 38.9307 32.386 38.5543 32.386 38.09V35.2995C32.386 34.8352 32.009 34.4587 31.5439 34.4587Z" fill="#6C63FF"/>
<path opacity="0.1" d="M47.0517 38.9319H33.9183C33.4532 38.9319 33.0762 39.3083 33.0762 39.7727V42.5631C33.0762 43.0275 33.4532 43.4039 33.9183 43.4039H47.0517C47.5168 43.4039 47.8938 43.0275 47.8938 42.5631V39.7727C47.8938 39.3083 47.5168 38.9319 47.0517 38.9319Z" fill="#6C63FF"/>
<path opacity="0.1" d="M62.5595 43.4041H49.4261C48.961 43.4041 48.584 43.7805 48.584 44.2448V47.0353C48.584 47.4996 48.961 47.8761 49.4261 47.8761H62.5595C63.0246 47.8761 63.4016 47.4996 63.4016 47.0353V44.2448C63.4016 43.7805 63.0246 43.4041 62.5595 43.4041Z" fill="#6C63FF"/>
<path opacity="0.1" d="M31.5439 27.7507H18.4105C17.9454 27.7507 17.5684 28.1272 17.5684 28.5915V31.382C17.5684 31.8463 17.9454 32.2227 18.4105 32.2227H31.5439C32.009 32.2227 32.386 31.8463 32.386 31.382V28.5915C32.386 28.1272 32.009 27.7507 31.5439 27.7507Z" fill="#6C63FF"/>
<path opacity="0.1" d="M47.0517 32.2229H33.9183C33.4532 32.2229 33.0762 32.5993 33.0762 33.0637V35.8541C33.0762 36.3185 33.4532 36.6949 33.9183 36.6949H47.0517C47.5168 36.6949 47.8938 36.3185 47.8938 35.8541V33.0637C47.8938 32.5993 47.5168 32.2229 47.0517 32.2229Z" fill="#6C63FF"/>
<path opacity="0.1" d="M62.5595 36.696H49.4261C48.961 36.696 48.584 37.0725 48.584 37.5368V40.3273C48.584 40.7916 48.961 41.168 49.4261 41.168H62.5595C63.0246 41.168 63.4016 40.7916 63.4016 40.3273V37.5368C63.4016 37.0725 63.0246 36.696 62.5595 36.696Z" fill="#6C63FF"/>
<path opacity="0.1" d="M79.788 34.4587H66.6547C66.1895 34.4587 65.8125 34.8352 65.8125 35.2995V38.09C65.8125 38.5543 66.1895 38.9307 66.6547 38.9307H79.788C80.2531 38.9307 80.6302 38.5543 80.6302 38.09V35.2995C80.6302 34.8352 80.2531 34.4587 79.788 34.4587Z" fill="#6C63FF"/>
<path opacity="0.1" d="M95.2958 38.9319H82.1625C81.6974 38.9319 81.3203 39.3083 81.3203 39.7727V42.5631C81.3203 43.0275 81.6974 43.4039 82.1625 43.4039H95.2958C95.7609 43.4039 96.138 43.0275 96.138 42.5631V39.7727C96.138 39.3083 95.7609 38.9319 95.2958 38.9319Z" fill="#6C63FF"/>
<path opacity="0.1" d="M110.804 43.4041H97.6703C97.2052 43.4041 96.8281 43.7805 96.8281 44.2448V47.0353C96.8281 47.4996 97.2052 47.8761 97.6703 47.8761H110.804C111.269 47.8761 111.646 47.4996 111.646 47.0353V44.2448C111.646 43.7805 111.269 43.4041 110.804 43.4041Z" fill="#6C63FF"/>
<path opacity="0.1" d="M79.788 27.7507H66.6547C66.1895 27.7507 65.8125 28.1272 65.8125 28.5915V31.382C65.8125 31.8463 66.1895 32.2227 66.6547 32.2227H79.788C80.2531 32.2227 80.6302 31.8463 80.6302 31.382V28.5915C80.6302 28.1272 80.2531 27.7507 79.788 27.7507Z" fill="#6C63FF"/>
<path opacity="0.1" d="M95.2958 32.2229H82.1625C81.6974 32.2229 81.3203 32.5993 81.3203 33.0637V35.8541C81.3203 36.3185 81.6974 36.6949 82.1625 36.6949H95.2958C95.7609 36.6949 96.138 36.3185 96.138 35.8541V33.0637C96.138 32.5993 95.7609 32.2229 95.2958 32.2229Z" fill="#6C63FF"/>
<path opacity="0.1" d="M110.804 36.696H97.6703C97.2052 36.696 96.8281 37.0725 96.8281 37.5368V40.3273C96.8281 40.7916 97.2052 41.168 97.6703 41.168H110.804C111.269 41.168 111.646 40.7916 111.646 40.3273V37.5368C111.646 37.0725 111.269 36.696 110.804 36.696Z" fill="#6C63FF"/>
<path opacity="0.1" d="M31.5439 18.8057H18.4105C17.9454 18.8057 17.5684 19.1821 17.5684 19.6464V22.4369C17.5684 22.9012 17.9454 23.2777 18.4105 23.2777H31.5439C32.009 23.2777 32.386 22.9012 32.386 22.4369V19.6464C32.386 19.1821 32.009 18.8057 31.5439 18.8057Z" fill="#6C63FF"/>
<path opacity="0.1" d="M47.0517 23.2778H33.9183C33.4532 23.2778 33.0762 23.6543 33.0762 24.1186V26.9091C33.0762 27.3734 33.4532 27.7498 33.9183 27.7498H47.0517C47.5168 27.7498 47.8938 27.3734 47.8938 26.9091V24.1186C47.8938 23.6543 47.5168 23.2778 47.0517 23.2778Z" fill="#6C63FF"/>
<path opacity="0.1" d="M62.5595 27.7507H49.4261C48.961 27.7507 48.584 28.1272 48.584 28.5915V31.382C48.584 31.8463 48.961 32.2227 49.4261 32.2227H62.5595C63.0246 32.2227 63.4016 31.8463 63.4016 31.382V28.5915C63.4016 28.1272 63.0246 27.7507 62.5595 27.7507Z" fill="#6C63FF"/>
<path opacity="0.1" d="M31.5439 12.0967H18.4105C17.9454 12.0967 17.5684 12.4731 17.5684 12.9374V15.7279C17.5684 16.1923 17.9454 16.5687 18.4105 16.5687H31.5439C32.009 16.5687 32.386 16.1923 32.386 15.7279V12.9374C32.386 12.4731 32.009 12.0967 31.5439 12.0967Z" fill="#6C63FF"/>
<path opacity="0.1" d="M47.0517 16.5698H33.9183C33.4532 16.5698 33.0762 16.9462 33.0762 17.4106V20.2011C33.0762 20.6654 33.4532 21.0418 33.9183 21.0418H47.0517C47.5168 21.0418 47.8938 20.6654 47.8938 20.2011V17.4106C47.8938 16.9462 47.5168 16.5698 47.0517 16.5698Z" fill="#6C63FF"/>
<path opacity="0.1" d="M62.5595 21.0417H49.4261C48.961 21.0417 48.584 21.4182 48.584 21.8825V24.673C48.584 25.1373 48.961 25.5137 49.4261 25.5137H62.5595C63.0246 25.5137 63.4016 25.1373 63.4016 24.673V21.8825C63.4016 21.4182 63.0246 21.0417 62.5595 21.0417Z" fill="#6C63FF"/>
<path opacity="0.1" d="M79.788 18.8057H66.6547C66.1895 18.8057 65.8125 19.1821 65.8125 19.6464V22.4369C65.8125 22.9012 66.1895 23.2777 66.6547 23.2777H79.788C80.2531 23.2777 80.6302 22.9012 80.6302 22.4369V19.6464C80.6302 19.1821 80.2531 18.8057 79.788 18.8057Z" fill="#6C63FF"/>
<path opacity="0.1" d="M95.2958 23.2778H82.1625C81.6974 23.2778 81.3203 23.6543 81.3203 24.1186V26.9091C81.3203 27.3734 81.6974 27.7498 82.1625 27.7498H95.2958C95.7609 27.7498 96.138 27.3734 96.138 26.9091V24.1186C96.138 23.6543 95.7609 23.2778 95.2958 23.2778Z" fill="#6C63FF"/>
<path opacity="0.1" d="M110.804 27.7507H97.6703C97.2052 27.7507 96.8281 28.1272 96.8281 28.5915V31.382C96.8281 31.8463 97.2052 32.2227 97.6703 32.2227H110.804C111.269 32.2227 111.646 31.8463 111.646 31.382V28.5915C111.646 28.1272 111.269 27.7507 110.804 27.7507Z" fill="#6C63FF"/>
<path opacity="0.1" d="M79.788 12.0967H66.6547C66.1895 12.0967 65.8125 12.4731 65.8125 12.9374V15.7279C65.8125 16.1923 66.1895 16.5687 66.6547 16.5687H79.788C80.2531 16.5687 80.6302 16.1923 80.6302 15.7279V12.9374C80.6302 12.4731 80.2531 12.0967 79.788 12.0967Z" fill="#6C63FF"/>
<path opacity="0.1" d="M95.2958 16.5698H82.1625C81.6974 16.5698 81.3203 16.9462 81.3203 17.4106V20.2011C81.3203 20.6654 81.6974 21.0418 82.1625 21.0418H95.2958C95.7609 21.0418 96.138 20.6654 96.138 20.2011V17.4106C96.138 16.9462 95.7609 16.5698 95.2958 16.5698Z" fill="#6C63FF"/>
<path opacity="0.1" d="M110.804 21.0417H97.6703C97.2052 21.0417 96.8281 21.4182 96.8281 21.8825V24.673C96.8281 25.1373 97.2052 25.5137 97.6703 25.5137H110.804C111.269 25.5137 111.646 25.1373 111.646 24.673V21.8825C111.646 21.4182 111.269 21.0417 110.804 21.0417Z" fill="#6C63FF"/>
<path opacity="0.1" d="M62 86.0001C96.2417 86.0001 124 80.9592 124 74.7409C124 68.5226 96.2417 63.4817 62 63.4817C27.7583 63.4817 0 68.5226 0 74.7409C0 80.9592 27.7583 86.0001 62 86.0001Z" fill="#6C63FF"/>
<path d="M27.2022 36.3237L21.9883 68.2342L45.5641 65.7447L44.544 63.0289L26.1254 64.5566L30.4325 36.2671L27.2022 36.3237Z" fill="#3F3D56"/>
<path d="M21.082 0.113158L52.8188 0L61.9998 69.3658L30.1497 73.6658L21.082 0.113158Z" fill="#3F3D56"/>
<path d="M24.5391 2.77246H50.1552L59.1094 67.2725L32.6999 70.8935L24.5391 2.77246Z" fill="white"/>
<path d="M48.6984 64.3709C48.8593 64.6787 48.9795 65.0114 49.1891 65.2886C49.8012 66.1056 50.963 66.2335 51.8346 66.7665C51.8782 66.7886 51.9142 66.8233 51.9378 66.866C51.9774 66.96 51.889 67.0584 51.804 67.1173C51.1432 67.5801 50.2761 67.5903 49.468 67.5846C49.1964 67.5942 48.9247 67.5684 48.6598 67.5077C48.2325 67.3945 47.8664 67.0969 47.4448 66.9758C47.2261 66.9213 47.0024 66.8898 46.7772 66.8819L45.8919 66.8219C45.6563 66.8185 45.4229 66.7753 45.2016 66.6941C45.0914 66.6519 44.9937 66.5826 44.9176 66.4926C44.8415 66.4026 44.7895 66.2947 44.7664 66.1792C44.7415 65.9913 44.8219 65.8092 44.8695 65.6258C44.9829 65.1913 44.9478 64.6663 45.2867 64.3698C45.4263 64.263 45.5864 64.186 45.757 64.1435C46.3731 63.9362 47.002 63.7691 47.6397 63.6433C48.1645 63.5403 48.466 63.9251 48.6984 64.3709Z" fill="#3F3D56"/>
<path d="M38.6858 66.8187C38.7085 67.0597 38.7153 67.3358 38.5407 67.5044C38.432 67.5945 38.3007 67.6532 38.161 67.6742C37.3234 67.8688 36.3894 67.8824 35.6606 67.4275C35.5848 67.3842 35.5178 67.327 35.4634 67.2589C35.4026 67.166 35.3681 67.0585 35.3636 66.9477C35.3376 66.6274 35.4362 66.3117 35.5257 66.0028C35.7376 65.2698 35.8986 64.5231 36.0074 63.7679C36.0165 63.7057 38.1463 64.1074 38.2879 64.3179C38.4659 64.5782 38.467 65.2028 38.5146 65.5128C38.5864 65.9459 38.6435 66.3811 38.6858 66.8187Z" fill="#3F3D56"/>
<path d="M46.6123 37.3727L47.179 42.6334C47.2924 43.7084 47.4114 44.7891 47.3332 45.8675C47.2425 47.1122 46.8934 48.3569 47.0407 49.5903C47.0985 50.0701 47.23 50.5409 47.2493 51.0241C47.2529 51.3454 47.2366 51.6666 47.2006 51.9859C46.9444 55.1781 47.7548 58.3454 48.2082 61.5149C48.2811 61.9059 48.2971 62.3053 48.2558 62.7008C48.1969 63.1025 48.079 63.6298 48.4372 63.82L45.0731 65.0375C44.6435 64.5 44.928 63.6638 44.8464 62.9815C44.7716 62.367 44.4338 61.8193 44.2536 61.2275C44.0904 60.6957 44.0564 60.1355 44.0031 59.5833C43.7095 56.5767 42.8084 53.6482 42.5976 50.6348C42.5908 50.3438 42.5528 50.0543 42.4843 49.7714C42.3709 49.3968 42.1442 49.0698 41.9787 48.7179C41.7248 48.1895 41.6002 47.6101 41.4777 47.0375L40.758 43.6711C40.0303 44.7528 40.0598 46.1605 39.9158 47.4573C39.7141 49.2679 39.263 51.0478 38.8957 52.8357C38.8104 53.2204 38.7465 53.6095 38.7042 54.0012C38.609 55.0502 38.7983 56.1094 38.6974 57.1572C38.584 58.3714 38.0728 59.5562 38.1964 60.7703C38.2644 61.4425 38.5228 62.0785 38.6974 62.7302C38.8719 63.382 38.9581 64.0972 38.6917 64.7184C37.7608 64.3772 36.7607 64.2669 35.7776 64.3971C34.6974 63.2938 34.5059 61.7548 34.4322 60.2102C34.3585 58.6656 34.5365 57.1187 34.3438 55.5888C34.2871 55.1362 34.1987 54.6949 34.184 54.2434C34.1364 52.7961 34.8334 51.4416 35.1803 50.0351C35.4924 48.7689 35.5222 47.4497 35.2675 46.1707C35.0975 45.3254 34.8051 44.505 34.7008 43.6484C34.5591 42.4478 34.7994 41.2382 35.0409 40.0523C35.2029 39.2522 35.3639 38.4522 35.5475 37.6567C35.7447 36.8024 35.9794 35.9299 36.5064 35.2306C37.3497 34.1115 38.847 33.6147 40.2468 33.7233C41.6466 33.832 42.9535 34.4679 44.1096 35.26C45.0208 35.868 45.8604 36.5767 46.6123 37.3727Z" fill="#192534"/>
<path d="M42.8512 17.2282C42.7877 17.3302 42.7435 17.4429 42.7209 17.5609C42.6925 17.7929 42.8342 18.0056 42.9476 18.2082C43.0928 18.4684 43.2044 18.746 43.2797 19.0342C43.3336 19.2126 43.3502 19.4002 43.3284 19.5853C43.3007 19.7243 43.251 19.858 43.1811 19.9813C42.9623 20.4023 42.6381 20.7915 42.1972 20.9669C41.8558 21.0925 41.4834 21.1075 41.1329 21.0099C40.7848 20.9116 40.4556 20.7555 40.1593 20.5483C39.9095 20.3902 39.6848 20.1957 39.4928 19.9712C39.3095 19.7256 39.155 19.4598 39.0326 19.179C38.7969 18.6868 38.5577 18.1606 38.6008 17.6209C38.603 17.5719 38.6122 17.5235 38.628 17.4772C38.6648 17.3933 38.7162 17.3167 38.7799 17.2508C39.2634 16.6787 39.5114 15.9447 39.4735 15.197L41.125 15.5716C41.4888 15.6542 41.8527 15.7368 42.212 15.8398C42.5067 15.9246 42.96 16.0423 43.1516 16.3048C43.3431 16.5674 42.9816 16.9883 42.8512 17.2282Z" fill="#FBBEBE"/>
<path d="M41.9682 16.9477C43.6258 16.9477 44.9696 15.6061 44.9696 13.9513C44.9696 12.2964 43.6258 10.9548 41.9682 10.9548C40.3106 10.9548 38.9668 12.2964 38.9668 13.9513C38.9668 15.6061 40.3106 16.9477 41.9682 16.9477Z" fill="#FBBEBE"/>
<path d="M41.4852 19.9961C41.6121 19.7189 41.8864 19.5435 42.1369 19.3692C42.3874 19.195 42.6413 18.9721 42.69 18.6699C42.693 18.6016 42.71 18.5346 42.7399 18.473C42.8363 18.3282 43.0652 18.4006 43.2024 18.507C43.5356 18.7661 43.7623 19.1339 43.9833 19.4926C44.2692 19.9288 44.514 20.3906 44.7144 20.872C45.0329 21.7105 45.0714 22.6259 45.1066 23.521C45.1383 24.3357 45.1689 25.1629 44.9705 25.9528C44.8459 26.4529 44.6305 26.9384 44.618 27.4532C44.5806 29.3237 43.93 31.1116 43.8847 32.9821C43.8813 33.523 43.9085 34.0636 43.9663 34.6014L44.0729 35.8156C42.4248 35.7213 40.7813 35.5768 39.1423 35.3822C39.0947 34.8232 38.9349 34.2812 38.7887 33.7403C38.19 31.529 37.8062 29.2651 37.6428 26.9802C37.5555 25.7672 37.4659 24.5587 37.3311 23.3501C37.2098 22.2514 36.9718 21.1458 37.1146 20.0493C37.1893 19.5509 37.3464 19.0684 37.5793 18.6213C37.6529 18.4432 37.7795 18.2919 37.942 18.1879C38.0232 18.1487 38.1094 18.1209 38.1982 18.1053C38.4551 18.0533 38.7159 18.0226 38.978 18.0136C39.042 18.0082 39.1065 18.0144 39.1684 18.0317C39.2788 18.0867 39.3695 18.1744 39.428 18.2829C39.933 19.0409 40.6477 19.6361 41.4852 19.9961Z" fill="#F2F2F2"/>
<path d="M40.0918 19.7562C40.3026 20.0572 40.7492 20.1285 40.9442 20.4351C41.0098 20.5633 41.0597 20.6989 41.0926 20.8391C41.2116 21.2182 41.4519 21.5475 41.5982 21.9175C41.809 22.4493 41.8146 23.0377 41.8169 23.6092C41.8376 24.0644 41.8026 24.5204 41.7126 24.9671C41.6446 25.2466 41.5336 25.5125 41.4519 25.7886C41.3133 26.2581 41.2619 26.749 41.3001 27.237C41.3001 27.3425 41.3282 27.446 41.3817 27.5369C41.4585 27.6278 41.5589 27.6959 41.6718 27.7338C42.0039 27.8798 42.3519 28.0291 42.7146 27.9952C42.789 27.9929 42.8611 27.9689 42.922 27.9262C42.9641 27.8879 42.9986 27.8423 43.024 27.7915L43.2507 27.409C43.4559 27.0594 43.6701 26.6679 43.5908 26.2684C43.5332 26.0622 43.4465 25.8653 43.3335 25.6834C43.1886 25.3882 43.0651 25.083 42.964 24.7702C42.6024 23.7325 42.2363 22.6802 42.1547 21.5848C42.1067 21.1679 42.1532 20.7456 42.2907 20.3491C42.3972 20.1051 42.531 19.8739 42.6897 19.66C42.6538 19.6119 42.6041 19.5759 42.5472 19.5567C42.4903 19.5375 42.4289 19.536 42.3712 19.5525C42.2572 19.5877 42.1467 19.6335 42.0413 19.6894C41.7081 19.8297 41.3386 19.7788 41.002 19.6826C40.8705 19.6441 40.6619 19.5129 40.5259 19.5219C40.4794 19.5276 40.0997 19.7697 40.0918 19.7562Z" fill="#6C63FF"/>
<path d="M42.747 19.7438C42.679 19.6895 42.5735 19.6397 42.5135 19.7031C42.4933 19.7305 42.4787 19.7617 42.4704 19.7947C42.4115 19.9532 42.238 20.0312 42.0805 20.0923C41.9229 20.1534 41.7529 20.1874 41.6577 20.0708C41.6277 20.0255 41.6129 19.9717 41.6155 19.9174C41.6182 19.863 41.6381 19.811 41.6724 19.7687C41.7422 19.6848 41.8262 19.614 41.9207 19.5594C42.442 19.192 42.7972 18.6341 42.909 18.0068C43.0553 18.1228 43.152 18.2898 43.1799 18.4742C43.2173 18.6541 43.2219 18.8397 43.2593 19.0196C43.3148 19.2776 43.4384 19.5186 43.4667 19.78C43.4814 19.9192 43.4667 20.0595 43.4667 20.1987C43.4718 20.3348 43.4877 20.4702 43.5143 20.6038C43.2491 20.3232 43.0621 19.9939 42.747 19.7438Z" fill="#F2F2F2"/>
<path d="M40.4514 18.9755C40.3381 18.868 40.2247 18.7662 40.1114 18.6564C39.614 18.1718 39.2384 17.5766 39.0153 16.9194C38.8702 17.0326 38.7104 17.182 38.707 17.3721C38.72 17.5066 38.772 17.6344 38.8566 17.7398C39.2853 18.4137 39.5682 19.1695 39.6875 19.9589C39.7487 19.8634 39.8335 19.7852 39.9338 19.7319C40.034 19.6786 40.1463 19.6519 40.2599 19.6545C40.439 19.6545 41.2426 20.1297 41.3004 20.0098C41.3854 19.8219 40.5874 19.1034 40.4514 18.9755Z" fill="#F2F2F2"/>
<path d="M42.9829 18.0748C44.0491 19.1344 45.3543 19.9233 46.789 20.3753C46.9316 20.4063 47.0639 20.4733 47.1732 20.5699C47.2549 20.6717 47.3098 20.7923 47.3331 20.9207C47.6096 22.0002 47.7026 23.1171 47.7944 24.2272C47.8184 24.4107 47.8146 24.5969 47.783 24.7794C47.7162 25.0758 47.5053 25.3157 47.2979 25.5387C46.6473 26.2346 45.9049 26.9622 45.795 27.9082C45.7866 28.0906 45.765 28.2721 45.7304 28.4513C45.6737 28.6618 45.5479 28.8474 45.4708 29.0522C45.0922 30.0604 45.948 31.2814 45.4266 32.2206C45.7088 32.762 45.9025 33.345 46.0001 33.9474C46.0176 34.1758 46.07 34.4002 46.1554 34.6128C46.3107 34.9364 46.6303 35.1424 46.8819 35.4049C47.6493 36.1902 47.7434 37.3919 47.7887 38.4884C47.817 39.1063 47.808 39.8158 47.3353 40.2209C47.0622 40.4574 46.6893 40.5343 46.3322 40.5932C45.8573 40.6724 45.3404 40.729 44.9199 40.4947C44.6184 40.3273 44.4133 40.0342 44.2172 39.7513C43.8454 39.2115 43.4725 38.6729 43.12 38.1195C42.5623 37.2471 42.0364 36.2502 42.1974 35.2272C42.152 36.2739 41.931 37.3286 41.4164 38.2406C40.9018 39.1527 40.0733 39.9142 39.0679 40.2152C38.0625 40.5162 36.8871 40.3035 36.1379 39.5702C35.8933 39.3188 35.6833 39.0361 35.5134 38.7295C35.0869 38.0003 34.7757 37.2099 34.5908 36.386C34.542 36.1721 34.5057 35.9333 34.6134 35.7421C34.6644 35.6516 34.7426 35.5803 34.7959 35.4909C34.975 35.1865 34.8027 34.8029 34.6293 34.4928C34.3652 34.5177 34.1759 34.2077 34.1997 33.9429C34.2235 33.6781 34.3822 33.4484 34.4944 33.2074C34.8231 32.4967 34.7506 31.6695 34.5919 30.9035C34.4332 30.1374 34.1963 29.3758 34.2144 28.5939C34.2337 27.7667 33.6375 27.0222 33.183 26.3308C32.9291 25.9415 32.6333 25.5794 32.4123 25.1709C31.9514 24.3112 31.8449 23.306 32.1153 22.3691C32.274 21.888 32.4822 21.4246 32.7364 20.9863L33.1105 20.2859C33.1801 20.1185 33.2882 19.9698 33.426 19.8519C33.5639 19.7339 33.7276 19.65 33.9039 19.6069L36.4916 18.5885C36.8224 18.4757 37.1366 18.3189 37.4255 18.1223C37.7418 17.8847 37.9775 17.5565 38.279 17.303C38.323 17.2569 38.3757 17.2201 38.4341 17.1946C38.4924 17.1692 38.5553 17.1556 38.6191 17.1548C38.8616 17.1763 38.9478 17.4818 38.9727 17.7206C39.0294 18.2547 39.4261 18.7073 39.561 19.2267C40.2909 22.0953 41.8358 24.7409 42.2597 27.6694C42.7358 26.5277 43.2118 25.3836 43.8216 24.3086C43.9178 24.1543 43.9987 23.9909 44.063 23.8209C44.1362 23.5757 44.1635 23.319 44.1435 23.0639C44.1129 22.3272 43.9168 21.6075 43.723 20.8958C43.4714 19.9272 43.2447 19.0343 42.9829 18.0748Z" fill="#3F3D56"/>
<path d="M47.9153 26.84C47.9651 27.322 48.0139 27.8052 48.1034 28.2816C48.2077 28.8327 48.3664 29.3713 48.5239 29.9099C48.6009 30.2127 48.7111 30.5061 48.8526 30.7847C48.9039 30.8655 48.9447 30.9526 48.9739 31.0438C49.0295 31.2701 48.9025 31.4964 48.8481 31.7227C48.6849 32.4017 49.1745 33.1564 48.8662 33.7822C48.7733 33.9723 48.6112 34.1296 48.55 34.3333C48.4786 34.5675 48.55 34.8176 48.5874 35.0598C48.6838 35.7387 48.4514 36.429 48.2224 37.0819L47.8325 38.1841C47.4766 37.5232 47.1173 36.8556 46.6254 36.2887C46.4497 36.085 46.2582 35.896 46.0961 35.681C45.8544 35.3431 45.6635 34.9718 45.5293 34.5788C45.1833 33.6451 44.9856 32.6631 44.9434 31.6684C44.9152 31.3856 44.9481 31.1001 45.0397 30.8311C45.1147 30.6754 45.1987 30.5243 45.2913 30.3784C45.5951 29.8319 45.6574 29.1846 45.6518 28.56C45.6461 27.9353 45.5792 27.3084 45.6518 26.6872C45.711 26.1685 45.8646 25.665 46.1051 25.2014C46.247 24.9013 46.4579 24.6388 46.7206 24.4354C46.9167 24.2888 47.1558 24.2112 47.4007 24.2147C47.7713 24.2362 47.6863 24.5542 47.718 24.8608L47.9153 26.84Z" fill="#3F3D56"/>
<path d="M31.2421 25.2998C31.0109 25.9788 30.8024 26.6638 30.6165 27.3548C30.4351 28.0337 30.273 28.7164 30.1302 29.4029C30.0569 29.7048 30.0158 30.0135 30.0078 30.324C30.0223 30.6855 30.0844 31.0436 30.1926 31.3889C30.9225 34.0153 32.2532 36.438 33.7516 38.7158C34.1798 38.1827 34.6884 37.7193 35.2591 37.3421C35.3058 37.3145 35.3448 37.2756 35.3725 37.2289C35.3868 37.1849 35.391 37.1382 35.3847 37.0924C35.3785 37.0465 35.3619 37.0027 35.3362 36.9641C34.9225 36.1177 34.2673 35.372 34.061 34.452C33.9749 34.0696 33.9715 33.6713 33.874 33.291C33.7482 32.7988 33.4671 32.3484 33.4025 31.8438C33.3334 31.2938 33.5159 30.6941 33.2574 30.2064C33.7845 30.0015 34.0894 29.4595 34.3127 28.9401C34.5513 28.4088 34.7219 27.8495 34.8205 27.2756C34.9757 26.1753 34.7599 25.0547 34.2073 24.0902C33.9373 23.6091 33.5909 23.1749 33.1815 22.8047C33.0466 22.6836 32.7281 22.3362 32.532 22.3396C32.2702 22.3453 32.1863 22.7685 32.1115 22.9586C31.8089 23.7349 31.5096 24.5123 31.2421 25.2998Z" fill="#3F3D56"/>
<path d="M35.9378 37.9656C35.9718 37.9905 36.0103 38.0244 36.0012 38.0651C35.9922 38.1059 35.9593 38.1161 35.9298 38.133C35.7766 38.2416 35.6622 38.3962 35.6034 38.5744C35.415 38.9982 35.2508 39.4322 35.1115 39.8745C34.8578 39.4951 34.5595 39.1475 34.2228 38.8391C33.9644 38.6015 33.6754 38.3763 33.5371 38.055C33.5371 38.0459 34.131 37.608 34.1854 37.5605C34.3521 37.4122 34.5618 37.0015 34.734 36.9109C34.929 36.8091 35.1149 37.2085 35.2634 37.3692C35.4676 37.59 35.6936 37.7898 35.9378 37.9656Z" fill="#FBBEBE"/>
<path d="M45.1546 13.4828C45.1466 13.3345 45.1274 13.1705 45.014 13.0743C44.9145 13.0056 44.7947 12.9725 44.674 12.9803C44.0132 12.9588 43.3297 13.0697 42.7063 12.848C42.296 12.702 41.9458 12.4213 41.5456 12.2471C41.1455 12.0728 40.6332 12.0264 40.3102 12.3195C40.0653 12.5458 39.9985 12.8932 39.9135 13.2135C39.7263 13.9202 39.3931 14.5801 38.9353 15.1507C38.6281 15.0557 38.4082 14.7818 38.2666 14.4944C37.7848 13.5145 38.0217 12.3444 38.364 11.3056C38.4774 10.9571 38.6032 10.612 38.729 10.268L39.0056 9.50753C39.3686 9.47194 39.7058 9.30441 39.9531 9.0368L40.0721 9.32535C40.3795 9.31431 40.6762 9.20967 40.9222 9.02548C41.0175 9.20427 41.2623 9.2518 41.4606 9.19408C41.659 9.13637 41.8301 9.02548 42.0274 8.96777C42.5544 8.79803 43.1166 9.05943 43.6697 9.08885C43.9038 9.08316 44.138 9.08996 44.3713 9.10922C45.0242 9.21445 45.4855 9.82777 45.685 10.4569C45.8176 10.8756 45.9276 11.3905 46.3413 11.5387C46.3504 11.6971 46.0693 11.7277 46.0455 11.8782C46.0427 11.9284 46.0545 11.9783 46.0795 12.0219L46.4592 12.8355C46.2777 12.881 46.0867 12.8715 45.9106 12.8083C45.7394 13.2101 45.1716 13.7894 45.1546 13.4828Z" fill="#192534"/>
<path d="M64.3966 15.2537C64.5889 15.8742 64.7404 16.5066 64.8499 17.1468C64.9315 17.6266 64.9791 18.1596 64.7037 18.5602C65.7533 16.9839 66.8493 15.3601 68.4441 14.3428C68.1194 13.9912 67.8723 13.5754 67.719 13.1224C67.5657 12.6693 67.5096 12.1891 67.5544 11.713C67.5634 11.6179 66.2452 12.1147 66.1443 12.1713C65.6819 12.4281 65.258 12.7472 64.8069 13.0222C64.5734 13.1637 63.6009 13.4986 63.5918 13.7012C63.5918 13.8313 63.9783 14.2296 64.0509 14.3665C64.1932 14.651 64.3089 14.948 64.3966 15.2537Z" fill="#FBBEBE"/>
<path d="M69.2726 74.7045C69.0134 74.5223 68.7097 74.4135 68.3937 74.3896C68.0776 74.3657 67.7609 74.4276 67.4772 74.5688C66.9638 74.8335 66.618 75.3348 66.1511 75.6743C65.3486 76.2559 64.2888 76.3023 63.3492 76.6169C63.0998 76.7007 62.8346 76.8251 62.7292 77.0695C62.6938 77.1723 62.6797 77.2811 62.6877 77.3894C62.6957 77.4978 62.7256 77.6034 62.7756 77.6998C62.9327 78.0494 63.208 78.3326 63.5532 78.4999C63.9748 78.7013 64.46 78.7103 64.9269 78.716L68.9847 78.7635C70.2315 78.7782 71.4862 78.7929 72.7251 78.948C73.0141 78.9842 73.327 79.0238 73.582 78.8823C73.9968 78.656 74.0444 78.0834 74.0127 77.6116C73.9292 76.416 73.6616 75.2405 73.2193 74.1263C73.1706 74.003 73.1059 73.8626 72.9688 73.84C72.8715 73.8356 72.7758 73.8661 72.699 73.926C71.5542 74.605 70.1046 74.9886 68.8872 74.4454" fill="white"/>
<path d="M71.3049 48.8594C70.8515 51.4881 71.1474 54.1892 71.6574 56.8065C71.7513 57.3276 71.8751 57.843 72.0281 58.35C72.2105 58.9271 72.4565 59.4816 72.6277 60.0621C73.0629 61.5331 73.0017 63.106 72.9371 64.6416L72.6401 71.6291C72.6152 72.2152 72.5925 72.8149 72.7693 73.3739C72.8408 73.6003 72.928 73.8832 72.7478 74.0359C72.6773 74.0865 72.5949 74.118 72.5087 74.1276C71.6976 74.2768 70.8599 74.1513 70.1284 73.7711L70.0479 66.7123C70.023 64.5363 69.9969 62.3512 69.6614 60.2024C69.395 58.4937 68.9326 56.8076 68.902 55.0786C68.8703 53.268 69.3146 51.4813 69.768 49.7262C69.8654 49.3505 70.2213 49.0756 70.5138 48.8209C70.6158 48.7205 70.74 48.6453 70.8765 48.6014C71.0125 48.5641 71.221 48.7451 71.3049 48.8594Z" fill="#3F3D56"/>
<path opacity="0.1" d="M71.3049 48.8594C70.8515 51.4881 71.1474 54.1892 71.6574 56.8065C71.7513 57.3276 71.8751 57.843 72.0281 58.35C72.2105 58.9271 72.4565 59.4816 72.6277 60.0621C73.0629 61.5331 73.0017 63.106 72.9371 64.6416L72.6401 71.6291C72.6152 72.2152 72.5925 72.8149 72.7693 73.3739C72.8408 73.6003 72.928 73.8832 72.7478 74.0359C72.6773 74.0865 72.5949 74.118 72.5087 74.1276C71.6976 74.2768 70.8599 74.1513 70.1284 73.7711L70.0479 66.7123C70.023 64.5363 69.9969 62.3512 69.6614 60.2024C69.395 58.4937 68.9326 56.8076 68.902 55.0786C68.8703 53.268 69.3146 51.4813 69.768 49.7262C69.8654 49.3505 70.2213 49.0756 70.5138 48.8209C70.6158 48.7205 70.74 48.6453 70.8765 48.6014C71.0125 48.5641 71.221 48.7451 71.3049 48.8594Z" fill="black"/>
<path d="M62.7933 40.644C62.6255 41.3332 62.9814 42.0472 62.9417 42.7556C62.9191 43.1844 62.7502 43.6122 62.8284 44.0331C62.9066 44.4541 63.2081 44.7709 63.3691 45.1568C63.4864 45.479 63.5485 45.8188 63.5527 46.1616C63.5992 47.008 63.5617 47.859 63.53 48.702C63.4767 50.1165 63.4371 51.5389 63.6241 52.9409C63.7869 54.1556 64.1177 55.3418 64.6068 56.4658C64.7551 56.7715 64.8775 57.0891 64.9729 57.4152C65.0355 57.719 65.0772 58.0268 65.0976 58.3363C65.2053 59.3429 65.476 60.3255 65.8989 61.2456C66.188 61.8759 66.6924 62.3772 66.8522 63.0459C67.0041 63.6864 66.902 64.3619 67.012 65.0103C67.0925 65.4913 67.2885 65.9462 67.3974 66.4214C67.539 67.0359 67.5356 67.6729 67.607 68.2998C67.8111 70.1104 68.6351 71.9209 68.1432 73.6771C68.0446 74.0302 67.8916 74.3889 67.9607 74.7487C67.9947 74.9252 68.0808 75.0995 68.0423 75.2749C68.0106 75.4243 67.8949 75.5397 67.836 75.6811C67.7227 75.9459 67.8428 76.2605 68.0446 76.4653C68.2598 76.6562 68.51 76.8038 68.7813 76.8998C69.6167 77.2563 70.4815 77.6184 71.3883 77.6105C71.4983 77.6163 71.6082 77.5962 71.709 77.5516C71.8722 77.4668 71.9527 77.2823 72.0219 77.1126L72.4866 75.9652C72.5433 75.826 72.5999 75.663 72.5217 75.534C72.4673 75.4633 72.4014 75.4021 72.3268 75.353C71.9516 75.0373 72.0366 74.4477 72.1363 73.9736C72.3911 72.7558 72.5323 71.5171 72.558 70.2733C72.6079 67.7929 72.1987 65.3272 71.7906 62.8796C71.649 62.0298 71.5061 61.1743 71.2239 60.3595C70.9417 59.5448 70.5257 58.7606 70.5937 57.9142C70.6662 56.9999 70.4282 56.0414 70.5937 55.1396C70.7592 54.2377 71.021 53.3551 71.1899 52.4543C71.4087 51.2854 71.4631 50.0939 71.5299 48.908C71.5583 48.4237 71.5945 47.9235 71.8212 47.4935C71.9539 47.2423 72.1465 47.0273 72.295 46.784C72.6781 46.1514 72.7393 45.3673 73.1054 44.7245C73.2789 44.4201 73.518 44.1519 73.645 43.826C73.7341 43.569 73.7808 43.2992 73.7833 43.0272C73.8192 42.3442 73.7812 41.6594 73.6699 40.9847C71.7404 40.0045 69.6006 39.5088 67.4359 39.5408C66.6073 39.5543 65.7697 39.6381 64.9922 39.9244C64.2509 40.1993 63.5754 40.5852 62.7933 40.644Z" fill="#3F3D56"/>
<path d="M67.4406 76.4949C67.1074 76.909 67.13 77.5008 66.917 77.9885C66.6585 78.5804 66.0827 78.9594 65.5364 79.3046L62.136 81.4546C61.9502 81.5677 61.7507 81.7069 61.6827 81.9174C61.6503 82.0517 61.6562 82.1924 61.6997 82.3236C61.7808 82.6076 61.9321 82.8666 62.1397 83.077C62.3472 83.2873 62.6044 83.4423 62.8875 83.5276C63.1885 83.5992 63.4975 83.6308 63.8068 83.6215L65.3358 83.6419C65.8016 83.6601 66.2681 83.6419 66.7311 83.5876C67.155 83.5265 67.5676 83.4054 67.9892 83.3285C68.7566 83.1893 69.5454 83.2017 70.3139 83.0671C70.7845 82.9747 71.2492 82.8549 71.7058 82.7084C72.2612 82.542 72.8268 82.3689 73.3028 82.0396C73.4339 81.96 73.5402 81.8456 73.61 81.7092C73.6905 81.5225 73.6463 81.3086 73.6009 81.1106L72.871 77.9082C72.8298 77.6415 72.7325 77.3866 72.5854 77.1602C72.4233 76.9452 72.132 76.8026 71.8792 76.8943C71.7749 76.9417 71.6764 77.001 71.5857 77.0708C71.2116 77.3164 70.7322 77.3571 70.2901 77.2802C70.0045 77.2293 69.627 77.1512 69.397 76.9622C69.2224 76.8185 69.1703 76.5956 69.0218 76.4326C68.9177 76.3259 68.7923 76.2422 68.6537 76.187C68.5151 76.1318 68.3664 76.1063 68.2173 76.1122C68.0682 76.118 67.922 76.1551 67.7882 76.2211C67.6544 76.287 67.536 76.3803 67.4406 76.4949Z" fill="white"/>
<path d="M65.2358 14.8123C67.4975 14.8123 69.331 12.9819 69.331 10.7239C69.331 8.46593 67.4975 6.6355 65.2358 6.6355C62.9741 6.6355 61.1406 8.46593 61.1406 10.7239C61.1406 12.9819 62.9741 14.8123 65.2358 14.8123Z" fill="#FBBEBE"/>
<path d="M62.0768 10.9639C62.469 10.7444 62.469 10.1118 62.8703 9.90134C63.2715 9.69087 63.7272 10.0564 63.9844 10.4253C64.3595 10.9655 64.6198 11.5767 64.7495 12.2211C64.7858 12.4044 64.8198 12.6047 64.9581 12.7326C65.0964 12.8604 65.2777 12.8763 65.4545 12.8944C65.9721 12.9457 66.4905 12.9924 67.0096 13.0347C67.5877 13.0811 68.1975 13.1184 68.7223 12.8706C68.9294 12.7782 69.1073 12.6311 69.2369 12.4451C69.3407 12.2666 69.415 12.0725 69.4568 11.8703C69.7277 10.8417 70.0008 9.80063 70.0235 8.73695C70.0326 8.2979 69.994 7.843 69.7821 7.45827C69.6585 7.23195 69.4772 7.03506 69.4262 6.78611C69.3752 6.53716 69.5395 6.22032 69.7979 6.24748C69.5643 6.25707 69.3317 6.21293 69.1179 6.11848C68.9127 6.00532 68.7608 5.76203 68.8334 5.54024C68.2576 5.61379 67.8382 5.04574 67.3893 4.67798C67.3164 4.60574 67.2178 4.56509 67.115 4.56482C67.0362 4.58446 66.9601 4.61372 66.8884 4.65195C66.6617 4.73116 66.4248 4.58066 66.1924 4.51503C65.569 4.34077 64.7767 4.76171 64.3143 4.30908C64.3585 4.59763 64.0037 4.79113 63.7113 4.78548C63.4188 4.77982 63.1174 4.67232 62.8408 4.76963C62.8808 4.84277 62.9042 4.92384 62.9092 5.00705C62.9143 5.09026 62.9008 5.17355 62.8698 5.25096C62.8389 5.32837 62.7911 5.398 62.7301 5.45485C62.669 5.51171 62.5961 5.55439 62.5166 5.57984L62.6538 5.87858C62.5125 5.90678 62.3819 5.97386 62.2767 6.07223C62.1716 6.17061 62.0961 6.29637 62.0587 6.43532C61.908 7.0294 61.9454 7.87355 61.9816 8.48461C61.9998 8.75279 62.2616 10.8632 62.0768 10.9639Z" fill="#192534"/>
<path d="M65.571 15.9938C63.5138 18.3034 62.9901 21.5544 62.5515 24.6153L61.9054 29.1348C61.7376 30.3072 61.5654 31.4795 61.4191 32.6552C61.3171 33.4597 61.2219 34.2767 61.333 35.0802C61.4203 35.7138 61.6322 36.3249 61.8091 36.9348C62.2691 38.5346 62.4981 40.1917 62.4891 41.8561C62.6263 41.4532 63.1012 41.2903 63.5183 41.1997C67.0182 40.4416 70.6696 40.8309 73.9302 42.3098C74.5026 40.7086 74.3949 38.957 74.5548 37.2641C74.7815 34.8505 75.5624 32.5115 75.7936 30.1023C75.8786 29.205 75.8888 28.3031 75.8979 27.4013C75.9047 26.7393 75.9115 26.0705 75.7732 25.4221C75.6191 24.7047 75.2938 24.036 74.9571 23.3853C74.0266 21.5766 72.9927 19.8228 71.8605 18.1325C71.2908 17.2816 70.6965 16.4476 70.0776 15.6306C69.764 15.2164 69.444 14.8068 69.1176 14.4017C68.8013 14.009 68.6642 13.6684 68.1621 13.9038C67.2134 14.3474 66.2613 15.2187 65.571 15.9938Z" fill="#6C63FF"/>
<path d="M66.7512 35.217C66.2493 35.2352 65.7468 35.2193 65.2471 35.1695C64.8765 35.1333 64.4979 35.079 64.1363 35.1695C63.9791 35.209 63.832 35.2811 63.7045 35.3811C63.6572 35.4231 63.6233 35.4779 63.6068 35.5389C63.5902 35.5999 63.5919 35.6643 63.6115 35.7243C63.6311 35.7844 63.6678 35.8374 63.7171 35.8769C63.7665 35.9165 63.8263 35.9408 63.8892 35.9469L64.2769 35.9809C64.5228 36.0024 64.779 36.0273 64.9705 36.2072C65.0492 36.2779 65.0992 36.3749 65.1111 36.4799C65.1349 36.7435 64.9059 36.8873 64.7008 36.997C64.4091 37.1337 64.1394 37.313 63.9006 37.5289C63.7135 37.7093 63.5959 37.9496 63.5685 38.2078C63.5676 38.2308 63.5728 38.2537 63.5836 38.274C63.5943 38.2944 63.6103 38.3116 63.6298 38.3239C63.6493 38.3361 63.6717 38.343 63.6948 38.3439C63.7179 38.3448 63.7407 38.3396 63.7611 38.3289C64.2145 38.1026 64.5104 37.4315 65.0079 37.5436C64.5553 37.6867 64.1677 37.9843 63.913 38.3843C63.8502 38.4798 63.8215 38.5937 63.8317 38.7076C63.8418 38.8214 63.8902 38.9284 63.9689 39.0113C64.0477 39.0943 64.1522 39.1482 64.2655 39.1644C64.3787 39.1806 64.4942 39.1581 64.5931 39.1006C64.6668 39.0576 64.7379 39.0103 64.8062 38.9592C65.1433 38.6867 65.4452 38.3735 65.705 38.0268C65.3423 38.7906 64.9751 39.6845 65.3922 40.4438C65.413 40.4856 65.4455 40.5204 65.4857 40.5441C65.5259 40.5678 65.5722 40.5794 65.6189 40.5773C65.7504 40.5638 65.7889 40.4404 65.8104 40.3318C65.8784 39.9821 65.8954 39.6132 66.0677 39.302C66.4667 38.5801 67.4505 38.5099 68.1997 38.158C69.0986 37.7416 69.714 36.8454 69.9623 35.8881C70.0491 35.6089 70.0643 35.3124 70.0065 35.0258C69.8399 34.3819 69.0442 34.2337 68.533 34.5449C67.9062 34.9421 67.5423 35.1922 66.7512 35.217Z" fill="#FBBEBE"/>
<path opacity="0.1" d="M65.9549 22.5513C66.7483 23.7745 68.1255 24.4636 69.3066 25.3225C69.5947 25.5099 69.846 25.7484 70.0478 26.0264C70.3459 26.4858 70.3879 27.0697 70.3267 27.6106C70.2496 28.3246 70.0195 29.0115 69.7917 29.6927L69.2963 31.1694C68.9824 32.1063 68.6582 33.0625 68.0609 33.8501C67.9079 34.0504 67.7299 34.2642 67.7367 34.5155C67.7499 34.6606 67.7998 34.8 67.8818 34.9206C68.073 35.232 68.3249 35.5018 68.6226 35.7141C68.9203 35.9264 69.2578 36.0768 69.6148 36.1562C69.8287 36.2106 70.0527 36.2106 70.2666 36.1562C70.5726 36.0657 70.8027 35.8168 71.0158 35.5814C72.0359 34.4577 73.056 33.3182 73.7928 32C74.5125 30.7134 74.9432 29.2842 75.3399 27.8686C75.5033 27.3474 75.6172 26.8121 75.68 26.2696C75.7638 25.2512 75.4964 24.2328 75.0588 23.3128C74.6213 22.3929 74.0195 21.56 73.3995 20.7509C72.8143 19.9562 72.1641 19.2114 71.4556 18.524C70.2224 17.3732 68.7137 16.6965 67.0634 17.3494C65.8982 17.8111 65.4619 18.7741 65.3576 20.0075C65.2693 20.898 65.4794 21.7927 65.9549 22.5513Z" fill="black"/>
<path d="M66.3679 22.2412C67.1613 23.4645 68.5396 24.1536 69.7195 25.0125C70.0067 25.2017 70.2568 25.4417 70.4574 25.7208C70.7555 26.1803 70.7974 26.763 70.7362 27.3051C70.658 28.0191 70.4291 28.706 70.2001 29.3872L69.7048 30.8582C69.3908 31.7952 69.0666 32.7502 68.4693 33.5389C68.3174 33.7392 68.1395 33.952 68.1463 34.2043C68.1588 34.3492 68.2088 34.4884 68.2914 34.6083C68.4822 34.9198 68.7339 35.1899 69.0315 35.4023C69.329 35.6148 69.6663 35.7654 70.0233 35.8451C70.2375 35.8994 70.4619 35.8994 70.6761 35.8451C70.9822 35.7557 71.2111 35.5056 71.4254 35.2714C72.4455 34.1466 73.4656 33.0082 74.2023 31.6899C74.9221 30.4033 75.3528 28.9741 75.7495 27.5574C75.9133 27.0368 76.0272 26.5018 76.0895 25.9596C76.1734 24.9412 75.9059 23.9228 75.4695 23.0017C75.0331 22.0806 74.4301 21.2488 73.8101 20.4398C73.223 19.6492 72.5713 18.9085 71.8617 18.2253C70.6297 17.0756 69.121 16.3978 67.4707 17.0518C66.3044 17.5135 65.8692 18.4753 65.7638 19.7099C65.6806 20.5971 65.8929 21.4868 66.3679 22.2412Z" fill="#6C63FF"/>
<path d="M91.4301 62.8297C91.431 63.1248 91.4006 63.4191 91.3395 63.7078C91.3281 63.7621 91.3157 63.8209 91.3032 63.8673C90.9813 65.1562 90.0734 66.0988 88.9898 66.1588C88.9535 66.1588 88.9173 66.1588 88.8765 66.1588C87.7305 66.1588 86.7614 65.172 86.4418 63.813C86.4327 63.7768 86.4248 63.7406 86.4169 63.6999C86.3557 63.4112 86.3253 63.1168 86.3262 62.8218C86.3262 60.9807 87.4676 59.4893 88.8765 59.4893C90.2853 59.4893 91.4301 60.992 91.4301 62.8297Z" fill="#3F3D56"/>
<path opacity="0.1" d="M91.4295 62.8299C91.4304 63.125 91.4 63.4193 91.3388 63.708C91.3275 63.7623 91.315 63.8211 91.3026 63.8675C91.264 63.8675 91.2266 63.8675 91.1892 63.8675C90.9085 63.8524 90.6295 63.8146 90.355 63.7544C90.1117 63.8294 89.8632 63.8862 89.6114 63.9241C89.4184 63.9531 89.2239 63.9713 89.0289 63.9784H88.8316C88.5981 63.9785 88.3649 63.963 88.1334 63.932C87.7592 63.8821 87.3916 63.7911 87.0374 63.6605C86.8435 63.7249 86.6459 63.7778 86.4457 63.8189C86.4366 63.7827 86.4287 63.7465 86.4208 63.7057C86.3596 63.417 86.3292 63.1227 86.3301 62.8276C86.3301 60.9865 87.4715 59.4951 88.8804 59.4951C90.2893 59.4951 91.4295 60.9922 91.4295 62.8299Z" fill="black"/>
<path d="M96.8705 56.6219C96.8716 55.8117 96.6813 55.0127 96.3151 54.2897L93.316 55.221L95.949 53.6753C95.5073 53.0385 94.9281 52.5089 94.254 52.1254C93.58 51.7419 92.8283 51.5144 92.0544 51.4596C91.9313 51.273 91.7961 51.0946 91.6498 50.9255L87.3427 52.2642L90.8756 50.19C90.1998 49.6722 89.4065 49.3286 88.5661 49.1898C87.7256 49.0509 86.8637 49.1211 86.0569 49.3939C85.25 49.6668 84.5229 50.134 83.94 50.7543C83.357 51.3745 82.9362 52.1286 82.7148 52.9499L86.4042 57.1899L82.4019 54.2999C81.3881 55.0178 80.6664 56.0754 80.3682 57.28C80.07 58.4847 80.2153 59.7562 80.7775 60.8629C81.3397 61.9695 82.2815 62.8377 83.4312 63.3093C84.5809 63.7808 85.862 63.8242 87.0412 63.4317C88.1077 63.8232 89.2733 63.8553 90.3599 63.5234C91.1175 63.6898 91.9027 63.6846 92.658 63.5081C93.4132 63.3316 94.1192 62.9883 94.724 62.5035C95.3288 62.0186 95.8171 61.4046 96.1529 60.7065C96.4886 60.0085 96.6634 59.2441 96.6642 58.4698C96.6642 58.3566 96.6642 58.2434 96.6529 58.1303C96.7997 57.641 96.8731 57.1327 96.8705 56.6219Z" fill="#6C63FF"/>
<path opacity="0.1" d="M96.7812 57.5815C95.1974 57.2818 93.5732 57.2611 91.9822 57.5204C90.1811 57.818 88.3404 58.4721 86.579 57.9946C85.5453 57.7139 84.6521 57.0644 83.6422 56.7034C82.6678 56.364 81.6182 56.3014 80.6102 56.5224C80.2261 57.4397 80.1147 58.4481 80.2893 59.427C80.4638 60.4059 80.917 61.3139 81.5946 62.0426C82.2723 62.7712 83.1457 63.2897 84.1106 63.536C85.0755 63.7824 86.091 63.7462 87.0358 63.4318C88.1024 63.8232 89.2679 63.8554 90.3545 63.5235C91.1121 63.6899 91.8974 63.6847 92.6526 63.5082C93.4078 63.3317 94.1138 62.9884 94.7187 62.5035C95.3235 62.0187 95.8117 61.4047 96.1475 60.7066C96.4833 60.0085 96.658 59.2442 96.6588 58.4698C96.6588 58.3567 96.6588 58.2435 96.6475 58.1303C96.7022 57.95 96.7468 57.7668 96.7812 57.5815Z" fill="black"/>
</g>
<defs>
<clipPath id="clip0_72_581">
<rect width="124" height="86" fill="white"/>
</clipPath>
</defs>
</svg>
