<svg width="500" height="500" viewBox="0 0 500 500" fill="none" xmlns="http://www.w3.org/2000/svg">
<path d="M128.221 403.87C198.971 441.63 313.681 441.63 384.431 403.87C455.181 366.11 455.191 304.87 384.431 267.11C313.671 229.35 198.971 229.34 128.221 267.11C57.4707 304.88 57.4707 366.1 128.221 403.87Z" fill="#EBEBEB"/>
<path d="M405.24 310.18L394.92 304.18C394.92 304.18 392.39 282.07 394.07 264.95C396.44 240.88 411.98 211.95 430.51 218.73C449.04 225.51 422 250.08 416 270.48C410 290.88 405.24 310.18 405.24 310.18Z" fill="#067BD0"/>
<path opacity="0.1" d="M405.24 310.18L394.92 304.18C394.92 304.18 392.39 282.07 394.07 264.95C396.44 240.88 411.98 211.95 430.51 218.73C449.04 225.51 422 250.08 416 270.48C410 290.88 405.24 310.18 405.24 310.18Z" fill="black"/>
<path d="M399.87 307.47C399.774 307.471 399.68 307.437 399.607 307.375C399.533 307.312 399.485 307.225 399.47 307.13C395.96 280.13 405.57 239.32 424.97 223.84C425.01 223.808 425.056 223.784 425.106 223.769C425.155 223.755 425.207 223.75 425.258 223.756C425.309 223.761 425.358 223.777 425.403 223.802C425.448 223.826 425.488 223.86 425.52 223.9C425.586 223.982 425.617 224.087 425.606 224.192C425.594 224.297 425.542 224.393 425.46 224.46C406.27 239.78 396.78 280.27 400.26 307.02C400.275 307.125 400.247 307.231 400.183 307.315C400.119 307.399 400.025 307.455 399.92 307.47H399.87Z" fill="white"/>
<path d="M410.751 314.45L403.411 310.2C403.411 310.2 402.161 295.03 409.601 276.6C416.071 260.6 432.141 247.24 440.221 250.04C448.301 252.84 448.101 258.57 444.161 264.58C440.221 270.59 416.251 284.92 410.751 314.45Z" fill="#067BD0"/>
<path d="M406.199 314.84C406.147 314.837 406.096 314.825 406.049 314.802C406.002 314.779 405.96 314.747 405.926 314.708C405.891 314.669 405.865 314.623 405.848 314.574C405.832 314.524 405.825 314.472 405.829 314.42C408.249 276.66 427.349 258.09 438.829 255.26C438.933 255.235 439.041 255.252 439.133 255.306C439.224 255.36 439.291 255.448 439.319 255.55C439.344 255.652 439.327 255.76 439.273 255.849C439.218 255.939 439.131 256.004 439.029 256.03C426.939 259.03 408.899 279.13 406.639 314.47C406.636 314.524 406.621 314.576 406.597 314.624C406.572 314.671 406.539 314.714 406.498 314.748C406.457 314.783 406.409 314.809 406.358 314.824C406.307 314.84 406.253 314.845 406.199 314.84Z" fill="white"/>
<path d="M108.001 313.12C108.001 313.12 109.371 290.95 96.4912 275.75C83.6112 260.55 66.8412 260.61 61.2912 263.44C55.7412 266.27 52.0112 274.36 61.5612 280.15C71.1112 285.94 91.4212 297.53 94.8012 307.87L108.001 313.12Z" fill="#067BD0"/>
<path opacity="0.1" d="M108.001 313.12C108.001 313.12 109.371 290.95 96.4912 275.75C83.6112 260.55 66.8412 260.61 61.2912 263.44C55.7412 266.27 52.0112 274.36 61.5612 280.15C71.1112 285.94 91.4212 297.53 94.8012 307.87L108.001 313.12Z" fill="black"/>
<path d="M101.941 307.57C101.817 307.568 101.698 307.522 101.606 307.439C101.514 307.356 101.455 307.243 101.441 307.12C98.7909 282.59 74.2709 269 64.5009 267.46C64.4352 267.45 64.3722 267.427 64.3153 267.393C64.2584 267.359 64.2088 267.314 64.1693 267.26C64.1299 267.207 64.1013 267.146 64.0853 267.082C64.0692 267.018 64.0661 266.951 64.0759 266.885C64.0858 266.819 64.1084 266.756 64.1427 266.699C64.1769 266.642 64.222 266.593 64.2754 266.553C64.3288 266.514 64.3894 266.485 64.4539 266.469C64.5183 266.453 64.5852 266.45 64.6509 266.46C74.6509 268.03 99.7209 281.93 102.441 307.01C102.448 307.076 102.442 307.142 102.423 307.205C102.404 307.269 102.372 307.328 102.331 307.379C102.289 307.43 102.237 307.472 102.179 307.503C102.121 307.534 102.057 307.554 101.991 307.56L101.941 307.57Z" fill="white"/>
<path d="M97.1703 301.94C93.9403 294.58 90.2903 291.28 79.7903 293.04C69.2903 294.8 70.7903 294.53 57.9403 291.24C52.5203 289.86 46.4303 289.64 41.2303 291.98C36.8403 293.98 33.5603 297.98 37.8103 302.24C42.5903 307 49.7203 308.63 55.0003 312.82C56.1981 313.667 57.1503 314.816 57.7603 316.15C59.1503 319.69 56.3703 323.68 57.1803 327.39C57.9903 331.1 61.8903 333.08 65.5503 333.32C69.2103 333.56 72.8203 332.46 76.4703 332.04C80.1203 331.62 84.2203 332.04 86.7403 334.75C89.4403 337.62 89.5103 342.21 92.0203 345.26C95.7803 349.83 105.02 351.1 110.02 348.26L123.11 340.71C131.76 329.05 118.11 319.81 110.96 310.76C107.49 306.35 99.1103 306.37 97.1703 301.94Z" fill="#067BD0"/>
<path d="M115.001 333.67C114.916 333.672 114.832 333.65 114.758 333.608C114.684 333.566 114.623 333.504 114.581 333.43C99.6512 309.24 59.0012 297 44.6212 296C44.4902 295.99 44.3686 295.928 44.2825 295.829C44.1965 295.73 44.1529 295.601 44.1612 295.47C44.1714 295.338 44.2324 295.216 44.3312 295.128C44.4301 295.04 44.5591 294.994 44.6912 295C59.2612 296 100.301 308.42 115.431 332.93C115.498 333.044 115.518 333.181 115.486 333.309C115.454 333.438 115.374 333.55 115.261 333.62C115.179 333.656 115.09 333.673 115.001 333.67Z" fill="white"/>
<path d="M67.7109 322.27C67.633 322.272 67.5559 322.254 67.4862 322.219C67.4165 322.185 67.3564 322.133 67.3109 322.07C67.2314 321.964 67.1972 321.831 67.216 321.699C67.2347 321.568 67.3049 321.45 67.4109 321.37C67.9309 320.98 80.3309 311.88 92.4109 311.7C92.4761 311.699 92.5409 311.71 92.6015 311.734C92.6621 311.758 92.7173 311.794 92.7639 311.84C92.8105 311.886 92.8475 311.94 92.8727 312C92.898 312.06 92.911 312.125 92.9109 312.19C92.9123 312.256 92.9006 312.321 92.8767 312.382C92.8528 312.443 92.8171 312.499 92.7716 312.547C92.7261 312.594 92.6717 312.632 92.6115 312.658C92.5514 312.685 92.4866 312.699 92.4209 312.7C80.6909 312.87 68.1609 322.08 68.0309 322.17C67.9406 322.242 67.8264 322.278 67.7109 322.27Z" fill="white"/>
<path d="M114.07 342.17C114.177 343.624 114.625 345.033 115.377 346.282C116.129 347.531 117.165 348.585 118.4 349.36L239.73 419.41C241.072 420.091 242.556 420.446 244.06 420.446C245.565 420.446 247.048 420.091 248.39 419.41L414.39 323.56C415.699 322.869 416.794 321.835 417.558 320.568C418.322 319.301 418.725 317.849 418.725 316.37C418.725 314.891 418.322 313.439 417.558 312.172C416.794 310.905 415.699 309.871 414.39 309.18L293.07 239.18C291.728 238.499 290.245 238.144 288.74 238.144C287.236 238.144 285.752 238.499 284.41 239.18L118.4 335C117.168 335.773 116.133 336.824 115.381 338.069C114.629 339.315 114.18 340.719 114.07 342.17Z" fill="#37474F"/>
<path d="M164.13 308.58L118.4 335C117.091 335.691 115.996 336.725 115.232 337.992C114.468 339.259 114.064 340.711 114.064 342.19C114.064 343.67 114.468 345.121 115.232 346.388C115.996 347.655 117.091 348.69 118.4 349.38L239.73 419.43C241.064 420.127 242.555 420.471 244.06 420.43V308.58H164.13Z" fill="#263238"/>
<path d="M109.999 335.14C108.794 334.319 107.799 333.225 107.094 331.949C106.389 330.672 105.993 329.248 105.939 327.79V183C106.02 181.497 106.454 180.035 107.206 178.732C107.959 177.428 109.008 176.321 110.269 175.5L276.269 79.65C277.522 78.8641 278.966 78.4344 280.445 78.4071C281.924 78.3799 283.382 78.7561 284.663 79.4954C285.944 80.2347 287 81.309 287.716 82.6031C288.433 83.8971 288.783 85.3619 288.729 86.84V231.64C288.647 233.142 288.213 234.604 287.46 235.907C286.708 237.21 285.659 238.318 284.399 239.14L118.399 335C117.108 335.681 115.675 336.048 114.216 336.073C112.757 336.097 111.312 335.777 109.999 335.14Z" fill="#455A64"/>
<path d="M126.26 189.73L107.21 178.73C106.451 180.028 106.035 181.497 106 183V327.79C106.054 329.248 106.449 330.672 107.154 331.949C107.86 333.225 108.855 334.319 110.06 335.14C111.373 335.773 112.817 336.088 114.274 336.06C115.731 336.032 117.162 335.662 118.45 334.98L137.39 324.05L126.26 189.73Z" fill="#263238"/>
<path d="M114.07 187.7V332.48C114.07 335.24 116.01 336.36 118.4 334.98L284.4 239.14C285.66 238.318 286.709 237.21 287.461 235.907C288.213 234.604 288.648 233.142 288.73 231.64V86.85C288.73 84.09 286.79 82.97 284.4 84.35L118.4 180.2C117.139 181.021 116.09 182.128 115.337 183.432C114.585 184.735 114.151 186.197 114.07 187.7Z" fill="#37474F"/>
<path d="M118.4 340L239.73 410C241.071 410.681 242.555 411.036 244.06 411.036C245.564 411.036 247.048 410.681 248.39 410L414.39 314.15C416.79 312.77 416.79 310.53 414.39 309.15L293.07 239.15C291.728 238.469 290.244 238.114 288.74 238.114C287.235 238.114 285.751 238.469 284.41 239.15L118.4 335C116 336.36 116 338.6 118.4 340Z" fill="#455A64"/>
<path d="M120.729 188.23L282.079 95.08C283.509 94.25 284.679 94.92 284.679 96.58V221.91C284.628 222.811 284.367 223.688 283.915 224.47C283.464 225.252 282.835 225.916 282.079 226.41L120.729 319.56C119.289 320.39 118.129 319.72 118.129 318.06V192.73C118.177 191.828 118.438 190.95 118.889 190.168C119.341 189.386 119.972 188.722 120.729 188.23Z" fill="white"/>
<path d="M132.48 336.23L286.57 247.23C287.241 246.89 287.983 246.713 288.735 246.713C289.487 246.713 290.229 246.89 290.9 247.23L298.79 251.78C299.051 251.869 299.278 252.037 299.439 252.261C299.599 252.485 299.686 252.754 299.686 253.03C299.686 253.306 299.599 253.575 299.439 253.799C299.278 254.023 299.051 254.191 298.79 254.28L144.67 343.27C143.999 343.61 143.257 343.787 142.505 343.787C141.753 343.787 141.011 343.61 140.34 343.27L132.48 338.73C132.219 338.641 131.992 338.473 131.831 338.249C131.67 338.025 131.584 337.756 131.584 337.48C131.584 337.204 131.67 336.935 131.831 336.711C131.992 336.487 132.219 336.319 132.48 336.23Z" fill="#263238"/>
<path d="M152.799 348L306.879 259C307.552 258.66 308.295 258.483 309.049 258.483C309.803 258.483 310.546 258.66 311.219 259L359.689 287C359.95 287.089 360.177 287.257 360.338 287.481C360.498 287.705 360.585 287.974 360.585 288.25C360.585 288.526 360.498 288.795 360.338 289.019C360.177 289.243 359.95 289.411 359.689 289.5L205.779 378.32C205.106 378.66 204.363 378.837 203.609 378.837C202.855 378.837 202.112 378.66 201.439 378.32L152.799 350.45C152.55 350.356 152.336 350.188 152.185 349.969C152.034 349.75 151.953 349.491 151.953 349.225C151.953 348.959 152.034 348.699 152.185 348.481C152.336 348.262 152.55 348.094 152.799 348Z" fill="#263238"/>
<path d="M290.92 299L295.75 296.21C295.95 296.09 295.94 295.9 295.75 295.77L290.17 292.55C290.051 292.489 289.919 292.457 289.785 292.457C289.651 292.457 289.519 292.489 289.4 292.55L284.58 295.34C284.37 295.46 284.38 295.65 284.58 295.78L290.16 299C290.278 299.06 290.408 299.091 290.54 299.091C290.672 299.091 290.803 299.06 290.92 299ZM281.4 288L276.58 290.79C276.37 290.9 276.38 291.1 276.58 291.23L282.16 294.45C282.279 294.511 282.411 294.543 282.545 294.543C282.679 294.543 282.811 294.511 282.93 294.45L287.76 291.66C287.96 291.54 287.95 291.34 287.76 291.22L282.17 288C282.051 287.939 281.919 287.907 281.785 287.907C281.651 287.907 281.519 287.939 281.4 288ZM265.82 297L257.65 301.71C257.45 301.83 257.46 302.03 257.65 302.16L263.23 305.38C263.349 305.441 263.481 305.473 263.615 305.473C263.749 305.473 263.881 305.441 264 305.38L272.16 300.67C272.37 300.55 272.35 300.35 272.16 300.23L266.58 297C266.463 296.939 266.333 296.907 266.2 296.907C266.068 296.907 265.938 296.939 265.82 297ZM274.35 292.07L269.53 294.86C269.32 294.98 269.33 295.18 269.53 295.3L275.11 298.52C275.229 298.581 275.361 298.613 275.495 298.613C275.629 298.613 275.761 298.581 275.88 298.52L280.71 295.73C280.91 295.61 280.9 295.42 280.71 295.29L275.12 292C275.001 291.939 274.869 291.907 274.735 291.907C274.601 291.907 274.469 291.939 274.35 292V292.07ZM255.42 303L250.6 305.78C250.39 305.9 250.41 306.1 250.6 306.23L256.18 309.45C256.298 309.509 256.428 309.54 256.56 309.54C256.692 309.54 256.822 309.509 256.94 309.45L261.77 306.66C261.97 306.54 261.96 306.34 261.77 306.22L256.19 303C256.071 302.939 255.939 302.907 255.805 302.907C255.671 302.907 255.539 302.939 255.42 303ZM248.42 307.07L243.6 309.86C243.39 309.97 243.41 310.17 243.6 310.3L249.18 313.52C249.299 313.581 249.431 313.613 249.565 313.613C249.699 313.613 249.831 313.581 249.95 313.52L254.78 310.73C254.98 310.61 254.97 310.41 254.78 310.29L249.14 307C249.021 306.939 248.889 306.907 248.755 306.907C248.621 306.907 248.489 306.939 248.37 307L248.42 307.07ZM270.37 320.17L275.19 317.38C275.4 317.26 275.38 317.07 275.19 316.94L269.61 313.72C269.493 313.659 269.363 313.627 269.23 313.627C269.098 313.627 268.968 313.659 268.85 313.72L264.02 316.51C263.82 316.63 263.83 316.82 264.02 316.95L269.6 320.17C269.717 320.216 269.841 320.235 269.966 320.226C270.091 320.218 270.212 320.181 270.32 320.12L270.37 320.17ZM263.31 324.24L268.14 321.45C268.34 321.34 268.33 321.14 268.14 321.01L262.56 317.79C262.441 317.729 262.309 317.697 262.175 317.697C262.041 317.697 261.909 317.729 261.79 317.79L256.97 320.58C256.76 320.7 256.78 320.9 256.97 321.02L262.55 324.24C262.665 324.286 262.788 324.305 262.911 324.296C263.034 324.287 263.153 324.251 263.26 324.19L263.31 324.24ZM256.26 328.31L261.09 325.53C261.29 325.41 261.28 325.21 261.09 325.08L255.51 321.86C255.391 321.801 255.259 321.77 255.125 321.77C254.992 321.77 254.86 321.801 254.74 321.86L249.92 324.65C249.71 324.77 249.73 324.97 249.92 325.09L255.49 328.31C255.607 328.356 255.731 328.375 255.856 328.366C255.981 328.358 256.102 328.321 256.21 328.26L256.26 328.31ZM249.26 332.38L254.09 329.6C254.29 329.48 254.28 329.28 254.09 329.15L248.51 325.93C248.391 325.869 248.259 325.837 248.125 325.837C247.991 325.837 247.859 325.869 247.74 325.93L242.92 328.71C242.71 328.83 242.72 329.03 242.92 329.16L248.5 332.38C248.718 332.451 248.956 332.433 249.16 332.33L249.26 332.38ZM283.97 303.14L288.8 300.35C289 300.24 288.99 300.04 288.8 299.91L283.22 296.69C283.101 296.631 282.969 296.6 282.835 296.6C282.702 296.6 282.57 296.631 282.45 296.69L277.63 299.48C277.42 299.6 277.43 299.8 277.63 299.92L283.21 303.14C283.318 303.177 283.432 303.191 283.545 303.183C283.659 303.174 283.769 303.143 283.87 303.09L283.97 303.14ZM277.47 316.14L288.23 309.92C288.43 309.81 288.42 309.61 288.23 309.48L274.68 301.66C274.561 301.599 274.429 301.567 274.295 301.567C274.161 301.567 274.029 301.599 273.91 301.66L268.35 304.88C268.14 304.99 268.16 305.19 268.35 305.32L275.53 309.46C275.75 309.59 275.76 309.79 275.53 309.91L271 312.37C270.8 312.48 270.81 312.68 271 312.81L276.6 316C276.715 316.069 276.845 316.11 276.979 316.119C277.113 316.127 277.247 316.104 277.37 316.05L277.47 316.14ZM241.42 311.14L236.6 313.93C236.39 314.05 236.4 314.24 236.6 314.37L242.18 317.59C242.299 317.651 242.431 317.683 242.565 317.683C242.699 317.683 242.831 317.651 242.95 317.59L247.78 314.8C247.98 314.68 247.97 314.49 247.78 314.36L242.2 311.14C242.073 311.051 241.923 310.999 241.767 310.99C241.612 310.981 241.457 311.016 241.32 311.09L241.42 311.14ZM234.42 315.21L229.44 318C229.24 318.12 229.25 318.32 229.44 318.44L235.02 321.66C235.139 321.721 235.271 321.753 235.405 321.753C235.539 321.753 235.671 321.721 235.79 321.66L240.62 318.87C240.82 318.76 240.81 318.56 240.62 318.43L235 315.18C234.888 315.122 234.764 315.09 234.638 315.087C234.511 315.083 234.386 315.108 234.27 315.16L234.42 315.21ZM199 360.81C199.119 360.871 199.251 360.903 199.385 360.903C199.519 360.903 199.651 360.871 199.77 360.81L204.6 358.02C204.8 357.91 204.79 357.71 204.6 357.58L199 354.38C198.881 354.319 198.749 354.287 198.615 354.287C198.481 354.287 198.349 354.319 198.23 354.38L193.41 357.17C193.2 357.29 193.21 357.49 193.41 357.61L199 360.81ZM177.83 347.73L173 350.52C172.8 350.64 172.81 350.83 173 350.96L178.58 354.18C178.699 354.241 178.831 354.273 178.965 354.273C179.099 354.273 179.231 354.241 179.35 354.18L184.18 351.39C184.38 351.27 184.37 351.08 184.18 350.95L178.6 347.73C178.485 347.674 178.359 347.644 178.23 347.644C178.102 347.644 177.975 347.674 177.86 347.73H177.83ZM189.18 357.28C189.299 357.341 189.431 357.373 189.565 357.373C189.699 357.373 189.831 357.341 189.95 357.28L194.77 354.49C194.98 354.38 194.96 354.18 194.77 354.05L189.2 350.83C189.081 350.769 188.949 350.737 188.815 350.737C188.681 350.737 188.549 350.769 188.43 350.83L183.6 353.62C183.4 353.74 183.41 353.94 183.6 354.06L189.18 357.28ZM211.45 363.28L216.28 360.49C216.48 360.37 216.47 360.18 216.28 360.05L210.7 356.83C210.581 356.769 210.449 356.737 210.315 356.737C210.181 356.737 210.049 356.769 209.93 356.83L205.11 359.62C204.9 359.73 204.92 359.93 205.11 360.06L210.68 363.28C210.802 363.348 210.939 363.385 211.079 363.386C211.219 363.388 211.357 363.355 211.48 363.29L211.45 363.28ZM203.63 367.28C203.749 367.341 203.881 367.373 204.015 367.373C204.149 367.373 204.281 367.341 204.4 367.28L209.23 364.49C209.43 364.38 209.42 364.18 209.23 364.05L203.65 360.83C203.531 360.769 203.399 360.737 203.265 360.737C203.131 360.737 202.999 360.769 202.88 360.83L198.06 363.62C197.85 363.74 197.86 363.94 198.06 364.06L203.63 367.28ZM184.88 343.6L180.06 346.39C179.85 346.5 179.86 346.7 180.06 346.83L185.64 350.05C185.759 350.111 185.891 350.143 186.025 350.143C186.159 350.143 186.291 350.111 186.41 350.05L191.24 347.26C191.44 347.14 191.43 346.94 191.24 346.82L185.66 343.6C185.539 343.551 185.408 343.531 185.278 343.541C185.148 343.552 185.022 343.592 184.91 343.66L184.88 343.6ZM220.14 323.25L215.31 326.03C215.11 326.15 215.12 326.35 215.31 326.47L220.89 329.7C221.01 329.759 221.142 329.79 221.275 329.79C221.409 329.79 221.541 329.759 221.66 329.7L226.48 326.92C226.69 326.8 226.68 326.6 226.48 326.47L220.9 323.25C220.782 323.204 220.655 323.186 220.528 323.196C220.402 323.207 220.28 323.246 220.17 323.31L220.14 323.25ZM192 339.59L187.18 342.37C186.97 342.49 186.98 342.69 187.18 342.82L192.76 346.04C192.88 346.099 193.012 346.13 193.145 346.13C193.279 346.13 193.411 346.099 193.53 346.04L198.36 343.25C198.56 343.13 198.55 342.93 198.36 342.81L192.78 339.58C192.659 339.521 192.525 339.491 192.389 339.493C192.254 339.494 192.121 339.528 192 339.59ZM227.26 319.23L222.39 322C222.19 322.12 222.2 322.32 222.39 322.44L227.97 325.66C228.089 325.721 228.221 325.753 228.355 325.753C228.489 325.753 228.621 325.721 228.74 325.66L233.56 322.88C233.77 322.76 233.76 322.56 233.56 322.43L228 319.25C227.881 319.186 227.748 319.151 227.613 319.148C227.477 319.144 227.343 319.172 227.22 319.23H227.26ZM213.16 327.38L208.33 330.16C208.13 330.28 208.14 330.48 208.33 330.61L213.91 333.83C214.03 333.889 214.162 333.92 214.295 333.92C214.429 333.92 214.561 333.889 214.68 333.83L219.5 331.05C219.71 330.93 219.69 330.73 219.5 330.6L213.93 327.38C213.805 327.314 213.666 327.28 213.525 327.28C213.384 327.28 213.245 327.314 213.12 327.38H213.16ZM206.1 331.45L201.28 334.23C201.07 334.35 201.09 334.55 201.28 334.68L206.86 337.9C206.98 337.959 207.112 337.99 207.245 337.99C207.379 337.99 207.511 337.959 207.63 337.9L212.45 335.12C212.65 335 212.64 334.8 212.45 334.67L206.87 331.45C206.745 331.384 206.606 331.35 206.465 331.35C206.324 331.35 206.185 331.384 206.06 331.45H206.1ZM199 335.52L194.18 338.3C193.97 338.42 193.99 338.62 194.18 338.75L199.75 341.97C199.869 342.031 200.001 342.063 200.135 342.063C200.269 342.063 200.401 342.031 200.52 341.97L205.35 339.19C205.55 339.07 205.54 338.87 205.35 338.74L199.77 335.52C199.651 335.461 199.519 335.43 199.385 335.43C199.252 335.43 199.12 335.461 199 335.52ZM235.05 340.52L239.87 337.74C240.08 337.62 240.07 337.42 239.87 337.29L234.28 334C234.161 333.941 234.029 333.91 233.895 333.91C233.762 333.91 233.63 333.941 233.51 334L228.68 336.78C228.48 336.9 228.49 337.1 228.68 337.23L234.26 340.45C234.381 340.52 234.518 340.558 234.658 340.561C234.797 340.565 234.936 340.533 235.06 340.47L235.05 340.52ZM297 279L292.17 281.79C291.97 281.91 291.98 282.1 292.17 282.23L297.75 285.45C297.869 285.511 298.001 285.543 298.135 285.543C298.269 285.543 298.401 285.511 298.52 285.45L303.34 282.66C303.55 282.54 303.54 282.35 303.34 282.22L297.76 279C297.643 278.94 297.512 278.909 297.38 278.909C297.248 278.909 297.118 278.94 297 279ZM288.46 283.93L283.64 286.72C283.43 286.83 283.45 287.03 283.64 287.16L289.21 290.38C289.33 290.439 289.462 290.47 289.595 290.47C289.729 290.47 289.861 290.439 289.98 290.38L294.81 287.59C295.01 287.47 295 287.27 294.81 287.15L289.23 283.93C289.114 283.859 288.982 283.817 288.846 283.809C288.711 283.8 288.575 283.824 288.45 283.88L288.46 283.93ZM304.05 274.93L299.23 277.72C299.02 277.83 299.03 278.03 299.23 278.16L304.81 281.38C304.929 281.441 305.061 281.473 305.195 281.473C305.329 281.473 305.461 281.441 305.58 281.38L310.41 278.59C310.61 278.47 310.6 278.27 310.41 278.15L304.83 274.93C304.708 274.85 304.567 274.804 304.422 274.795C304.276 274.786 304.131 274.816 304 274.88L304.05 274.93ZM267.55 312.57L272.38 309.78C272.58 309.66 272.57 309.46 272.38 309.34L266.8 306.12C266.681 306.059 266.549 306.027 266.415 306.027C266.281 306.027 266.149 306.059 266.03 306.12L261.21 308.91C261 309.02 261.01 309.22 261.21 309.35L266.79 312.57C266.911 312.62 267.041 312.642 267.171 312.634C267.301 312.625 267.428 312.586 267.54 312.52L267.55 312.57ZM311.87 270.88C311.751 270.819 311.619 270.787 311.485 270.787C311.351 270.787 311.219 270.819 311.1 270.88L306.28 273.67C306.07 273.78 306.08 273.98 306.28 274.11L311.86 277.33C311.98 277.389 312.112 277.42 312.245 277.42C312.379 277.42 312.511 277.389 312.63 277.33L317.46 274.54C317.66 274.42 317.65 274.22 317.46 274.1L311.87 270.88ZM242.11 336.4L246.94 333.62C247.14 333.5 247.13 333.3 246.94 333.17L241.33 330C241.211 329.939 241.079 329.907 240.945 329.907C240.811 329.907 240.679 329.939 240.56 330L235.74 332.78C235.53 332.9 235.54 333.1 235.74 333.23L241.32 336.45C241.447 336.505 241.584 336.529 241.721 336.52C241.859 336.511 241.992 336.47 242.11 336.4ZM328.58 286.48L333.41 283.69C333.61 283.58 333.6 283.38 333.41 283.25L327.8 280C327.681 279.939 327.549 279.907 327.415 279.907C327.281 279.907 327.149 279.939 327.03 280L322.21 282.79C322 282.91 322.01 283.11 322.21 283.23L327.79 286.45C327.909 286.519 328.044 286.559 328.182 286.564C328.319 286.569 328.456 286.54 328.58 286.48ZM313.58 285.95L318.41 283.16C318.61 283.04 318.6 282.85 318.41 282.72L312.83 279.5C312.711 279.439 312.579 279.407 312.445 279.407C312.311 279.407 312.179 279.439 312.06 279.5L307.24 282.29C307.03 282.41 307.04 282.6 307.24 282.73L312.82 285.95C312.932 286.014 313.056 286.052 313.185 286.061C313.313 286.07 313.441 286.049 313.56 286L313.58 285.95ZM319.85 275.43C319.731 275.369 319.599 275.337 319.465 275.337C319.331 275.337 319.199 275.369 319.08 275.43L314.26 278.22C314.05 278.33 314.06 278.53 314.26 278.66L319.84 281.88C319.959 281.941 320.091 281.973 320.225 281.973C320.359 281.973 320.491 281.941 320.61 281.88L325.44 279.09C325.64 278.97 325.63 278.77 325.44 278.65L319.85 275.43ZM321.34 274.57L334.88 282.39C334.999 282.451 335.131 282.483 335.265 282.483C335.399 282.483 335.531 282.451 335.65 282.39L340.48 279.6C340.68 279.48 340.67 279.29 340.48 279.16L326.93 271.34C326.811 271.279 326.679 271.247 326.545 271.247C326.411 271.247 326.279 271.279 326.16 271.34L321.34 274.13C321.08 274.24 321.1 274.44 321.32 274.57H321.34ZM304.98 283.57L300.15 286.36C299.95 286.48 299.96 286.68 300.15 286.8L305.73 290.02C305.849 290.081 305.981 290.113 306.115 290.113C306.249 290.113 306.381 290.081 306.5 290.02L311.32 287.23C311.53 287.12 311.52 286.92 311.32 286.79L305.74 283.57C305.627 283.51 305.501 283.478 305.373 283.474C305.244 283.471 305.117 283.497 305 283.55L304.98 283.57ZM251.91 314.21L247.06 317C246.86 317.12 246.87 317.32 247.06 317.44L252.64 320.66C252.759 320.721 252.891 320.753 253.025 320.753C253.159 320.753 253.291 320.721 253.41 320.66L258.23 317.87C258.44 317.76 258.43 317.56 258.23 317.43L252.65 314.21C252.534 314.147 252.405 314.113 252.273 314.109C252.141 314.106 252.01 314.133 251.89 314.19L251.91 314.21ZM320.78 290.55C320.899 290.611 321.031 290.643 321.165 290.643C321.299 290.643 321.431 290.611 321.55 290.55L326.38 287.76C326.58 287.65 326.57 287.45 326.38 287.32L320.8 284.1C320.681 284.041 320.549 284.01 320.415 284.01C320.282 284.01 320.15 284.041 320.03 284.1L315.21 286.89C315 287.01 315.01 287.21 315.21 287.33L320.78 290.55ZM258.96 310.14L254.14 312.93C253.93 313.05 253.94 313.24 254.14 313.37L259.72 316.59C259.839 316.651 259.971 316.683 260.105 316.683C260.239 316.683 260.371 316.651 260.49 316.59L265.32 313.8C265.52 313.68 265.51 313.49 265.32 313.36L259.74 310.14C259.619 310.07 259.483 310.032 259.343 310.029C259.203 310.025 259.065 310.057 258.94 310.12L258.96 310.14ZM206.1 356.76C206.219 356.821 206.351 356.853 206.485 356.853C206.619 356.853 206.751 356.821 206.87 356.76L211.7 353.97C211.9 353.85 211.89 353.66 211.7 353.53L206.12 350.31C206.001 350.249 205.869 350.217 205.735 350.217C205.601 350.217 205.469 350.249 205.35 350.31L200.53 353.1C200.32 353.22 200.34 353.41 200.53 353.54L206.1 356.76ZM195.5 346.76L190.67 349.55C190.47 349.67 190.48 349.86 190.67 349.99L196.25 353.21C196.369 353.271 196.501 353.303 196.635 353.303C196.769 353.303 196.901 353.271 197.02 353.21L201.84 350.42C202.05 350.3 202.04 350.11 201.84 349.98L196.26 346.76C196.14 346.697 196.006 346.664 195.87 346.664C195.734 346.664 195.601 346.697 195.48 346.76H195.5ZM213.93 352.69L218.75 349.9C218.95 349.78 218.94 349.58 218.75 349.46L213.17 346.24C213.051 346.179 212.919 346.147 212.785 346.147C212.651 346.147 212.519 346.179 212.4 346.24L207.53 349C207.33 349.11 207.34 349.31 207.53 349.44L213.11 352.66C213.231 352.731 213.367 352.771 213.507 352.776C213.646 352.782 213.785 352.752 213.91 352.69H213.93ZM220.98 348.62L225.8 345.83C226.01 345.71 225.99 345.51 225.8 345.39L220.23 342.17C220.111 342.109 219.979 342.077 219.845 342.077C219.711 342.077 219.579 342.109 219.46 342.17L214.63 344.95C214.43 345.07 214.44 345.27 214.63 345.4L220.21 348.62C220.333 348.682 220.468 348.715 220.605 348.715C220.743 348.715 220.878 348.682 221 348.62H220.98ZM227.98 344.54L232.8 341.76C233.01 341.64 233 341.44 232.8 341.32L227.22 338.09C227.101 338.031 226.969 338 226.835 338C226.702 338 226.57 338.031 226.45 338.09L221.62 340.87C221.42 340.99 221.43 341.19 221.62 341.32L227.2 344.54C227.323 344.607 227.461 344.641 227.6 344.641C227.74 344.641 227.878 344.607 228 344.54H227.98ZM202.5 342.69L197.67 345.48C197.47 345.59 197.48 345.79 197.67 345.92L203.25 349.14C203.369 349.201 203.501 349.233 203.635 349.233C203.769 349.233 203.901 349.201 204.02 349.14L208.85 346.35C209.05 346.23 209.04 346.03 208.85 345.91L203.27 342.69C203.155 342.634 203.029 342.604 202.9 342.604C202.772 342.604 202.645 342.634 202.53 342.69H202.5ZM209.55 338.62L204.73 341.4C204.52 341.52 204.53 341.72 204.73 341.85L210.31 345.07C210.43 345.129 210.562 345.16 210.695 345.16C210.829 345.16 210.961 345.129 211.08 345.07L216 342.3C216.2 342.18 216.19 341.98 216 341.86L210.42 338.64C210.294 338.563 210.15 338.521 210.003 338.517C209.856 338.514 209.71 338.549 209.58 338.62H209.55ZM237.76 322.34L233 325.12C232.8 325.24 232.81 325.44 233 325.57L238.58 328.79C238.7 328.849 238.832 328.88 238.965 328.88C239.099 328.88 239.231 328.849 239.35 328.79L244.17 326.01C244.38 325.89 244.36 325.69 244.17 325.56L238.6 322.34C238.476 322.272 238.337 322.236 238.195 322.236C238.054 322.236 237.914 322.272 237.79 322.34H237.76ZM230.7 326.41L225.88 329.19C225.68 329.31 225.69 329.51 225.88 329.64L231.46 332.86C231.58 332.919 231.712 332.95 231.845 332.95C231.979 332.95 232.111 332.919 232.23 332.86L237.05 330.08C237.26 329.96 237.24 329.76 237.05 329.63L231.47 326.41C231.355 326.356 231.228 326.327 231.1 326.327C230.972 326.327 230.846 326.356 230.73 326.41H230.7ZM244.81 318.26L240 321.05C239.8 321.17 239.81 321.37 240 321.49L245.58 324.72C245.7 324.779 245.832 324.81 245.965 324.81C246.099 324.81 246.231 324.779 246.35 324.72L251.17 321.93C251.38 321.82 251.37 321.62 251.17 321.49L245.59 318.27C245.474 318.212 245.346 318.182 245.216 318.18C245.087 318.178 244.958 318.206 244.84 318.26H244.81ZM216.6 334.55L211.78 337.33C211.57 337.45 211.58 337.65 211.78 337.78L217.36 341C217.48 341.059 217.612 341.09 217.745 341.09C217.879 341.09 218.011 341.059 218.13 341L222.96 338.21C223.16 338.09 223.15 337.89 222.96 337.77L217.38 334.54C217.263 334.486 217.134 334.458 217.004 334.46C216.874 334.462 216.747 334.492 216.63 334.55H216.6ZM223.65 330.48L218.83 333.26C218.62 333.38 218.64 333.58 218.83 333.71L224.41 336.93C224.528 336.991 224.658 337.023 224.79 337.023C224.923 337.023 225.053 336.991 225.17 336.93L230 334.15C230.2 334.03 230.19 333.83 230 333.7L224.42 330.48C224.305 330.426 224.178 330.397 224.05 330.397C223.922 330.397 223.796 330.426 223.68 330.48H223.65ZM218.51 359.22L223.33 356.43C223.53 356.31 223.52 356.11 223.33 355.99L217.75 352.77C217.631 352.709 217.499 352.677 217.365 352.677C217.231 352.677 217.099 352.709 216.98 352.77L212.16 355.56C211.95 355.67 211.97 355.87 212.16 356L217.74 359.22C217.863 359.287 218.001 359.321 218.14 359.321C218.28 359.321 218.418 359.287 218.54 359.22H218.51ZM177.16 355L171.58 351.78C171.461 351.719 171.329 351.687 171.195 351.687C171.061 351.687 170.929 351.719 170.81 351.78L166 354.59C165.8 354.71 165.81 354.9 166 355.03L171.58 358.25C171.699 358.311 171.831 358.343 171.965 358.343C172.099 358.343 172.231 358.311 172.35 358.25L177.17 355.46C177.39 355.37 177.38 355.17 177.16 355ZM187.72 358.1L182.14 354.88C182.022 354.821 181.892 354.79 181.76 354.79C181.628 354.79 181.498 354.821 181.38 354.88L174 359.19C173.8 359.31 173.81 359.51 174 359.63L179.58 362.85C179.699 362.911 179.831 362.943 179.965 362.943C180.099 362.943 180.231 362.911 180.35 362.85L187.77 358.57C188 358.47 187.94 358.27 187.72 358.14V358.1ZM168.6 348.77L163 345.59C162.881 345.529 162.749 345.497 162.615 345.497C162.481 345.497 162.349 345.529 162.23 345.59L156.31 349C156.11 349.12 156.12 349.32 156.31 349.45L161.89 352.67C162.009 352.731 162.141 352.763 162.275 352.763C162.409 352.763 162.541 352.731 162.66 352.67L168.59 349.25C168.83 349.14 168.82 348.94 168.6 348.81V348.77ZM173.15 346.14C173.269 346.201 173.401 346.233 173.535 346.233C173.669 346.233 173.801 346.201 173.92 346.14L178.74 343.35C178.95 343.24 178.94 343.04 178.74 342.91L173.16 339.69C173.041 339.629 172.909 339.597 172.775 339.597C172.641 339.597 172.509 339.629 172.39 339.69L167.56 342.48C167.36 342.6 167.37 342.8 167.56 342.92L173.15 346.14ZM197.55 361.63L192 358.45C191.881 358.391 191.749 358.36 191.615 358.36C191.482 358.36 191.35 358.391 191.23 358.45L181.95 363.81C181.75 363.93 181.76 364.13 181.95 364.25L187.53 367.48C187.65 367.539 187.782 367.57 187.915 367.57C188.049 367.57 188.181 367.539 188.3 367.48L197.58 362.12C197.78 362 197.77 361.8 197.55 361.67V361.63ZM202.18 368.16L196.6 365C196.481 364.939 196.349 364.907 196.215 364.907C196.081 364.907 195.949 364.939 195.83 365L189.89 368.43C189.69 368.55 189.7 368.75 189.89 368.88L195.47 372.1C195.59 372.159 195.722 372.19 195.855 372.19C195.989 372.19 196.121 372.159 196.24 372.1L202.18 368.67C202.41 368.53 202.4 368.33 202.18 368.2V368.16ZM225.58 315.87C225.699 315.931 225.831 315.963 225.965 315.963C226.099 315.963 226.231 315.931 226.35 315.87L231.17 313.09C231.38 312.97 231.36 312.77 231.17 312.64L225.59 309.42C225.471 309.361 225.339 309.33 225.205 309.33C225.072 309.33 224.94 309.361 224.82 309.42L220 312.25C219.8 312.37 219.81 312.57 220 312.69L225.58 315.87ZM211.47 324.02C211.59 324.079 211.722 324.11 211.855 324.11C211.989 324.11 212.121 324.079 212.24 324.02L217.07 321.24C217.27 321.12 217.26 320.92 217.07 320.79L211.49 317.57C211.371 317.511 211.239 317.48 211.105 317.48C210.972 317.48 210.84 317.511 210.72 317.57L205.9 320.35C205.69 320.47 205.71 320.67 205.9 320.8L211.47 324.02ZM180.2 342.11C180.319 342.171 180.451 342.203 180.585 342.203C180.719 342.203 180.851 342.171 180.97 342.11L185.79 339.32C186 339.2 185.99 339.01 185.79 338.88L180.21 335.66C180.091 335.599 179.959 335.567 179.825 335.567C179.691 335.567 179.559 335.599 179.44 335.66L174.61 338.45C174.41 338.57 174.42 338.76 174.61 338.89L180.2 342.11ZM218.53 320C218.648 320.059 218.778 320.09 218.91 320.09C219.042 320.09 219.172 320.059 219.29 320L224.12 317.22C224.32 317.1 224.31 316.9 224.12 316.77L218.54 313.55C218.421 313.489 218.289 313.457 218.155 313.457C218.021 313.457 217.889 313.489 217.77 313.55L212.95 316.33C212.74 316.45 212.76 316.65 212.95 316.78L218.53 320ZM204.42 328.14C204.539 328.201 204.671 328.233 204.805 328.233C204.939 328.233 205.071 328.201 205.19 328.14L210.02 325.36C210.22 325.24 210.21 325.04 210.02 324.91L204.44 321.69C204.321 321.631 204.189 321.6 204.055 321.6C203.922 321.6 203.79 321.631 203.67 321.69L198.85 324.47C198.64 324.59 198.65 324.79 198.85 324.92L204.42 328.14ZM206.05 368.73C205.931 368.671 205.799 368.64 205.665 368.64C205.532 368.64 205.4 368.671 205.28 368.73L197.86 373C197.66 373.12 197.67 373.32 197.86 373.45L203.44 376.67C203.559 376.731 203.691 376.763 203.825 376.763C203.959 376.763 204.091 376.731 204.21 376.67L211.63 372.39C211.84 372.27 211.82 372.07 211.63 371.94L206.05 368.73ZM194.3 334C194.42 334.059 194.552 334.09 194.685 334.09C194.819 334.09 194.951 334.059 195.07 334L199.9 331.21C200.1 331.09 200.09 330.89 199.9 330.77L194.32 327.55C194.201 327.489 194.069 327.457 193.935 327.457C193.801 327.457 193.669 327.489 193.55 327.55L188.73 330.34C188.52 330.45 188.53 330.65 188.73 330.78L194.3 334ZM187.25 338C187.369 338.061 187.501 338.093 187.635 338.093C187.769 338.093 187.901 338.061 188.02 338L192.85 335.21C193.05 335.09 193.04 334.89 192.85 334.77L187.27 331.55C187.151 331.489 187.019 331.457 186.885 331.457C186.751 331.457 186.619 331.489 186.5 331.55L181.68 334.34C181.47 334.45 181.48 334.65 181.68 334.78L187.25 338ZM336.69 293.3C336.571 293.239 336.439 293.207 336.305 293.207C336.171 293.207 336.039 293.239 335.92 293.3L324 300.14C323.8 300.26 323.81 300.46 324 300.59L329.58 303.81C329.7 303.869 329.832 303.9 329.965 303.9C330.099 303.9 330.231 303.869 330.35 303.81L342.29 297C342.5 296.88 342.49 296.68 342.29 296.55L336.69 293.3ZM321.1 302.3C320.981 302.239 320.849 302.207 320.715 302.207C320.581 302.207 320.449 302.239 320.33 302.3L315.51 305.08C315.3 305.2 315.31 305.4 315.51 305.53L321.09 308.75C321.21 308.809 321.342 308.84 321.475 308.84C321.609 308.84 321.741 308.809 321.86 308.75L326.69 305.97C326.89 305.85 326.88 305.65 326.69 305.52L321.1 302.3ZM225.59 355.15L230.41 352.36C230.62 352.24 230.6 352.04 230.41 351.92L224.84 348.69C224.721 348.631 224.589 348.6 224.455 348.6C224.322 348.6 224.19 348.631 224.07 348.69L219.24 351.47C219.04 351.59 219.05 351.79 219.24 351.92L224.82 355.14C224.939 355.201 225.071 355.233 225.204 355.235C225.338 355.237 225.47 355.208 225.59 355.15ZM307 310.44C306.881 310.381 306.749 310.35 306.615 310.35C306.482 310.35 306.35 310.381 306.23 310.44L301.4 313.22C301.2 313.34 301.21 313.54 301.4 313.67L306.98 316.89C307.099 316.951 307.231 316.983 307.365 316.983C307.499 316.983 307.631 316.951 307.75 316.89L312.57 314.11C312.78 313.99 312.77 313.79 312.57 313.66L307 310.44ZM343.74 289.23C343.621 289.171 343.489 289.14 343.355 289.14C343.222 289.14 343.09 289.171 342.97 289.23L338.15 292C337.94 292.12 337.95 292.32 338.15 292.44L343.73 295.67C343.85 295.729 343.982 295.76 344.115 295.76C344.249 295.76 344.381 295.729 344.5 295.67L349.33 292.89C349.53 292.77 349.52 292.57 349.33 292.44L343.74 289.23ZM356.37 288.38L342.82 280.56C342.701 280.499 342.569 280.467 342.435 280.467C342.301 280.467 342.169 280.499 342.05 280.56L337.23 283.35C337.02 283.47 337.03 283.67 337.23 283.79L350.78 291.61C350.899 291.671 351.031 291.703 351.165 291.703C351.299 291.703 351.431 291.671 351.55 291.61L356.38 288.82C356.6 288.71 356.59 288.51 356.37 288.38ZM280.65 325.66C280.531 325.599 280.399 325.567 280.265 325.567C280.131 325.567 279.999 325.599 279.88 325.66L273.94 329.09C273.74 329.21 273.75 329.41 273.94 329.53L279.52 332.75C279.639 332.811 279.771 332.843 279.905 332.843C280.039 332.843 280.171 332.811 280.29 332.75L286.23 329.32C286.43 329.2 286.42 329 286.23 328.88L280.65 325.66ZM298.46 315.37C298.341 315.309 298.209 315.277 298.075 315.277C297.941 315.277 297.809 315.309 297.69 315.37L290.27 319.65C290.07 319.77 290.08 319.97 290.27 320.09L295.85 323.32C295.97 323.379 296.102 323.41 296.235 323.41C296.369 323.41 296.501 323.379 296.62 323.32L304.04 319.04C304.24 318.92 304.23 318.72 304.04 318.59L298.46 315.37ZM264.32 335.08C264.201 335.021 264.069 334.99 263.935 334.99C263.802 334.99 263.67 335.021 263.55 335.08L223.84 358C223.64 358.12 223.65 358.32 223.84 358.45L229.42 361.67C229.54 361.729 229.672 361.76 229.805 361.76C229.939 361.76 230.071 361.729 230.19 361.67L269.9 338.74C270.1 338.62 270.09 338.42 269.9 338.29L264.32 335.08ZM222.38 359.3C222.261 359.239 222.129 359.207 221.995 359.207C221.861 359.207 221.729 359.239 221.61 359.3L215.68 362.73C215.47 362.85 215.48 363.05 215.68 363.17L221.26 366.39C221.379 366.451 221.511 366.483 221.645 366.483C221.779 366.483 221.911 366.451 222.03 366.39L228 363C228.2 362.88 228.19 362.68 228 362.56L222.38 359.3ZM272.48 330.37C272.361 330.311 272.229 330.28 272.095 330.28C271.962 330.28 271.83 330.311 271.71 330.37L265.78 333.8C265.57 333.92 265.58 334.12 265.78 334.25L271.36 337.47C271.48 337.529 271.612 337.56 271.745 337.56C271.879 337.56 272.011 337.529 272.13 337.47L278.07 334.04C278.28 333.93 278.26 333.73 278.07 333.6L272.48 330.37ZM214.22 364C214.101 363.941 213.969 363.91 213.835 363.91C213.702 363.91 213.57 363.941 213.45 364L207.51 367.43C207.31 367.55 207.32 367.75 207.51 367.88L213.09 371.1C213.21 371.159 213.342 371.19 213.475 371.19C213.609 371.19 213.741 371.159 213.86 371.1L219.79 367.68C220 367.56 219.99 367.36 219.79 367.23L214.22 364ZM288.81 320.93C288.691 320.871 288.559 320.84 288.425 320.84C288.292 320.84 288.16 320.871 288.04 320.93L282.11 324.35C281.9 324.47 281.91 324.67 282.11 324.8L287.69 328.02C287.81 328.079 287.942 328.11 288.075 328.11C288.209 328.11 288.341 328.079 288.46 328.02L294.4 324.59C294.61 324.47 294.59 324.27 294.4 324.14L288.81 320.93ZM314.05 306.36C313.931 306.299 313.799 306.267 313.665 306.267C313.531 306.267 313.399 306.299 313.28 306.36L308.46 309.14C308.25 309.26 308.26 309.46 308.46 309.59L314.04 312.81C314.16 312.869 314.292 312.9 314.425 312.9C314.559 312.9 314.691 312.869 314.81 312.81L319.64 310.03C319.84 309.91 319.83 309.71 319.64 309.58L314.05 306.36ZM329.5 295.14L334.32 292.36C334.53 292.24 334.52 292.04 334.32 291.91L328.74 288.69C328.621 288.631 328.489 288.6 328.355 288.6C328.222 288.6 328.09 288.631 327.97 288.69L323.14 291.48C322.94 291.6 322.95 291.8 323.14 291.92L328.72 295.15C328.841 295.211 328.975 295.242 329.11 295.242C329.246 295.242 329.379 295.211 329.5 295.15V295.14ZM298 295L302.83 292.21C303.03 292.09 303.02 291.89 302.83 291.77L297.25 288.55C297.131 288.489 296.999 288.457 296.865 288.457C296.731 288.457 296.599 288.489 296.48 288.55L291.66 291.34C291.45 291.46 291.47 291.65 291.66 291.78L297.23 295C297.349 295.061 297.481 295.093 297.615 295.093C297.749 295.093 297.881 295.061 298 295ZM282 322.63L296.1 314.49C296.3 314.37 296.29 314.17 296.1 314.04L290.52 310.82C290.401 310.761 290.269 310.73 290.135 310.73C290.002 310.73 289.87 310.761 289.75 310.82L275.65 318.97C275.45 319.08 275.46 319.28 275.65 319.41L281.23 322.63C281.353 322.684 281.487 322.707 281.621 322.699C281.755 322.69 281.885 322.649 282 322.58V322.63ZM321.68 299.26C321.8 299.319 321.932 299.35 322.065 299.35C322.199 299.35 322.331 299.319 322.45 299.26L327.27 296.48C327.48 296.36 327.47 296.16 327.27 296.03L321.69 292.81C321.571 292.749 321.439 292.717 321.305 292.717C321.171 292.717 321.039 292.749 320.92 292.81L316.09 295.59C315.89 295.71 315.9 295.91 316.09 296.04L321.68 299.26ZM314.48 294.67L319.3 291.89C319.51 291.77 319.5 291.57 319.3 291.44L313.72 288.22C313.601 288.161 313.469 288.13 313.335 288.13C313.202 288.13 313.07 288.161 312.95 288.22L308.12 291.01C307.92 291.13 307.93 291.33 308.12 291.45L313.7 294.68C313.826 294.732 313.962 294.753 314.097 294.743C314.233 294.732 314.364 294.69 314.48 294.62V294.67ZM274.95 326.67L279.77 323.88C279.98 323.76 279.96 323.57 279.77 323.44L274.19 320.22C274.071 320.159 273.939 320.127 273.805 320.127C273.671 320.127 273.539 320.159 273.42 320.22L268.57 323C268.36 323.12 268.38 323.31 268.57 323.44L274.15 326.66C274.28 326.734 274.427 326.772 274.577 326.77C274.726 326.769 274.872 326.727 275 326.65L274.95 326.67ZM306.09 308.23C306.21 308.289 306.342 308.32 306.475 308.32C306.609 308.32 306.741 308.289 306.86 308.23L311.69 305.45C311.89 305.33 311.88 305.13 311.69 305L306.11 301.78C305.991 301.721 305.859 301.69 305.725 301.69C305.592 301.69 305.46 301.721 305.34 301.78L300.52 304.57C300.31 304.69 300.32 304.89 300.52 305.01L306.09 308.23ZM239.69 347L244.51 344.22C244.72 344.1 244.71 343.9 244.51 343.77L238.93 340.55C238.811 340.491 238.679 340.46 238.545 340.46C238.412 340.46 238.28 340.491 238.16 340.55L233.33 343.33C233.13 343.45 233.14 343.65 233.33 343.78L238.91 347C239.031 347.061 239.165 347.092 239.3 347.092C239.436 347.092 239.569 347.061 239.69 347ZM246.74 342.93L251.57 340.15C251.77 340.03 251.76 339.83 251.57 339.7L246 336.48C245.881 336.419 245.749 336.387 245.615 336.387C245.481 336.387 245.349 336.419 245.23 336.48L240.4 339.26C240.2 339.38 240.21 339.58 240.4 339.71L245.98 342.93C246.099 342.987 246.229 343.017 246.36 343.017C246.492 343.017 246.622 342.987 246.74 342.93ZM232.64 351.07L237.46 348.29C237.67 348.17 237.66 347.97 237.46 347.84L231.89 344.62C231.771 344.561 231.639 344.53 231.505 344.53C231.372 344.53 231.24 344.561 231.12 344.62L226.29 347.4C226.09 347.52 226.1 347.72 226.29 347.85L231.87 351.07C231.989 351.131 232.121 351.163 232.255 351.163C232.389 351.163 232.521 351.131 232.64 351.07ZM260.84 334.79L265.67 332.01C265.87 331.89 265.86 331.69 265.67 331.56L260.09 328.34C259.971 328.281 259.839 328.25 259.705 328.25C259.572 328.25 259.44 328.281 259.32 328.34L254.5 331.13C254.29 331.25 254.3 331.45 254.5 331.57L260.08 334.79C260.198 334.85 260.328 334.881 260.46 334.881C260.592 334.881 260.723 334.85 260.84 334.79ZM253.84 338.86L258.67 336.08C258.87 335.96 258.86 335.76 258.67 335.63L253 332.41C252.881 332.349 252.749 332.317 252.615 332.317C252.481 332.317 252.349 332.349 252.23 332.41L247.41 335.19C247.2 335.31 247.21 335.51 247.41 335.63L252.99 338.86C253.114 338.924 253.251 338.957 253.39 338.957C253.53 338.957 253.667 338.924 253.79 338.86H253.84ZM267.94 330.72L272.77 327.93C272.97 327.82 272.96 327.62 272.77 327.49L267.19 324.27C267.071 324.209 266.939 324.177 266.805 324.177C266.671 324.177 266.539 324.209 266.42 324.27L261.52 327C261.31 327.12 261.33 327.32 261.52 327.44L267.09 330.66C267.208 330.736 267.343 330.781 267.483 330.792C267.622 330.802 267.763 330.778 267.89 330.72H267.94ZM300.2 270.49C300.319 270.551 300.451 270.583 300.585 270.583C300.719 270.583 300.851 270.551 300.97 270.49L305.8 267.7C306 267.59 305.99 267.39 305.8 267.26L304.32 266.4C304.201 266.341 304.069 266.31 303.935 266.31C303.802 266.31 303.67 266.341 303.55 266.4L298.72 269.18C298.52 269.3 298.53 269.5 298.72 269.63L300.2 270.49ZM265.51 292.89C265.629 292.951 265.761 292.983 265.895 292.983C266.029 292.983 266.161 292.951 266.28 292.89L271.1 290.11C271.31 289.99 271.3 289.79 271.1 289.66L265.52 286.44C265.401 286.381 265.269 286.35 265.135 286.35C265.002 286.35 264.87 286.381 264.75 286.44L259.92 289.22C259.72 289.34 259.73 289.54 259.92 289.67L265.51 292.89ZM279.61 284.75C279.73 284.809 279.862 284.84 279.995 284.84C280.129 284.84 280.261 284.809 280.38 284.75L285.21 281.97C285.41 281.85 285.4 281.65 285.21 281.52L279.63 278.3C279.511 278.239 279.379 278.207 279.245 278.207C279.111 278.207 278.979 278.239 278.86 278.3L274 281.08C273.79 281.2 273.8 281.4 274 281.53L279.61 284.75ZM256.9 297.86C257.02 297.919 257.152 297.95 257.285 297.95C257.419 297.95 257.551 297.919 257.67 297.86L262.49 295.07C262.7 294.95 262.69 294.75 262.49 294.63L256.91 291.4C256.791 291.341 256.659 291.31 256.525 291.31C256.392 291.31 256.26 291.341 256.14 291.4L251.31 294.18C251.11 294.3 251.12 294.5 251.31 294.63L256.9 297.86ZM272.56 288.86C272.68 288.919 272.812 288.95 272.945 288.95C273.079 288.95 273.211 288.919 273.33 288.86L278.16 286.08C278.36 285.96 278.35 285.76 278.16 285.63L272.58 282.41C272.461 282.351 272.329 282.32 272.195 282.32C272.062 282.32 271.93 282.351 271.81 282.41L266.99 285.19C266.78 285.31 266.79 285.51 266.99 285.64L272.56 288.86ZM242.75 306C242.869 306.061 243.001 306.093 243.135 306.093C243.269 306.093 243.401 306.061 243.52 306L248.34 303.21C248.55 303.09 248.53 302.89 248.34 302.77L242.77 299.55C242.651 299.489 242.519 299.457 242.385 299.457C242.251 299.457 242.119 299.489 242 299.55L237.17 302.34C236.97 302.45 236.98 302.65 237.17 302.78L242.75 306ZM249.8 301.93C249.92 301.989 250.052 302.02 250.185 302.02C250.319 302.02 250.451 301.989 250.57 301.93L255.39 299.14C255.6 299.02 255.59 298.82 255.39 298.7L249.82 295.48C249.701 295.419 249.569 295.387 249.435 295.387C249.301 295.387 249.169 295.419 249.05 295.48L244.22 298.27C244.02 298.38 244.03 298.58 244.22 298.71L249.8 301.93ZM286.05 278.64C286.17 278.699 286.302 278.73 286.435 278.73C286.569 278.73 286.701 278.699 286.82 278.64L291.65 275.86C291.85 275.74 291.84 275.54 291.65 275.41L290.16 274.55C290.041 274.491 289.909 274.46 289.775 274.46C289.642 274.46 289.51 274.491 289.39 274.55L284.57 277.33C284.36 277.45 284.38 277.65 284.57 277.78L286.05 278.64ZM307.21 266.42C307.328 266.481 307.458 266.513 307.59 266.513C307.723 266.513 307.853 266.481 307.97 266.42L312.8 263.63C313 263.51 312.99 263.32 312.8 263.19L311.32 262.33C311.201 262.269 311.069 262.237 310.935 262.237C310.801 262.237 310.669 262.269 310.55 262.33L305.72 265.11C305.52 265.23 305.53 265.43 305.72 265.56L307.21 266.42ZM318.92 273.19C319.04 273.249 319.172 273.28 319.305 273.28C319.439 273.28 319.571 273.249 319.69 273.19L324.52 270.4C324.72 270.28 324.71 270.08 324.52 269.96L318.94 266.73C318.821 266.671 318.689 266.64 318.555 266.64C318.422 266.64 318.29 266.671 318.17 266.73L313.35 269.51C313.14 269.63 313.16 269.83 313.35 269.96L318.92 273.19ZM336.55 291.08L341.38 288.29C341.58 288.18 341.57 287.98 341.38 287.85L335.8 284.63C335.681 284.571 335.549 284.54 335.415 284.54C335.282 284.54 335.15 284.571 335.03 284.63L330.21 287.42C330 287.54 330.01 287.74 330.21 287.86L335.79 291.08C335.908 291.14 336.038 291.171 336.17 291.171C336.302 291.171 336.433 291.14 336.55 291.08ZM293.1 274.57C293.22 274.629 293.352 274.66 293.485 274.66C293.619 274.66 293.751 274.629 293.87 274.57L298.7 271.79C298.9 271.67 298.89 271.47 298.7 271.34L297.21 270.48C297.091 270.421 296.959 270.39 296.825 270.39C296.692 270.39 296.56 270.421 296.44 270.48L291.62 273.26C291.42 273.38 291.43 273.58 291.62 273.71L293.1 274.57ZM235.7 310.07C235.819 310.131 235.951 310.163 236.085 310.163C236.219 310.163 236.351 310.131 236.47 310.07L241.29 307.28C241.49 307.16 241.48 306.97 241.29 306.84L235.71 303.62C235.591 303.559 235.459 303.527 235.325 303.527C235.191 303.527 235.059 303.559 234.94 303.62L230.12 306.41C229.92 306.53 229.93 306.72 230.12 306.85L235.7 310.07Z" fill="#455A64"/>
<path d="M264.369 353.9L317.169 323.41L349.669 342.17L296.859 372.66L264.369 353.9Z" fill="#263238"/>
<path d="M147 200.26L304.36 109.41C307.43 107.63 309.95 109.09 309.95 112.64V234.51C309.9 235.411 309.638 236.288 309.187 237.07C308.735 237.852 308.106 238.516 307.35 239.01L146 332.17C144.57 332.99 143.4 332.32 143.4 330.67V206.49C143.472 205.243 143.835 204.029 144.46 202.947C145.086 201.866 145.955 200.945 147 200.26Z" fill="#F5F5F5"/>
<path d="M310 115.56V112.64C310 109.09 307.48 107.64 304.41 109.41L147 200.26C145.955 200.945 145.086 201.866 144.46 202.947C143.835 204.029 143.472 205.243 143.4 206.49V211.72L310 115.56Z" fill="#067BD0"/>
<path d="M286.52 122.21C285.958 122.576 285.49 123.069 285.155 123.649C284.82 124.229 284.626 124.881 284.59 125.55C284.59 126.78 285.45 127.28 286.52 126.66C287.08 126.295 287.545 125.804 287.879 125.225C288.213 124.646 288.405 123.997 288.44 123.33C288.44 122.1 287.58 121.6 286.52 122.21Z" fill="white"/>
<path d="M294.16 117.8C293.6 118.167 293.135 118.66 292.801 119.24C292.468 119.821 292.275 120.471 292.24 121.14C292.24 122.37 293.1 122.86 294.16 122.25C294.722 121.884 295.19 121.391 295.525 120.811C295.86 120.231 296.054 119.579 296.09 118.91C296.09 117.68 295.23 117.18 294.16 117.8Z" fill="white"/>
<path d="M301.811 113.38C301.251 113.747 300.784 114.241 300.449 114.821C300.114 115.401 299.919 116.051 299.881 116.72C299.881 117.95 300.751 118.45 301.811 117.83C302.372 117.466 302.839 116.975 303.174 116.396C303.51 115.817 303.704 115.168 303.741 114.5C303.741 113.27 302.871 112.77 301.811 113.38Z" fill="white"/>
<path d="M189 222.656V244.796C189 246.456 190.17 247.126 191.6 246.296L336.7 162.526C337.456 162.032 338.085 161.368 338.536 160.586C338.988 159.804 339.25 158.927 339.3 158.026V135.856C339.3 134.196 338.13 133.526 336.7 134.356L191.6 218.126C190.841 218.624 190.21 219.293 189.758 220.08C189.306 220.867 189.047 221.75 189 222.656Z" fill="#E6E6E6"/>
<path d="M191.6 218.126L217.44 203.216V231.356L191.6 246.266C190.17 247.096 189 246.426 189 244.766V222.656C189.047 221.75 189.306 220.867 189.758 220.08C190.21 219.293 190.841 218.623 191.6 218.126Z" fill="#067BD0"/>
<path d="M208.889 215.496C207.259 214.556 205.199 214.706 203.089 215.926C201.084 217.211 199.416 218.957 198.224 221.019C197.032 223.08 196.352 225.397 196.239 227.776C196.169 229.318 196.655 230.833 197.609 232.046L194.829 236.806C194.648 237.147 194.604 237.544 194.706 237.915C194.809 238.287 195.049 238.606 195.379 238.806C195.608 238.935 195.866 239.004 196.129 239.006C196.393 239.006 196.651 238.937 196.88 238.805C197.108 238.674 197.297 238.484 197.429 238.256L200.179 233.496C200.476 233.552 200.777 233.582 201.079 233.586C202.307 233.564 203.507 233.219 204.559 232.586C206.561 231.298 208.226 229.551 209.415 227.49C210.605 225.429 211.285 223.113 211.399 220.736C211.429 218.306 210.529 216.446 208.889 215.496ZM203.089 229.996C202.738 230.374 202.269 230.622 201.759 230.698C201.248 230.775 200.727 230.677 200.28 230.419C199.833 230.161 199.487 229.759 199.298 229.279C199.109 228.799 199.088 228.269 199.239 227.776C199.356 225.926 199.899 224.128 200.828 222.523C201.756 220.918 203.043 219.55 204.589 218.526C205.189 218.144 205.879 217.927 206.589 217.896C206.882 217.885 207.173 217.954 207.429 218.096C207.805 218.418 208.094 218.829 208.269 219.293C208.444 219.756 208.499 220.256 208.429 220.746C208.314 222.596 207.771 224.393 206.845 225.998C205.919 227.603 204.633 228.971 203.089 229.996Z" fill="white"/>
</svg>
